<?xml version="1.0" encoding="utf-8"?>
<svg id="b-comment" width="54px" height="54px" viewBox="0 0 61 52" xmlns="http://www.w3.org/2000/svg" xmlns:bx="https://boxy-svg.com">
  <path id="Path_14169" data-name="Path 14169" d="M 27.312 18 C 23.274 18 20 20.77 20 24.188 C 20.008 25.377 20.403 26.531 21.126 27.476 L 21.126 31.5 L 24.161 29.766 C 25.163 30.169 26.232 30.376 27.312 30.374 C 31.35 30.374 34.623 27.606 34.623 24.188 C 34.623 20.77 31.351 18 27.312 18 Z" fill="#bcbcbc" style="" bx:origin="0.635829 1.194662"/>
  <path id="Path_14170" data-name="Path 14170" d="M 38 28.687 C 37.977 27.566 37.513 26.499 36.708 25.719 C 35.89 29.642 31.992 32.624 27.312 32.624 C 27.197 32.624 27.086 32.605 26.969 32.601 C 28.264 33.37 29.744 33.767 31.25 33.75 C 31.742 33.749 32.234 33.708 32.72 33.627 L 36.873 36 L 36.873 31.5 L 36.861 31.5 C 37.576 30.738 37.984 29.734 38 28.687 Z" fill="#bcbcbc" style="" bx:origin="0.211147 0.817884"/>
</svg>