<svg xmlns="http://www.w3.org/2000/svg" xmlns:xlink="http://www.w3.org/1999/xlink" width="1440" height="249" viewBox="0 0 1440 249">
  <defs>
    <clipPath id="clip-path">
      <rect id="Rectangle_3422" data-name="Rectangle 3422" width="1440" height="249" rx="20" transform="translate(0 -29.757)" fill="#f9f9f9" opacity="0.89"/>
    </clipPath>
    <clipPath id="clip-path-2">
      <path id="Path_14257" data-name="Path 14257" d="M255.224,428.885l25.742-11.311a2.176,2.176,0,0,0,.893.388v22.625Zm-56.772.219,27.136-11.922v23.843l-27.136,11.922ZM311,429.1l27.136-11.922v23.839L311,452.939ZM1.523,441.018V417.174l25.748,11.314a1.162,1.162,0,0,0-.076.389,1.631,1.631,0,0,0,1.464,1.439v22.623Zm28.136-10.7a1.631,1.631,0,0,0,1.462-1.439,1.146,1.146,0,0,0-.076-.39l25.749-11.313v23.844L29.659,452.94Zm225.064-25.5,25.749,11.314a1.158,1.158,0,0,0-.075.389,1.174,1.174,0,0,0,.075.39l-25.749,11.313Zm84.409,11.922,27.136-11.922v23.843l-27.136,11.922Zm-197,11.916V404.812l27.135,11.923v23.843ZM226.588,416.3V392.458l27.136,11.923v23.844Zm28.636-12.142,26.635-11.7v22.626a2.18,2.18,0,0,0-.893.387Zm29.024,12.75a1.164,1.164,0,0,0,.075-.388,1.631,1.631,0,0,0-1.464-1.439V392.458L310,404.381v23.843ZM311,404.381l27.136-11.922V416.3L311,428.219Zm56.272-.441V380.1L394.4,392.018v23.066a2.17,2.17,0,0,0-.891.387ZM1.478,392.011l27.137-11.923v23.846L1.478,415.855ZM114,392.955a1.631,1.631,0,0,0,1.463-1.438,1.292,1.292,0,0,0-.018-.14l25.691-11.289v23.846L114,415.855ZM227.088,391.8l12.327-5.416,14.808-6.507L281.359,391.8l-12.326,5.417-14.809,6.506Zm-56.773-.222V367.735l27.137,11.922v23.063a2.162,2.162,0,0,0-.893.387ZM29.659,379.656l27.135-11.922v23.843L29.659,403.5Zm28.135,11.921V367.734l27.115,11.913v.448l.02-.009V403.5Zm84.385-11.921,27.136-11.922v23.843L142.179,403.5Zm84.409-12.36,27.136-11.922v23.844L226.588,391.14Zm28.135,11.922V355.374l25.749,11.313a1.164,1.164,0,0,0-.075.388,1.63,1.63,0,0,0,1.462,1.439V391.14ZM85.909,354.935l26.242-11.529a2.189,2.189,0,0,0,.893.387v23.063L85.909,378.777Zm-56.25,0,27.135-11.922v23.843L29.659,378.777Zm112.52,0,27.136-11.922v23.843l-27.136,11.922Zm28.136,11.921V343.011l27.137,11.923v23.843Zm84.909-12.142,26.635-11.7v22.625a2.154,2.154,0,0,0-.893.388Zm27.635,10.922V342.574L310,330.651v23.843l-26.243,11.53a2.158,2.158,0,0,0-.894-.387M170.816,342.352l27.135-11.921.5.221v0l26.636,11.7-27.136,11.923Zm82.908,11.7-26.636-11.7,27.136-11.922,27.136,11.922-26.637,11.7-.5.22ZM142.179,330.213l26.243-11.531a2.18,2.18,0,0,0,.893.388v23.062l-.5.219h0l-26.638,11.7Zm28.136-11.142a2.177,2.177,0,0,0,.9-.388l25.741,11.309-26.636,11.7ZM29.659,331.431a1.631,1.631,0,0,0,1.462-1.439,1.161,1.161,0,0,0-.075-.389L56.794,318.29v23.843L29.659,354.055ZM171.7,318.02a1.141,1.141,0,0,0,.076-.388,1.629,1.629,0,0,0-1.464-1.439V293.566l27.137,11.922v23.844Zm-29.524-12.97V281.985a2.167,2.167,0,0,0,.894-.387l26.242,11.53v23.065a2.174,2.174,0,0,0-.892.387Zm-140.7-11.92,27.137-11.922V305.05L1.478,316.972Zm56.294,0,27.137-11.922v23.843L57.772,316.97Zm28.137,11.921V281.205l13.567,5.961,13.568,5.961V316.97Zm84.907-12.141,13.309-5.848,13.827-6.074,27.136,11.922-27.136,11.922Zm-71.34-6.621-13.567-5.96V256.484l13.567,5.96,13.568,5.962v23.843Zm14.568-17.881,15.507-6.812,11.628-5.109v22.623a1.631,1.631,0,0,0-1.462,1.438,1.15,1.15,0,0,0,.076.39l-25.749,11.312Zm56.271,0,27.137-11.922v23.845l-27.137,11.922Zm-112.543-.438V244.9a2.17,2.17,0,0,0,.893-.388l26.244,11.531v23.843Zm-56.272,0V244.122l27.136,11.923v23.843Zm97.976-6.4L85.909,255.6V231.761l27.135,11.922v23.843Zm14.568-17.882,27.135-11.922V255.6l-8.876,3.9-18.259,8.021ZM2,243.463l12.327-5.416,14.809-6.506,26.249,11.533a1.048,1.048,0,0,0,0,.778L29.137,255.386Zm-.5-24.5,27.136-11.922v23.844L1.5,242.8Zm28.136,11.922V207.037l27.135,11.922v23.065a2.184,2.184,0,0,0-.892.387ZM85.909,206.6l27.135-11.922v23.844L85.909,230.44Zm56.27,0,27.136-11.922v23.844L142.179,230.44Zm-113.543-.877L2,194.016l27.136-11.923,27.136,11.923-26.636,11.7-.5.219Zm1-24.285V158.369a2.164,2.164,0,0,0,.893-.387l26.242,11.53v23.846Zm-2.463-24.5a1.631,1.631,0,0,0,1.463,1.439v23.065L0,194.016l28.136,12.361L.75,218.411l-.25.109v24.724l-.5.219.5.22v24.725l27.625,12.137L.727,292.58l-.249.109v25.6L29.364,305.6l.251-.109V281.2l.021.01V256.045l26.242-11.531a2.169,2.169,0,0,0,.893.387v23.5l27.636,12.14L57.021,292.578l-.25.109v24.734l-26.22,11.52a2.3,2.3,0,0,0-1.393-.442,1.777,1.777,0,0,0-1.963,1.494,1.631,1.631,0,0,0,1.464,1.439V379.19L.727,391.463l-.249.11v25.6l.045-.021v24.3l28.136,12.361v.44l.5-.22.5.219v-.438l27.885-12.252.25-.11v-25.6l-27.243,11.97a2.415,2.415,0,0,0-2.786,0L2,416.505l26.659-11.713v.025l28.634-12.581,28.636,12.581V379.646L113.794,367.4l.25-.109v-23.5a1.631,1.631,0,0,0,1.463-1.439,2.037,2.037,0,0,0-3.926,0,1.146,1.146,0,0,0,.077.39l-26.5,11.642-.249.109v24.273L57.794,366.855V317.839l27.614-12.131,28.636,12.581V293.127l26.243-11.53a2.165,2.165,0,0,0,.892.387v23.5l26.75,11.753a1.035,1.035,0,0,0,0,.778l-26.5,11.643-.251.109V379.19L115.1,390.652a2.192,2.192,0,0,0-1.6-.629,1.776,1.776,0,0,0-1.963,1.494A1.63,1.63,0,0,0,113,392.955v24.219l28.136-12.362V429.1l29.136,12.8V416.3l-27.609-12.13,27.152-11.928,26.25,11.531a1.174,1.174,0,0,0-.076.39,2.037,2.037,0,0,0,3.926,0,1.63,1.63,0,0,0-1.463-1.439V354.934l27.636-12.142,27.136,11.922-27.386,12.033-.25.109V391.58l-.5.219.5.219V416.3L197.7,428.555l-.25.109v25.6l28.886-12.691.25-.109V417.182l27.136,11.923v.438l.5-.218,28.635,12.581V417.962a2.158,2.158,0,0,0,.895-.389L310,429.1v25.156L338.132,441.9v.005l28.885-12.691.251-.109V404.819l25.749,11.314a1.146,1.146,0,0,0-.076.39,2.037,2.037,0,0,0,3.926,0,1.631,1.631,0,0,0-1.464-1.439V391.578l-29.135-12.8v25.163l-27.136,11.922V391.14L310.5,403.721l-27.637-12.142V368.514a1.63,1.63,0,0,0,1.464-1.439,1.15,1.15,0,0,0-.076-.39l26.5-11.642.25-.109v-25.6l-28.634,12.581-28.138-12.362-28.136,12.361-27.636-12.142V305.488l28.636-12.581-28.636-12.581V255.163l-28.887,12.692-.25.11v24.285l-25.748-11.313a1.171,1.171,0,0,0,.076-.39,1.631,1.631,0,0,0-1.464-1.438V231.319l27.887-12.252.249-.11v-25.6L141.43,206.046l-.251.11v24.725l-27.634,12.142L86.4,231.1l27.389-12.034.25-.11v-25.6L85.158,206.046l-.249.11v49.009l-25.75-11.313a1.141,1.141,0,0,0,.076-.389,1.629,1.629,0,0,0-1.463-1.439v-23.5L30.136,206.378l27.135-11.922.5.22v-.44l.5-.219-.5-.219V169.073L31.023,157.321a1.175,1.175,0,0,0,.077-.39,1.779,1.779,0,0,0-1.964-1.494,1.778,1.778,0,0,0-1.963,1.494M733.058,320.618V297.554l27.135-11.922v23.844L733.95,321.006a2.159,2.159,0,0,0-.892-.387m-28.136-35.866V260.908l27.135,11.922v23.844Zm.5-24.5,26.635-11.7.5-.219.5.219,26.636,11.7-27.136,11.922Zm-.5-24.944V212.241a2.169,2.169,0,0,0,.892-.387l26.243,11.531v23.843Zm28.136-11.922,27.135-11.923v23.845l-27.135,11.922ZM648.65,211.023,675.785,199.1v23.844L648.65,234.867Zm28.135,11.922V199.1l13.569,5.962,12.181,5.351a1.135,1.135,0,0,0-.077.389,1.632,1.632,0,0,0,1.464,1.438v22.625Zm29.523-11.753a1.022,1.022,0,0,0,0-.778l26.249-11.533L759.693,210.8l-12.327,5.416-14.808,6.506ZM648.65,186.3l27.135-11.922v23.842L648.65,210.144Zm41.7,17.882-13.569-5.961V174.38l13.569,5.961,13.568,5.961v23.062a2.158,2.158,0,0,0-.894.388Zm42.7-5.963V174.375L760.193,186.3v23.844Zm-42.7-18.758L676.785,173.5V149.657l27.137,11.923v23.842ZM621.9,174.107a1.185,1.185,0,0,0,.075-.388,1.63,1.63,0,0,0-1.463-1.438V149.654l27.136,11.922v23.843Zm-29.524-12.531,27.136-11.922V172.28a1.63,1.63,0,0,0-1.463,1.438,1.16,1.16,0,0,0,.075.388L592.378,185.42Zm140.7-12.361,27.136-11.922v23.843L733.08,173.057Zm-84.43-12.8V113.35a2.178,2.178,0,0,0,.89-.384l26.245,11.53v23.843Zm56.25-24.285,27.135-11.922v22.624a1.63,1.63,0,0,0-1.463,1.438,1.147,1.147,0,0,0,.077.39L704.9,135.974Zm-56.25-1.659V87.41l27.135-11.922V99.331L649.543,110.86a2.179,2.179,0,0,0-.893-.387M704.9,87.41l27.135-11.922V99.331L704.9,111.253ZM676.764,50.766,703.9,62.688V86.53L676.785,74.618v-.449l-.021.01ZM704.9,62.688l27.135-11.922V74.608L704.9,86.53Zm28.18-12.357,27.136-11.922V62.253L733.08,74.176Zm-.045-.859v-.024L704.4,62.028,675.764,49.448V74.619L647.9,86.86l-.249.109v23.5a1.439,1.439,0,1,0,0,2.877v23.507l28.135,12.362V173.5L648.65,185.423V161.136l-28.136-12.361v-.441l-.5.22-.5-.219v.438l-27.886,12.253-.25.11v25.6l27.242-11.969a2.415,2.415,0,0,0,2.789,0L647.65,186.3v49.887L676.285,223.6l27.637,12.142,27.636,12.142-27.136,11.922-.5-.22v.44l-.5.22.5.22v24.723l28.135,12.362v23.065a1.632,1.632,0,0,0-1.462,1.439,2.037,2.037,0,0,0,3.926,0,1.15,1.15,0,0,0-.077-.39l26.5-11.642.249-.11v-25.6l-28.135,12.362V272.831l28.635-12.581-28.135-12.362,27.386-12.033.249-.109V211.022l.5-.219-.5-.22V185.859l-27.624-12.137,27.4-12.037.25-.109v-25.6L732.33,148.665l-.25.109v24.292l-.023-.009v25.164l-26.242,11.53a2.17,2.17,0,0,0-.893-.387V161.14l-28.137-12.362V124.056L650.035,112.3a1.137,1.137,0,0,0,.078-.393,1.174,1.174,0,0,0-.076-.39l26.5-11.642.25-.109V75.5L703.9,87.41v49.884l27.242-11.97a2.3,2.3,0,0,0,1.394.443,1.777,1.777,0,0,0,1.963-1.494,1.631,1.631,0,0,0-1.464-1.439V75.075L760.966,62.8l.25-.109v-25.6ZM592.378,135.2V112.132l.5-.219h0l26.636-11.7v23.843l-26.243,11.529a2.172,2.172,0,0,0-.893-.387M480.334,111.913l26.636-11.7.5-.22.5.22,26.635,11.7L507.47,123.835Zm56.271,0L563.741,99.99l27.137,11.922-27.137,11.922ZM451.7,99.771l26.244-11.53a2.173,2.173,0,0,0,.893.387v23.063L451.7,123.614Zm28.137-11.142a2.168,2.168,0,0,0,.894-.388L506.47,99.551l-26.636,11.7Zm-168.816,23.06V88.626a2.169,2.169,0,0,0,.893-.387l12.675,5.568,13.568,5.961v23.843Zm84.408-11.916,27.136-11.922v22.626a1.63,1.63,0,0,0-1.464,1.438,1.176,1.176,0,0,0,.077.39l-25.749,11.313Zm168.816-.442V75.488L591.378,87.41v23.844ZM592.378,87.41l27.136-11.922V99.331l-27.136,11.922ZM339.154,99.327V75.485L366.29,87.406V111.25ZM481.221,87.578a1.142,1.142,0,0,0,.076-.389,1.631,1.631,0,0,0-1.463-1.439V63.125L506.97,75.047V98.892ZM507.97,75.047l27.136-11.922V86.968L507.97,98.892Zm-281.36,0,27.136-11.922V86.968L226.61,98.891Zm56.272,0,27.136-11.921V85.748a1.63,1.63,0,0,0-1.463,1.439,1.165,1.165,0,0,0,.076.389L282.882,98.888Zm41.7,17.882L312.4,87.576a1.142,1.142,0,0,0,.077-.389,1.63,1.63,0,0,0-1.463-1.439V63.124l13.568,5.961,13.568,5.96V98.888ZM564.242,74.607V51.546a2.169,2.169,0,0,0,.893-.387l26.243,11.53V86.53Zm28.136-11.919,27.136-11.922V74.608L592.378,86.53Zm-168.816,0L450.7,50.764V74.607L423.562,86.531Zm56.773-.221,12.326-5.416,14.809-6.506L534.6,62.465l-12.327,5.416L507.47,74.387Zm-280.474.389a1.037,1.037,0,0,0,0-.779L226.11,50.543l27.136,11.922L240.919,67.88l-14.808,6.506ZM479.834,39.181a2.179,2.179,0,0,0,.893-.387L506.47,50.1l-26.636,11.7Zm140.724,11.15,27.135-11.922v22.9a1.63,1.63,0,0,0-1.462,1.439,1.093,1.093,0,0,0,.019.139L620.558,74.176ZM324.586,68.205l-13.568-5.961V38.4l27.136,11.922V74.167Zm14.568-17.881L366.29,38.4V62.244L339.154,74.167ZM367.29,62.246V38.4l27.136,11.922V74.168Zm-112.544,0V38.4l27.136,11.922V74.167ZM423.562,37.969,450.7,26.047V49.884L423.562,61.806ZM451.7,49.884V26.042l25.749,11.312a1.164,1.164,0,0,0-.075.388,1.63,1.63,0,0,0,1.463,1.439V61.806Zm29.524-11.753a1.035,1.035,0,0,0,0-.778L506.97,26.04v23.4ZM507.97,49.884V26.04l27.136,11.922V61.806Zm-281.36,0V26.039l27.136,11.922V61.805ZM592.422,37.53V13.686l27.135,11.922V49.452Zm-197-11.927,27.136-11.922V37.524L395.426,49.445Zm84.408,10.7V13.678l26.636,11.7L480.728,36.691a2.178,2.178,0,0,0-.894-.388M423.562,13.247,450.7,1.325V25.164L423.562,37.085Zm112.544-.007L563.242,1.318V25.161L536.106,37.083ZM564.242,0,535.355,12.691l-.249.109V37.083L507.97,25.161v-.439l-.5.219L478.834,12.359V36.3a2.178,2.178,0,0,0-.894.388L451.7,25.163V.007L423.562,12.368v-.005L394.676,25.054l-.25.109V49.445L367.29,37.524v-.44l-.5.22-.5-.22v.44L338.655,49.664,310.018,37.084V62.244L282.882,74.167V49.882l-29.136-12.8h0L225.61,24.72V49.884l-26.243,11.53a2.3,2.3,0,0,0-1.393-.443,1.55,1.55,0,1,0,0,2.988,2.3,2.3,0,0,0,1.393-.441L225.61,75.046v25.164L254.5,87.517l.25-.109V63.123l27.136,11.922v25.162l27.242-11.97a2.158,2.158,0,0,0,.894.388v23.5l29.136,12.8V100.207l28.136,12.362v-25.6L339.655,74.825,366.788,62.9l28.638,12.582V50.324L422.562,38.4V86.972L394.676,99.224l-.25.11v25.6l27.243-11.97a2.293,2.293,0,0,0,1.392.443,1.778,1.778,0,0,0,1.964-1.495,1.63,1.63,0,0,0-1.463-1.438V87.41l27.885-12.253.25-.109V50.764l27.137,11.922V85.751a1.632,1.632,0,0,0-1.463,1.439,1.169,1.169,0,0,0,.075.39l-26.5,11.642-.25.11v25.6l28.635-12.581,28.137,12.362L535.6,112.352l28.136,12.361,27.637-12.142V135.2a1.63,1.63,0,0,0-1.463,1.439,2.037,2.037,0,0,0,3.926,0,1.166,1.166,0,0,0-.076-.39l26.5-11.642.25-.109V75.075L646.6,63.614a2.19,2.19,0,0,0,1.595.629,1.777,1.777,0,0,0,1.962-1.494,1.628,1.628,0,0,0-1.463-1.439V37.091L620.558,49.452V25.168l-29.136-12.8v25.6L619.03,50.1,591.879,62.028,565.629,50.5a1.167,1.167,0,0,0,.076-.389,2.037,2.037,0,0,0-3.926,0,1.629,1.629,0,0,0,1.463,1.438V74.168h0V99.331L535.6,111.474,508.469,99.551l27.387-12.034.25-.109V62.685l.5-.22-.5-.219V37.962l27.885-12.251.251-.109Z" fill="#c8cacc"/>
    </clipPath>
  </defs>
  <g id="Group_10303" data-name="Group 10303" transform="translate(-100 -69.243)">
    <rect id="Rectangle_3420" data-name="Rectangle 3420" width="1440" height="249" rx="20" transform="translate(100 69.243)" fill="#f9f9f9"/>
    <g id="Mask_Group_80" data-name="Mask Group 80" transform="translate(100 99)" clip-path="url(#clip-path)">
      <g id="Group_9959" data-name="Group 9959" transform="translate(-52 -159.762)">
        <g id="Group_9958" data-name="Group 9958" clip-path="url(#clip-path-2)">
          <path id="Path_14382" data-name="Path 14382" d="M0,0,775.207,103.444,883.3,994.606,108.1,891.161Z" transform="matrix(0.57, -0.822, 0.822, 0.57, -279.459, 306.898)" fill="#c8cacc"/>
        </g>
      </g>
      <g id="Group_9961" data-name="Group 9961" transform="translate(1100 -344.682)">
        <g id="Group_9958-2" data-name="Group 9958" clip-path="url(#clip-path-2)">
          <path id="Path_14383" data-name="Path 14383" d="M0,0,775.207,103.444,883.3,994.606,108.1,891.161Z" transform="matrix(0.57, -0.822, 0.822, 0.57, -279.459, 306.898)" fill="#c8cacc"/>
        </g>
      </g>
    </g>
  </g>
</svg>
