<svg xmlns="http://www.w3.org/2000/svg" width="45.037" height="72.089" viewBox="0 0 45.037 72.089">
  <path id="Path_834" data-name="Path 834" d="M115.179-2281.933c0-.1-.01-.2-.01-.29v-31.662c0-.054.005-.107,0-.161-.02-.17.053-.243.226-.222a1.037,1.037,0,0,0,.156,0h44.263c.417,0,.389-.062.389.395v71.69c-.324-.066-.611-.094-.879-.177a11.386,11.386,0,0,1-3.033-1.579,55.085,55.085,0,0,1-6.528-5.411,152.295,152.295,0,0,1-11.943-12.69c-.05-.063-.106-.119-.173-.2-.063.068-.116.125-.166.183a149.911,149.911,0,0,1-10.98,11.839,65.814,65.814,0,0,1-6.661,5.728,18.47,18.47,0,0,1-2.882,1.775,4.645,4.645,0,0,1-1.558.483c-.063.006-.128.006-.216.01-.005-.1-.015-.187-.015-.276v-39.178c0-.087.005-.175.008-.26.116.009.234.032.349.032q4.753,0,9.505-.006c.208,0,.279.054.271.271-.02.724-.023,1.449-.03,2.171l-.143,15.309v.234l.093.054a1.426,1.426,0,0,1,.143-.222,175.47,175.47,0,0,0,11.963-13.6.417.417,0,0,1,.714,0c1.7,2.057,3.375,4.13,5.093,6.167,2.176,2.579,4.472,5.056,6.847,7.453.058.059.121.11.216.2,0-.146,0-.237,0-.322q-.034-2.606-.068-5.208-.072-6.069-.141-12.146c-.005-.361-.06-.347.359-.347h9.505c.088,0,.178-.012.269-.015l.048-.087a1,1,0,0,1-.219-.147c-1.47-1.506-2.96-2.994-4.4-4.527q-8.982-9.573-17.046-19.927a.944.944,0,0,0-.937-.44.461.461,0,0,0-.354.176q-4.116,5.259-8.488,10.31c-4.287,4.96-8.691,9.8-13.33,14.435C115.327-2282.053,115.252-2282,115.179-2281.933Z" transform="translate(-115.166 2314.272)" fill="#464774"/>
</svg>
