<svg xmlns="http://www.w3.org/2000/svg" width="84" height="84" viewBox="0 0 84 84">
  <g id="Group_1620" data-name="Group 1620" transform="translate(-532 -480)">
    <rect id="Rectangle_567" data-name="Rectangle 567" width="84" height="84" rx="17" transform="translate(532 480)" fill="#8c8db5"/>
    <g id="house-property" transform="translate(550 498)">
      <path id="Path_829" data-name="Path 829" d="M38,46V42l7.123-8.9A4,4,0,0,0,46,30.6V19a3,3,0,0,0-3-3h0a3,3,0,0,0-3,3v7" fill="none" stroke="#fff" stroke-linecap="round" stroke-linejoin="round" stroke-width="2"/>
      <path id="Path_830" data-name="Path 830" d="M28,46V35.657a4,4,0,0,1,1.172-2.829L36,26a2.827,2.827,0,0,1,4,0h0a2.827,2.827,0,0,1,0,4h0l-6,6" fill="none" stroke="#fff" stroke-linecap="round" stroke-linejoin="round" stroke-width="2"/>
      <path id="Path_831" data-name="Path 831" d="M10,46V42L2.877,33.1A4,4,0,0,1,2,30.6V19a3,3,0,0,1,3-3H5a3,3,0,0,1,3,3v7" fill="none" stroke="#fff" stroke-linecap="round" stroke-linejoin="round" stroke-width="2"/>
      <path id="Path_832" data-name="Path 832" d="M20,46V35.657a4,4,0,0,0-1.172-2.829L12,26a2.827,2.827,0,0,0-4,0H8a2.827,2.827,0,0,0,0,4H8l6,6" fill="none" stroke="#fff" stroke-linecap="round" stroke-linejoin="round" stroke-width="2"/>
      <path id="Path_833" data-name="Path 833" d="M24,3l-9,7V21H33V10Z" fill="none" stroke="#fff" stroke-linecap="round" stroke-linejoin="round" stroke-width="2"/>
      <rect id="Rectangle_566" data-name="Rectangle 566" width="4" height="5.971" transform="translate(22 15)" fill="#fff"/>
    </g>
  </g>
</svg>
