<svg xmlns="http://www.w3.org/2000/svg" xmlns:xlink="http://www.w3.org/1999/xlink" width="53" height="55" viewBox="0 0 53 55">
  <defs>
    <clipPath id="clip-path">
      <rect id="Rectangle_380" data-name="Rectangle 380" width="53" height="55" rx="3" transform="translate(100 377)" fill="#bcb39a"/>
    </clipPath>
  </defs>
  <g id="Group_949" data-name="Group 949" transform="translate(-100 -377)">
    <rect id="Rectangle_283" data-name="Rectangle 283" width="53" height="55" rx="3" transform="translate(100 377)" fill="#bcb39a"/>
    <text id="Best_of_Manzilik_Service" data-name="Best of Manzilik
Service" transform="translate(107 420)" fill="#464674" font-size="5" font-family="Cairo-Bold, Cairo" font-weight="700"><tspan x="0" y="0">Best of Manzilik</tspan><tspan x="0" y="7">Service</tspan></text>
    <g id="Group_943" data-name="Group 943" transform="translate(-9.441 2700.187)">
      <path id="Path_558" data-name="Path 558" d="M115.167-2311.464c0-.008,0-.017,0-.025v-2.75s0-.009,0-.014,0-.021.02-.019h3.857c.036,0,.034-.005.034.034v6.226c-.028-.006-.053-.008-.076-.015a.988.988,0,0,1-.263-.137,4.78,4.78,0,0,1-.567-.47,13.258,13.258,0,0,1-1.037-1.1l-.015-.017-.014.016a12.954,12.954,0,0,1-.954,1.028,5.715,5.715,0,0,1-.578.5,1.6,1.6,0,0,1-.25.154.4.4,0,0,1-.135.042h-.019c0-.009,0-.017,0-.024v-3.4c0-.008,0-.016,0-.023l.03,0h.825c.018,0,.024,0,.024.024,0,.063,0,.126,0,.188l-.012,1.33v.021l.008,0a.112.112,0,0,1,.012-.019,15.277,15.277,0,0,0,1.039-1.181.036.036,0,0,1,.062,0c.147.178.293.358.442.535.189.224.388.439.595.647l.019.017c0-.013,0-.021,0-.028,0-.151,0-.3-.006-.452q-.006-.527-.012-1.055c0-.031-.005-.03.031-.03h.849l0-.008a.079.079,0,0,1-.019-.013c-.128-.13-.257-.26-.382-.393q-.78-.831-1.48-1.73a.083.083,0,0,0-.081-.038.04.04,0,0,0-.031.015q-.357.457-.737.9c-.372.431-.755.851-1.158,1.253Z" transform="translate(0 -2.243)" fill="#464674"/>
      <g id="Group_820" data-name="Group 820" transform="translate(120.662 -2317.141)">
        <path id="Path_559" data-name="Path 559" d="M147.577-2314.272v6.26h-1.628l.033-2.846a26.754,26.754,0,0,0-1.978,2.212h-.075a25.274,25.274,0,0,0-1.97-2.212l.033,2.846h-1.636v-6.26c.609,0,2.337,1.661,3.614,3.163C145.24-2312.611,146.976-2314.272,147.577-2314.272Z" transform="translate(-140.357 2314.898)" fill="#464674"/>
        <path id="Path_560" data-name="Path 560" d="M181.339-2302.22a3.062,3.062,0,0,1-1.319-.292,3.123,3.123,0,0,1-1.4.325c-1.035,0-1.619-.526-1.619-1.478s.668-1.469,1.87-1.469a2.542,2.542,0,0,1,.885.167v-.109c0-.392-.3-.618-.81-.618a7.175,7.175,0,0,0-1.586.2v-1.152a6,6,0,0,1,1.912-.284c1.3,0,2.07.635,2.07,1.719Zm-2.062-1.085a1.371,1.371,0,0,0,.476-.092v-.626a1.354,1.354,0,0,0-.476-.1c-.417,0-.643.141-.643.425C178.635-2303.43,178.86-2303.305,179.278-2303.305Z" transform="translate(-169.004 2309.156)" fill="#464674"/>
        <path id="Path_561" data-name="Path 561" d="M205.906-2305.083v2.813h-1.586v-2.688c0-.509-.242-.735-.743-.735a1.366,1.366,0,0,0-.743.226v3.2h-1.586v-4.625a2.813,2.813,0,0,1,1.469.367,3.381,3.381,0,0,1,1.511-.4C205.289-2306.928,205.906-2306.377,205.906-2305.083Z" transform="translate(-187.962 2309.156)" fill="#464674"/>
        <path id="Path_562" data-name="Path 562" d="M229.905-2303.089v1.118h-4.14c0-.593,1.16-2.287,1.82-3.455H225.8v-1.119h4.065c0,.584-1.16,2.287-1.82,3.456Z" transform="translate(-207.129 2308.857)" fill="#464674"/>
        <path id="Path_563" data-name="Path 563" d="M247.681-2316.24a.868.868,0,0,1,.9-.9.875.875,0,0,1,.91.9.875.875,0,0,1-.91.9A.868.868,0,0,1,247.681-2316.24Zm1.686,1.411v4.574h-1.586v-4.574Z" transform="translate(-224.263 2317.141)" fill="#464674"/>
        <path id="Path_564" data-name="Path 564" d="M260-2315.458l1.586-.459v6.619H260Z" transform="translate(-233.892 2316.184)" fill="#464674"/>
        <path id="Path_565" data-name="Path 565" d="M271.395-2316.24a.868.868,0,0,1,.9-.9.875.875,0,0,1,.91.9.875.875,0,0,1-.91.9A.868.868,0,0,1,271.395-2316.24Zm1.686,1.411v4.574H271.5v-4.574Z" transform="translate(-242.802 2317.141)" fill="#464674"/>
        <path id="Path_566" data-name="Path 566" d="M286.658-2309.3a13.893,13.893,0,0,0-1.361-2.028v2.028h-1.586v-6.16l1.586-.459v3.856a15.1,15.1,0,0,0,1.277-1.811h1.836a23.681,23.681,0,0,1-1.628,2.17,14.269,14.269,0,0,1,1.7,2.4Z" transform="translate(-252.432 2316.184)" fill="#464674"/>
      </g>
    </g>
    <text id="_2021" data-name="2021" transform="translate(115 408)" fill="#464674" font-size="10" font-family="Cairo-Bold, Cairo" font-weight="700"><tspan x="0" y="0">2021</tspan></text>
    <g id="Mask_Group_34" data-name="Mask Group 34" clip-path="url(#clip-path)">
      <path id="Path_598" data-name="Path 598" d="M20765.5-15813.1s6.234,7.142,8.021,7.105c-5.2.042-7.273.01-15.967.01C20760.566-15807.9,20765.5-15813.1,20765.5-15813.1Z" transform="translate(-20628 16238)" fill="#fff"/>
      <path id="Path_600" data-name="Path 600" d="M20711.5-15852.419l8,9.034h-3.684v6.56l-4.32-5.327-4.5,5.327v-6.56h-3.584Z" transform="translate(-20558.504 16249.122)" fill="#fff"/>
    </g>
  </g>
</svg>
