<svg xmlns="http://www.w3.org/2000/svg" xmlns:xlink="http://www.w3.org/1999/xlink" width="53" height="55" viewBox="0 0 53 55">
  <defs>
    <clipPath id="clip-path">
      <rect id="Rectangle_379" data-name="Rectangle 379" width="53" height="55" rx="3" transform="translate(222 377)" fill="#464674"/>
    </clipPath>
  </defs>
  <g id="Group_948" data-name="Group 948" transform="translate(-222 -377)">
    <rect id="Rectangle_283" data-name="Rectangle 283" width="53" height="55" rx="3" transform="translate(222 377)" fill="#464674"/>
    <path id="Rectangle_284" data-name="Rectangle 284" d="M0,0H53a0,0,0,0,1,0,0V11a3,3,0,0,1-3,3H3a3,3,0,0,1-3-3V0A0,0,0,0,1,0,0Z" transform="translate(222 418)" fill="#595990"/>
    <text id="Best_of" data-name="Best of" transform="translate(237.973 386.03)" fill="#fff" font-size="6" font-family="Cairo-Bold, Cairo" font-weight="700"><tspan x="0" y="0">Best of</tspan></text>
    <text id="_2021" data-name="2021" transform="translate(237 408)" fill="#fff" font-size="10" font-family="Cairo-Bold, Cairo" font-weight="700"><tspan x="0" y="0">2021</tspan></text>
    <text id="Service" transform="translate(238 427)" fill="#fff" font-size="6" font-family="Cairo-Bold, Cairo" font-weight="700"><tspan x="0" y="0">Service</tspan></text>
    <g id="Group_947" data-name="Group 947" transform="translate(118.807 2705.283)">
      <path id="Path_558" data-name="Path 558" d="M115.167-2312.309c0-.006,0-.012,0-.018v-1.923s0-.007,0-.01,0-.015.014-.013h2.7c.025,0,.024,0,.024.024v4.353a.534.534,0,0,1-.053-.01.692.692,0,0,1-.184-.1,3.342,3.342,0,0,1-.4-.329,9.243,9.243,0,0,1-.725-.771l-.011-.012-.01.011a9,9,0,0,1-.667.719,4,4,0,0,1-.4.348,1.1,1.1,0,0,1-.175.108.281.281,0,0,1-.095.03h-.013c0-.006,0-.012,0-.017v-2.379c0-.005,0-.011,0-.016l.021,0h.577c.013,0,.017,0,.016.017,0,.044,0,.088,0,.132l-.009.93v.014l.006,0a.083.083,0,0,1,.009-.013,10.639,10.639,0,0,0,.726-.826.025.025,0,0,1,.043,0c.1.125.2.251.309.374.132.157.272.307.416.453l.013.012c0-.009,0-.014,0-.02,0-.1,0-.211,0-.316q0-.369-.009-.738c0-.022,0-.021.022-.021h.594l0-.005a.053.053,0,0,1-.013-.009c-.089-.091-.18-.182-.267-.275q-.545-.581-1.035-1.21a.058.058,0,0,0-.057-.027.028.028,0,0,0-.022.011q-.25.32-.515.626c-.26.3-.528.6-.809.876Z" transform="translate(0 -2.431)" fill="#fff"/>
      <g id="Group_820" data-name="Group 820" transform="translate(119.009 -2317.141)">
        <path id="Path_559" data-name="Path 559" d="M145.406-2314.272v4.377h-1.138l.023-1.99a18.707,18.707,0,0,0-1.383,1.547h-.053a17.653,17.653,0,0,0-1.377-1.547l.023,1.99h-1.144v-4.377c.426,0,1.634,1.161,2.527,2.212C143.771-2313.111,144.985-2314.272,145.406-2314.272Z" transform="translate(-140.357 2314.71)" fill="#fff"/>
        <path id="Path_560" data-name="Path 560" d="M180.034-2303.636a2.14,2.14,0,0,1-.922-.2,2.183,2.183,0,0,1-.981.228c-.724,0-1.132-.367-1.132-1.033s.467-1.028,1.307-1.028a1.779,1.779,0,0,1,.619.117v-.076c0-.274-.21-.432-.566-.432a5.028,5.028,0,0,0-1.109.14v-.806a4.2,4.2,0,0,1,1.337-.2c.911,0,1.447.444,1.447,1.2Zm-1.442-.759a.963.963,0,0,0,.333-.064v-.438a.946.946,0,0,0-.333-.07c-.292,0-.449.1-.449.3S178.3-2304.395,178.592-2304.395Z" transform="translate(-171.408 2308.486)" fill="#fff"/>
        <path id="Path_561" data-name="Path 561" d="M204.506-2305.638v1.967H203.4v-1.88c0-.356-.169-.514-.519-.514a.954.954,0,0,0-.52.158v2.236h-1.109v-3.234a1.967,1.967,0,0,1,1.027.257,2.365,2.365,0,0,1,1.056-.28C204.074-2306.928,204.506-2306.543,204.506-2305.638Z" transform="translate(-191.958 2308.486)" fill="#fff"/>
        <path id="Path_562" data-name="Path 562" d="M228.66-2304.129v.782h-2.9a11.043,11.043,0,0,1,1.272-2.416h-1.249v-.782h2.842a11.184,11.184,0,0,1-1.272,2.417Z" transform="translate(-212.734 2308.162)" fill="#fff"/>
        <path id="Path_563" data-name="Path 563" d="M247.681-2316.511a.607.607,0,0,1,.63-.63.612.612,0,0,1,.636.63.612.612,0,0,1-.636.63A.607.607,0,0,1,247.681-2316.511Zm1.179.986v3.2h-1.109v-3.2Z" transform="translate(-231.306 2317.141)" fill="#fff"/>
        <path id="Path_564" data-name="Path 564" d="M260-2315.6l1.109-.321v4.628H260Z" transform="translate(-241.743 2316.104)" fill="#fff"/>
        <path id="Path_565" data-name="Path 565" d="M271.395-2316.511a.607.607,0,0,1,.63-.63.612.612,0,0,1,.636.63.612.612,0,0,1-.636.63A.607.607,0,0,1,271.395-2316.511Zm1.179.986v3.2h-1.109v-3.2Z" transform="translate(-251.401 2317.141)" fill="#fff"/>
        <path id="Path_566" data-name="Path 566" d="M285.772-2311.289a9.716,9.716,0,0,0-.952-1.418v1.418h-1.109v-4.307l1.109-.321v2.7a10.553,10.553,0,0,0,.893-1.267H287a16.585,16.585,0,0,1-1.138,1.518,9.975,9.975,0,0,1,1.191,1.681Z" transform="translate(-261.839 2316.104)" fill="#fff"/>
      </g>
    </g>
    <g id="Mask_Group_33" data-name="Mask Group 33" clip-path="url(#clip-path)">
      <path id="Path_601" data-name="Path 601" d="M20711.5-15852.419l8,9.034h-3.684v6.56l-4.32-5.327-4.5,5.327v-6.56h-3.584Z" transform="translate(-20436.461 16249.122)" fill="#bcb39a"/>
    </g>
  </g>
</svg>
