<svg xmlns="http://www.w3.org/2000/svg" xmlns:xlink="http://www.w3.org/1999/xlink" width="446.021" height="397.382" viewBox="0 0 446.021 397.382">
  <defs>
    <filter id="Rectangle_592" x="114.896" y="22.986" width="331.125" height="368.326" filterUnits="userSpaceOnUse">
      <feOffset dy="13" input="SourceAlpha"/>
      <feGaussianBlur stdDeviation="23" result="blur"/>
      <feFlood flood-opacity="0.09"/>
      <feComposite operator="in" in2="blur"/>
      <feComposite in="SourceGraphic"/>
    </filter>
    <filter id="Rectangle_593" x="0" y="16.915" width="348.823" height="380.467" filterUnits="userSpaceOnUse">
      <feOffset dy="13" input="SourceAlpha"/>
      <feGaussianBlur stdDeviation="23" result="blur-2"/>
      <feFlood flood-opacity="0.09"/>
      <feComposite operator="in" in2="blur-2"/>
      <feComposite in="SourceGraphic"/>
    </filter>
    <filter id="Rectangle_588" x="63.248" y="0" width="337" height="391" filterUnits="userSpaceOnUse">
      <feOffset dy="13" input="SourceAlpha"/>
      <feGaussianBlur stdDeviation="23" result="blur-3"/>
      <feFlood flood-opacity="0.09"/>
      <feComposite operator="in" in2="blur-3"/>
      <feComposite in="SourceGraphic"/>
    </filter>
  </defs>
  <g id="Group_1673" data-name="Group 1673" transform="translate(-225.836 -591.931)">
    <g transform="matrix(1, 0, 0, 1, 225.84, 591.93)" filter="url(#Rectangle_592)">
      <rect id="Rectangle_592-2" data-name="Rectangle 592" width="162.679" height="207.431" rx="31" transform="translate(216.35 78.99) rotate(9)" fill="#f9f9f9"/>
    </g>
    <g transform="matrix(1, 0, 0, 1, 225.84, 591.93)" filter="url(#Rectangle_593)">
      <rect id="Rectangle_593-2" data-name="Rectangle 593" width="162.679" height="207.431" rx="31" transform="matrix(0.97, -0.26, 0.26, 0.97, 69, 115.02)" fill="#f9f9f9"/>
    </g>
    <g transform="matrix(1, 0, 0, 1, 225.84, 591.93)" filter="url(#Rectangle_588)">
      <rect id="Rectangle_588-2" data-name="Rectangle 588" width="199" height="253" rx="31" transform="translate(132.25 56)" fill="#f9f9f9"/>
    </g>
    <g id="bulb-63" transform="translate(405.71 687.7)">
      <path id="Path_5006" data-name="Path 5006" d="M12.263,27.505H3.253a2.253,2.253,0,0,1,0-4.505h9.011a2.253,2.253,0,1,1,0,4.505Z" transform="translate(-1 26.558)" fill="#e2e2e2"/>
      <path id="Path_5007" data-name="Path 5007" d="M16.067,18.321a2.246,2.246,0,0,1-1.593-.66L8.1,11.289A2.252,2.252,0,1,1,11.29,8.1l6.37,6.373a2.253,2.253,0,0,1-1.593,3.845Z" transform="translate(7.072 7.07)" fill="#e2e2e2"/>
      <path id="Path_5008" data-name="Path 5008" d="M25.253,14.516A2.252,2.252,0,0,1,23,12.263V3.253a2.253,2.253,0,0,1,4.505,0v9.011A2.252,2.252,0,0,1,25.253,14.516Z" transform="translate(26.558 -1)" fill="#e2e2e2"/>
      <path id="Path_5009" data-name="Path 5009" d="M37.981,18.321a2.253,2.253,0,0,1-1.593-3.845L42.759,8.1a2.252,2.252,0,0,1,3.185,3.185l-6.37,6.373A2.237,2.237,0,0,1,37.981,18.321Z" transform="translate(42.501 7.07)" fill="#e2e2e2"/>
      <path id="Path_5010" data-name="Path 5010" d="M52.263,27.505H43.253a2.253,2.253,0,1,1,0-4.505h9.011a2.253,2.253,0,1,1,0,4.505Z" transform="translate(49.105 26.558)" fill="#e2e2e2"/>
      <path id="Path_5011" data-name="Path 5011" d="M40.284,11A29.268,29.268,0,0,0,29.021,67.289V80.832H51.547V67.289A29.268,29.268,0,0,0,40.284,11Z" transform="translate(11.526 11.526)" fill="#e2e2e2"/>
      <path id="Path_5012" data-name="Path 5012" d="M25.758,50.758h9.011A6.757,6.757,0,0,0,41.526,44H19A6.757,6.757,0,0,0,25.758,50.758Z" transform="translate(21.547 52.863)" fill="#e2e2e2"/>
    </g>
    <rect id="Rectangle_589" data-name="Rectangle 589" width="156" height="8" rx="4" transform="translate(379.083 820.931)" fill="#d9d9d9"/>
    <rect id="Rectangle_590" data-name="Rectangle 590" width="135" height="7" rx="3.5" transform="translate(400.083 839.931)" fill="#e2e2e2"/>
    <rect id="Rectangle_591" data-name="Rectangle 591" width="98" height="8" rx="4" transform="translate(437.083 857.931)" fill="#ebebeb"/>
    <ellipse id="Ellipse_188" data-name="Ellipse 188" cx="13" cy="13.5" rx="13" ry="13.5" transform="translate(458.084 744.931)" fill="#bcb39a"/>
    <ellipse id="Ellipse_189" data-name="Ellipse 189" cx="13" cy="13.5" rx="13" ry="13.5" transform="translate(458.084 744.931)" fill="#bcb39a"/>
    <g id="house" transform="translate(466.677 752.911)">
      <path id="Path_5013" data-name="Path 5013" d="M9.5,10.457a.618.618,0,0,0,.654-.654V3.916A.6.6,0,0,0,9.9,3.393L5.971.122a.688.688,0,0,0-.85,0L1.2,3.393a.743.743,0,0,0-.2.523V9.8a.618.618,0,0,0,.654.654H4.27V7.186H6.887v3.27Z" transform="translate(-1 0.025)" fill="#fff"/>
    </g>
  </g>
</svg>
