<svg width="39" height="38" viewBox="0 0 39 38" fill="none" xmlns="http://www.w3.org/2000/svg">
<rect x="0.75" y="0.25" width="37.5" height="37.5" rx="8.75" fill="white" fill-opacity="0.31" stroke="url(#paint0_linear_10611_4058)" stroke-width="0.5"/>
<path d="M30.429 15.2518L29.2022 24.0444C29.1716 24.509 29.0409 24.9614 28.819 25.3704C28.5972 25.7795 28.2895 26.1354 27.9171 26.4137C27.8702 26.4463 27.8155 26.4656 27.7586 26.4697C27.7017 26.4738 27.6448 26.4624 27.5937 26.4369C27.5427 26.4113 27.4995 26.3725 27.4686 26.3244C27.4377 26.2763 27.4203 26.2208 27.4182 26.1637V17.3598C27.4712 16.7858 27.3973 16.2071 27.2018 15.6649C27.0063 15.1228 26.6941 14.6305 26.2873 14.223C25.8805 13.8155 25.3891 13.5029 24.8481 13.3073C24.3071 13.1118 23.7297 13.0381 23.1571 13.0916H13.5349C13.2282 13.0916 13.221 12.8149 13.2425 12.692C13.3288 11.8583 13.7368 11.0915 14.3793 10.5553C14.7421 10.3116 15.1499 10.1431 15.5787 10.0598C16.0075 9.97659 16.4485 9.98024 16.8759 10.0706L27.6728 11.5872C28.1098 11.6191 28.536 11.7383 28.9263 11.9379C29.3166 12.1375 29.6632 12.4134 29.9454 12.7493C30.1891 13.1128 30.3574 13.5215 30.4405 13.9514C30.5235 14.3813 30.5196 14.8235 30.429 15.2518ZM25.8816 17.3598V26.2426C25.9343 26.6136 25.9002 26.9919 25.7819 27.3474C25.6637 27.7029 25.4645 28.026 25.2003 28.2911C24.936 28.5562 24.6138 28.7561 24.2592 28.8749C23.9046 28.9937 23.5273 29.0282 23.1571 28.9757H12.2508C11.8805 29.0288 11.5028 28.9947 11.1479 28.8761C10.7929 28.7575 10.4703 28.5577 10.2058 28.2925C9.9412 28.0273 9.74187 27.704 9.62359 27.3482C9.5053 26.9924 9.4713 26.6139 9.52428 26.2426V17.3598C9.47165 16.9887 9.50592 16.6104 9.62436 16.2548C9.74281 15.8993 9.94218 15.5763 10.2067 15.3113C10.4712 15.0463 10.7936 14.8467 11.1484 14.7283C11.5032 14.6098 11.8807 14.5758 12.2508 14.6288H23.1571C23.5271 14.5763 23.9042 14.6108 24.2586 14.7295C24.6131 14.8482 24.9351 15.0479 25.1993 15.3127C25.4636 15.5776 25.6628 15.9004 25.7812 16.2557C25.8996 16.6109 25.934 16.9889 25.8816 17.3598ZM21.0255 21.8022C21.0255 21.5984 20.9448 21.4029 20.801 21.2588C20.6572 21.1146 20.4622 21.0336 20.2588 21.0336H18.4697V19.2403C18.4697 19.0364 18.3889 18.8409 18.2451 18.6968C18.1013 18.5527 17.9063 18.4717 17.703 18.4717C17.4996 18.4717 17.3046 18.5527 17.1608 18.6968C17.017 18.8409 16.9362 19.0364 16.9362 19.2403V21.0336H15.1471C14.9438 21.0336 14.7487 21.1146 14.6049 21.2588C14.4612 21.4029 14.3804 21.5984 14.3804 21.8022C14.3804 22.0061 14.4612 22.2016 14.6049 22.3457C14.7487 22.4898 14.9438 22.5708 15.1471 22.5708H16.9362V24.3642C16.9362 24.568 17.017 24.7635 17.1608 24.9076C17.3046 25.0518 17.4996 25.1327 17.703 25.1327C17.9063 25.1327 18.1013 25.0518 18.2451 24.9076C18.3889 24.7635 18.4697 24.568 18.4697 24.3642V22.5708H20.2588C20.4622 22.5708 20.6572 22.4898 20.801 22.3457C20.9448 22.2016 21.0255 22.0061 21.0255 21.8022Z" fill="white"/>
<defs>
<linearGradient id="paint0_linear_10611_4058" x1="4" y1="-7.83095e-07" x2="29.5" y2="38" gradientUnits="userSpaceOnUse">
<stop stop-color="white"/>
<stop offset="1" stop-opacity="0"/>
<stop offset="1" stop-color="white" stop-opacity="0"/>
</linearGradient>
</defs>
</svg>
