<svg width="98" height="98" viewBox="0 0 98 98" fill="none" xmlns="http://www.w3.org/2000/svg">
<path d="M55.7915 84.249C66.9196 84.249 77.5919 79.8284 85.4607 71.9597C93.3294 64.0909 97.75 53.4186 97.75 42.2905C97.75 31.1625 93.3294 20.4901 85.4607 12.6214C77.5919 4.75265 66.9196 0.332032 55.7915 0.332031C44.6634 0.332032 33.9911 4.75265 26.1224 12.6214C18.2536 20.4901 13.833 31.1625 13.833 42.2905C13.833 53.4186 18.2536 64.0909 26.1224 71.9597C33.9911 79.8284 44.6634 84.249 55.7915 84.249Z" fill="#DAEEFF"/>
<path d="M42.2085 13.833C47.7186 13.833 53.1747 14.9183 58.2653 17.0269C63.356 19.1355 67.9814 22.2262 71.8777 26.1224C75.7739 30.0186 78.8645 34.644 80.9731 39.7347C83.0817 44.8253 84.167 50.2814 84.167 55.7915C84.167 66.9196 79.7464 77.5919 71.8776 85.4607C64.0089 93.3294 53.3366 97.75 42.2085 97.75C31.0804 97.75 20.4081 93.3294 12.5394 85.4607C4.67062 77.5919 0.250001 66.9196 0.25 55.7915C0.25 44.6634 4.67061 33.9911 12.5394 26.1224C20.4081 18.2536 31.0804 13.833 42.2085 13.833Z" fill="#59D96B"/>
<path d="M58.2256 35.8124L36.1427 52.1199L25.9226 47.6745C19.3835 44.3307 13.4467 49.7431 17.2561 56.3409L28.9164 73.7767C32.1073 78.2484 39.7452 78.5006 43.3581 73.7767L66.8811 44.4787C71.5438 38.1652 64.1958 31.2994 58.2256 35.8124Z" fill="white"/>
</svg>
