<svg width="150" height="142" viewBox="0 0 150 142" fill="none" xmlns="http://www.w3.org/2000/svg">
<path d="M16.0241 113.098C16.0241 110.676 14.0605 108.712 11.6382 108.712C9.21586 108.712 7.2522 110.676 7.2522 113.098C7.2522 115.521 9.21586 117.484 11.6382 117.484C14.0605 117.484 16.0241 115.521 16.0241 113.098Z" fill="#F5F5F5"/>
<path d="M14.8865 138.437C14.8865 136.643 13.4322 135.189 11.6382 135.189C9.84423 135.189 8.38989 136.643 8.38989 138.437C8.38989 140.231 9.84423 141.686 11.6382 141.686C13.4322 141.686 14.8865 140.231 14.8865 138.437Z" fill="#F5F5F5"/>
<path d="M12.9344 82.2261C9.82224 81.4916 6.70391 83.419 5.96938 86.5312C5.23485 89.6433 7.16226 92.7617 10.2744 93.4962C13.3866 94.2307 16.5049 92.3033 17.2394 89.1911C17.9739 86.079 16.0465 82.9607 12.9344 82.2261Z" fill="#F5F5F5"/>
<path d="M13.3596 55.0837C9.2508 54.1139 5.13407 56.6587 4.16431 60.7674C3.19456 64.8762 5.73901 68.9931 9.84777 69.9628C13.9565 70.9326 18.0735 68.3879 19.0433 64.2792C20.013 60.1704 17.4683 56.0535 13.3596 55.0837Z" fill="#F5F5F5"/>
<path d="M19.8511 33.7007C17.9726 29.1656 12.7733 27.0118 8.23818 28.8903C3.70306 30.7688 1.54953 35.9682 3.42804 40.5034C5.30654 45.0385 10.5058 47.192 15.0409 45.3135C19.576 43.435 21.7296 38.2358 19.8511 33.7007Z" fill="#F5F5F5"/>
<path d="M13.2925 1.63354C7.75046 0.733939 2.52845 4.4974 1.62885 10.0395C0.729244 15.5815 4.49271 20.8035 10.0348 21.7032C15.5768 22.6028 20.7989 18.8393 21.6985 13.2972C22.5981 7.75516 18.8346 2.53315 13.2925 1.63354Z" fill="#F5F5F5"/>
<path d="M43.3034 117.49C40.8781 117.49 38.9175 115.525 38.9175 113.104C38.9175 110.684 40.8829 108.718 43.3034 108.718C45.724 108.718 47.6894 110.684 47.6894 113.104C47.6894 115.525 45.724 117.49 43.3034 117.49Z" fill="#F5F5F5"/>
<path d="M43.3035 141.686C41.5075 141.686 40.0552 140.228 40.0552 138.437C40.0552 136.646 41.5123 135.189 43.3035 135.189C45.0947 135.189 46.5518 136.646 46.5518 138.437C46.5518 140.228 45.0947 141.686 43.3035 141.686Z" fill="#F5F5F5"/>
<path d="M43.3038 93.5566C40.1087 93.5566 37.5139 90.9667 37.5139 87.7668C37.5139 84.5669 40.1038 81.977 43.3038 81.977C46.5037 81.977 49.0936 84.5669 49.0936 87.7668C49.0936 90.9667 46.5037 93.5566 43.3038 93.5566Z" fill="#F5F5F5"/>
<path d="M44.7405 54.9506C40.595 54.1523 36.5875 56.8658 35.7892 61.0113C34.9909 65.1568 37.7041 69.1645 41.8496 69.9628C45.9951 70.7611 50.0029 68.0476 50.8012 63.9021C51.5994 59.7567 48.886 55.7489 44.7405 54.9506Z" fill="#F5F5F5"/>
<path d="M46.7067 28.8924C42.1715 27.0139 36.9721 29.1674 35.0936 33.7025C33.2151 38.2377 35.3689 43.437 39.904 45.3155C44.4391 47.194 49.6383 45.0404 51.5168 40.5053C53.3953 35.9701 51.2418 30.7709 46.7067 28.8924Z" fill="#F5F5F5"/>
<path d="M43.3031 21.9336C37.6875 21.9336 33.137 17.383 33.137 11.7674C33.137 6.15186 37.6875 1.6013 43.3031 1.6013C48.9187 1.6013 53.4693 6.15186 53.4693 11.7674C53.4693 17.383 48.9187 21.9336 43.3031 21.9336Z" fill="#F5F5F5"/>
<path d="M79.2524 112.561C78.9564 110.157 76.7674 108.448 74.3633 108.744C71.9591 109.04 70.2502 111.229 70.5462 113.633C70.8423 116.037 73.0312 117.746 75.4354 117.45C77.8395 117.154 79.5485 114.965 79.2524 112.561Z" fill="#F5F5F5"/>
<path d="M74.9741 141.686C73.1781 141.686 71.7258 140.228 71.7258 138.437C71.7258 136.646 73.183 135.189 74.9741 135.189C76.7653 135.189 78.2225 136.646 78.2225 138.437C78.2225 140.228 76.7653 141.686 74.9741 141.686Z" fill="#F5F5F5"/>
<path d="M74.9737 93.5566C71.7786 93.5566 69.1838 90.9667 69.1838 87.7668C69.1838 84.5669 71.7738 81.977 74.9737 81.977C78.1736 81.977 80.7636 84.5669 80.7636 87.7668C80.7636 90.9667 78.1736 93.5566 74.9737 93.5566Z" fill="#F5F5F5"/>
<path d="M80.378 57.0288C77.3928 54.0436 72.5531 54.0438 69.5679 57.029C66.5828 60.0141 66.5826 64.8539 69.5678 67.839C72.5529 70.8242 77.3928 70.8242 80.378 67.839C83.3632 64.8539 83.3632 60.014 80.378 57.0288Z" fill="#F5F5F5"/>
<path d="M76.4307 28.2266C71.5854 27.4401 67.0197 30.7304 66.2331 35.5758C65.4466 40.4211 68.7371 44.9867 73.5825 45.7732C78.4278 46.5597 82.9933 43.2693 83.7798 38.424C84.5663 33.5786 81.2761 29.0131 76.4307 28.2266Z" fill="#F5F5F5"/>
<path d="M76.6285 1.62964C71.0864 0.730033 65.8644 4.49349 64.9648 10.0356C64.0652 15.5776 67.8286 20.7996 73.3707 21.6992C78.9128 22.5989 84.1348 18.8354 85.0344 13.2933C85.934 7.75125 82.1705 2.52924 76.6285 1.62964Z" fill="#F5F5F5"/>
<path d="M109.738 110.001C108.025 108.288 105.248 108.288 103.535 110.001C101.823 111.713 101.823 114.49 103.535 116.203C105.248 117.916 108.025 117.916 109.738 116.203C111.451 114.491 111.451 111.713 109.738 110.001Z" fill="#F5F5F5"/>
<path d="M106.638 141.686C104.842 141.686 103.39 140.228 103.39 138.437C103.39 136.646 104.847 135.189 106.638 135.189C108.429 135.189 109.886 136.646 109.886 138.437C109.886 140.228 108.429 141.686 106.638 141.686Z" fill="#F5F5F5"/>
<path d="M107.929 82.2261C104.817 81.4916 101.699 83.419 100.964 86.5312C100.23 89.6433 102.157 92.7617 105.269 93.4962C108.382 94.2307 111.5 92.3033 112.234 89.1911C112.969 86.079 111.042 82.9606 107.929 82.2261Z" fill="#F5F5F5"/>
<path d="M112.043 57.0269C109.058 54.0417 104.218 54.0419 101.233 57.027C98.2477 60.0122 98.2475 64.8519 101.233 67.8371C104.218 70.8222 109.058 70.8222 112.043 67.8371C115.028 64.8519 115.028 60.012 112.043 57.0269Z" fill="#F5F5F5"/>
<path d="M110.045 28.8865C105.51 27.008 100.311 29.1616 98.4324 33.6967C96.5539 38.2318 98.7076 43.4311 103.243 45.3096C107.778 47.1881 112.977 45.0345 114.856 40.4994C116.734 35.9643 114.581 30.765 110.045 28.8865Z" fill="#F5F5F5"/>
<path d="M116.804 11.7616C116.804 6.14698 112.253 1.59544 106.638 1.59544C101.023 1.59544 96.4718 6.14698 96.4718 11.7616C96.4718 17.3762 101.023 21.9277 106.638 21.9277C112.253 21.9277 116.804 17.3762 116.804 11.7616Z" fill="#F5F5F5"/>
<path d="M142.587 112.557C142.291 110.153 140.102 108.444 137.698 108.74C135.294 109.036 133.585 111.225 133.881 113.629C134.177 116.033 136.366 117.742 138.77 117.446C141.174 117.15 142.883 114.961 142.587 112.557Z" fill="#F5F5F5"/>
<path d="M138.308 141.686C136.512 141.686 135.06 140.228 135.06 138.437C135.06 136.646 136.517 135.189 138.308 135.189C140.099 135.189 141.556 136.646 141.556 138.437C141.556 140.228 140.099 141.686 138.308 141.686Z" fill="#F5F5F5"/>
<path d="M144.098 87.7668C144.098 84.5691 141.506 81.977 138.309 81.977C135.111 81.977 132.519 84.5691 132.519 87.7668C132.519 90.9644 135.111 93.5566 138.309 93.5566C141.506 93.5566 144.098 90.9644 144.098 87.7668Z" fill="#F5F5F5"/>
<path d="M145.952 62.4322C145.952 58.2105 142.53 54.7884 138.308 54.7884C134.086 54.7884 130.664 58.2105 130.664 62.4322C130.664 66.6538 134.086 70.0762 138.308 70.0762C142.53 70.0762 145.952 66.6538 145.952 62.4322Z" fill="#F5F5F5"/>
<path d="M139.767 28.2266C134.922 27.4401 130.356 30.7304 129.57 35.5758C128.783 40.4211 132.074 44.9867 136.919 45.7732C141.765 46.5597 146.33 43.2693 147.117 38.424C147.903 33.5786 144.613 29.0131 139.767 28.2266Z" fill="#F5F5F5"/>
<path d="M139.965 1.62964C134.423 0.730033 129.201 4.49349 128.302 10.0356C127.402 15.5776 131.165 20.7996 136.708 21.6992C142.25 22.5989 147.472 18.8354 148.371 13.2933C149.271 7.75125 145.507 2.52924 139.965 1.62964Z" fill="#F5F5F5"/>
</svg>
