<svg id="Group_11750" data-name="Group 11750" xmlns="http://www.w3.org/2000/svg" width="72.096" height="43.555" viewBox="0 0 72.096 43.555">
  <path id="Path_17036" data-name="Path 17036" d="M3234.668,754.1v31.233a2.687,2.687,0,0,1-2.687,2.687H3172.79a2.686,2.686,0,0,1-2.687-2.687V754.1a2.686,2.686,0,0,1,2.687-2.687h59.191A2.687,2.687,0,0,1,3234.668,754.1Z" transform="translate(-3162.572 -751.415)" fill="#97a6ff"/>
  <path id="Path_17037" data-name="Path 17037" d="M3084.509,892.648v31.233a2.687,2.687,0,0,1-2.687,2.687h-59.191a2.687,2.687,0,0,1-2.687-2.687V892.648a2.687,2.687,0,0,1,2.687-2.687h59.191A2.687,2.687,0,0,1,3084.509,892.648Z" transform="translate(-3019.944 -883.012)" fill="#6c79f1"/>
  <path id="Path_17038" data-name="Path 17038" d="M3084.509,1072.653v24.757a2.687,2.687,0,0,1-2.687,2.687h-59.191a2.687,2.687,0,0,1-2.687-2.687v-2.255Z" transform="translate(-3019.944 -1056.542)" fill="#2f3ba1" opacity="0.25"/>
  <rect id="Rectangle_4039" data-name="Rectangle 4039" width="64.565" height="6.864" transform="translate(0 12.505)" fill="#2f3ba1"/>
  <rect id="Rectangle_4040" data-name="Rectangle 4040" width="28.959" height="3.514" transform="translate(4.396 26.32)" fill="#fff"/>
  <rect id="Rectangle_4041" data-name="Rectangle 4041" width="16.465" height="3.514" transform="translate(37.98 26.32)" fill="#fff"/>
  <rect id="Rectangle_4042" data-name="Rectangle 4042" width="25.828" height="1.839" transform="translate(34.99 37.223)" fill="#2f3ba1"/>
</svg>
