<svg xmlns="http://www.w3.org/2000/svg" width="134.375" height="147.625" viewBox="0 0 134.375 147.625">
  <g id="Group_11994" data-name="Group 11994" transform="translate(-645.199 -193.999)">
    <g id="Group_11992" data-name="Group 11992" transform="translate(660.426 194)">
      <g id="Group_11995" data-name="Group 11995">
        <path id="Path_17129" data-name="Path 17129" d="M79.014,146.993,6.29,119.489a9.727,9.727,0,0,1-5.658-12.54L38.7,6.289A9.729,9.729,0,0,1,51.241.631L97.363,18.074l21.785,50.3L91.555,141.335a9.73,9.73,0,0,1-12.541,5.658" fill="#f5f5f5"/>
        <path id="Path_17130" data-name="Path 17130" d="M97.362,18.074,86.648,46.4a9.049,9.049,0,0,0,5.261,11.664l27.238,10.306Z" fill="#ebebeb"/>
        <path id="Path_17131" data-name="Path 17131" d="M86.08,49.031s-2.957,6.735,4.011,11.951a8.978,8.978,0,0,0,.819.541c3.317,1.982,25.156,15,25.359,14.464l2.879-7.613-27.24-10.3s-6.713-2.805-5.828-9.042" fill="#e0e0e0"/>
        <path id="Path_17132" data-name="Path 17132" d="M80.987,42.941c-.138.364-7.782-2.19-17.071-5.7S47.2,30.581,47.342,30.217s7.78,2.188,17.072,5.7,16.711,6.657,16.573,7.021" fill="#464674"/>
        <path id="Path_17133" data-name="Path 17133" d="M96.659,67.176c-.138.364-12.646-4.029-27.935-9.81S41.147,46.6,41.285,46.234s12.643,4.028,27.937,9.813S96.8,66.813,96.659,67.176" fill="#464674"/>
        <path id="Path_17134" data-name="Path 17134" d="M96.588,82.438c-.138.364-13.763-4.452-30.428-10.754S36.089,59.974,36.226,59.61s13.76,4.45,30.432,10.756,30.067,11.708,29.93,12.072" fill="#e0e0e0"/>
        <path id="Path_17135" data-name="Path 17135" d="M91.815,95.057c-.138.364-13.763-4.451-30.428-10.754S31.316,72.593,31.454,72.229s13.759,4.45,30.431,10.756,30.068,11.708,29.93,12.072" fill="#e0e0e0"/>
        <path id="Path_17136" data-name="Path 17136" d="M87.043,107.676c-.138.364-13.763-4.451-30.429-10.754s-30.07-11.71-29.932-12.074S40.441,89.3,57.113,95.6s30.068,11.709,29.93,12.073" fill="#e0e0e0"/>
        <path id="Path_17137" data-name="Path 17137" d="M82.27,120.3c-.138.364-13.763-4.452-30.428-10.754S21.771,97.832,21.908,97.468s13.76,4.45,30.432,10.755S82.408,119.932,82.27,120.3" fill="#e0e0e0"/>
      </g>
    </g>
    <g id="g-check" transform="translate(645.61 251.61)">
      <rect id="Rectangle_4122" data-name="Rectangle 4122" width="45.602" height="45.602" rx="22.801" transform="translate(-0.411 -0.411)" fill="#a6d082"/>
      <g id="Group_11993" data-name="Group 11993" transform="translate(11.174 14.913)">
        <path id="Path_17138" data-name="Path 17138" d="M.265,7.572,6.247,14.3S9.985,6.076,22.7,1.59" transform="translate(-0.265 -1.59)" fill="none" stroke="#fff" stroke-linecap="round" stroke-linejoin="round" stroke-width="2"/>
      </g>
    </g>
  </g>
</svg>
