<svg width="125" height="105" viewBox="0 0 125 105" fill="none" xmlns="http://www.w3.org/2000/svg">
<path d="M113.136 17.778L70.1815 10.9747C64.1811 10.0243 58.5465 14.1181 57.5961 20.1185L47.9745 80.8672C47.0241 86.8676 51.1179 92.5022 57.1183 93.4526L100.073 100.256C106.073 101.206 111.708 97.1125 112.658 91.1121L122.28 30.3634C123.23 24.363 119.136 18.7284 113.136 17.778Z" fill="#F7F7F7"/>
<path d="M52.6373 9.64686L10.626 20.9108C4.75742 22.4842 1.27554 28.5172 2.849 34.3858L18.7791 93.8006C20.3525 99.6691 26.3855 103.151 32.2541 101.578L74.2654 90.3136C80.134 88.7402 83.6158 82.7072 82.0424 76.8386L66.1123 17.4239C64.5389 11.5553 58.5059 8.0734 52.6373 9.64686Z" fill="#F5F5F5"/>
<path d="M94.1701 0H36.0581C29.983 0 25.0581 4.92487 25.0581 11V90.85C25.0581 96.9251 29.983 101.85 36.0581 101.85H94.1701C100.245 101.85 105.17 96.9251 105.17 90.85V11C105.17 4.92487 100.245 0 94.1701 0Z" fill="#FAFAFA"/>
<g clip-path="url(#clip0_3867_28073)">
<path d="M74.2609 60.7786L49.3656 51.0905C48.9566 50.9314 48.582 50.6909 48.2632 50.3827C47.9445 50.0746 47.6879 49.7049 47.508 49.2947C47.3282 48.8846 47.2286 48.4419 47.215 47.9922C47.2014 47.5424 47.274 47.0942 47.4288 46.6734L60.4604 11.2165C60.7729 10.3664 61.4007 9.67891 62.2059 9.30515C63.011 8.9314 63.9274 8.90203 64.7535 9.22349L80.5423 15.3677L87.9998 33.0855L78.554 58.7856C78.2415 59.6356 77.6136 60.3231 76.8085 60.6968C76.0035 61.0706 75.0871 61.1 74.2609 60.7786Z" fill="#F5F5F5"/>
<path d="M80.5418 15.3672L76.8741 25.3448C76.5835 26.1354 76.61 27.0124 76.9478 27.7829C77.2855 28.5533 77.9068 29.1542 78.6751 29.4534L87.9993 33.0836L80.5418 15.3672Z" fill="#EBEBEB"/>
<path d="M76.6797 26.2715C76.6797 26.2715 75.6674 28.6438 78.0527 30.4812C78.1427 30.5499 78.2363 30.6135 78.3331 30.6717C79.4686 31.3699 86.9446 35.9554 87.0141 35.7666L87.9997 33.0849L78.6747 29.4568C78.6747 29.4568 76.3767 28.4688 76.6797 26.2718" fill="#E0E0E0"/>
<path d="M74.9362 24.1269C74.889 24.2552 72.2722 23.3555 69.0924 22.1192C65.9125 20.8828 63.37 19.7732 63.4187 19.645C63.4673 19.5168 66.0819 20.4157 69.2628 21.6528C72.4437 22.8899 74.9834 23.9977 74.9362 24.1259" fill="#E1E1E1"/>
<path d="M80.3011 32.6635C80.2538 32.7917 75.972 31.2443 70.7382 29.208C65.5044 27.1717 61.2979 25.4157 61.3451 25.2868C61.3924 25.1579 65.6731 26.7056 70.9087 28.7434C76.1442 30.7811 80.3493 32.5356 80.3011 32.6635Z" fill="#E1E1E1"/>
<path d="M80.2771 38.04C80.2299 38.1682 75.5657 36.4718 69.8608 34.252C64.156 32.0322 59.5667 30.1272 59.6136 29.999C59.6605 29.8708 64.324 31.5665 70.0313 33.7877C75.7385 36.009 80.324 37.9118 80.2771 38.04Z" fill="#E0E0E0"/>
<path d="M78.643 42.4853C78.5957 42.6136 73.9315 40.9175 68.2267 38.6973C62.5218 36.4771 57.9326 34.5725 57.9799 34.4443C58.0271 34.3161 62.6899 36.0118 68.3972 38.2331C74.1044 40.4543 78.6902 42.3571 78.643 42.4853Z" fill="#E0E0E0"/>
<path d="M77.0097 46.9287C76.9624 47.0569 72.2982 45.3609 66.593 43.1407C60.8878 40.9205 56.2993 39.0159 56.3466 38.8877C56.3938 38.7595 61.0566 40.4559 66.7639 42.675C72.4711 44.8941 77.0569 46.7994 77.0097 46.9276" fill="#E0E0E0"/>
<path d="M75.3757 51.3754C75.3285 51.5036 70.6643 49.8072 64.9594 47.5874C59.2546 45.3675 54.6654 43.4612 54.7123 43.333C54.7592 43.2048 59.4227 44.9005 65.1299 47.1214C70.8372 49.3423 75.423 51.2458 75.3757 51.3754Z" fill="#E0E0E0"/>
<path d="M57.6107 37.1799C57.6107 32.7443 54.1162 29.1484 49.8054 29.1484C45.4946 29.1484 42 32.7443 42 37.1799C42 41.6156 45.4946 45.2115 49.8054 45.2115C54.1162 45.2115 57.6107 41.6156 57.6107 37.1799Z" fill="#E1E1E1"/>
<g clip-path="url(#clip1_3867_28073)">
<path d="M52.915 35.2416L52.6032 34.6016C49.9133 35.4016 48.5489 37.1616 48.5489 37.1616L47.3015 36.2016L46.6777 36.8416L48.5489 39.4016C49.9913 36.6416 52.915 35.2416 52.915 35.2416Z" fill="white"/>
</g>
</g>
<path d="M95.1124 69.6465H35.5314C34.6422 69.6465 33.9214 70.3673 33.9214 71.2565V71.2575C33.9214 72.1467 34.6422 72.8675 35.5314 72.8675H95.1124C96.0016 72.8675 96.7224 72.1467 96.7224 71.2575V71.2565C96.7224 70.3673 96.0016 69.6465 95.1124 69.6465Z" fill="#D9D9D9"/>
<path d="M95.313 77.2949H43.784C43.0058 77.2949 42.375 77.9258 42.375 78.7039C42.375 79.4821 43.0058 80.1129 43.784 80.1129H95.313C96.0912 80.1129 96.722 79.4821 96.722 78.7039C96.722 77.9258 96.0912 77.2949 95.313 77.2949Z" fill="#E2E2E2"/>
<path d="M95.113 84.541H58.881C57.9918 84.541 57.271 85.2618 57.271 86.151V86.152C57.271 87.0412 57.9918 87.762 58.881 87.762H95.113C96.0022 87.762 96.723 87.0412 96.723 86.152V86.151C96.723 85.2618 96.0022 84.541 95.113 84.541Z" fill="#EBEBEB"/>
<defs>
<clipPath id="clip0_3867_28073">
<rect width="46" height="52" fill="white" transform="translate(42 9)"/>
</clipPath>
<clipPath id="clip1_3867_28073">
<rect width="6.23729" height="6.4" fill="white" transform="translate(46.6777 33.8008)"/>
</clipPath>
</defs>
</svg>
