<svg width="125" height="105" viewBox="0 0 125 105" fill="none" xmlns="http://www.w3.org/2000/svg">
<path d="M113.136 17.778L70.1815 10.9747C64.1811 10.0243 58.5465 14.1181 57.5961 20.1185L47.9745 80.8672C47.0241 86.8676 51.1179 92.5022 57.1183 93.4526L100.073 100.256C106.073 101.206 111.708 97.1125 112.658 91.1121L122.28 30.3634C123.23 24.363 119.136 18.7284 113.136 17.778Z" fill="#F7F7F7"/>
<path d="M52.6373 9.6471L10.626 20.911C4.75742 22.4845 1.27554 28.5174 2.849 34.386L18.7791 93.8008C20.3525 99.6694 26.3855 103.151 32.2541 101.578L74.2654 90.3139C80.134 88.7404 83.6158 82.7075 82.0424 76.8389L66.1123 17.4241C64.5389 11.5555 58.5059 8.07364 52.6373 9.6471Z" fill="#F5F5F5"/>
<path d="M94.1701 0H36.0581C29.983 0 25.0581 4.92487 25.0581 11V90.85C25.0581 96.9251 29.983 101.85 36.0581 101.85H94.1701C100.245 101.85 105.17 96.9251 105.17 90.85V11C105.17 4.92487 100.245 0 94.1701 0Z" fill="#FAFAFA"/>
<path d="M73.1627 23.8563L64.5002 32.725L55.8377 23.8563L49.8564 29.8375L58.7252 38.5L49.8564 47.1625L55.8377 53.1438L64.5002 44.275L73.1627 53.1438L79.1439 47.1625L70.2752 38.5L79.1439 29.8375L73.1627 23.8563Z" fill="#FF3B30"/>
<path d="M95.1124 69.6461H35.5314C34.6422 69.6461 33.9214 70.3669 33.9214 71.2561V71.2571C33.9214 72.1462 34.6422 72.8671 35.5314 72.8671H95.1124C96.0016 72.8671 96.7224 72.1462 96.7224 71.2571V71.2561C96.7224 70.3669 96.0016 69.6461 95.1124 69.6461Z" fill="#D9D9D9"/>
<path d="M95.313 77.295H43.784C43.0058 77.295 42.375 77.9259 42.375 78.704C42.375 79.4822 43.0058 80.113 43.784 80.113H95.313C96.0912 80.113 96.722 79.4822 96.722 78.704C96.722 77.9259 96.0912 77.295 95.313 77.295Z" fill="#E2E2E2"/>
<path d="M95.113 84.5411H58.881C57.9918 84.5411 57.271 85.2619 57.271 86.1511V86.1521C57.271 87.0413 57.9918 87.7621 58.881 87.7621H95.113C96.0022 87.7621 96.723 87.0413 96.723 86.1521V86.1511C96.723 85.2619 96.0022 84.5411 95.113 84.5411Z" fill="#EBEBEB"/>
</svg>
