<svg id="Group_11759" data-name="Group 11759" xmlns="http://www.w3.org/2000/svg" width="83.878" height="58.647" viewBox="0 0 83.878 58.647">
  <g id="Group_11758" data-name="Group 11758" transform="translate(0)">
    <circle id="Ellipse_8059" data-name="Ellipse 8059" cx="24.306" cy="24.306" r="24.306" transform="translate(19.315 0.405)" fill="#d7e5ff"/>
    <circle id="Ellipse_8060" data-name="Ellipse 8060" cx="10.831" cy="10.831" r="10.831" transform="translate(0 25.867) rotate(-45)" fill="#d7e5ff"/>
    <rect id="Rectangle_4043" data-name="Rectangle 4043" width="6.516" height="26.656" transform="translate(48.781 31.695)" fill="#112944"/>
    <path id="Path_17042" data-name="Path 17042" d="M3606.5,2475.223V2494.5h-54.35v-32.231h40.92v.01c.157-.006.315-.01.474-.01q.655,0,1.292.064A12.957,12.957,0,0,1,3606.5,2475.223Z" transform="translate(-3522.617 -2454.32)" fill="#5b79fd"/>
    <path id="Path_17043" data-name="Path 17043" d="M3287.865,2475.223V2494.5h-25.911v-19.276a12.956,12.956,0,0,1,25.911,0Z" transform="translate(-3245.382 -2454.32)" fill="#112944"/>
    <path id="Path_17044" data-name="Path 17044" d="M3118.563,3184.184h-25.911l-7.066,9.729c-2.623,3.611,1.052,6.539,8.207,6.539h0c7.155,0,15.082-2.927,17.7-6.539Z" transform="translate(-3076.079 -3144.005)" fill="#5b79fd"/>
    <circle id="Ellipse_8061" data-name="Ellipse 8061" cx="4.443" cy="4.443" r="4.443" transform="translate(54.31 24.064) rotate(-45)" fill="#112944"/>
    <path id="Path_17045" data-name="Path 17045" d="M4226.1,2462.332a4.109,4.109,0,0,1-4.295,3.378l-2.295-.139-1.732-.1-.77,12.663a2.05,2.05,0,0,1-2.043,1.924c-.042,0-.084,0-.127,0a2.048,2.048,0,0,1-1.92-2.169l.949-15.612h10.467v.01c.157-.006.315-.01.474-.01Q4225.458,2462.268,4226.1,2462.332Z" transform="translate(-4153.882 -2454.32)" fill="#051f7c" opacity="0.25" style="mix-blend-mode: multiply;isolation: isolate"/>
    <g id="Group_11757" data-name="Group 11757" transform="translate(58.545 0)">
      <rect id="Rectangle_4044" data-name="Rectangle 4044" width="4.097" height="25.471" rx="2.049" fill="#9bb5fc"/>
      <path id="Rectangle_4045" data-name="Rectangle 4045" d="M0,0H5.886A4.109,4.109,0,0,1,10,4.109v0A4.109,4.109,0,0,1,5.886,8.219H0a0,0,0,0,1,0,0V0A0,0,0,0,1,0,0Z" transform="translate(2.246 2.517)" fill="#9bb5fc"/>
      <path id="Path_17046" data-name="Path 17046" d="M4293.842,2340.625h.354l2.626,8.219h-2.979Z" transform="translate(-4289.745 -2338.108)" fill="#051f7c" opacity="0.25" style="mix-blend-mode: multiply;isolation: isolate"/>
    </g>
    <path id="Path_17047" data-name="Path 17047" d="M4068.239,3358.606s4.659-11.284,4.59-10.858.088,4.9.088,4.9l5.437-4.045-2.315,5.749,6.567-.532-2.16,4.791Z" transform="translate(-4015.67 -3300.255)" fill="#d7e5ff"/>
    <rect id="Rectangle_4046" data-name="Rectangle 4046" width="31.214" height="0.591" transform="translate(34.881 58.055)" fill="#112944"/>
  </g>
  <path id="Path_17048" data-name="Path 17048" d="M3368.267,2574.62l-7.468-8.507,4.31-3.841,4.1,4.666,16.015-14.272,3.372,3.841Z" transform="translate(-3339.813 -2540.682)" fill="#d7e5ff"/>
</svg>
