<svg width="162" height="137" viewBox="0 0 162 137" fill="none" xmlns="http://www.w3.org/2000/svg">
<path d="M147.802 23.249L91.6858 14.352C83.8469 13.1092 76.4857 18.4628 75.2441 26.3097L62.6743 105.753C61.4327 113.6 66.7809 120.969 74.6199 122.212L130.736 131.109C138.575 132.352 145.936 126.998 147.178 119.151L159.748 39.7074C160.989 31.8605 155.641 24.4918 147.802 23.249Z" fill="#F7F7F7"/>
<path d="M68.766 12.6159L13.8819 27.3461C6.21515 29.4038 1.66638 37.2934 3.72197 44.968L24.5332 122.667C26.5888 130.342 34.4703 134.895 42.1371 132.837L97.0212 118.107C104.688 116.049 109.237 108.16 107.181 100.485L86.3699 22.7862C84.3143 15.1116 76.4328 10.5582 68.766 12.6159Z" fill="#F5F5F5"/>
<path d="M123.025 0H47.1069C39.1702 0 32.7363 6.44045 32.7363 14.3851V118.808C32.7363 126.753 39.1702 133.193 47.1069 133.193H123.025C130.962 133.193 137.396 126.753 137.396 118.808V14.3851C137.396 6.44045 130.962 0 123.025 0Z" fill="#FAFAFA"/>
<g clip-path="url(#clip0_2101_9030)">
<path d="M108.432 35.734L106.015 30.8954C85.1697 36.9437 74.5959 50.25 74.5959 50.25L64.9284 42.992L60.0947 47.8306L74.5959 67.1852C85.7739 46.3186 108.432 35.734 108.432 35.734Z" fill="#56D49B"/>
</g>
<path d="M124.256 91.079H46.4183C45.2566 91.079 44.3149 92.0216 44.3149 93.1844V93.1858C44.3149 94.3486 45.2566 95.2912 46.4183 95.2912H124.256C125.417 95.2912 126.359 94.3486 126.359 93.1858V93.1844C126.359 92.0216 125.417 91.079 124.256 91.079Z" fill="#D9D9D9"/>
<path d="M124.518 101.082H57.2001C56.1835 101.082 55.3594 101.907 55.3594 102.925C55.3594 103.942 56.1835 104.767 57.2001 104.767H124.518C125.535 104.767 126.359 103.942 126.359 102.925C126.359 101.907 125.535 101.082 124.518 101.082Z" fill="#E2E2E2"/>
<path d="M124.257 110.558H76.9231C75.7615 110.558 74.8198 111.501 74.8198 112.663V112.665C74.8198 113.827 75.7615 114.77 76.9231 114.77H124.257C125.419 114.77 126.36 113.827 126.36 112.665V112.663C126.36 111.501 125.419 110.558 124.257 110.558Z" fill="#EBEBEB"/>
<defs>
<clipPath id="clip0_2101_9030">
<rect width="48.3372" height="48.3864" fill="white" transform="translate(60.0947 24.847)"/>
</clipPath>
</defs>
</svg>
