<svg width="124" height="103" viewBox="0 0 124 103" fill="none" xmlns="http://www.w3.org/2000/svg">
<circle cx="65.6174" cy="20.6048" r="2.23823" fill="#C4C4C4"/>
<path d="M113.136 15.778L70.1815 8.97469C64.1811 8.02433 58.5465 12.1181 57.5961 18.1185L47.9745 78.8672C47.0241 84.8676 51.1179 90.5022 57.1183 91.4526L100.073 98.2559C106.073 99.2063 111.708 95.1125 112.658 89.1121L122.28 28.3634C123.23 22.363 119.136 16.7284 113.136 15.778Z" fill="#F7F7F7"/>
<path d="M52.6373 7.6471L10.626 18.911C4.75742 20.4845 1.27554 26.5174 2.849 32.386L18.7791 91.8008C20.3525 97.6694 26.3855 101.151 32.2541 99.5778L74.2654 88.3139C80.134 86.7404 83.6158 80.7075 82.0424 74.8389L66.1123 15.4241C64.5389 9.55552 58.5059 6.07364 52.6373 7.6471Z" fill="#F5F5F5"/>
<path d="M95.112 0H37C30.9249 0 26 4.92487 26 11V90.85C26 96.9251 30.9249 101.85 37 101.85H95.112C101.187 101.85 106.112 96.9251 106.112 90.85V11C106.112 4.92487 101.187 0 95.112 0Z" fill="#FAFAFA"/>
<path d="M65.8772 34.0342C72.4699 34.0342 77.8144 28.6897 77.8144 22.0969C77.8144 15.5042 72.4699 10.1597 65.8772 10.1597C59.2844 10.1597 53.9399 15.5042 53.9399 22.0969C53.9399 28.6897 59.2844 34.0342 65.8772 34.0342Z" fill="#5A5A5A"/>
<path d="M66 23C68.7614 23 71 20.7614 71 18C71 15.2386 68.7614 13 66 13C63.2386 13 61 15.2386 61 18C61 20.7614 63.2386 23 66 23Z" fill="white"/>
<path d="M75 30.1576C72.7295 32.5259 69.5366 34 66 34C62.4634 34 59.2705 32.5259 57 30.1576C58.2537 26.58 61.8094 24 66 24C70.1906 24 73.7463 26.58 75 30.1576Z" fill="white"/>
<path d="M98.3881 52.6861H33.593C32.8185 52.6861 32.0441 51.8253 32.0441 50.9644V43.2167C32.0441 42.3558 32.8185 41.495 33.593 41.495H98.3881C99.1626 41.495 99.937 42.3558 99.937 43.2167V50.9644C99.937 51.8253 99.1626 52.6861 98.3881 52.6861Z" fill="#E9E9E9"/>
<path d="M98.388 69.0998H33.5928C32.8184 69.0998 32.0439 68.239 32.0439 67.3781V59.6304C32.0439 58.7695 32.8184 57.9087 33.5928 57.9087H98.388C99.1625 57.9087 99.9369 58.7695 99.9369 59.6304V67.3781C99.9369 68.239 99.1625 69.0998 98.388 69.0998Z" fill="#E9E9E9"/>
<path d="M98.388 92.1911H33.5928C32.8184 92.1911 32.0439 91.3303 32.0439 90.4694V82.7217C32.0439 81.8609 32.8184 81 33.5928 81H98.388C99.1625 81 99.9369 81.8609 99.9369 82.7217V90.4694C99.9369 91.3303 99.1625 92.1911 98.388 92.1911Z" fill="#D9D9D9"/>
<rect x="51" y="86" width="29.097" height="2.23823" fill="white"/>
<rect x="36.5205" y="62" width="29.097" height="2.23823" fill="white"/>
<rect x="36.5205" y="45.9714" width="29.097" height="2.23823" fill="white"/>
</svg>
