<svg xmlns="http://www.w3.org/2000/svg" width="13.361" height="13.361" viewBox="0 0 13.361 13.361">
  <g id="align-center" transform="translate(-7.85 -7.85)">
    <path id="Path_816" data-name="Path 816" d="M20.516,8H8.544a.544.544,0,0,0,0,1.088H20.516a.544.544,0,0,0,0-1.088Z" fill="#464674" stroke="#464674" stroke-width="0.3"/>
    <path id="Path_817" data-name="Path 817" d="M20.516,52H8.544a.544.544,0,0,0,0,1.088H20.516a.544.544,0,0,0,0-1.088Z" transform="translate(0 -32.028)" fill="#464674" stroke="#464674" stroke-width="0.3"/>
    <path id="Path_818" data-name="Path 818" d="M24.163,20.088a.544.544,0,1,0,0-1.088H16.544a.544.544,0,1,0,0,1.088Z" transform="translate(-5.823 -8.007)" fill="#464674" stroke="#464674" stroke-width="0.3"/>
    <path id="Path_819" data-name="Path 819" d="M20.516,30H8.544a.544.544,0,1,0,0,1.088H20.516a.544.544,0,0,0,0-1.088Z" transform="translate(0 -16.014)" fill="#464674" stroke="#464674" stroke-width="0.3"/>
    <path id="Path_820" data-name="Path 820" d="M24.163,42.088a.544.544,0,1,0,0-1.088H16.544a.544.544,0,0,0,0,1.088Z" transform="translate(-5.823 -24.021)" fill="#464674" stroke="#464674" stroke-width="0.3"/>
  </g>
</svg>
