<svg id="Group_509" data-name="Group 509" xmlns="http://www.w3.org/2000/svg" width="24" height="24" viewBox="0 0 24 24">
    <path id="Path_407" data-name="Path 407" d="M0,0H24V24H0Z" fill="none" />
    <circle id="Ellipse_73" data-name="Ellipse 73" cx="3" cy="3" r="3" transform="translate(9 10)" fill="none" stroke="#464674" stroke-linecap="round" stroke-linejoin="round" stroke-width="1.5" />
    <path id="Path_408" data-name="Path 408" d="M5,7H7A2,2,0,0,0,9,5a1,1,0,0,1,1-1h2m9,7v7a2,2,0,0,1-2,2H5a2,2,0,0,1-2-2V9A2,2,0,0,1,5,7" fill="none" stroke="#464674" stroke-linecap="round" stroke-linejoin="round" stroke-width="1.5" />
    <line id="Line_99" data-name="Line 99" x2="6" transform="translate(15 6)" fill="none" stroke="#464674" stroke-linecap="round" stroke-linejoin="round" stroke-width="1.5" />
    <line id="Line_100" data-name="Line 100" y2="6" transform="translate(18 3)" fill="none" stroke="#464674" stroke-linecap="round" stroke-linejoin="round" stroke-width="1.5" />
</svg>
