<svg width="41" height="41" viewBox="0 0 41 41" fill="none" xmlns="http://www.w3.org/2000/svg">
<path d="M20.6633 0.5C31.6188 0.5 40.5001 9.38126 40.5001 20.3368C40.5001 31.2924 31.6188 40.1737 20.6633 40.1737C9.70767 40.1737 0.826416 31.2924 0.826416 20.3368C0.826416 9.38126 9.70767 0.5 20.6633 0.5Z" fill="#C7C7C7" fill-opacity="0.06" stroke="#D4D4D6"/>
<path d="M23.6513 29.6121C17.1841 27.4326 13.712 23.4743 11.5057 17.8941C10.9541 16.778 10.9531 13.9874 14.2656 12.2018C15.0939 11.7553 15.9213 11.7553 17.0254 12.8714L18.1305 13.9874C18.5675 14.3273 18.8895 14.7933 19.0529 15.3222C19.2163 15.8512 19.2133 16.4175 19.0442 16.9447C18.823 17.6143 17.7992 18.2284 18.1305 19.5677C18.3828 20.3457 18.8138 21.0538 19.3891 21.6352C19.9643 22.2166 20.6677 22.6552 21.443 22.9158C21.9226 22.9536 22.4049 22.8885 22.8574 22.725C23.3099 22.5614 23.7223 22.3032 24.0669 21.9674C24.4394 21.7394 24.8817 21.6534 25.3124 21.7252C25.7432 21.797 26.1337 22.0218 26.4121 22.3583L28.0688 24.0328C29.173 25.1489 29.2979 26.0546 28.8416 26.8234C27.4151 29.7202 25.0163 30.0724 23.6513 29.6121Z" stroke="black" stroke-width="1.5" stroke-linecap="round" stroke-linejoin="round"/>
<path d="M23.5699 10.8975C25.1873 11.1692 26.6743 11.9542 27.8109 13.1365C29.0085 14.2334 29.8106 15.6948 30.0926 17.2941" stroke="black" stroke-width="1.5" stroke-linecap="round" stroke-linejoin="round"/>
<path d="M23.1363 14.0361C24.0699 14.2787 24.9172 14.7773 25.5827 15.4756C26.2907 16.1189 26.8001 16.9512 27.0509 17.8743" stroke="black" stroke-width="1.5" stroke-linecap="round" stroke-linejoin="round"/>
</svg>
