<svg width="16" height="16" viewBox="0 0 16 16" fill="none" xmlns="http://www.w3.org/2000/svg">
<g clip-path="url(#clip0_4388_25967)">
<path d="M13.167 11.0211L10.45 9.81407C10.1677 9.68782 9.85153 9.65859 9.55086 9.73096C9.2502 9.80332 8.98195 9.9732 8.788 10.2141L8.005 11.1931C6.7213 10.3693 5.62855 9.28067 4.8 8.00007L5.779 7.21707C6.01965 7.02318 6.18939 6.75511 6.26174 6.45466C6.3341 6.15421 6.30501 5.83826 6.179 5.55607L4.979 2.83207C4.84438 2.52875 4.60639 2.28311 4.30748 2.13897C4.00857 1.99482 3.66817 1.96155 3.347 2.04507L1.047 2.64507C0.713695 2.73182 0.42406 2.93838 0.233484 3.22526C0.0429087 3.51214 -0.0352335 3.8592 0.0140012 4.20007C0.442601 7.17478 1.82306 9.93069 3.94876 12.0553C6.07446 14.1799 8.83107 15.559 11.806 15.9861C12.1469 16.0343 12.4937 15.9553 12.78 15.764C13.0663 15.5726 13.2721 15.2825 13.358 14.9491L13.958 12.6491C14.0414 12.328 14.0076 11.9876 13.8627 11.6892C13.7177 11.3908 13.471 11.1539 13.167 11.0211Z" fill="#BDB39A"/>
<path d="M10 8C10 8.26522 10.1054 8.51957 10.2929 8.70711C10.4804 8.89464 10.7348 9 11 9C11.2652 9 11.5196 8.89464 11.7071 8.70711C11.8946 8.51957 12 8.26522 12 8C12 6.93913 11.5786 5.92172 10.8284 5.17157C10.0783 4.42143 9.06087 4 8 4C7.73478 4 7.48043 4.10536 7.29289 4.29289C7.10536 4.48043 7 4.73478 7 5C7 5.26522 7.10536 5.51957 7.29289 5.70711C7.48043 5.89464 7.73478 6 8 6C8.53043 6 9.03914 6.21071 9.41421 6.58579C9.78929 6.96086 10 7.46957 10 8Z" fill="#BDB39A"/>
<path d="M8 0C7.73478 0 7.48043 0.105357 7.29289 0.292893C7.10536 0.48043 7 0.734784 7 1C7 1.26522 7.10536 1.51957 7.29289 1.70711C7.48043 1.89464 7.73478 2 8 2C9.59081 2.00159 11.116 2.63424 12.2409 3.75911C13.3658 4.88399 13.9984 6.40919 14 8C14 8.26522 14.1054 8.51957 14.2929 8.70711C14.4804 8.89464 14.7348 9 15 9C15.2652 9 15.5196 8.89464 15.7071 8.70711C15.8946 8.51957 16 8.26522 16 8C15.9976 5.879 15.154 3.84555 13.6542 2.34578C12.1544 0.846002 10.121 0.00238211 8 0Z" fill="#BDB39A"/>
</g>
<defs>
<clipPath id="clip0_4388_25967">
<rect width="16" height="16" fill="white"/>
</clipPath>
</defs>
</svg>
