<svg width="41" height="41" viewBox="0 0 41 41" fill="none" xmlns="http://www.w3.org/2000/svg">
<path d="M20.3368 0.5C31.2924 0.5 40.1737 9.38126 40.1737 20.3368C40.1737 31.2924 31.2924 40.1737 20.3368 40.1737C9.38126 40.1737 0.5 31.2924 0.5 20.3368C0.5 9.38126 9.38126 0.5 20.3368 0.5Z" fill="#C7C7C7" fill-opacity="0.06" stroke="#D4D4D6"/>
<path d="M20.8329 29.761C22.5988 29.761 24.325 29.2374 25.7932 28.2563C27.2615 27.2753 28.4059 25.8809 29.0816 24.2494C29.7574 22.618 29.9342 20.8228 29.5897 19.0908C29.2452 17.3589 28.3949 15.768 27.1462 14.5194C25.8976 13.2707 24.3067 12.4204 22.5747 12.0759C20.8428 11.7314 19.0476 11.9082 17.4162 12.5839C15.7847 13.2597 14.3903 14.4041 13.4092 15.8723C12.4282 17.3406 11.9045 19.0668 11.9045 20.8327C11.9045 23.2006 12.8452 25.4716 14.5196 27.146C16.194 28.8204 18.465 29.761 20.8329 29.761Z" stroke="black" stroke-width="1.5" stroke-linecap="round" stroke-linejoin="round"/>
<path d="M12.8965 20.833H29.7612" stroke="black" stroke-width="1.5" stroke-linecap="round" stroke-linejoin="round"/>
<path d="M20.833 29.761C23.0244 29.761 24.8011 25.7641 24.8011 20.8327C24.8011 15.9012 23.0244 11.9043 20.833 11.9043C18.6416 11.9043 16.8648 15.9012 16.8648 20.8327C16.8648 25.7641 18.6416 29.761 20.833 29.761Z" stroke="black" stroke-width="1.5" stroke-linecap="round" stroke-linejoin="round"/>
</svg>
