<svg xmlns="http://www.w3.org/2000/svg" width="11.283" height="10.734" viewBox="0 0 11.283 10.734">
    <g id="check_1_" data-name="check (1)" transform="translate(0 -12.437)">
        <g id="Group_1374" data-name="Group 1374" transform="translate(0 12.437)">
            <path id="Path_790" data-name="Path 790" d="M250.9,17.8l-1.277-1.418.2-1.9-1.868-.4L247,12.437l-1.744.779-.235,4.588.235,4.588,1.744.779.953-1.655,1.868-.4-.2-1.9Z" transform="translate(-239.615 -12.437)" fill="#464771"/>
            <path id="Path_791" data-name="Path 791" d="M3.9,12.437l-.953,1.655-1.868.4.2,1.9L0,17.8l1.277,1.418-.2,1.9,1.868.4L3.9,23.171l1.744-.779V13.216Z" transform="translate(0 -12.437)" fill="#464771"/>
        </g>
        <g id="Group_1375" data-name="Group 1375" transform="translate(3.207 16.128)">
            <path id="Path_792" data-name="Path 792" d="M247.621,180.166l-.494-.441-1.871,2.1-.235.521.235.473Z" transform="translate(-242.822 -179.725)" fill="#f7f0eb"/>
            <path id="Path_793" data-name="Path 793" d="M145.816,233.1l-.468.468,1.968,1.968.467-.523v-.994l-.494.554Z" transform="translate(-145.348 -231.917)" fill="#fffbf5"/>
        </g>
    </g>
</svg>
