<svg xmlns="http://www.w3.org/2000/svg" width="28.244" height="18.504" viewBox="0 0 28.244 18.504">
  <g id="saudi-arabia" transform="translate(0 -88.276)">
    <path id="Path_609" data-name="Path 609" d="M27.757,106.78H.487A.487.487,0,0,1,0,106.293V88.763a.487.487,0,0,1,.487-.487h27.27a.487.487,0,0,1,.487.487v17.531A.487.487,0,0,1,27.757,106.78Z" fill="#73af00"/>
    <g id="Group_984" data-name="Group 984" transform="translate(5.584 92.172)">
      <path id="Path_610" data-name="Path 610" d="M102.407,168.068c.048.308.234.4.4.392a.4.4,0,0,0,.358-.373V167.03a.1.1,0,0,1,.192,0v1.06a.384.384,0,0,0,.526.356l.1-.038c.009.886-.045,1.665-.046,1.679a.192.192,0,0,0,.178.205h.014a.192.192,0,0,0,.191-.178c0-.062.064-.915.046-1.86l.058-.023a.193.193,0,0,1,.157.007.548.548,0,0,0,.633-.1l.035-.035a.573.573,0,0,0,.139-.589l-.163-.49a.192.192,0,0,0,.142-.355l-.384-.192a.192.192,0,0,0-.268.232l.309.927a.191.191,0,0,1-.046.2l-.035.035a.165.165,0,0,1-.19.031.574.574,0,0,0-.4-.04,6.621,6.621,0,0,0-.235-1.654.192.192,0,0,0-.364.121,6.6,6.6,0,0,1,.22,1.675l-.23.092v-1.06a.48.48,0,1,0-.96,0v.929l-.2-.967a.192.192,0,1,0-.376.076Z" transform="translate(-102.147 -165.675)" fill="#f5f5f5"/>
      <path id="Path_611" data-name="Path 611" d="M109.352,163.17a.192.192,0,0,0,.192-.192v-.192a.192.192,0,1,0-.384,0v.192A.192.192,0,0,0,109.352,163.17Z" transform="translate(-108.722 -162.39)" fill="#f5f5f5"/>
      <path id="Path_612" data-name="Path 612" d="M144.149,162.978h.192a.192.192,0,1,0,0-.384h-.192a.192.192,0,1,0,0,.384Z" transform="translate(-141.6 -162.39)" fill="#f5f5f5"/>
      <path id="Path_613" data-name="Path 613" d="M106.732,214.817l-.96.576a.192.192,0,1,0,.2.329l.96-.576a.192.192,0,1,0-.2-.329Z" transform="translate(-105.433 -211.707)" fill="#f5f5f5"/>
      <path id="Path_614" data-name="Path 614" d="M119.11,169.127l0,0a.438.438,0,0,0,.089.18.377.377,0,0,0,.327.127.53.53,0,0,0,.4-.21.347.347,0,0,0,.04.024.363.363,0,0,0,.338-.011.729.729,0,0,0,.344-.676.2.2,0,0,0-.2-.182.193.193,0,0,0-.184.2s0,.23-.135.315a.467.467,0,0,1-.06-.162.192.192,0,0,0-.381.032c0,.028-.006.274-.2.295a.469.469,0,0,1,0-.251.192.192,0,0,0-.295-.2l-.107.073c-.051-1.113-.168-2.41-.17-2.427a.192.192,0,1,0-.382.035c0,.018.137,1.519.179,2.665l-.03.028a.5.5,0,0,0-.42-.33.7.7,0,0,0-.676.428.454.454,0,0,0,.147.572.64.64,0,0,0,.572.026,1.6,1.6,0,0,1-.312.592.805.805,0,0,1-.613.313.5.5,0,0,1-.373-.159,1.1,1.1,0,0,1-.2-.687.192.192,0,0,0-.181-.2.188.188,0,0,0-.2.181,1.472,1.472,0,0,0,.3.965.88.88,0,0,0,.643.285h.039a1.17,1.17,0,0,0,.881-.447,1.986,1.986,0,0,0,.44-.984,2.175,2.175,0,0,1-.921,1.724.958.958,0,0,1-.961.07.823.823,0,0,1-.422-.812.192.192,0,1,0-.381-.048,1.205,1.205,0,0,0,.633,1.2,1.3,1.3,0,0,0,.581.139,1.42,1.42,0,0,0,.753-.227,2.552,2.552,0,0,0,1.1-2.051C119.116,169.4,119.114,169.269,119.11,169.127Zm-1.157.2c-.034-.023-.007-.1,0-.11a.326.326,0,0,1,.268-.189h.015c.025,0,.09.008.118.153,0,.015.006.031.008.047C118.145,169.354,118,169.358,117.952,169.325Z" transform="translate(-115.223 -165.677)" fill="#f5f5f5"/>
      <path id="Path_615" data-name="Path 615" d="M101.952,243.428a.192.192,0,0,0-.262.068.4.4,0,0,1-.032.046l-.006-.016a1.291,1.291,0,0,1,.006-.651.192.192,0,0,0-.371-.1,1.653,1.653,0,0,0,.006.885c.088.235.223.294.321.3h.026a.5.5,0,0,0,.382-.274A.192.192,0,0,0,101.952,243.428Z" transform="translate(-101.226 -238.015)" fill="#f5f5f5"/>
      <path id="Path_616" data-name="Path 616" d="M175.322,164.323a.19.19,0,0,0,.118-.041l.968-.76a.184.184,0,0,0,.032-.037.481.481,0,1,0-.552-.043l-.685.538a.192.192,0,0,0,.119.343Zm.872-1.344a.1.1,0,1,1-.1.1A.1.1,0,0,1,176.193,162.979Z" transform="translate(-171.053 -162.391)" fill="#f5f5f5"/>
      <path id="Path_617" data-name="Path 617" d="M185.433,190.442a.192.192,0,0,0-.243.121.587.587,0,0,0,.075.566.387.387,0,0,0,.287.109.844.844,0,0,0,.265-.049.192.192,0,1,0-.122-.364.665.665,0,0,1-.157.034.368.368,0,0,1,.016-.175A.192.192,0,0,0,185.433,190.442Z" transform="translate(-180.519 -188.693)" fill="#f5f5f5"/>
      <path id="Path_618" data-name="Path 618" d="M227.754,163.207a.192.192,0,0,0,.238-.131l.112-.384a.192.192,0,1,0-.369-.108l-.112.384A.192.192,0,0,0,227.754,163.207Z" transform="translate(-220.643 -162.251)" fill="#f5f5f5"/>
      <path id="Path_619" data-name="Path 619" d="M206.013,159.832a.192.192,0,1,0,.194-.331c-.039-.023-.033-.086-.032-.1a.151.151,0,0,1,.088-.128.192.192,0,0,0-.114-.367.527.527,0,0,0-.355.451A.473.473,0,0,0,206.013,159.832Z" transform="translate(-200.022 -158.898)" fill="#f5f5f5"/>
      <path id="Path_620" data-name="Path 620" d="M178.946,232.19a.192.192,0,0,0-.036.381.361.361,0,0,1,.036.2.192.192,0,0,0,.384,0C179.33,232.2,178.962,232.19,178.946,232.19Z" transform="translate(-174.477 -228.147)" fill="#f5f5f5"/>
      <path id="Path_621" data-name="Path 621" d="M234.808,208.378a.441.441,0,0,0,.072.006.656.656,0,0,0,.454-.227.192.192,0,0,0-.271-.271c-.115.115-.177.117-.192.114-.037-.005-.07-.053-.077-.066a.192.192,0,0,0-.342.174A.519.519,0,0,0,234.808,208.378Z" transform="translate(-227.083 -205.13)" fill="#f5f5f5"/>
      <path id="Path_622" data-name="Path 622" d="M293.962,190.954l0-.008a.192.192,0,0,0-.364.123.43.43,0,0,0,.312.3l.042,0a.47.47,0,0,0,.371-.256A.192.192,0,0,0,294,190.9.593.593,0,0,1,293.962,190.954Z" transform="translate(-282.974 -189.055)" fill="#f5f5f5"/>
      <path id="Path_623" data-name="Path 623" d="M204.815,171.058c0-.819-.036-1.587-.086-2.259a9.717,9.717,0,0,1,.674,1.367.192.192,0,1,0,.359-.135,12.714,12.714,0,0,0-1.11-2.1c-.1-1.034-.222-1.69-.224-1.7a.192.192,0,0,0-.378.069c0,.008.062.346.134.915-.147-.219-.285-.416-.4-.579l.009,0a.192.192,0,1,0,.122-.364l-.576-.192a.191.191,0,0,0-.216.07.194.194,0,0,0-.028.059.419.419,0,0,0-.4-.1.327.327,0,0,0-.183.342,1.734,1.734,0,0,0,.132.544c.113.32.184.556.064.668a.21.21,0,0,1-.2.069c-.118-.03-.236-.188-.314-.422a.177.177,0,0,0-.015-.027,3.264,3.264,0,0,0-.059-1.062.192.192,0,0,0-.376.075,1.827,1.827,0,0,1-.1,1.368.345.345,0,0,1-.287.13.11.11,0,0,1-.092-.043,1.85,1.85,0,0,1-.1-1.082.192.192,0,0,0-.19-.219c-.33,0-.455.376-.566.707-.048.146-.139.417-.2.445-.116,0-.191-.341-.192-.576a.192.192,0,0,0-.192-.192h0a.192.192,0,0,0-.192.192c0,.443.151.96.576.96.317,0,.445-.345.552-.665a1.2,1.2,0,0,0,.218.682.492.492,0,0,0,.382.175.73.73,0,0,0,.584-.271.881.881,0,0,0,.071-.106.716.716,0,0,0,.4.3.554.554,0,0,0,.136.017.609.609,0,0,0,.418-.179.57.57,0,0,0,.064-.077.518.518,0,0,0,.142.021.777.777,0,0,0,.4-.122.192.192,0,0,0-.206-.324.407.407,0,0,1-.217.057,1.981,1.981,0,0,0-.145-.631,2.663,2.663,0,0,1-.1-.321l.045.041a.192.192,0,0,0,.271,0,.184.184,0,0,0,.028-.042c.2.274.608.85,1.029,1.514.08.816.151,1.857.151,3a.192.192,0,0,0,.384,0Z" transform="translate(-194.204 -165.671)" fill="#f5f5f5"/>
      <path id="Path_624" data-name="Path 624" d="M293.778,166.844a.192.192,0,1,0,.384,0,1.957,1.957,0,0,0-.212-.662.192.192,0,0,0-.343.172A1.7,1.7,0,0,1,293.778,166.844Z" transform="translate(-282.975 -165.68)" fill="#f5f5f5"/>
      <path id="Path_625" data-name="Path 625" d="M263.317,249.994a.192.192,0,0,0-.258.085.55.55,0,0,1-.08.114,1.072,1.072,0,0,1,.05-.355.192.192,0,0,0-.319-.192l-.384.384a.192.192,0,0,0,.271.271l.01-.01a.4.4,0,0,0,.1.2.351.351,0,0,0,.249.11.343.343,0,0,0,.053,0,.625.625,0,0,0,.389-.348A.192.192,0,0,0,263.317,249.994Z" transform="translate(-253.387 -244.586)" fill="#f5f5f5"/>
      <path id="Path_626" data-name="Path 626" d="M171.178,205.7h-1.353q.018-.072.037-.137c.54-.112.86-.286.954-.519a.429.429,0,0,0-.072-.431.476.476,0,0,0-.485-.207c-.273.055-.516.349-.69.82a2.207,2.207,0,0,0-1.108.479,2.974,2.974,0,0,0-.4-1.276.192.192,0,0,0-.319.213,2.772,2.772,0,0,1,.352,1.429,1.519,1.519,0,0,1-1.152,1.536c-.216,0-.31-.256-.351-.473a2.2,2.2,0,0,0,.922-1.016,1.526,1.526,0,0,0-.128-1.041l-.014-.033.012.011a.192.192,0,0,0,.271-.271c-.112-.112-.33-.289-.528-.206a.327.327,0,0,0-.183.342.816.816,0,0,0,.089.309,1.16,1.16,0,0,1,.108.8,1.624,1.624,0,0,1-.628.693.189.189,0,0,0-.145-.07h0a.192.192,0,0,0-.192.192c0,.035,0,.071,0,.109a10.1,10.1,0,0,1-1.235.676.192.192,0,0,0,.08.367.189.189,0,0,0,.079-.017,11.057,11.057,0,0,0,1.146-.614.747.747,0,0,0,.694.631,1.631,1.631,0,0,0,1.284-.939,1.114,1.114,0,0,0,.128.183,2.164,2.164,0,0,0,1.467.563.192.192,0,0,0,.014-.383.411.411,0,0,1-.24-.116.329.329,0,0,1-.063-.252c.02-.237.783-.413,1.455-.424a.192.192,0,0,0,.178-.128l.192-.54a.192.192,0,0,0-.181-.256Zm-.843-.917.015,0c.018,0,.047.009.086.061.007.01.031.043.025.058-.022.054-.155.144-.431.225C170.152,204.893,170.27,204.8,170.335,204.788Zm-1.159,2.523a1.175,1.175,0,0,1-.531-.323.816.816,0,0,1-.17-.676.565.565,0,0,1,.04-.081c.27-.025.992.082,1.042.289a.645.645,0,0,0-.406.5A.809.809,0,0,0,169.176,207.311Z" transform="translate(-161.323 -201.841)" fill="#f5f5f5"/>
      <path id="Path_627" data-name="Path 627" d="M291.633,166.778l-.192-.576a.192.192,0,0,0-.373.08c.132,1.325.383,3.908.383,4.2,0,.266-.473.79-1.238,1.172a.192.192,0,0,0,.172.343c.7-.349,1.45-.972,1.45-1.515,0-.284-.2-2.324-.309-3.471A.192.192,0,0,0,291.633,166.778Z" transform="translate(-279.688 -165.675)" fill="#f5f5f5"/>
      <path id="Path_628" data-name="Path 628" d="M335.978,194.162a.192.192,0,0,0,.322-.183.969.969,0,0,1-.028-.373.2.2,0,0,0,.2-.165.192.192,0,0,0-.163-.217.347.347,0,0,0-.316.107.439.439,0,0,0-.1.206l-.222-.222a.192.192,0,0,0-.271.271Z" transform="translate(-322.431 -191.327)" fill="#f5f5f5"/>
      <path id="Path_629" data-name="Path 629" d="M340.929,213.3l-.72.516a.192.192,0,1,0,.224.312l.72-.516a.192.192,0,1,0-.224-.312Z" transform="translate(-326.95 -210.265)" fill="#f5f5f5"/>
      <path id="Path_630" data-name="Path 630" d="M352.783,225.737a.192.192,0,0,0,.017.255.533.533,0,0,1,.039.276.192.192,0,0,0,.185.2h.007a.192.192,0,0,0,.192-.185c.014-.392-.114-.535-.17-.578A.192.192,0,0,0,352.783,225.737Z" transform="translate(-338.868 -221.98)" fill="#f5f5f5"/>
      <path id="Path_631" data-name="Path 631" d="M324.864,170.852a.192.192,0,0,0,.192-.192c0-.283-.015-.6-.038-.928a7.006,7.006,0,0,1,.45.836.192.192,0,0,0,.176.116.189.189,0,0,0,.076-.016.192.192,0,0,0,.1-.252,10.568,10.568,0,0,0-.878-1.514c-.075-.7-.174-1.395-.25-1.89a.185.185,0,0,0,.12-.03.189.189,0,0,0,.085-.173.186.186,0,0,0,.021.055.7.7,0,0,1,.07.47.192.192,0,0,0,.149.227.2.2,0,0,0,.039,0,.192.192,0,0,0,.188-.153,1.088,1.088,0,0,0-.122-.754.193.193,0,0,0-.265-.059.19.19,0,0,0-.086.174.186.186,0,0,0-.022-.055l-.324-.5a.192.192,0,0,0-.351.137c0,.015.149.857.279,1.873-.147-.208-.294-.411-.437-.6-.023-.29-.046-.559-.067-.781a.2.2,0,0,0,.031-.012.192.192,0,0,0,.086-.258l-.192-.384a.192.192,0,0,0-.363.1c.023.229.047.483.07.749-.121-.16-.234-.307-.33-.431a.192.192,0,0,0-.039-.317l-.384-.192a.192.192,0,0,0-.236.292c.01.013.483.605,1.048,1.37a15.433,15.433,0,0,1,.071,2.864c-.017.051-.046.11-.074.112-.116.016-.393-.243-.532-.521a.267.267,0,0,0-.257-.174c-.206.013-.287.24-.433.652a2.7,2.7,0,0,1-.381.812,2.179,2.179,0,0,1-.239-.756.191.191,0,0,0,.371-.065c0-.286-.2-2.466-.312-3.661a.192.192,0,0,0,.11-.239l-.192-.576a.192.192,0,0,0-.373.079c.13,1.369.375,4.014.383,4.379l0-.01a.192.192,0,1,0-.38.054c.056.392.2,1.067.529,1.177a.32.32,0,0,0,.1.017.377.377,0,0,0,.27-.125,2.768,2.768,0,0,0,.475-.959c.028-.079.062-.174.093-.254.176.257.483.577.795.552a.471.471,0,0,0,.411-.374,10.81,10.81,0,0,0-.007-2.4c.162.227.324.459.478.688.06.575.1,1.151.1,1.624A.192.192,0,0,0,324.864,170.852Z" transform="translate(-309.274 -165.681)" fill="#f5f5f5"/>
      <path id="Path_632" data-name="Path 632" d="M382.764,170.25c-.136-1.013-.325-2.187-.445-2.907a.189.189,0,0,0,.161-.034.192.192,0,0,0,.036-.269l-.348-.456a.192.192,0,0,0-.342.149c0,.02.346,1.99.557,3.567a1.8,1.8,0,0,1-.316,1.44.849.849,0,0,1-.7.262.192.192,0,1,0-.024.383c.032,0,.064,0,.1,0a1.212,1.212,0,0,0,.913-.387A2.143,2.143,0,0,0,382.764,170.25Z" transform="translate(-365.717 -166.089)" fill="#f5f5f5"/>
      <path id="Path_633" data-name="Path 633" d="M371.066,256.194a.2.2,0,0,0,.009.27.081.081,0,0,1,.023.04.089.089,0,0,1-.029.043.192.192,0,1,0,.272.271.435.435,0,0,0,.141-.328.457.457,0,0,0-.151-.313A.19.19,0,0,0,371.066,256.194Z" transform="translate(-356.13 -250.767)" fill="#f5f5f5"/>
      <path id="Path_634" data-name="Path 634" d="M155.858,327h-1.344v-.192a.192.192,0,0,0-.384,0V327H143.957a2.68,2.68,0,0,0,1.728.576h8.446v.384a.192.192,0,0,0,.192.192h1.536a.576.576,0,1,0,0-1.152Zm0,.768h-1.344v-.192h1.536l-.034-.1a.186.186,0,0,1,.034.1A.192.192,0,0,1,155.858,327.773Z" transform="translate(-141.6 -317.369)" fill="#f5f5f5"/>
    </g>
  </g>
</svg>
