<svg xmlns="http://www.w3.org/2000/svg" width="19.423" height="19.423" viewBox="0 0 19.423 19.423">
  <g id="Group_1079" data-name="Group 1079" transform="translate(-1088 -28)">
    <g id="Group_347" data-name="Group 347" transform="translate(1088 28)">
      <path id="Path_318" data-name="Path 318" d="M0,0H19.423V19.423H0Z" fill="none"/>
      <path id="Path_319" data-name="Path 319" d="M8.856,4.619a1.619,1.619,0,1,1,3.237,0A5.665,5.665,0,0,1,15.33,9.474V11.9a3.237,3.237,0,0,0,1.619,2.428H4A3.237,3.237,0,0,0,5.619,11.9V9.474A5.665,5.665,0,0,1,8.856,4.619" transform="translate(-0.763 -0.572)" fill="none" stroke="#313131" stroke-linecap="round" stroke-linejoin="round" stroke-width="1.5"/>
      <path id="Path_320" data-name="Path 320" d="M9,17v.809a2.428,2.428,0,0,0,4.856,0V17" transform="translate(-1.716 -3.242)" fill="none" stroke="#313131" stroke-linecap="round" stroke-linejoin="round" stroke-width="1.5"/>
      <path id="Path_321" data-name="Path 321" d="M20.467,6.016A8.943,8.943,0,0,0,18.206,3" transform="translate(-3.472 -0.572)" fill="none" stroke="#313131" stroke-linecap="round" stroke-linejoin="round" stroke-width="1.5"/>
      <path id="Path_322" data-name="Path 322" d="M3,6.016A8.943,8.943,0,0,1,5.26,3" transform="translate(-0.572 -0.572)" fill="none" stroke="#313131" stroke-linecap="round" stroke-linejoin="round" stroke-width="1.5"/>
    </g>
  </g>
</svg>
