<svg width="17" height="16" viewBox="0 0 17 16" fill="none" xmlns="http://www.w3.org/2000/svg">
<path d="M8.50004 0.208496C6.959 0.208496 5.45256 0.665469 4.17123 1.52163C2.88989 2.37779 1.89122 3.59468 1.30148 5.01842C0.71175 6.44216 0.557449 8.00881 0.858092 9.52024C1.15874 11.0317 1.90082 12.42 2.9905 13.5097C4.08019 14.5994 5.46853 15.3415 6.97997 15.6421C8.4914 15.9428 10.058 15.7885 11.4818 15.1987C12.9055 14.609 14.1224 13.6103 14.9786 12.329C15.8347 11.0476 16.2917 9.54121 16.2917 8.00016C16.2893 5.93443 15.4676 3.95401 14.0069 2.49331C12.5462 1.03262 10.5658 0.210933 8.50004 0.208496ZM11.8342 6.73012L8.2925 10.2718C8.15967 10.4046 7.97954 10.4792 7.79171 10.4792C7.60389 10.4792 7.42375 10.4046 7.29092 10.2718L5.16592 8.14679C5.09827 8.08145 5.0443 8.00328 5.00718 7.91687C4.97006 7.83045 4.95052 7.7375 4.9497 7.64345C4.94888 7.54939 4.9668 7.45612 5.00242 7.36907C5.03804 7.28202 5.09063 7.20293 5.15714 7.13642C5.22365 7.06992 5.30273 7.01732 5.38979 6.98171C5.47684 6.94609 5.57011 6.92817 5.66416 6.92898C5.75821 6.9298 5.85116 6.94934 5.93758 6.98647C6.024 7.02359 6.10216 7.07755 6.1675 7.1452L7.79171 8.76941L10.8326 5.72854C10.9662 5.59951 11.1451 5.52811 11.3308 5.52973C11.5166 5.53134 11.6942 5.60584 11.8255 5.73717C11.9569 5.8685 12.0314 6.04616 12.033 6.23188C12.0346 6.4176 11.9632 6.59653 11.8342 6.73012Z" fill="url(#paint0_linear_14022_94429)"/>
<defs>
<linearGradient id="paint0_linear_14022_94429" x1="-0.906623" y1="18.4332" x2="13.729" y2="2.20033" gradientUnits="userSpaceOnUse">
<stop stop-color="#1BA0DB"/>
<stop offset="1" stop-color="#57BF99"/>
</linearGradient>
</defs>
</svg>
