<svg width="16" height="17" viewBox="0 0 16 17" fill="none" xmlns="http://www.w3.org/2000/svg">
<path d="M8 0.5C3.6 0.5 0 4.1 0 8.5C0 12.9 3.6 16.5 8 16.5C12.4 16.5 16 12.9 16 8.5C16 4.1 12.4 0.5 8 0.5ZM11.707 7.207L7.707 11.207C7.512 11.402 7.256 11.5 7 11.5C6.744 11.5 6.488 11.402 6.293 11.207L4.293 9.207C3.902 8.816 3.902 8.184 4.293 7.793C4.684 7.402 5.316 7.402 5.707 7.793L7 9.086L10.293 5.793C10.684 5.402 11.316 5.402 11.707 5.793C12.098 6.184 12.098 6.816 11.707 7.207Z" fill="#56D49B"/>
</svg>
