<svg id="Group_386" data-name="Group 386" xmlns="http://www.w3.org/2000/svg" width="24" height="24" viewBox="0 0 24 24">
  <path id="Path_350" data-name="Path 350" d="M0,0H24V24H0Z" fill="none"/>
  <path id="Path_351" data-name="Path 351" d="M9,4h3l2,2h5a2,2,0,0,1,2,2v7a2,2,0,0,1-2,2H9a2,2,0,0,1-2-2V6A2,2,0,0,1,9,4" fill="none" stroke="#464674" stroke-linecap="round" stroke-linejoin="round" stroke-width="1.5"/>
  <path id="Path_352" data-name="Path 352" d="M17,17v2a2,2,0,0,1-2,2H5a2,2,0,0,1-2-2V10A2,2,0,0,1,5,8H7" fill="none" stroke="#464674" stroke-linecap="round" stroke-linejoin="round" stroke-width="1.5"/>
</svg>
