<svg xmlns="http://www.w3.org/2000/svg" width="50" height="50" viewBox="0 0 50 50">
  <g id="Group_462" data-name="Group 462" transform="translate(-456 -1045)">
    <g id="Rectangle_180" data-name="Rectangle 180" transform="translate(456 1045)" fill="#ffe5e5" stroke="#ffa0a0" stroke-width="1">
      <rect width="50" height="50" rx="8" stroke="none"/>
      <rect x="0.5" y="0.5" width="49" height="49" rx="7.5" fill="none"/>
    </g>
    <g id="Group_387" data-name="Group 387" transform="translate(469 1058)">
      <path id="Path_353" data-name="Path 353" d="M0,0H24V24H0Z" fill="none"/>
      <line id="Line_63" data-name="Line 63" x2="16" transform="translate(4 7)" fill="none" stroke="red" stroke-linecap="round" stroke-linejoin="round" stroke-width="1.5"/>
      <line id="Line_64" data-name="Line 64" y2="6" transform="translate(10 11)" fill="none" stroke="red" stroke-linecap="round" stroke-linejoin="round" stroke-width="1.5"/>
      <line id="Line_65" data-name="Line 65" y2="6" transform="translate(14 11)" fill="none" stroke="red" stroke-linecap="round" stroke-linejoin="round" stroke-width="1.5"/>
      <path id="Path_354" data-name="Path 354" d="M5,7,6,19a2,2,0,0,0,2,2h8a2,2,0,0,0,2-2L19,7" fill="none" stroke="red" stroke-linecap="round" stroke-linejoin="round" stroke-width="1.5"/>
      <path id="Path_355" data-name="Path 355" d="M9,7V4a1,1,0,0,1,1-1h4a1,1,0,0,1,1,1V7" fill="none" stroke="red" stroke-linecap="round" stroke-linejoin="round" stroke-width="1.5"/>
    </g>
  </g>
</svg>
