<svg xmlns="http://www.w3.org/2000/svg" width="87.97" height="60.43" viewBox="0 0 87.97 60.43">
  <g id="jpg" transform="matrix(0.966, -0.259, 0.259, 0.966, -6.119, 11.477)">
    <path id="Path_467" data-name="Path 467" d="M3.168,0A3.177,3.177,0,0,0,0,3.168V47.513A3.177,3.177,0,0,0,3.168,50.68H34.843a3.177,3.177,0,0,0,3.168-3.168V12.67L25.34,0Z" transform="translate(6.335 0)" fill="#e2e5e7"/>
    <path id="Path_468" data-name="Path 468" d="M3.168,12.67h9.5L0,0V9.5A3.177,3.177,0,0,0,3.168,12.67Z" transform="translate(31.675 0)" fill="#b0b7bd"/>
    <path id="Path_469" data-name="Path 469" d="M9.5,9.5,0,0H9.5Z" transform="translate(34.843 12.67)" fill="#cad1d8"/>
    <path id="Path_470" data-name="Path 470" d="M38.01,17.421a1.588,1.588,0,0,1-1.584,1.584H1.584A1.588,1.588,0,0,1,0,17.421V1.584A1.588,1.588,0,0,1,1.584,0H36.426A1.588,1.588,0,0,1,38.01,1.584Z" transform="translate(0 23.756)" fill="#bcb39a"/>
    <g id="Group_683" data-name="Group 683" transform="translate(6.473 29.022)">
      <path id="Path_471" data-name="Path 471" d="M4.412.8A.837.837,0,0,1,6.085.8v5c0,1.989-.95,3.193-3.141,3.193a3.18,3.18,0,0,1-2.76-1.3C-.463,6.915.754,5.8,1.413,6.611A1.884,1.884,0,0,0,3.071,7.4c.708-.025,1.33-.344,1.343-1.6V.8Z" transform="translate(0 0.187)" fill="#fff"/>
      <path id="Path_472" data-name="Path 472" d="M0,.874A.872.872,0,0,1,.862,0H3.787a3.02,3.02,0,0,1,3.13,3.215,3,3,0,0,1-3.13,3.117H1.672V8a.8.8,0,0,1-.811.873A.855.855,0,0,1,0,8V.874Zm1.672.721V4.75H3.787a1.578,1.578,0,0,0,0-3.155Z" transform="translate(8.31 0.111)" fill="#fff"/>
      <path id="Path_473" data-name="Path 473" d="M7.662,8.014A4.8,4.8,0,0,1,4.547,9.078,4.175,4.175,0,0,1,0,4.544,4.514,4.514,0,0,1,4.659,0,4.145,4.145,0,0,1,7.547,1.113a.821.821,0,0,1-1.1,1.216,2.676,2.676,0,0,0-1.786-.8A3.018,3.018,0,0,0,1.647,4.544a2.8,2.8,0,0,0,2.9,3.015,3.233,3.233,0,0,0,1.9-.57V5.432h-1.9a.773.773,0,1,1,0-1.546H7.079a.866.866,0,0,1,.9.747v2.7A1.02,1.02,0,0,1,7.662,8.014Z" transform="translate(16.607 0)" fill="#fff"/>
    </g>
    <path id="Path_474" data-name="Path 474" d="M30.091,1.584H0V3.168H30.091a1.588,1.588,0,0,0,1.584-1.584V0A1.588,1.588,0,0,1,30.091,1.584Z" transform="translate(6.335 41.178)" fill="#cad1d8"/>
  </g>
  <g id="pdf" transform="matrix(0.966, 0.259, -0.259, 0.966, 45.135, 0)">
    <path id="Path_475" data-name="Path 475" d="M3.168,0A3.177,3.177,0,0,0,0,3.168V47.513A3.177,3.177,0,0,0,3.167,50.68H34.843a3.177,3.177,0,0,0,3.168-3.168V12.67L25.34,0Z" transform="translate(6.335 0)" fill="#e2e5e7"/>
    <path id="Path_476" data-name="Path 476" d="M3.168,12.67h9.5L0,0V9.5A3.177,3.177,0,0,0,3.168,12.67Z" transform="translate(31.675 0)" fill="#b0b7bd"/>
    <path id="Path_477" data-name="Path 477" d="M9.5,9.5,0,0H9.5Z" transform="translate(34.843 12.67)" fill="#cad1d8"/>
    <path id="Path_478" data-name="Path 478" d="M38.01,17.421a1.588,1.588,0,0,1-1.584,1.584H1.584A1.588,1.588,0,0,1,0,17.421V1.584A1.588,1.588,0,0,1,1.584,0H36.426A1.588,1.588,0,0,1,38.01,1.584Z" transform="translate(0 23.756)" fill="#464674"/>
    <g id="Group_684" data-name="Group 684" transform="translate(6.904 29.133)">
      <path id="Path_479" data-name="Path 479" d="M0,.874A.871.871,0,0,1,.86,0H3.785a3.02,3.02,0,0,1,3.13,3.215,3,3,0,0,1-3.13,3.117H1.671V8a.8.8,0,0,1-.811.873A.853.853,0,0,1,0,8Zm1.671.721V4.75H3.785a1.578,1.578,0,0,0,0-3.155Z" fill="#fff"/>
      <path id="Path_480" data-name="Path 480" d="M.874,8.763A.793.793,0,0,1,0,7.979V.786A.861.861,0,0,1,.874,0h2.9c5.787,0,5.66,8.763.114,8.763Zm.8-7.217V7.219h2.1c3.419,0,3.571-5.673,0-5.673Z" transform="translate(8.521 0.114)" fill="#fff"/>
      <path id="Path_481" data-name="Path 481" d="M1.657,1.649V3.662H4.886a.979.979,0,0,1,.912.9.88.88,0,0,1-.912.76H1.657V7.979A.75.75,0,0,1,.9,8.763.8.8,0,0,1,0,7.979V.786A.8.8,0,0,1,.9,0H5.344a.79.79,0,0,1,.887.786.875.875,0,0,1-.887.862H1.657Z" transform="translate(18.351 0.112)" fill="#fff"/>
    </g>
    <path id="Path_482" data-name="Path 482" d="M30.091,1.584H0V3.167H30.091a1.588,1.588,0,0,0,1.584-1.584V0A1.588,1.588,0,0,1,30.091,1.584Z" transform="translate(6.335 41.178)" fill="#cad1d8"/>
  </g>
</svg>
