<svg width="16" height="16" viewBox="0 0 16 16" fill="none" xmlns="http://www.w3.org/2000/svg">
<g clip-path="url(#clip0_9014_95067)">
<path d="M15 9C14.4 9 14 9.4 14 10V14H2V2H6C6.6 2 7 1.6 7 1C7 0.4 6.6 0 6 0H2C0.895 0 0 0.895 0 2V14C0 15.105 0.895 16 2 16H14C15.105 16 16 15.105 16 14V10C16 9.4 15.6 9 15 9Z" fill="#464774"/>
<path d="M13.854 0.14625C13.659 -0.04875 13.342 -0.04875 13.147 0.14625L6.14596 7.14625C6.09096 7.20125 6.04896 7.26825 6.02496 7.34125L5.02496 10.3412C4.96496 10.5212 5.01196 10.7192 5.14596 10.8532C5.24196 10.9482 5.36896 10.9992 5.49996 10.9992C5.55296 10.9992 5.60596 10.9912 5.65796 10.9732L8.65796 9.97325C8.73096 9.94925 8.79896 9.90725 8.85296 9.85225L15.854 2.85425C16.049 2.65925 16.049 2.34225 15.854 2.14725L13.854 0.14625Z" fill="#464774"/>
</g>
<defs>
<clipPath id="clip0_9014_95067">
<rect width="16" height="16" fill="white"/>
</clipPath>
</defs>
</svg>
