
<svg xmlns="http://www.w3.org/2000/svg" width="24" height="24" viewBox="0 0 24 24">
  <g id="Group_531" data-name="Group 531" transform="translate(0 -0.051)">
    <rect id="Rectangle_51" data-name="Rectangle 51" width="24" height="24" transform="translate(0 0.051)" fill="none"/>
    <path id="Path_245" data-name="Path 245" d="M50.338,50.791V46.36a.738.738,0,0,0-.738-.738H46.646a.738.738,0,0,0-.738.738v4.431a.738.738,0,0,1-.738.738h-4.43A.739.739,0,0,1,40,50.791V42.256a.738.738,0,0,1,.242-.546L47.626,35a.738.738,0,0,1,.994,0L56,41.71a.738.738,0,0,1,.242.546v8.535a.738.738,0,0,1-.739.738H51.077a.738.738,0,0,1-.738-.738Z" transform="translate(-36.308 -31.439)" fill="none" stroke="#464674" stroke-linecap="round" stroke-linejoin="round" stroke-width="1.5"/>
  </g>
</svg>
