<svg width="52" height="52" viewBox="0 0 52 52" fill="none" xmlns="http://www.w3.org/2000/svg">
<g clip-path="url(#clip0_9882_8344)">
<path d="M38.0622 6.01953H27.8359V19.8339H27.8369C27.8394 19.9447 27.8945 20.0545 28.0042 20.1177L32.4887 22.7069C32.7793 22.8746 33.1372 22.8746 33.4278 22.7069L37.8939 20.1284C38.0071 20.063 38.0628 19.9482 38.0619 19.8339H38.0623L38.0622 6.01953Z" fill="url(#paint0_linear_9882_8344)"/>
<path d="M27.8359 6.01953V12.6035H32.2087C32.8938 12.6035 33.5552 12.3537 34.0691 11.9008L38.0622 8.38228V6.01953H27.8359Z" fill="url(#paint1_linear_9882_8344)"/>
<path d="M39.2802 3.71338H26.6177V7.43473H26.6189C26.6219 7.57184 26.6903 7.70783 26.8261 7.78624L32.3789 10.9922C32.7386 11.1999 33.182 11.1999 33.5417 10.9922L39.0718 7.79934C39.2119 7.71839 39.281 7.57621 39.2797 7.43463H39.2802V3.71338Z" fill="url(#paint2_linear_9882_8344)"/>
<path d="M32.3675 0.154896L26.8267 3.34264C26.5483 3.5028 26.548 3.90428 26.826 4.06485L32.379 7.27087C32.7387 7.47857 33.182 7.47857 33.5418 7.27087L39.0718 4.07805C39.3497 3.91758 39.3497 3.51651 39.0718 3.35615L33.5287 0.15581C33.1694 -0.0515807 32.727 -0.0519869 32.3675 0.154896Z" fill="#A996EB"/>
<path d="M32.5536 1.29497L28.788 3.4613C28.5988 3.57017 28.5986 3.84297 28.7876 3.95215L32.5613 6.13087C32.8057 6.27204 33.1071 6.27204 33.3515 6.13087L37.1098 3.96108C37.2986 3.85211 37.2986 3.57951 37.1098 3.47044L33.3427 1.29558C33.0986 1.15461 32.7979 1.1544 32.5536 1.29497Z" fill="url(#paint3_linear_9882_8344)"/>
<path d="M32.5539 2.95875L29.8057 4.53987L32.5617 6.13105C32.8061 6.27222 33.1075 6.27222 33.3519 6.13105L36.0942 4.54779L33.3431 2.95936C33.099 2.81849 32.7982 2.81818 32.5539 2.95875Z" fill="#43386B"/>
<path d="M9.70166 22.5271V41.8272C9.70166 42.4725 9.92175 42.922 10.2671 43.105L10.267 43.1053L25.5179 51.9081L40.5443 23.6141L9.70166 22.5271Z" fill="url(#paint4_linear_9882_8344)"/>
<path d="M9.70166 22.5271V40.6333L20.4606 41.4722C22.028 41.5943 23.5954 41.2358 24.9538 40.4442L30.0006 23.2425L9.70166 22.5271Z" fill="url(#paint5_linear_9882_8344)"/>
<path d="M42.2983 23.2111L33.6259 21.0459L24.9536 31.3304V50.6305C24.9536 51.7818 25.6535 52.3108 26.5169 51.8123L40.735 43.6035C41.5984 43.1051 42.2983 41.7678 42.2983 40.6166V23.2111Z" fill="url(#paint6_linear_9882_8344)"/>
<path d="M35.1086 15.7647L19.8013 6.92469L19.7999 6.92753C18.9387 6.4377 17.6399 7.23557 16.8239 8.79496L7.03163 27.5047C6.17566 29.1403 6.17566 30.9906 7.03163 31.6378C7.09967 31.6892 7.17198 31.7282 7.24612 31.7616L22.2838 40.4441L35.1086 15.7647Z" fill="url(#paint7_linear_9882_8344)"/>
<path d="M43.4183 29.0983C42.8574 29.4222 42.2963 29.4608 41.8684 29.1371L33.6262 22.9062L25.3839 38.6544C24.5279 40.2901 23.1399 41.0912 22.2841 40.4441C21.4281 39.797 21.4281 37.9466 22.2841 36.3111L32.0763 17.6013C32.9322 15.9659 34.3201 15.1645 35.1761 15.8116L44.9683 23.2143C45.8242 23.8614 45.8242 25.7118 44.9683 27.3474C44.5403 28.1652 43.9792 28.7744 43.4183 29.0983Z" fill="#7662BD"/>
<path d="M32.9491 30.1711L29.6416 32.0807V36.4907L32.9491 34.5812V30.1711Z" fill="#43386B"/>
<path d="M29.6416 38.2963V42.7062L32.9491 40.7967V36.3867L29.6416 38.2963Z" fill="#43386B"/>
<path d="M34.3032 40.0148L37.6106 38.1053V33.6953L34.3032 35.6049V40.0148Z" fill="#43386B"/>
<path d="M34.3032 29.3893V33.7993L37.6106 31.8897V27.4797L34.3032 29.3893Z" fill="#43386B"/>
</g>
<defs>
<linearGradient id="paint0_linear_9882_8344" x1="32.2925" y1="14.4262" x2="34.0633" y2="14.4262" gradientUnits="userSpaceOnUse">
<stop stop-color="#D7D1EB"/>
<stop offset="1" stop-color="#F2EFFA"/>
</linearGradient>
<linearGradient id="paint1_linear_9882_8344" x1="33.1329" y1="5.13573" x2="32.249" y2="15.0649" gradientUnits="userSpaceOnUse">
<stop stop-color="#7662BD"/>
<stop offset="1" stop-color="#7662BD" stop-opacity="0"/>
</linearGradient>
<linearGradient id="paint2_linear_9882_8344" x1="32.1028" y1="7.43067" x2="34.1886" y2="7.43067" gradientUnits="userSpaceOnUse">
<stop stop-color="#594A8E"/>
<stop offset="0.1603" stop-color="#5F4F98"/>
<stop offset="0.6898" stop-color="#705DB3"/>
<stop offset="1" stop-color="#7662BD"/>
</linearGradient>
<linearGradient id="paint3_linear_9882_8344" x1="33.9136" y1="3.71327" x2="31.9331" y2="3.71327" gradientUnits="userSpaceOnUse">
<stop stop-color="#594A8E"/>
<stop offset="1" stop-color="#7662BD"/>
</linearGradient>
<linearGradient id="paint4_linear_9882_8344" x1="25.1229" y1="37.7861" x2="25.1229" y2="55.0875" gradientUnits="userSpaceOnUse">
<stop stop-color="#D7D1EB"/>
<stop offset="1" stop-color="#F2EFFA"/>
</linearGradient>
<linearGradient id="paint5_linear_9882_8344" x1="20.1118" y1="21.8535" x2="13.6682" y2="47.3386" gradientUnits="userSpaceOnUse">
<stop stop-color="#7662BD"/>
<stop offset="1" stop-color="#7662BD" stop-opacity="0"/>
</linearGradient>
<linearGradient id="paint6_linear_9882_8344" x1="30.3067" y1="24.0474" x2="35.5993" y2="44.817" gradientUnits="userSpaceOnUse">
<stop stop-color="#D7D1EB"/>
<stop offset="1" stop-color="#F2EFFA"/>
</linearGradient>
<linearGradient id="paint7_linear_9882_8344" x1="11.9874" y1="37.7202" x2="27.6511" y2="10.5895" gradientUnits="userSpaceOnUse">
<stop stop-color="#594A8E"/>
<stop offset="0.2561" stop-color="#5C4D91"/>
<stop offset="0.4527" stop-color="#64549B"/>
<stop offset="0.6295" stop-color="#7262AB"/>
<stop offset="0.7946" stop-color="#8675C2"/>
<stop offset="0.9503" stop-color="#9F8DE0"/>
<stop offset="1" stop-color="#A996EB"/>
</linearGradient>
<clipPath id="clip0_9882_8344">
<rect width="52" height="52" fill="white"/>
</clipPath>
</defs>
</svg>
