<svg width="52" height="52" viewBox="0 0 52 52" fill="none" xmlns="http://www.w3.org/2000/svg">
<path d="M9.20068 20.2173V38.8686C9.20068 39.4921 9.41335 39.9265 9.74703 40.1034L9.74694 40.1037L24.4851 48.6105L39.0063 21.2677L9.20068 20.2173Z" fill="url(#paint0_linear_9882_8374)"/>
<path d="M9.20068 20.2173V37.7148L19.5978 38.5255C21.1126 38.6436 22.6273 38.2971 23.9401 37.5321L28.8171 20.9086L9.20068 20.2173Z" fill="url(#paint1_linear_9882_8374)"/>
<path d="M40.7011 20.8783L32.3203 18.7859L23.9395 28.7247V47.376C23.9395 48.4884 24.6158 48.9998 25.4502 48.5181L39.1903 40.5853C40.0246 40.1035 40.701 38.8112 40.701 37.6987V20.8783H40.7011Z" fill="url(#paint2_linear_9882_8374)"/>
<path d="M33.7534 13.6823L18.9608 5.13948L18.9594 5.14218C18.1271 4.66882 16.8721 5.43989 16.0834 6.94692L6.6204 25.0276C5.7932 26.6082 5.7932 28.3964 6.6204 29.0218C6.68614 29.0715 6.75607 29.1092 6.82775 29.1415L21.3598 37.5321L33.7534 13.6823Z" fill="url(#paint3_linear_9882_8374)"/>
<path d="M41.7835 26.5675C41.2414 26.8805 40.6993 26.9178 40.2858 26.6051L32.3206 20.5836L24.3554 35.8024C23.5282 37.383 22.1869 38.1572 21.3597 37.5319C20.5324 36.9065 20.5324 35.1183 21.3597 33.5378L30.8227 15.457C31.6499 13.8764 32.9911 13.1021 33.8184 13.7274L43.2813 20.8813C44.1085 21.5066 44.1085 23.2949 43.2813 24.8754C42.8678 25.6658 42.3257 26.2545 41.7835 26.5675Z" fill="#FF7A85"/>
<path d="M31.666 27.6042L28.4697 29.4496V33.7113L31.666 31.866V27.6042Z" fill="#43386B"/>
<path d="M28.4697 35.4564V39.7181L31.666 37.8727V33.6111L28.4697 35.4564Z" fill="#43386B"/>
<path d="M32.9746 37.117L36.1708 35.2717V31.01L32.9746 32.8553V37.117Z" fill="#43386B"/>
<path d="M32.9746 26.8488V31.1105L36.1708 29.2651V25.0034L32.9746 26.8488Z" fill="#43386B"/>
<path d="M41.0665 18.6126L33.1084 14.7551V17.4024V18.2738V18.7415C33.1084 19.3316 33.4671 19.6027 33.9097 19.3473C33.9394 19.3301 33.9676 19.3183 33.9951 19.3092V21.0788V21.088V21.0904L33.9951 21.0902C33.9964 21.3606 34.0744 21.5862 34.2296 21.7034L34.9397 22.2404C35.2527 22.477 35.76 22.1841 36.0729 21.5861C36.3579 21.0414 36.8453 21.0292 36.8453 21.5667C36.8453 22.1568 37.2041 22.4281 37.6467 22.1725L38.651 21.5927C39.0061 21.3877 39.3067 20.9059 39.4116 20.4187C39.4507 20.2374 39.5617 20.0801 39.7247 19.9918L40.3738 19.6399C40.7589 19.4312 41.0175 19.0476 41.0665 18.6126Z" fill="url(#paint4_linear_9882_8374)"/>
<path d="M38.638 19.0665C38.638 19.0665 38.14 17.4384 39.2709 18.1324C40.4019 18.8263 39.6956 19.6995 39.6956 19.6995L38.638 19.0665Z" fill="url(#paint5_linear_9882_8374)"/>
<path d="M45.4589 8.4045L45.4583 8.40407L44.5323 7.8689C44.5323 7.8689 44.0728 8.20615 44.4841 8.59596C44.8953 8.98586 45.4589 8.4045 45.4589 8.4045Z" fill="url(#paint6_linear_9882_8374)"/>
<path d="M43.9227 5.56348C43.9022 5.54794 41.2881 4.03915 41.2881 4.03915V4.03933C40.9768 3.8903 40.5248 4.17509 40.2339 4.71942L39.1944 4.11904C39.0516 4.02571 38.8608 4.0285 38.6511 4.14951L37.6468 4.72946C37.2042 4.985 36.8454 5.67042 36.8454 6.26051C36.8454 6.79804 36.358 7.34857 36.073 7.13311C35.76 6.89651 35.2527 7.18951 34.9398 7.78736L34.2296 9.14423C33.9167 9.74218 33.9167 10.4187 34.2296 10.6552C34.5147 10.8707 34.3128 11.6371 33.9097 11.8699C33.4671 12.1254 33.1084 12.8108 33.1084 13.4009V14.74C33.1084 15.0625 33.2157 15.2894 33.3851 15.3875L33.385 15.3876L34.3302 15.9337C34.3084 16.0171 34.2754 16.1039 34.2297 16.1909C33.9167 16.7889 33.9167 17.4653 34.2297 17.7019L37.5559 19.7535V19.7534C37.8674 19.9234 43.9227 5.56348 43.9227 5.56348Z" fill="url(#paint7_linear_9882_8374)"/>
<path d="M35.9694 16.8802L37.262 13.1483L34.271 11.4214C34.1918 11.6089 34.066 11.7796 33.9097 11.8699C33.4671 12.1254 33.1084 12.8108 33.1084 13.4009V14.7401C33.1084 15.0625 33.2157 15.2894 33.3851 15.3875L33.385 15.3877L34.3301 15.9338L35.9694 16.8802Z" fill="url(#paint8_linear_9882_8374)"/>
<path d="M40.0115 8.61482C40.7312 7.63205 41.7765 5.61306 41.7765 5.61306L40.2337 4.71942L39.1943 4.11903V4.11912C39.0515 4.02579 38.8607 4.0285 38.651 4.14959L37.6467 4.72929C37.2041 4.98482 36.8453 5.67025 36.8453 6.26033C36.8453 6.76748 36.4115 7.28597 36.123 7.16192L38.6375 8.61474C38.6375 8.61482 39.2917 9.59751 40.0115 8.61482Z" fill="url(#paint9_linear_9882_8374)"/>
<path d="M35.9692 16.8804L34.3299 15.9338C34.308 16.0173 34.275 16.1041 34.2294 16.1912C33.9164 16.7892 33.9164 17.4656 34.2294 17.7022L37.5555 19.7538L37.1069 16.6372L35.9692 16.8804Z" fill="url(#paint10_linear_9882_8374)"/>
<path d="M43.9227 5.56348C43.9022 5.54794 41.2882 4.03915 41.2882 4.03915V4.03933C40.9768 3.8903 40.5249 4.17509 40.2339 4.71942L41.7767 5.61306C41.7767 5.61306 41.4876 6.74531 42.3743 6.9317C43.2611 7.11809 43.9227 5.56356 43.9227 5.56348Z" fill="url(#paint11_linear_9882_8374)"/>
<path d="M44.9536 8.45666C44.5504 8.68941 44.3486 8.15607 44.6336 7.61147C44.9465 7.01353 44.9465 6.3371 44.6336 6.10051L43.9235 5.56368C43.6106 5.32708 43.1032 5.61999 42.7903 6.21793C42.5053 6.76262 42.0178 6.77475 42.0178 6.23731C42.0178 5.64723 41.6591 5.37597 41.2166 5.63151L40.2122 6.21138C39.7697 6.46692 39.4109 7.15234 39.4109 7.74243C39.4109 8.27995 38.9234 8.83049 38.6384 8.61503C38.3254 8.37843 37.8181 8.67142 37.5052 9.26928L36.7951 10.6262C36.4821 11.2241 36.4822 11.9006 36.7951 12.1371C37.0801 12.3526 36.8783 13.119 36.4751 13.3518C36.0326 13.6073 35.6738 14.2927 35.6738 14.8828V16.222C35.6738 16.8121 36.0326 17.0832 36.4752 16.8278C36.8784 16.595 37.0802 17.1284 36.7952 17.673C36.4823 18.2709 36.4823 18.9474 36.7952 19.1839L37.5053 19.7208C37.8182 19.9574 38.3256 19.6645 38.6385 19.0666C38.9235 18.5219 39.4109 18.5098 39.4109 19.0472C39.4109 19.6373 39.7697 19.9085 40.2123 19.653L41.2166 19.0731C41.6592 18.8176 42.0179 18.1321 42.0179 17.5421V17.542C42.0179 17.0045 42.5053 16.4539 42.7904 16.6694C43.1033 16.906 43.6107 16.613 43.9236 16.0151L44.6337 14.6583C44.9466 14.0603 44.9466 13.3838 44.6337 13.1473C44.3487 12.9318 44.5505 12.1654 44.9537 11.9327C45.3962 11.6771 45.755 10.9917 45.755 10.4016V9.06246C45.7549 8.47237 45.3961 8.20121 44.9536 8.45666Z" fill="url(#paint12_linear_9882_8374)"/>
<path d="M43.5806 10.9871C43.5806 13.0981 42.2971 15.5503 40.7139 16.4644C39.1306 17.3785 37.8472 16.4082 37.8472 14.2972C37.8472 12.1862 39.1306 9.7339 40.7139 8.81983C42.2971 7.90576 43.5806 8.87606 43.5806 10.9871Z" fill="url(#paint13_linear_9882_8374)"/>
<path d="M39.5243 15.157L41.8631 10.1062L40.2227 9.15918C38.8989 10.2279 37.8858 12.3273 37.8477 14.1891L39.5243 15.157Z" fill="url(#paint14_linear_9882_8374)"/>
<path d="M42.5277 11.5944C42.5277 12.9308 41.7152 14.4834 40.7128 15.0621C39.7105 15.6407 38.8979 15.0265 38.8979 13.6901C38.8979 12.3537 39.7105 10.8012 40.7128 10.2225C41.7152 9.64368 42.5277 10.258 42.5277 11.5944Z" fill="url(#paint15_linear_9882_8374)"/>
<defs>
<linearGradient id="paint0_linear_9882_8374" x1="24.1035" y1="34.9632" x2="24.1035" y2="51.683" gradientUnits="userSpaceOnUse">
<stop stop-color="#D7D1EB"/>
<stop offset="1" stop-color="#F2EFFA"/>
</linearGradient>
<linearGradient id="paint1_linear_9882_8374" x1="19.2609" y1="19.5663" x2="13.0338" y2="44.1945" gradientUnits="userSpaceOnUse">
<stop stop-color="#7662BD"/>
<stop offset="1" stop-color="#7662BD" stop-opacity="0"/>
</linearGradient>
<linearGradient id="paint2_linear_9882_8374" x1="29.1126" y1="21.6865" x2="34.2273" y2="41.7578" gradientUnits="userSpaceOnUse">
<stop stop-color="#D7D1EB"/>
<stop offset="1" stop-color="#F2EFFA"/>
</linearGradient>
<linearGradient id="paint3_linear_9882_8374" x1="11.4094" y1="34.8996" x2="26.5468" y2="8.68113" gradientUnits="userSpaceOnUse">
<stop stop-color="#AB2C37"/>
<stop offset="0.2667" stop-color="#AE2D38"/>
<stop offset="0.4715" stop-color="#B8303C"/>
<stop offset="0.6555" stop-color="#C83542"/>
<stop offset="0.8275" stop-color="#DF3D4B"/>
<stop offset="0.9896" stop-color="#FD4656"/>
<stop offset="1" stop-color="#FF4757"/>
</linearGradient>
<linearGradient id="paint4_linear_9882_8374" x1="37.0875" y1="18.9458" x2="37.0875" y2="23.2024" gradientUnits="userSpaceOnUse">
<stop stop-color="#5D3645"/>
<stop offset="1" stop-color="#5D3645" stop-opacity="0"/>
</linearGradient>
<linearGradient id="paint5_linear_9882_8374" x1="39.2432" y1="18.728" x2="38.6704" y2="19.7202" gradientUnits="userSpaceOnUse">
<stop stop-color="#43386B"/>
<stop offset="0.556" stop-color="#594A8E"/>
<stop offset="0.9916" stop-color="#7662BD"/>
</linearGradient>
<linearGradient id="paint6_linear_9882_8374" x1="44.6409" y1="8.70378" x2="45.3451" y2="7.48389" gradientUnits="userSpaceOnUse">
<stop stop-color="#43386B"/>
<stop offset="0.556" stop-color="#594A8E"/>
<stop offset="0.9916" stop-color="#7662BD"/>
</linearGradient>
<linearGradient id="paint7_linear_9882_8374" x1="37.0913" y1="12.351" x2="38.4042" y2="10.0769" gradientUnits="userSpaceOnUse">
<stop stop-color="#43386B"/>
<stop offset="0.556" stop-color="#594A8E"/>
<stop offset="0.9916" stop-color="#7662BD"/>
</linearGradient>
<linearGradient id="paint8_linear_9882_8374" x1="34.1014" y1="15.6543" x2="35.8716" y2="12.588" gradientUnits="userSpaceOnUse">
<stop stop-color="#43386B"/>
<stop offset="0.556" stop-color="#594A8E"/>
<stop offset="0.9916" stop-color="#7662BD"/>
</linearGradient>
<linearGradient id="paint9_linear_9882_8374" x1="38.0061" y1="7.99182" x2="39.4226" y2="5.53833" gradientUnits="userSpaceOnUse">
<stop stop-color="#43386B"/>
<stop offset="0.556" stop-color="#594A8E"/>
<stop offset="0.9916" stop-color="#7662BD"/>
</linearGradient>
<linearGradient id="paint10_linear_9882_8374" x1="36.5415" y1="16.8066" x2="34.9815" y2="19.5087" gradientUnits="userSpaceOnUse">
<stop stop-color="#43386B"/>
<stop offset="0.556" stop-color="#594A8E"/>
<stop offset="0.9916" stop-color="#7662BD"/>
</linearGradient>
<linearGradient id="paint11_linear_9882_8374" x1="41.4596" y1="6.23301" x2="42.4634" y2="4.49462" gradientUnits="userSpaceOnUse">
<stop stop-color="#43386B"/>
<stop offset="0.556" stop-color="#594A8E"/>
<stop offset="0.9916" stop-color="#7662BD"/>
</linearGradient>
<linearGradient id="paint12_linear_9882_8374" x1="40.7142" y1="21.3898" x2="40.7142" y2="4.2371" gradientUnits="userSpaceOnUse">
<stop stop-color="#A996EB"/>
<stop offset="1" stop-color="#C5BAEB"/>
</linearGradient>
<linearGradient id="paint13_linear_9882_8374" x1="42.9034" y1="8.84978" x2="38.5244" y2="16.4345" gradientUnits="userSpaceOnUse">
<stop stop-color="#43386B"/>
<stop offset="0.556" stop-color="#594A8E"/>
<stop offset="0.9916" stop-color="#7662BD"/>
</linearGradient>
<linearGradient id="paint14_linear_9882_8374" x1="38.7689" y1="13.7096" x2="40.9016" y2="10.0156" gradientUnits="userSpaceOnUse">
<stop stop-color="#43386B"/>
<stop offset="0.556" stop-color="#594A8E"/>
<stop offset="0.9916" stop-color="#7662BD"/>
</linearGradient>
<linearGradient id="paint15_linear_9882_8374" x1="40.7128" y1="21.3898" x2="40.7128" y2="9.75089" gradientUnits="userSpaceOnUse">
<stop stop-color="#A996EB"/>
<stop offset="1" stop-color="#C5BAEB"/>
</linearGradient>
</defs>
</svg>
