<svg width="24" height="25" viewBox="0 0 24 25" fill="none" xmlns="http://www.w3.org/2000/svg">
<path fill-rule="evenodd" clip-rule="evenodd" d="M2.25 12.5C2.25 7.11522 6.61522 2.75 12 2.75C17.3848 2.75 21.75 7.11522 21.75 12.5C21.75 17.8848 17.3848 22.25 12 22.25C6.61522 22.25 2.25 17.8848 2.25 12.5ZM12 4.25C7.44365 4.25 3.75 7.94365 3.75 12.5C3.75 17.0563 7.44365 20.75 12 20.75C16.5563 20.75 20.25 17.0563 20.25 12.5C20.25 7.94365 16.5563 4.25 12 4.25Z" fill="#3366FF"/>
<path fill-rule="evenodd" clip-rule="evenodd" d="M12 7.75C12.4142 7.75 12.75 8.08579 12.75 8.5V9.5C12.75 9.91421 12.4142 10.25 12 10.25C11.5858 10.25 11.25 9.91421 11.25 9.5V8.5C11.25 8.08579 11.5858 7.75 12 7.75ZM12 11.25C12.4142 11.25 12.75 11.5858 12.75 12V16.5C12.75 16.9142 12.4142 17.25 12 17.25C11.5858 17.25 11.25 16.9142 11.25 16.5V12C11.25 11.5858 11.5858 11.25 12 11.25Z" fill="#3366FF"/>
</svg>
