<svg width="125" height="105" viewBox="0 0 125 105" fill="none" xmlns="http://www.w3.org/2000/svg">
<path d="M113.136 17.778L70.1815 10.9747C64.1811 10.0243 58.5465 14.1181 57.5961 20.1185L47.9745 80.8672C47.0241 86.8676 51.1179 92.5022 57.1183 93.4526L100.073 100.256C106.073 101.206 111.708 97.1125 112.658 91.1121L122.28 30.3634C123.23 24.363 119.136 18.7284 113.136 17.778Z" fill="#F7F7F7"/>
<path d="M52.6373 9.64686L10.626 20.9108C4.75742 22.4842 1.27554 28.5172 2.849 34.3858L18.7791 93.8006C20.3525 99.6691 26.3855 103.151 32.2541 101.578L74.2654 90.3136C80.134 88.7402 83.6158 82.7072 82.0424 76.8386L66.1123 17.4239C64.5389 11.5553 58.5059 8.0734 52.6373 9.64686Z" fill="#F5F5F5"/>
<path d="M94.1701 0H36.0581C29.983 0 25.0581 4.92487 25.0581 11V90.85C25.0581 96.9251 29.983 101.85 36.0581 101.85H94.1701C100.245 101.85 105.17 96.9251 105.17 90.85V11C105.17 4.92487 100.245 0 94.1701 0Z" fill="#FAFAFA"/>
<path d="M94.7976 17H34.8279C32.7138 17 31 18.7138 31 20.8279V83.3495C31 85.4635 32.7138 87.1773 34.8279 87.1773H94.7976C96.9116 87.1773 98.6254 85.4635 98.6254 83.3495V20.8279C98.6254 18.7138 96.9116 17 94.7976 17Z" fill="#F5F5F5"/>
<g clip-path="url(#clip0_5730_58167)">
<path d="M77.3713 48.9476C77.1612 48.5201 76.7262 48.2501 76.25 48.2501H66.3962L67.4913 38.3876C67.5538 37.8301 67.2363 37.3001 66.7163 37.0901C66.195 36.8776 65.5988 37.0426 65.2575 37.4863L52.7575 53.7363C52.4675 54.1138 52.4163 54.6238 52.6275 55.0513C52.8388 55.4801 53.2738 55.7501 53.75 55.7501H63.6038L62.5088 65.6126C62.4462 66.1701 62.7638 66.7001 63.2838 66.9101C63.435 66.9713 63.5938 67.0001 63.75 67.0001C64.13 67.0001 64.5 66.8263 64.7413 66.5126L77.2412 50.2626C77.5312 49.8851 77.5812 49.3751 77.3713 48.9476Z" fill="#C4C4C4"/>
</g>
<path d="M31 69.3145H98.6254V83.3499C98.6254 84.3651 98.2221 85.3388 97.5043 86.0566C96.7864 86.7745 95.8128 87.1778 94.7976 87.1778H34.8279C33.8126 87.1778 32.839 86.7745 32.1212 86.0566C31.4033 85.3388 31 84.3651 31 83.3499V69.3145Z" fill="#E9E9E9"/>
<rect x="38.6558" y="22.9326" width="52.314" height="6.22902" rx="3.11451" fill="#E6E6E6"/>
<rect x="38.6558" y="75.1377" width="52.314" height="6.22902" rx="3.11451" fill="#FAFAFA"/>
<defs>
<clipPath id="clip0_5730_58167">
<rect width="30" height="30" fill="white" transform="translate(50 37)"/>
</clipPath>
</defs>
</svg>
