<svg xmlns="http://www.w3.org/2000/svg" width="29.538" height="24.005" viewBox="0 0 29.538 24.005">
  <g id="logo-twitter" transform="translate(0 0)">
    <path id="Path_5092" data-name="Path 5092" d="M29.538,7.337a12.114,12.114,0,0,1-3.481.954,6.078,6.078,0,0,0,2.665-3.353,12.133,12.133,0,0,1-3.848,1.471,6.066,6.066,0,0,0-10.327,5.527A17.2,17.2,0,0,1,2.056,5.6,6.067,6.067,0,0,0,3.932,13.7a6.035,6.035,0,0,1-2.745-.758c0,.025,0,.051,0,.076a6.064,6.064,0,0,0,4.861,5.942,6.075,6.075,0,0,1-2.737.1,6.066,6.066,0,0,0,5.661,4.209,12.159,12.159,0,0,1-7.526,2.594A12.336,12.336,0,0,1,0,25.778,17.153,17.153,0,0,0,9.289,28.5c11.147,0,17.242-9.234,17.242-17.242q0-.394-.018-.784A12.315,12.315,0,0,0,29.538,7.337Z" transform="translate(0 -4.496)" fill="#69ace0"/>
  </g>
</svg>
