<svg xmlns="http://www.w3.org/2000/svg" width="123.073" height="20.645" viewBox="0 0 123.073 20.645">
  <g id="Group_886" data-name="Group 886" transform="translate(-115.166 2317.141)">
    <path id="Path_558" data-name="Path 558" d="M115.169-2305.954c0-.025,0-.05,0-.074v-8.144c0-.014,0-.028,0-.042-.005-.044.014-.062.058-.057a.274.274,0,0,0,.04,0H126.65c.107,0,.1-.016.1.1v18.44c-.083-.017-.157-.024-.226-.045a2.929,2.929,0,0,1-.78-.406,14.168,14.168,0,0,1-1.679-1.392,39.194,39.194,0,0,1-3.072-3.264c-.013-.016-.027-.031-.045-.051l-.043.047a38.5,38.5,0,0,1-2.824,3.045,16.924,16.924,0,0,1-1.713,1.473,4.736,4.736,0,0,1-.741.457,1.2,1.2,0,0,1-.4.125l-.056,0c0-.027,0-.048,0-.071v-10.077c0-.022,0-.045,0-.067.03,0,.06.008.09.008q1.223,0,2.445,0c.054,0,.072.014.07.07-.005.186-.006.373-.008.558l-.037,3.938v.06l.024.014a.371.371,0,0,1,.037-.057,45.144,45.144,0,0,0,3.077-3.5.107.107,0,0,1,.184,0c.436.529.868,1.062,1.31,1.586.56.664,1.15,1.3,1.761,1.917.015.015.031.028.056.051,0-.038,0-.061,0-.083q-.009-.67-.017-1.34-.018-1.561-.036-3.124c0-.093-.016-.089.092-.089h2.445c.023,0,.046,0,.069,0l.012-.022a.263.263,0,0,1-.056-.038c-.378-.387-.761-.77-1.132-1.165q-2.31-2.462-4.385-5.125a.243.243,0,0,0-.241-.113.118.118,0,0,0-.091.045q-1.059,1.353-2.183,2.652c-1.1,1.276-2.236,2.522-3.429,3.713C115.207-2305.985,115.188-2305.971,115.169-2305.954Z" transform="translate(0 -1.014)" fill="#bdb39a"/>
    <g id="Group_820" data-name="Group 820" transform="translate(131.447 -2317.141)">
      <path id="Path_559" data-name="Path 559" d="M161.742-2314.272v18.542h-4.821l.1-8.431a79.155,79.155,0,0,0-5.859,6.552h-.223a74.871,74.871,0,0,0-5.834-6.552l.1,8.431h-4.846v-18.542c1.8,0,6.922,4.92,10.705,9.369C154.82-2309.352,159.963-2314.272,161.742-2314.272Z" transform="translate(-140.357 2316.126)" fill="#464774"/>
      <path id="Path_560" data-name="Path 560" d="M189.855-2292.983a9.073,9.073,0,0,1-3.906-.865,9.252,9.252,0,0,1-4.154.963c-3.065,0-4.8-1.557-4.8-4.376,0-2.793,1.978-4.351,5.538-4.351a7.537,7.537,0,0,1,2.621.495v-.321c0-1.162-.89-1.83-2.4-1.83a21.273,21.273,0,0,0-4.7.594v-3.412a17.776,17.776,0,0,1,5.662-.84c3.857,0,6.131,1.88,6.131,5.093Zm-6.106-3.214a4.067,4.067,0,0,0,1.41-.272v-1.854a4,4,0,0,0-1.41-.3c-1.236,0-1.9.419-1.9,1.26C181.845-2296.568,182.512-2296.2,183.748-2296.2Z" transform="translate(-153.317 2313.53)" fill="#464774"/>
      <path id="Path_561" data-name="Path 561" d="M215.044-2301.463v8.332h-4.7v-7.962c0-1.508-.717-2.176-2.2-2.176a4.045,4.045,0,0,0-2.2.668v9.47h-4.7v-13.7a8.336,8.336,0,0,1,4.351,1.088,10.018,10.018,0,0,1,4.475-1.187C213.215-2306.928,215.044-2305.3,215.044-2301.463Z" transform="translate(-161.894 2313.53)" fill="#464774"/>
      <path id="Path_562" data-name="Path 562" d="M238.028-2296.31V-2293H225.765c0-1.756,3.436-6.774,5.389-10.235h-5.291v-3.314H237.9c0,1.731-3.437,6.775-5.39,10.236Z" transform="translate(-170.566 2313.393)" fill="#464774"/>
      <path id="Path_563" data-name="Path 563" d="M247.681-2314.471a2.571,2.571,0,0,1,2.671-2.67,2.591,2.591,0,0,1,2.694,2.67,2.591,2.591,0,0,1-2.694,2.67A2.571,2.571,0,0,1,247.681-2314.471Zm4.995,4.178v13.549h-4.7v-13.549Z" transform="translate(-178.318 2317.141)" fill="#464774"/>
      <path id="Path_564" data-name="Path 564" d="M260-2314.557l4.7-1.36v19.605H260Z" transform="translate(-182.674 2316.708)" fill="#464774"/>
      <path id="Path_565" data-name="Path 565" d="M271.395-2314.471a2.572,2.572,0,0,1,2.671-2.67,2.591,2.591,0,0,1,2.694,2.67,2.591,2.591,0,0,1-2.694,2.67A2.571,2.571,0,0,1,271.395-2314.471Zm4.995,4.178v13.549h-4.7v-13.549Z" transform="translate(-186.705 2317.141)" fill="#464774"/>
      <path id="Path_566" data-name="Path 566" d="M292.439-2296.312a41.187,41.187,0,0,0-4.031-6.008v6.008h-4.7v-18.245l4.7-1.36v11.422a44.772,44.772,0,0,0,3.784-5.365h5.439a70.142,70.142,0,0,1-4.821,6.428,42.311,42.311,0,0,1,5.044,7.12Z" transform="translate(-191.062 2316.708)" fill="#464774"/>
    </g>
  </g>
</svg>
