<svg xmlns="http://www.w3.org/2000/svg" width="110.137" height="114.006" viewBox="0 0 110.137 114.006">
  <g id="Group_8879" data-name="Group 8879" transform="translate(-664.931 -269.754)">
    <circle id="Ellipse_7935" data-name="Ellipse 7935" cx="29" cy="29" r="29" transform="translate(691 321)" fill="#eeeae1"/>
    <g id="circle-10" transform="translate(673.57 290)">
      <path id="Path_13748" data-name="Path 13748" d="M46.43,0A46.43,46.43,0,1,0,92.86,46.43,46.482,46.482,0,0,0,46.43,0ZM72.346,75.078A19.19,19.19,0,0,0,54.169,61.907H38.692a19.184,19.184,0,0,0-18.17,13.175,38.69,38.69,0,1,1,51.824,0Z" fill="#bcb39a"/>
      <path id="Path_13750" data-name="Path 13750" d="M23.477,5A15.477,15.477,0,0,0,8,20.477v3.869a15.477,15.477,0,1,0,30.953,0V20.477A15.477,15.477,0,0,0,23.477,5Z" transform="translate(22.953 14.346)" fill="#bcb39a"/>
      <path id="Path_13749" data-name="Path 13749" d="M23.477,5A15.477,15.477,0,0,0,8,20.477v3.869a15.477,15.477,0,1,0,30.953,0V20.477A15.477,15.477,0,0,0,23.477,5Z" transform="translate(22.953 14.346)" fill="#bcb39a"/>
    </g>
  </g>
</svg>
