<svg xmlns="http://www.w3.org/2000/svg" width="24" height="24" viewBox="0 0 24 24">
  <g id="Group_352" data-name="Group 352" transform="translate(-1088 -28)">
    <g id="Group_347" data-name="Group 347" transform="translate(1088 28)">
      <path id="Path_318" data-name="Path 318" d="M0,0H24V24H0Z" fill="none"/>
      <path id="Path_319" data-name="Path 319" d="M10,5a2,2,0,1,1,4,0,7,7,0,0,1,4,6v3a4,4,0,0,0,2,3H4a4,4,0,0,0,2-3V11a7,7,0,0,1,4-6" fill="none" stroke="#bcb39a" stroke-linecap="round" stroke-linejoin="round" stroke-width="1.5"/>
      <path id="Path_320" data-name="Path 320" d="M9,17v1a3,3,0,0,0,6,0V17" fill="none" stroke="#bcb39a" stroke-linecap="round" stroke-linejoin="round" stroke-width="1.5"/>
      <path id="Path_321" data-name="Path 321" d="M21,6.727A11.05,11.05,0,0,0,18.206,3" fill="none" stroke="#bcb39a" stroke-linecap="round" stroke-linejoin="round" stroke-width="1.5"/>
      <path id="Path_322" data-name="Path 322" d="M3,6.727A11.05,11.05,0,0,1,5.792,3" fill="none" stroke="#bcb39a" stroke-linecap="round" stroke-linejoin="round" stroke-width="1.5"/>
    </g>
  </g>
</svg>
