<svg id="Group_1165" data-name="Group 1165" xmlns="http://www.w3.org/2000/svg" width="20" height="20" viewBox="0 0 20 20">
  <path id="Path_528" data-name="Path 528" d="M0,0H20V20H0Z" fill="none"/>
  <path id="Path_529" data-name="Path 529" d="M4.667,4H8L9.667,8.167,7.583,9.417a9.167,9.167,0,0,0,4.167,4.167L13,11.5l4.167,1.667V16.5A1.667,1.667,0,0,1,15.5,18.167,13.333,13.333,0,0,1,3,5.667,1.667,1.667,0,0,1,4.667,4" transform="translate(-0.5 -0.667)" fill="none" stroke="#464674" stroke-linecap="round" stroke-linejoin="round" stroke-width="1.5"/>
  <path id="Path_530" data-name="Path 530" d="M15,7a1.667,1.667,0,0,1,1.667,1.667" transform="translate(-2.5 -1.167)" fill="none" stroke="#464674" stroke-linecap="round" stroke-linejoin="round" stroke-width="1.5"/>
  <path id="Path_531" data-name="Path 531" d="M15,3a5,5,0,0,1,5,5" transform="translate(-2.5 -0.5)" fill="none" stroke="#464674" stroke-linecap="round" stroke-linejoin="round" stroke-width="1.5"/>
</svg>
