<svg xmlns="http://www.w3.org/2000/svg" data-name="Group 10154" viewBox="0 0 24 24">
    <path data-name="Path 528" d="M0 0h24v24H0Z" fill="none" />
    <path data-name="Path 529" d="M5 4h4l2 5-2.5 1.5a11 11 0 0 0 5 5L15 13l5 2v4a2 2 0 0 1-2 2A16 16 0 0 1 3 6a2 2 0 0 1 2-2" fill="none" stroke="#000" stroke-linecap="round" stroke-linejoin="round" stroke-width="1.5" />
    <path data-name="Path 530" d="M15 7a2 2 0 0 1 2 2" fill="none" stroke="#000" stroke-linecap="round" stroke-linejoin="round" stroke-width="1.5" />
    <path data-name="Path 531" d="M15 3a6 6 0 0 1 6 6" fill="none" stroke="#000" stroke-linecap="round" stroke-linejoin="round" stroke-width="1.5" />
</svg>