<svg id="pin-user" xmlns="http://www.w3.org/2000/svg" width="10.637" height="14.077" viewBox="0 0 10.637 14.077">
  <path id="Path_17039" data-name="Path 17039" d="M12.317,15.077a.313.313,0,0,1-.221-.092C11.888,14.777,7,9.848,7,6.317a5.318,5.318,0,1,1,10.636,0c0,3.53-4.888,8.459-5.1,8.667A.313.313,0,0,1,12.317,15.077Z" transform="translate(-6.999 -0.999)" fill="#e86c60"/>
  <path id="Path_17040" data-name="Path 17040" d="M21.005,21.878H16v-.667a.936.936,0,0,1,.6-.876,5.54,5.54,0,0,1,3.8,0,.936.936,0,0,1,.6.877Z" transform="translate(-13.184 -14.057)" fill="#fff"/>
  <path id="Path_17041" data-name="Path 17041" d="M20,10.342a1.251,1.251,0,0,1,2.5,0c0,.707-.56,1.536-1.251,1.536S20,11.049,20,10.342Z" transform="translate(-15.933 -6.56)" fill="#fff"/>
</svg>
