<svg xmlns="http://www.w3.org/2000/svg" width="24" height="24" viewBox="0 0 24 24">
  <g id="Group_540" data-name="Group 540" transform="translate(-1149 -28)">
    <g id="Group_349" data-name="Group 349" transform="translate(1148.5 27.666)">
      <path id="Rectangle_98" data-name="Rectangle 98" d="M0,0H24V24H0Z" transform="translate(0.5 0.334)" fill="none"/>
      <g id="engineer_2_" data-name="engineer (2)" transform="translate(-5.27 -0.666)">
        <path id="Path_708" data-name="Path 708" d="M29.552,21.7H18.61a.7.7,0,0,1-.74-.648v-.7a.7.7,0,0,1,.74-.648H29.552a.7.7,0,0,1,.74.648v.7a.7.7,0,0,1-.74.648ZM18.61,20.276a.086.086,0,0,0-.091.08v.7a.086.086,0,0,0,.091.079H29.552a.086.086,0,0,0,.091-.079v-.7a.086.086,0,0,0-.091-.08Z" transform="translate(-6.513 -12.135)" fill="#cfc9b7" stroke="#cfc9b7" stroke-width="0.7"/>
        <path id="Path_709" data-name="Path 709" d="M30.951,9.758H20.493a.358.358,0,0,1-.237-.086.264.264,0,0,1-.093-.207A4.96,4.96,0,0,1,24.18,5.023a.341.341,0,0,1,.409.194.281.281,0,0,1-.226.352A4.43,4.43,0,0,0,20.845,9.19H30.6a4.43,4.43,0,0,0-3.518-3.621.281.281,0,0,1-.226-.352.341.341,0,0,1,.409-.194,4.96,4.96,0,0,1,4.017,4.442.264.264,0,0,1-.093.207.358.358,0,0,1-.237.086Z" transform="translate(-8.154 -2.156)" fill="#cfc9b7" stroke="#cfc9b7" stroke-width="0.7"/>
        <path id="Path_710" data-name="Path 710" d="M33.944,5.435H33.9a.284.284,0,0,1-.242-.321l.345-2.435a.094.094,0,0,0-.094-.108H32.048a.094.094,0,0,0-.094.108L32.3,5.111a.284.284,0,1,1-.563.08l-.344-2.435A.663.663,0,0,1,32.048,2h1.866a.663.663,0,0,1,.657.756l-.345,2.435A.284.284,0,0,1,33.944,5.435Z" transform="translate(-15.413)" fill="#cfc9b7" stroke="#cfc9b7" stroke-width="0.7"/>
        <path id="Path_711" data-name="Path 711" d="M26.459,31.481a4.036,4.036,0,0,1-1.94-.487c-1.517-.836-3.326-2.254-3.326-4.263V25.016a.312.312,0,0,1,.333-.284h9.867a.312.312,0,0,1,.333.284v1.715c0,2.008-1.809,3.427-3.326,4.263a4.036,4.036,0,0,1-1.94.487Zm-4.6-6.18v1.431c0,1.753,1.643,3.026,3.022,3.785a3.342,3.342,0,0,0,3.157,0c1.378-.759,3.022-2.033,3.022-3.785V25.3Z" transform="translate(-8.891 -15.328)" fill="#cfc9b7" stroke="#cfc9b7" stroke-width="0.7"/>
        <path id="Path_712" data-name="Path 712" d="M26.053,54.8H9.083a.3.3,0,0,1-.312-.284A6.823,6.823,0,0,1,14.8,47.978a.333.333,0,0,1,.254.063,9.766,9.766,0,0,0,1,.67,3.022,3.022,0,0,0,3.032,0,9.78,9.78,0,0,0,.995-.669.331.331,0,0,1,.254-.063,6.823,6.823,0,0,1,6.032,6.537.3.3,0,0,1-.312.284ZM9.4,54.234H25.735a6.252,6.252,0,0,0-5.367-5.673,10.655,10.655,0,0,1-.944.625,3.7,3.7,0,0,1-3.708,0,10.64,10.64,0,0,1-.945-.625A6.252,6.252,0,0,0,9.4,54.234Z" transform="translate(0 -30.988)" fill="#cfc9b7" stroke="#cfc9b7" stroke-width="0.7"/>
      </g>
    </g>
  </g>
</svg>
