<svg id="Group_702" data-name="Group 702" xmlns="http://www.w3.org/2000/svg" width="24" height="24" viewBox="0 0 24 24">
  <path id="Path_505" data-name="Path 505" d="M0,0H24V24H0Z" fill="none"/>
  <path id="Path_504" data-name="Path 504" d="M1.531,0A1.531,1.531,0,1,1,0,1.531,1.531,1.531,0,0,1,1.531,0Z" transform="translate(17.199 3.739)" fill="none" stroke="#464674" stroke-linecap="round" stroke-width="1.5"/>
  <path id="Path_503" data-name="Path 503" d="M0,1.148V0" transform="translate(18.75 2.679)" fill="none" stroke="#464674" stroke-linecap="round" stroke-width="1.5"/>
  <path id="Path_502" data-name="Path 502" d="M.994.574,0,0" transform="translate(16.462 4.018)" fill="none" stroke="#464674" stroke-linecap="round" stroke-width="1.5"/>
  <path id="Path_501" data-name="Path 501" d="M.994,0,0,.574" transform="translate(16.462 5.997)" fill="none" stroke="#464674" stroke-linecap="round" stroke-width="1.5"/>
  <path id="Path_500" data-name="Path 500" d="M0,0V1.148" transform="translate(18.75 6.743)" fill="none" stroke="#464674" stroke-linecap="round" stroke-width="1.5"/>
  <path id="Path_499" data-name="Path 499" d="M0,0,.994.574" transform="translate(19.968 5.997)" fill="none" stroke="#464674" stroke-linecap="round" stroke-width="1.5"/>
  <path id="Path_498" data-name="Path 498" d="M0,.574.994,0" transform="translate(19.968 4.018)" fill="none" stroke="#464674" stroke-linecap="round" stroke-width="1.5"/>
  <path id="Path_496" data-name="Path 496" d="M30.989,165.357a10.3,10.3,0,0,1,18.07,0" transform="translate(-28.024 -144.696)" fill="none" stroke="#464674" stroke-linecap="round" stroke-linejoin="round" stroke-width="1.5"/>
  <path id="Path_497" data-name="Path 497" d="M75.8,40.578a6.121,6.121,0,1,1-4.762-8.525" transform="translate(-58.181 -28.933)" fill="none" stroke="#464674" stroke-linecap="round" stroke-linejoin="round" stroke-width="1.5"/>
</svg>
