<svg width="78" height="78" viewBox="0 0 78 78" fill="none" xmlns="http://www.w3.org/2000/svg">
<circle cx="39" cy="39" r="38.5" fill="#8C8DB5" stroke="white"/>
<path d="M24 67.6479V19H27.5107V22.1631H58.623C58.591 22.3311 58.5781 22.4842 58.5391 22.6182C58.3657 23.1746 58.1134 23.7031 57.79 24.188C57.0228 25.3774 56.1675 26.5071 55.2305 27.5679C53.3471 29.7421 51.34 31.8069 49.2207 33.752C49.1887 33.78 49.1641 33.8078 49.1211 33.8428C49.1473 33.8735 49.176 33.9024 49.207 33.9282C51.1753 35.7211 53.0443 37.6196 54.8066 39.6152C55.7875 40.7033 56.6957 41.8553 57.5234 43.064C57.8461 43.5366 58.1273 44.0362 58.3643 44.5571C58.4848 44.8114 58.5611 45.0839 58.5908 45.3638C58.5937 45.4007 58.5937 45.4382 58.5908 45.4751C58.5398 45.4751 58.4999 45.4829 58.4629 45.4829H39.9131C39.8716 45.4842 39.8301 45.4817 39.7891 45.4751C39.7896 45.4684 39.7896 45.4617 39.7891 45.4551H39.7676C39.7748 45.4616 39.782 45.4686 39.7881 45.4761C39.7431 45.4761 39.6983 45.4839 39.6523 45.4839H27.4971V67.6538L24 67.6479Z" fill="white"/>
</svg>
