<svg width="52" height="52" viewBox="0 0 52 52" fill="none" xmlns="http://www.w3.org/2000/svg">
<g clip-path="url(#clip0_9882_8335)">
<path d="M52 26.0006C52 11.6399 40.3594 0.000244141 26.0004 0.000244141C11.6407 0.000244141 0 11.6399 0 26.0006C0 40.359 11.6407 51.9996 26.0004 51.9996C40.3594 51.9996 52 40.359 52 26.0006Z" fill="#BDB39A"/>
<path d="M14.4858 18.1935C14.4858 16.7351 14.954 15.2574 15.8905 13.7605C16.8268 12.2637 18.1934 11.0241 19.9896 10.0414C21.7858 9.05906 23.8814 8.56763 26.2763 8.56763C28.5022 8.56763 30.4675 8.97857 32.1716 9.79961C33.8758 10.6211 35.1919 11.738 36.121 13.1502C37.0497 14.5629 37.5142 16.0979 37.5142 17.7559C37.5142 19.0609 37.2493 20.2049 36.7197 21.1871C36.19 22.1698 35.5603 23.018 34.8313 23.7317C34.1019 24.4456 32.7932 25.647 30.905 27.3357C30.3829 27.8118 29.9643 28.2303 29.6499 28.5909C29.3351 28.9517 29.1008 29.2818 28.9475 29.581C28.7939 29.8804 28.6747 30.1797 28.5905 30.4792C28.506 30.7784 28.3794 31.3045 28.2106 32.0566C27.9188 33.6534 27.0053 34.4516 25.4703 34.4516C24.6719 34.4516 24.0001 34.1907 23.4553 33.6686C22.9102 33.1468 22.6378 32.3714 22.6378 31.3428C22.6378 30.0531 22.8371 28.9362 23.2366 27.9921C23.6357 27.0478 24.1652 26.2188 24.8255 25.5051C25.4854 24.7912 26.376 23.9431 27.4968 22.9604C28.4791 22.1008 29.1894 21.4521 29.627 21.0145C30.0645 20.577 30.4329 20.0898 30.7323 19.5522C31.0317 19.0149 31.1814 18.4317 31.1814 17.802C31.1814 16.5739 30.7245 15.5377 29.8112 14.6932C28.8976 13.8491 27.7192 13.4266 26.2763 13.4266C24.5873 13.4266 23.3438 13.8526 22.5457 14.7047C21.7473 15.5568 21.0719 16.8118 20.5192 18.4698C19.9971 20.2049 19.0068 21.0721 17.5485 21.0721C16.6884 21.0721 15.9631 20.7691 15.3723 20.1624C14.7813 19.556 14.4858 18.8998 14.4858 18.1935ZM25.7237 43.4327C24.7871 43.4327 23.9696 43.1293 23.2711 42.523C22.5724 41.9168 22.2233 41.0686 22.2233 39.9784C22.2233 39.0112 22.5608 38.1977 23.2366 37.5374C23.9119 36.8774 24.7409 36.5472 25.7236 36.5472C26.6908 36.5472 27.5043 36.8774 28.1646 37.5374C28.8245 38.1977 29.1548 39.0112 29.1548 39.9784C29.1548 41.0532 28.8094 41.8976 28.1185 42.5116C27.4276 43.1255 26.6294 43.4327 25.7237 43.4327Z" fill="white"/>
</g>
<defs>
<clipPath id="clip0_9882_8335">
<rect width="52" height="52" fill="white"/>
</clipPath>
</defs>
</svg>
