<svg xmlns="http://www.w3.org/2000/svg" width="19.438" height="35.156" viewBox="0 0 19.438 35.156">
  <g id="question-mark" transform="translate(-142.61)">
    <path id="Path_609" data-name="Path 609" d="M400.431,788.2h-2.258c-1.59,0-2.883,1.014-2.883,2.261v2.446c0,1.248,1.292,2.261,2.883,2.261h2.258c1.59,0,2.883-1.014,2.883-2.261V790.46C403.313,789.209,402.021,788.2,400.431,788.2Z" transform="translate(-246.844 -760.012)" fill="#464674"/>
    <path id="Path_610" data-name="Path 610" d="M143.409,10.768l2.45.407a1.717,1.717,0,0,0,1.794-1.443,7.392,7.392,0,0,1,1.475-2.912,4.284,4.284,0,0,1,3.332-1.507,4.088,4.088,0,0,1,3.286,1.443,5.2,5.2,0,0,1,1.218,3.47,5.308,5.308,0,0,1-.687,2.668,26.646,26.646,0,0,1-2.733,3.236,14.753,14.753,0,0,0-3.049,4.45,13.216,13.216,0,0,0-.746,4.344c-.04,1.285.729,2.355,1.7,2.355h1.385c.882,0,1.611-.9,1.69-2.068a7.334,7.334,0,0,1,.319-1.91,10.157,10.157,0,0,1,2.054-2.943,26.4,26.4,0,0,0,4.176-5.587,10.016,10.016,0,0,0,.978-4.352,10.919,10.919,0,0,0-2.656-7.287A8.891,8.891,0,0,0,152.242,0a8.61,8.61,0,0,0-6.9,3.089,11.823,11.823,0,0,0-2.718,6.235A1.218,1.218,0,0,0,143.409,10.768Z" transform="translate(0)" fill="#464674"/>
  </g>
</svg>
