<svg xmlns="http://www.w3.org/2000/svg" width="124" height="130" viewBox="0 0 124 130" fill="none">
<path d="M62 129.521C96.1095 129.521 123.761 101.87 123.761 67.7607C123.761 33.6512 96.1095 6 62 6C27.8905 6 0.239258 33.6512 0.239258 67.7607C0.239258 101.87 27.8905 129.521 62 129.521Z" fill="#F6F6F6"/>
<path d="M62.0002 128.891C95.7616 128.891 123.131 101.522 123.131 67.7607C123.131 33.9992 95.7616 6.63013 62.0002 6.63013C28.2387 6.63013 0.869629 33.9992 0.869629 67.7607C0.869629 101.522 28.2387 128.891 62.0002 128.891Z" stroke="white"/>
<path d="M62.3911 66.4773C63.27 67.1824 63.4087 68.4645 62.7013 69.3405C61.9938 70.2166 60.7076 70.3549 59.8287 69.6497C58.9498 68.9446 58.8111 67.6626 59.5185 66.7865C60.2259 65.9104 61.5121 65.7722 62.3911 66.4773Z" fill="#1A323D"/>
<path d="M67.099 63.8546C67.9268 63.0905 67.9765 61.8022 67.2099 60.9771C66.4434 60.1519 65.1509 60.1024 64.3231 60.8665C63.4953 61.6306 63.4456 62.9189 64.2122 63.744C64.9787 64.5692 66.2712 64.6186 67.099 63.8546Z" fill="#1A323D"/>
<path d="M72.2844 57.1793C72.5714 56.0917 71.9196 54.9781 70.8286 54.692C69.7375 54.4059 68.6203 55.0556 68.3332 56.1431C68.0462 57.2307 68.698 58.3443 69.789 58.6304C70.8801 58.9165 71.9973 58.2668 72.2844 57.1793Z" fill="#1A323D"/>
<path d="M95.7864 72.1149L42.4247 94.7014C40.0438 95.7095 37.282 94.6316 36.2561 92.2969L23.3852 63.0174C22.3579 60.6812 23.4564 57.9712 25.8358 56.9646L79.1975 34.378C81.5783 33.3699 84.3402 34.4478 85.366 36.7826L98.2369 66.062C99.2643 68.3982 98.1657 71.1082 95.7864 72.1149Z" fill="#C4C4C4"/>
<path opacity="0.7" d="M87.2651 40.9541L25.5635 67.4795L29.1257 75.7123L90.8273 49.1869L87.2651 40.9541Z" fill="#F5F5F5"/>
<path d="M72.936 78.0259C73.3824 79.0591 72.9057 80.2569 71.8692 80.7019C70.8326 81.1468 69.6309 80.6717 69.1845 79.6385C68.7381 78.6054 69.2148 77.4075 70.2513 76.9626C71.2879 76.5176 72.4896 76.9927 72.936 78.0259Z" fill="#1A323D"/>
<path d="M78.1893 77.9375C79.2965 77.7213 80.0182 76.6515 79.8014 75.5479C79.5846 74.4443 78.5113 73.7248 77.4041 73.941C76.297 74.1571 75.5752 75.2269 75.792 76.3305C76.0088 77.4341 77.0821 78.1536 78.1893 77.9375Z" fill="#1A323D"/>
<path d="M86.4135 72.2315C86.8599 73.2647 86.3832 74.4625 85.3467 74.9075C84.3102 75.3524 83.1085 74.8773 82.6621 73.8441C82.2157 72.8109 82.6923 71.6131 83.7289 71.1681C84.7654 70.7232 85.9671 71.1983 86.4135 72.2315Z" fill="#1A323D"/>
<path d="M48.7953 81.0533L44.752 82.7915C43.6361 83.2713 43.1216 84.5618 43.6029 85.6741L45.3467 89.7044C45.828 90.8167 47.1228 91.3295 48.2387 90.8498L52.282 89.1116C53.3979 88.6319 53.9124 87.3413 53.4311 86.229L51.6872 82.1987C51.206 81.0864 49.9112 80.5736 48.7953 81.0533Z" fill="#FFBE31"/>
<path d="M95.8734 58.6499H36.155C33.4913 58.6499 31.332 60.8022 31.332 63.4573V96.7429C31.332 99.398 33.4913 101.55 36.155 101.55H95.8734C98.537 101.55 100.696 99.398 100.696 96.7429V63.4573C100.696 60.8022 98.537 58.6499 95.8734 58.6499Z" fill="#464774"/>
<path d="M100.696 68.6609H31.3318V77.9993H100.696V68.6609Z" fill="#F5F5F5"/>
<path d="M75.8942 94.4507C76.4158 93.1955 75.8179 91.7566 74.5587 91.2367C73.2995 90.7168 71.8559 91.3128 71.3343 92.568C70.8127 93.8231 71.4107 95.262 72.6699 95.7819C73.9291 96.3018 75.3727 95.7058 75.8942 94.4507Z" fill="#F5F5F5"/>
<path d="M84.759 94.4507C85.2806 93.1955 84.6826 91.7566 83.4234 91.2367C82.1642 90.7168 80.7206 91.3128 80.199 92.568C79.6775 93.8231 80.2754 95.262 81.5346 95.7819C82.7938 96.3018 84.2374 95.7058 84.759 94.4507Z" fill="#F5F5F5"/>
<path d="M92.6454 95.5952C93.8048 94.8809 94.1637 93.365 93.4471 92.2094C92.7305 91.0538 91.2097 90.696 90.0504 91.4103C88.891 92.1246 88.5321 93.6404 89.2487 94.796C89.9653 95.9517 91.486 96.3094 92.6454 95.5952Z" fill="#F5F5F5"/>
<path d="M47.8535 85.3474H42.534C41.0659 85.3474 39.8757 86.5337 39.8757 87.9971V93.2995C39.8757 94.7628 41.0659 95.9491 42.534 95.9491H47.8535C49.3216 95.9491 50.5118 94.7628 50.5118 93.2995V87.9971C50.5118 86.5337 49.3216 85.3474 47.8535 85.3474Z" fill="#F5F5F5"/>
<g clip-path="url(#clip0_2417_10964)">
<path d="M49 22C49 9.84974 39.1503 0 27 0C14.8497 0 5 9.84974 5 22C5 34.1503 14.8497 44 27 44C39.1503 44 49 34.1503 49 22Z" fill="#BDB39A"/>
<path d="M24.8867 25.2064C24.3373 25.0562 23.8011 24.8612 23.2834 24.6234V26.2995C24.3112 26.6754 25.3957 26.8726 26.4899 26.8825V28.5587H27.5102V26.8097C28.3854 26.7864 29.2293 26.4795 29.9151 25.9352C30.1684 25.6888 30.3698 25.3943 30.5075 25.0689C30.6452 24.7434 30.7163 24.3938 30.7167 24.0404C30.7111 23.7658 30.6501 23.4952 30.5374 23.2448C30.4247 22.9943 30.2626 22.7692 30.0608 22.5829C29.5032 21.9955 28.7987 21.5678 28.0203 21.344L27.4373 21.1254V18.2833C28.2858 18.3649 29.1193 18.561 29.9151 18.8663L30.4981 17.4088C29.5613 16.9766 28.5419 16.7528 27.5102 16.7529V15.4412H26.4899V16.8258C25.6691 16.8967 24.8855 17.2001 24.2308 17.7003C23.9611 17.9056 23.7421 18.17 23.5905 18.4732C23.4389 18.7764 23.3588 19.1103 23.3563 19.4493C23.3602 20.0571 23.5652 20.6464 23.9393 21.1254C24.4664 21.6628 25.1169 22.0631 25.8341 22.2914L26.4899 22.51V25.425C25.9482 25.4242 25.4089 25.3507 24.8867 25.2064ZM27.5102 22.8744C27.9036 23.0085 28.2728 23.2054 28.6033 23.4574C28.7012 23.551 28.7778 23.6645 28.8281 23.7902C28.8784 23.9159 28.9011 24.0509 28.8948 24.1862C28.8948 24.842 28.4576 25.2064 27.5102 25.3522V22.8744ZM25.4697 20.1052C25.3713 20.012 25.2942 19.8986 25.2439 19.7728C25.1936 19.647 25.1712 19.5117 25.1782 19.3764C25.1835 19.236 25.2188 19.0984 25.2817 18.9727C25.3445 18.847 25.4335 18.7362 25.5426 18.6477C25.8079 18.4223 26.142 18.2938 26.4899 18.2833V20.6882C26.1131 20.5666 25.7657 20.3681 25.4697 20.1052Z" fill="white"/>
<path d="M32.2726 11.5905C30.3643 10.6215 28.2258 10.1975 26.0922 10.3651C23.9585 10.5328 21.9125 11.2856 20.179 12.5408L18.2303 10.5921C18.1364 10.4981 18.0186 10.4315 17.8897 10.3996C17.7607 10.3677 17.6254 10.3717 17.4986 10.4111C17.3717 10.4505 17.258 10.5238 17.1697 10.6231C17.0815 10.7225 17.0221 10.8441 16.998 10.9747L15.8196 17.3119C15.8 17.4172 15.8039 17.5254 15.8308 17.629C15.8578 17.7326 15.9073 17.829 15.9758 17.9113C16.0442 17.9936 16.13 18.0598 16.2269 18.1052C16.3239 18.1506 16.4296 18.1741 16.5367 18.174C16.5839 18.1741 16.631 18.1695 16.6773 18.1602L22.957 16.9213C23.0866 16.8958 23.2067 16.8355 23.3047 16.747C23.4027 16.6584 23.4748 16.5449 23.5132 16.4186C23.5517 16.2923 23.5551 16.1579 23.5231 16.0297C23.4911 15.9016 23.4249 15.7846 23.3316 15.6912L21.2233 13.5851C23.1025 12.2942 25.36 11.6699 27.6355 11.8119C29.9109 11.9539 32.0733 12.8539 33.7775 14.3684C35.4816 15.8829 36.6294 17.9246 37.0377 20.1676C37.4459 22.4107 37.0911 24.7259 36.0299 26.7437C34.9686 28.7615 33.2621 30.3658 31.1826 31.3004C29.103 32.235 26.7704 32.4462 24.5568 31.9002C22.3433 31.3542 20.3764 30.0826 18.97 28.2881C17.5636 26.4937 16.7988 24.2799 16.7976 22C16.7976 21.8067 16.7208 21.6213 16.5841 21.4847C16.4475 21.348 16.2621 21.2712 16.0688 21.2712C15.8756 21.2712 15.6902 21.348 15.5535 21.4847C15.4169 21.6213 15.3401 21.8067 15.3401 22C15.3376 24.6238 16.2202 27.1718 17.8451 29.232C19.4701 31.2921 21.7424 32.744 24.2946 33.3528C26.8468 33.9616 29.5298 33.6918 31.9098 32.587C34.2897 31.4822 36.2274 29.6069 37.4096 27.2645C38.1019 25.8981 38.5182 24.4087 38.6347 22.8814C38.7512 21.3541 38.5656 19.8187 38.0885 18.3632C37.6115 16.9076 36.8523 15.5603 35.8544 14.3982C34.8565 13.2361 33.6394 12.2821 32.2726 11.5905Z" fill="white"/>
</g>
<defs>
<clipPath id="clip0_2417_10964">
<rect width="44" height="44" fill="white" transform="translate(5)"/>
</clipPath>
</defs>
</svg>