<svg width="17" height="20" viewBox="0 0 17 20" fill="none" xmlns="http://www.w3.org/2000/svg">
<path d="M16.4059 6.57629C16.3253 6.40407 16.1972 6.25841 16.0368 6.15638C15.8763 6.05436 15.6901 6.0002 15.4999 6.00027H11.118L13.3939 1.44706C13.4701 1.29464 13.5061 1.12527 13.4984 0.955049C13.4907 0.784822 13.4397 0.619379 13.3501 0.474415C13.2606 0.329452 13.1355 0.209779 12.9867 0.12675C12.8379 0.0437208 12.6703 9.09743e-05 12.4999 8.48626e-10H6.49999C6.32172 -7.34261e-06 6.14669 0.0476446 5.99302 0.138021C5.83936 0.228398 5.71264 0.358213 5.626 0.514023L0.62604 9.51442C0.541391 9.66665 0.497969 9.83835 0.500073 10.0125C0.502177 10.1867 0.549733 10.3573 0.638035 10.5074C0.726336 10.6576 0.852319 10.7821 1.00351 10.8685C1.1547 10.955 1.32586 11.0005 1.50003 11.0005H6.253L4.52401 18.7838C4.47559 19.0026 4.50204 19.2313 4.59911 19.4332C4.69619 19.6352 4.85826 19.7987 5.05935 19.8975C5.26043 19.9963 5.48888 20.0247 5.70804 19.9782C5.92721 19.9317 6.1244 19.8129 6.268 19.6409L16.2679 7.64034C16.3896 7.49442 16.4673 7.31684 16.4917 7.12839C16.5161 6.93995 16.4864 6.74844 16.4059 6.57629Z" fill="url(#paint0_linear_11858_58132)"/>
<defs>
<linearGradient id="paint0_linear_11858_58132" x1="2.54303" y1="3.54316" x2="12.4575" y2="13.4571" gradientUnits="userSpaceOnUse">
<stop stop-color="#FFDD00"/>
<stop offset="1" stop-color="#FEB100"/>
</linearGradient>
</defs>
</svg>
