<svg width="71" height="70" viewBox="0 0 71 70" fill="none" xmlns="http://www.w3.org/2000/svg">
<path d="M58.9158 13.9937C54.1791 8.51643 43.7144 6.5625 35.5028 6.5625H35.4999C27.2853 6.5625 16.8207 8.51375 12.0825 13.9937C5.35767 21.7696 5.35767 42.397 12.0839 50.1758C13.3875 51.6117 14.9456 52.7937 16.6797 53.6621C16.7799 53.7274 16.8646 53.8137 16.9281 53.915C16.9915 54.0163 17.0322 54.1302 17.0472 54.2489L18.017 60.0793C18.1565 60.9206 18.5046 61.7135 19.0297 62.3855C19.5547 63.0575 20.2398 63.5872 21.0224 63.9261C21.8049 64.265 22.66 64.4022 23.5093 64.3254C24.3586 64.2485 25.1751 63.9599 25.8841 63.4859L33.8536 58.171C34.4584 57.7775 35.1658 57.5714 35.8873 57.5786C46.3577 57.5074 54.9652 54.7388 58.9159 50.173C65.6407 42.397 65.6407 21.7696 58.9158 13.9937Z" fill="#FFBA3C"/>
<path d="M34.3545 20.8351L31.6322 27.187C31.5361 27.4111 31.3764 27.6021 31.1729 27.7364C30.9693 27.8706 30.7309 27.9421 30.487 27.9421H25.0814C24.8232 27.9422 24.5714 28.0224 24.3608 28.1717C24.1502 28.321 23.9911 28.532 23.9057 28.7757C23.8202 29.0193 23.8126 29.2834 23.8837 29.5316C23.9549 29.7798 24.1014 29.9997 24.303 30.161L29.022 33.9362C29.216 34.0913 29.3592 34.301 29.4331 34.5381C29.5071 34.7753 29.5085 35.0291 29.4371 35.2671L27.2741 42.4771C27.1988 42.7283 27.2046 42.9969 27.2908 43.2447C27.3771 43.4924 27.5393 43.7066 27.7544 43.8567C27.9695 44.0069 28.2265 44.0853 28.4888 44.0808C28.751 44.0763 29.0052 43.9892 29.2151 43.8318L34.7521 39.679C34.9678 39.5173 35.2301 39.4298 35.4996 39.4298C35.7692 39.4298 36.0315 39.5173 36.2472 39.679L41.7842 43.8318C41.9941 43.9892 42.2482 44.0763 42.5105 44.0808C42.7728 44.0853 43.0298 44.0069 43.2449 43.8567C43.46 43.7066 43.6222 43.4924 43.7084 43.2447C43.7947 42.9969 43.8005 42.7283 43.7251 42.4771L41.5622 35.2671C41.4908 35.0291 41.4922 34.7753 41.5661 34.5381C41.6401 34.301 41.7832 34.0913 41.9772 33.9362L46.6963 30.1611C46.8979 29.9998 47.0444 29.7799 47.1156 29.5317C47.1868 29.2835 47.1791 29.0194 47.0936 28.7758C47.0082 28.5322 46.8492 28.3211 46.6385 28.1718C46.4279 28.0225 46.1761 27.9423 45.918 27.9423H40.5123C40.2684 27.9423 40.03 27.8707 39.8264 27.7365C39.6229 27.6023 39.4632 27.4113 39.3671 27.1871L36.6449 20.8353C36.5488 20.6111 36.3891 20.4201 36.1856 20.2859C35.982 20.1516 35.7436 20.0801 35.4997 20.0801C35.2559 20.0801 35.0174 20.1516 34.8139 20.2858C34.6103 20.42 34.4506 20.611 34.3545 20.8351Z" fill="white"/>
</svg>
