<svg xmlns="http://www.w3.org/2000/svg" width="496" height="340.8" viewBox="0 0 496 340.8">
  <g id="saudi-arabia" transform="translate(0 -77.6)">
    <path id="Path_717" data-name="Path 717" d="M496,369.6c0,27.2-21.6,48.8-48,48.8H48c-26.4,0-48-21.6-48-48.8V126.4C0,99.2,21.6,77.6,48,77.6H448c26.4,0,48,21.6,48,48.8Z" fill="#096"/>
    <path id="Path_718" data-name="Path 718" d="M48,77.6H448c26.4,0,48,21.6,48,48.8V369.6c0,27.2-21.6,48.8-48,48.8" fill="#038e5c"/>
    <g id="Group_1187" data-name="Group 1187">
      <path id="Path_719" data-name="Path 719" d="M496,369.6c0,27.2-21.6,48.8-48,48.8H48c-26.4,0-48-21.6-48-48.8" fill="#007a54"/>
      <path id="Path_720" data-name="Path 720" d="M48,77.6H448c26.4,0,48,21.6,48,48.8v88.8" fill="#007a54"/>
    </g>
    <g id="Group_1188" data-name="Group 1188">
      <path id="Path_721" data-name="Path 721" d="M60.8,155.2c3.2-2.4,3.2,4,0,11.2,1.6-2.4,4.8-8,4-12-.8-5.6-4-4.8-6.4-1.6C56.8,155.2,57.6,156.8,60.8,155.2Z" fill="#fff"/>
      <path id="Path_722" data-name="Path 722" d="M61.6,200.8c4-7.2,2.4-12.8,5.6-23.2,2.4-6.4,2.4-1.6,2.4,2.4-1.6,10.4-.8,27.2,13.6,26.4.8,9.6,3.2,26.4,3.2,32.8,0,5.6.8,4,2.4.8s.8-7.2.8-12-.8-13.6-1.6-25.6c1.6-1.6,4-4,4.8-5.6,1.6-4,2.4-3.2,3.2,0,1.6,6.4,8,10.4,16,4,8-5.6,4.8-16.8.8-28.8,3.2.8,4-1.6,2.4-4.8-.8-1.6-2.4-3.2-3.2-4.8-1.6-1.6-2.4-3.2-4-1.6s-2.4,3.2-3.2,4-.8,2.4,0,4.8c3.2,7.2,4.8,15.2,5.6,19.2s-.8,4.8-4,4.8c-2.4,0-6.4-.8-8-7.2s-2.4-8.8-1.6-13.6c0-4,.8-7.2-2.4-11.2s-3.2-3.2-4-1.6a18.008,18.008,0,0,0-.8,9.6c1.6,5.6,2.4,10.4,3.2,13.6.8,2.4-1.6,7.2-5.6,9.6-.8-8-1.6-17.6-2.4-26.4,4.8-1.6,2.4-7.2-1.6-13.6-2.4-4.8-4-3.2-5.6,0s-.8,4.8.8,7.2c-.8,2.4.8,5.6,1.6,11.2.8,4,1.6,14.4,1.6,23.2-3.2,0-5.6-2.4-7.2-5.6-2.4-6.4-2.4-12.8-.8-16,1.6-4,2.4-9.6,0-11.2s-4.8,0-6.4,3.2c-3.2,4.8-6.4,11.2-6.4,18.4,0,2.4-.8,8-2.4,10.4-.8,2.4-3.2,2.4-4.8-.8-3.2-4.8-4-17.6-4-24,0-3.2-.8-4-1.6,0-3.2,12.8.8,25.6,3.2,31.2C55.2,207.2,59.2,205.6,61.6,200.8Z" fill="#fff"/>
      <path id="Path_723" data-name="Path 723" d="M100,159.2c1.6-1.6,1.6-1.6,2.4,0a2.267,2.267,0,0,0,4,0c.8-1.6,1.6-2.4.8-4.8-.8-1.6-.8-.8-1.6.8-.8,3.2-4,2.4-4-1.6s-.8-1.6-2.4.8c-1.6,4-4,3.2-4-.8,0-2.4-.8-4.8-2.4-1.6a8.5,8.5,0,0,0,.8,6.4C96,160.8,98.4,160.8,100,159.2Z" fill="#fff"/>
      <path id="Path_724" data-name="Path 724" d="M76,219.2c2.4-.8,2.4-.8,2.4-4s-1.6-1.6-4.8-.8A50.939,50.939,0,0,0,52,229.6c-3.2,4-.8,2.4,1.6.8C57.6,227.2,69.6,220.8,76,219.2Z" fill="#fff"/>
      <path id="Path_725" data-name="Path 725" d="M60,270.4c-2.4,4-7.2-1.6-4-12,.8-2.4,1.6-4,1.6-5.6v-5.6c0-1.6-1.6.8-2.4,4-.8,4.8-4,7.2-3.2,22.4.8,8.8,11.2,8.8,12-2.4C64,266.4,62.4,266.4,60,270.4Z" fill="#fff"/>
      <path id="Path_726" data-name="Path 726" d="M131.2,236.8c0-4-.8-8-.8-12,.8,0,.8-.8,1.6-.8,2.4,7.2,12.8,5.6,16,.8,1.6-2.4,1.6-2.4,3.2,0,2.4,3.2,10.4,4.8,12,0A24.074,24.074,0,0,0,164,212c-.8-4-1.6-3.2-4-1.6s-.8,2.4,0,4.8c.8,9.6-7.2,8.8-8-.8-.8-6.4-1.6-4-2.4-.8-4,12-14.4,14.4-12.8,0,0-4-2.4-2.4-4-.8l-3.2,3.2c-.8-11.2-1.6-24-3.2-40,3.2,4,6.4-.8,4-4.8-1.6-3.2-4-11.2-5.6-15.2s-2.4-3.2-5.6.8c-3.2,3.2-2.4,4-1.6,8a82.2,82.2,0,0,0,1.6,17.6c.8,6.4,2.4,20,4,36.8-1.6.8-4,2.4-5.6,3.2-.8-3.2-3.2-4.8-6.4-8-4.8-4.8-8-4.8-12,.8s-3.2,6.4-3.2,12c0,4.8-.8,6.4,3.2,8s5.6.8,8,0a37.192,37.192,0,0,1,7.2-2.4,7.673,7.673,0,0,1-1.6,7.2c-9.6,11.2-24,20-30.4,12-3.2-4-4.8-10.4-4-18.4.8-6.4-.8-3.2-1.6-1.6-2.4,7.2-3.2,18.4,0,24,4,8,11.2,11.2,22.4,5.6,11.2-4.8,21.6-13.6,21.6-25.6v-5.6a17.488,17.488,0,0,0,4-2.4v13.6c.8,12.8-4.8,16.8-9.6,20.8-6.4,4.8-15.2,8.8-23.2,9.6-17.6,2.4-21.6-8.8-21.6-24,0-2.4.8-4,.8-7.2,0-6.4-.8-5.6-3.2.8-1.6,6.4-4,20.8,1.6,32.8,6.4,12,27.2,8.8,43.2.8C130.4,266.4,132,252,131.2,236.8Zm-22.4-12c-4,1.6-5.6-.8-4.8-3.2,0-2.4.8-4,4-2.4a13.583,13.583,0,0,1,4.8,4.8A10.706,10.706,0,0,1,108.8,224.8Z" fill="#fff"/>
      <path id="Path_727" data-name="Path 727" d="M149.6,250.4a15.255,15.255,0,0,0,1.6-10.4c-.8-2.4,0-3.2-2.4-4.8-2.4-.8-3.2.8-4,2.4-.8,2.4.8,5.6,4,4,.8,1.6,0,5.6-.8,8C147.2,252.8,148,253.6,149.6,250.4Z" fill="#fff"/>
      <path id="Path_728" data-name="Path 728" d="M156,185.6c-3.2,4-5.6,9.6-.8,12.8,2.4,1.6,7.2-.8,8.8-4,1.6-4,.8-4.8-2.4-.8-4,4.8-8.8.8-4-6.4C160.8,182.4,158.4,181.6,156,185.6Z" fill="#fff"/>
      <path id="Path_729" data-name="Path 729" d="M142.4,186.4c11.2-4.8,17.6-11.2,20.8-16.8,3.2.8,4-1.6,2.4-4A39,39,0,0,1,168,160c2.4-10.4-8-11.2-10.4-3.2-1.6,4-1.6,8,1.6,10.4A66.039,66.039,0,0,1,140,184C136.8,187.2,137.6,188.8,142.4,186.4Zm19.2-28c.8-2.4,2.4-.8,2.4.8a6.065,6.065,0,0,1-1.6,3.2C160.8,161.6,160.8,160,161.6,158.4Z" fill="#fff"/>
    </g>
    <path id="Path_730" data-name="Path 730" d="M157.6,156.8c-1.6,4-1.6,8,1.6,10.4-.8.8-1.6,2.4-2.4,3.2l4,3.2c.8-1.6,2.4-2.4,3.2-4,3.2.8,4-1.6,2.4-4a39,39,0,0,1,2.4-5.6C170.4,149.6,160.8,148.8,157.6,156.8Zm6.4,2.4a6.065,6.065,0,0,1-1.6,3.2c-1.6-.8-1.6-2.4-.8-4C162.4,156,164,157.6,164,159.2Z" fill="#cfe7e8"/>
    <path id="Path_731" data-name="Path 731" d="M169.6,250.4c-1.6.8-4,3.2-5.6,4.8,0-3.2.8-8,.8-9.6,0-2.4-.8-3.2-2.4-.8a63.677,63.677,0,0,0-5.6,16,229.316,229.316,0,0,1-32,18.4c-4,1.6-1.6,3.2,1.6,2.4,12-4,21.6-7.2,30.4-11.2.8,7.2,3.2,12,9.6,13.6,12,3.2,24-7.2,37.6-25.6,3.2,8.8,11.2,20.8,32,24,8.8,1.6,8,.8,9.6-4,.8-4,2.4-4.8-4.8-6.4-8.8-3.2-12-9.6-3.2-13.6s20.8-7.2,28.8-8.8c5.6-.8,7.2-.8,8.8-5.6,1.6-5.6,2.4-6.4-3.2-5.6-6.4.8-36.8,1.6-44.8.8,6.4-3.2,15.2-6.4,21.6-8.8,2.4,1.6,3.2.8,2.4-.8a28.417,28.417,0,0,0,7.2-3.2c7.2-4,10.4-12.8,2.4-18.4s-14.4-7.2-18.4-1.6c-3.2,4.8-6.4,9.6-1.6,16-7.2,2.4-13.6,4.8-20,7.2-4.8,1.6-7.2,2.4-8.8,8.8s-2.4,6.4,4,7.2c8.8,0,16.8,0,22.4,4.8-8.8,3.2-15.2,9.6-12,18.4a21.33,21.33,0,0,1-11.2-5.6c-6.4-6.4-6.4-17.6-8.8-30.4s-8-24-10.4-28.8c-1.6-4.8-2.4-2.4-4,.8s-3.2,4.8-1.6,9.6c3.2,8,8,24,10.4,33.6-4.8,11.2-17.6,24.8-28,26.4-8,1.6-10.4-3.2-9.6-7.2a71.689,71.689,0,0,0,15.2-12c9.6-10.4,11.2-18.4,4.8-35.2q6,1.2-2.4-9.6c-4-4.8-4.8-4-7.2.8-1.6,4-3.2,7.2,1.6,8.8a52.6,52.6,0,0,0,4.8,9.6C184.8,240,176.8,244,169.6,250.4Zm76-35.2c0-2.4.8-2.4,4.8,0s7.2,3.2,1.6,4c-1.6.8-4,.8-5.6,1.6C246.4,218.4,246.4,216.8,245.6,215.2Z" fill="#fff"/>
    <g id="Group_1189" data-name="Group 1189">
      <path id="Path_732" data-name="Path 732" d="M271.2,238.4c-4,0-21.6.8-33.6.8l16,13.6c4-1.6,8.8-2.4,12-3.2,5.6-.8,7.2-.8,8.8-5.6C276,238.4,276.8,237.6,271.2,238.4Z" fill="#cfe7e8"/>
      <path id="Path_733" data-name="Path 733" d="M192.8,200.8l1.6,1.6C194.4,200.8,193.6,200.8,192.8,200.8Z" fill="#cfe7e8"/>
      <path id="Path_734" data-name="Path 734" d="M233.6,235.2c4.8-2.4,10.4-4,14.4-5.6,2.4,1.6,3.2.8,2.4-.8a28.417,28.417,0,0,0,7.2-3.2c7.2-4,10.4-12.8,2.4-18.4s-14.4-7.2-18.4-1.6c-3.2,4.8-6.4,9.6-1.6,16a85.3,85.3,0,0,0-15.2,5.6Zm17.6-20c4,2.4,7.2,3.2,1.6,4-1.6.8-4,.8-5.6,1.6a14.075,14.075,0,0,1-.8-4.8C245.6,212.8,247.2,212.8,251.2,215.2Z" fill="#cfe7e8"/>
    </g>
    <path id="Path_735" data-name="Path 735" d="M264,280a41.817,41.817,0,0,0,9.6-5.6c3.2-3.2.8-2.4-1.6-1.6s-4.8,2.4-8,3.2c-3.2,1.6-4,0-2.4-5.6,1.6-4.8,0-4.8-2.4-4s-3.2,2.4-5.6,4c-1.6.8-1.6,2.4,2.4.8,3.2-1.6,2.4,0,1.6,4C256,279.2,258.4,281.6,264,280Z" fill="#fff"/>
    <g id="Group_1190" data-name="Group 1190">
      <path id="Path_736" data-name="Path 736" d="M189.6,192.8c2.4-5.6,4-11.2,5.6-15.2s3.2-3.2,2.4.8c-.8,7.2-.8,18.4,6.4,23.2,7.2,4,18.4-3.2,22.4-11.2,12,15.2,22.4,8,23.2-6.4,0-4.8-1.6-14.4-3.2-17.6s0-3.2,1.6-1.6,4.8,3.2,3.2-2.4a25.749,25.749,0,0,0-6.4-10.4c-2.4-2.4-3.2-.8-4,.8s-.8,2.4-2.4,4-.8,2.4,0,4.8c4.8,11.2,8.8,28,1.6,29.6-6.4,1.6-10.4-12.8-10.4-19.2a65.212,65.212,0,0,0-3.2-20c-1.6-4.8-2.4-4.8-4-2.4-.8,1.6-.8,3.2-2.4,4.8-.8,1.6,0,2.4.8,5.6,4,18.4,3.2,26.4-4.8,31.2s-12.8,0-12.8-5.6,0-12.8.8-17.6,1.6-6.4,0-8.8-3.2-1.6-5.6,1.6c-4.8,7.2-10.4,19.2-12,24.8s-5.6,4-8-.8c-3.2-5.6-2.4-16-1.6-20.8.8-4,.8-5.6-1.6-1.6-4,11.2-4,22.4,4.8,32C184,201.6,187.2,198.4,189.6,192.8Z" fill="#cfe7e8"/>
      <path id="Path_737" data-name="Path 737" d="M212,171.2c0,2.4,0,5.6,1.6.8.8-4.8.8-11.2-.8-15.2s-2.4-4.8-4-3.2-1.6,2.4,0,4A21.4,21.4,0,0,1,212,171.2Z" fill="#cfe7e8"/>
      <path id="Path_738" data-name="Path 738" d="M228.8,208.8c0,6.4-1.6,6.4-4,0-.8-2.4-1.6-2.4-2.4.8,0,5.6-2.4,6.4-4,.8-.8-2.4-.8-4.8-1.6-.8a9.3,9.3,0,0,0,1.6,8c1.6,1.6,4,1.6,4.8-.8s1.6-2.4,3.2-.8,8,0,4.8-8.8C229.6,204,228.8,204.8,228.8,208.8Z" fill="#cfe7e8"/>
      <path id="Path_739" data-name="Path 739" d="M293.6,158.4a10.652,10.652,0,0,1,4,10.4c-.8,4,0,6.4,2.4.8s.8-12-1.6-16-3.2-2.4-4.8-.8C292,155.2,291.2,157.6,293.6,158.4Z" fill="#cfe7e8"/>
      <path id="Path_740" data-name="Path 740" d="M252.8,160.8c0,2.4.8,4,4,4.8,6.4,8.8,13.6,18.4,20,27.2.8,8,2.4,16,3.2,23.2,1.6,16,4.8,37.6,2.4,47.2-1.6,7.2,0,9.6,3.2-.8s3.2-20.8.8-36c-.8-6.4-.8-13.6-1.6-21.6,10.4,16.8,20.8,32.8,24.8,44,2.4,6.4,4.8,7.2,2.4-.8-2.4-11.2-12.8-30.4-28.8-54.4a141.864,141.864,0,0,1-.8-17.6c2.4,2.4,4,.8,3.2-2.4-1.6-6.4-4-11.2-6.4-17.6-.8-3.2-4-3.2-5.6.8-1.6,4.8-1.6,5.6,0,8.8a123.248,123.248,0,0,0,1.6,15.2,141.394,141.394,0,0,0-9.6-13.6c4,1.6,7.2.8,3.2-4-4-4-9.6-8.8-12.8-12s-4.8-.8-4.8,1.6C252.8,156.8,253.6,158.4,252.8,160.8Z" fill="#cfe7e8"/>
      <path id="Path_741" data-name="Path 741" d="M298.4,183.2c-.8,4-2.4,2.4-3.2-.8-.8-1.6-1.6-.8-1.6,2.4.8,3.2,1.6,5.6,4,3.2,1.6-1.6,1.6-1.6,4,0,1.6,1.6,3.2,0,4-.8a14.865,14.865,0,0,0,0-6.4c-.8-4-1.6-1.6-2.4,1.6s-2.4,4-3.2,0C300,179.2,298.4,180,298.4,183.2Z" fill="#cfe7e8"/>
      <path id="Path_742" data-name="Path 742" d="M316.8,235.2c.8,14.4,2.4,20.8-6.4,31.2-9.6,10.4-16,13.6-20,14.4-5.6,1.6-7.2,4,.8,3.2,12-.8,13.6-.8,24-12.8,5.6-6.4,8-14.4,8-33.6-.8-33.6-4.8-48-4.8-66.4,1.6,1.6,4,1.6,3.2-1.6-1.6-4-2.4-8.8-3.2-12.8-1.6-4-2.4-5.6-4-3.2s-3.2,3.2-4,4.8-1.6,4,0,6.4C315.2,204,316,220.8,316.8,235.2Z" fill="#cfe7e8"/>
      <path id="Path_743" data-name="Path 743" d="M337.6,239.2c.8,8,2.4,13.6,0,23.2-.8,2.4.8,4,2.4,0,7.2-13.6,2.4-25.6,1.6-33.6-.8-12-5.6-43.2-6.4-56l.8.8c3.2,1.6,7.2,3.2,4.8-1.6-2.4-4-4.8-11.2-6.4-16s-2.4-4.8-4.8-.8c-4.8,6.4-1.6,12.8,0,20.8C332.8,203.2,336.8,231.2,337.6,239.2Z" fill="#cfe7e8"/>
      <path id="Path_744" data-name="Path 744" d="M354.4,194.4c2.4,2.4,4,7.2,5.6,9.6,1.6,4,3.2.8,3.2-1.6s-.8-9.6,0-12c1.6-4,4,1.6,4.8-.8.8-1.6-.8-2.4-1.6-4-.8-2.4-1.6-1.6-3.2-.8-1.6,1.6-2.4,3.2-2.4,4v8.8c0,3.2-.8,3.2-1.6,1.6-.8-2.4-3.2-8-4.8-9.6s-4-.8-4,1.6v4C350.4,196.8,353.6,196.8,354.4,194.4Z" fill="#cfe7e8"/>
      <path id="Path_745" data-name="Path 745" d="M352.8,225.6c0,2.4,3.2-.8,5.6-2.4s9.6-6.4,12.8-8,2.4-2.4,1.6-5.6c0-3.2-2.4-.8-4.8,1.6s-9.6,7.2-12,9.6S352.8,224,352.8,225.6Z" fill="#cfe7e8"/>
      <path id="Path_746" data-name="Path 746" d="M336,268.8c-3.2-6.4-3.2-12.8-3.2-18.4,0-4.8-.8-8.8-2.4-.8-4.8,19.2-1.6,23.2,3.2,27.2,6.4,5.6,8.8,6.4,12,.8,6.4-9.6,8.8-17.6,12-22.4,3.2-4,3.2-.8,4.8.8,4,4.8,7.2,6.4,12.8,7.2s15.2-4,14.4-21.6c-.8-11.2-1.6-25.6-2.4-41.6,5.6,7.2,9.6,13.6,13.6,19.2a188.019,188.019,0,0,1,2.4,27.2c-.8,8.8,1.6,8.8,3.2,0,.8-3.2.8-11.2,0-20,7.2,9.6,11.2,15.2,13.6,20,3.2,5.6,4.8,9.6,4-.8,0-4-1.6-7.2-6.4-14.4-4.8-6.4-8.8-12.8-12.8-19.2-1.6-15.2-3.2-32-3.2-40.8,2.4,1.6,4,0,2.4-3.2-.8-3.2-3.2-12.8-4.8-16s-3.2-3.2-4.8.8c-1.6,3.2-3.2,4.8-2.4,7.2a326.2,326.2,0,0,0,4.8,42.4c-4-5.6-8-11.2-11.2-16,0-5.6-.8-11.2-.8-16.8,2.4,1.6,3.2,1.6,2.4-2.4a106.84,106.84,0,0,0-5.6-14.4c-1.6-3.2-2.4-3.2-4-.8-2.4,4-3.2,7.2-.8,11.2,0,4,.8,7.2.8,11.2-2.4-3.2-4-6.4-6.4-8.8,2.4.8,4-.8,1.6-3.2s-7.2-6.4-9.6-8.8c-2.4-3.2-4-2.4-4,0v7.2c0,2.4,0,4,2.4,8,5.6,7.2,12,14.4,16.8,21.6,2.4,25.6,3.2,42.4,3.2,52.8,0,6.4-2.4,9.6-5.6,10.4s-6.4-.8-9.6-5.6c-5.6-8-8-6.4-12,.8s-7.2,12.8-9.6,17.6C343.2,271.2,339.2,275.2,336,268.8Z" fill="#cfe7e8"/>
      <path id="Path_747" data-name="Path 747" d="M412.8,180c0,4.8,1.6,4,2.4,0s.8-12-1.6-16.8c-2.4-5.6-3.2-3.2-4-1.6-1.6,2.4-1.6,3.2.8,5.6A45.5,45.5,0,0,1,412.8,180Z" fill="#cfe7e8"/>
      <path id="Path_748" data-name="Path 748" d="M434.4,229.6c-1.6-33.6-5.6-48-4.8-60.8q4.8,3.6,2.4-2.4c-1.6-4-4-8.8-5.6-13.6-1.6-4-2.4-3.2-4.8,0s-2.4,5.6-1.6,7.2c4.8,40.8,7.2,62.4,8,75.2.8,17.6-3.2,28-20.8,40-5.6,4-12,8,1.6,4.8C421.6,276,436,267.2,434.4,229.6Z" fill="#cfe7e8"/>
      <path id="Path_749" data-name="Path 749" d="M389.6,264.8c-2.4,3.2,3.2,4.8,4,2.4,1.6,2.4,0,6.4-2.4,8.8-4,3.2-1.6,4,.8,1.6,2.4-1.6,8.8-8.8,4.8-13.6C394.4,262.4,391.2,262.4,389.6,264.8Z" fill="#cfe7e8"/>
    </g>
    <path id="Path_750" data-name="Path 750" d="M372,324c-10.4,0-20,0-30.4.8v-3.2c3.2-4,2.4-4,0-8-.8-1.6-1.6-3.2-4,0s-2.4,4,.8,8v3.2c-79.2.8-166.4,0-241.6-.8,8,13.6,35.2,12.8,60,12.8,22.4,0,89.6,0,180.8-2.4v4c-3.2,4-2.4,4,0,8,2.4,3.2,3.2,1.6,4,0a2.478,2.478,0,0,0,.8-1.6h12c0,1.6,2.4,2.4,3.2,2.4s3.2-.8,3.2-2.4h13.6c1.6,2.4,3.2,3.2,5.6,3.2,4.8,0,7.2-5.6,6.4-12.8C385.6,324.8,381.6,323.2,372,324Zm-11.2,16c0-1.6-2.4-2.4-3.2-2.4s-3.2.8-3.2,2.4h-12c0-.8-.8-1.6-2.4-3.2v-4c10.4,0,21.6-.8,32.8-.8a22.149,22.149,0,0,0-.8,7.2Z" fill="#fff"/>
    <path id="Path_751" data-name="Path 751" d="M372,324c-10.4,0-20,0-30.4.8v-3.2c3.2-4,2.4-4,0-8-.8-1.6-1.6-3.2-4,0s-2.4,4,.8,8v3.2h-.8l11.2,9.6c8,0,16.8-.8,24.8-.8a22.149,22.149,0,0,0-.8,7.2h-12c0-1.6-2.4-2.4-3.2-2.4s-2.4.8-2.4,1.6l5.6,4.8V344h13.6c1.6,2.4,3.2,3.2,5.6,3.2,4.8,0,7.2-5.6,6.4-12.8C385.6,324.8,381.6,323.2,372,324Z" fill="#cfe7e8"/>
  </g>
</svg>
