<svg id="privacy" xmlns="http://www.w3.org/2000/svg" width="11.392" height="13.191" viewBox="0 0 11.392 13.191">
  <path id="Path_17033" data-name="Path 17033" d="M16.158,3.206l-5.4-1.2a.307.307,0,0,0-.13,0l-5.4,1.2A.3.3,0,0,0,5,3.5v6a5.7,5.7,0,0,0,11.392,0v-6A.3.3,0,0,0,16.158,3.206Z" transform="translate(-5 -2)" fill="#72c472"/>
  <path id="Path_17034" data-name="Path 17034" d="M29.446,3.2,24.049,2A.3.3,0,0,0,24,2V15.186a5.7,5.7,0,0,0,5.68-5.7v-6A.3.3,0,0,0,29.446,3.2Z" transform="translate(-18.304 -2.001)" fill="#4da34d"/>
  <path id="Path_17035" data-name="Path 17035" d="M20.1,15h-.9V13.5a1.5,1.5,0,0,0-3,0V15h-.9a.3.3,0,0,0-.3.3v3a.3.3,0,0,0,.3.3h4.8a.3.3,0,0,0,.3-.3v-3A.3.3,0,0,0,20.1,15Zm-1.5,0H16.8V13.5a.9.9,0,1,1,1.8,0Z" transform="translate(-12.002 -9.002)" fill="#fff"/>
</svg>
