<svg xmlns="http://www.w3.org/2000/svg" width="40" height="40" viewBox="0 0 40 40">
  <g id="Group_481" data-name="Group 481" transform="translate(-623 -1045)">
    <rect id="Rectangle_179" data-name="Rectangle 179" width="40" height="40" rx="8" transform="translate(623 1045)" fill="#f6f6f6"/>
    <g id="Group_482" data-name="Group 482" transform="translate(631 1053)">
      <path id="Path_339" data-name="Path 339" d="M0,0H24V24H0Z" fill="none"/>
      <path id="Path_340" data-name="Path 340" d="M10.325,4.317a1.724,1.724,0,0,1,3.35,0,1.724,1.724,0,0,0,2.573,1.066,1.725,1.725,0,0,1,2.37,2.37,1.724,1.724,0,0,0,1.065,2.572,1.724,1.724,0,0,1,0,3.35,1.724,1.724,0,0,0-1.066,2.573,1.725,1.725,0,0,1-2.37,2.37,1.724,1.724,0,0,0-2.572,1.065,1.724,1.724,0,0,1-3.35,0,1.724,1.724,0,0,0-2.573-1.066,1.725,1.725,0,0,1-2.37-2.37,1.724,1.724,0,0,0-1.065-2.572,1.724,1.724,0,0,1,0-3.35A1.724,1.724,0,0,0,5.383,7.752a1.725,1.725,0,0,1,2.37-2.37,1.723,1.723,0,0,0,2.572-1.065Z" fill="none" stroke="#464674" stroke-linecap="round" stroke-linejoin="round" stroke-width="1.5"/>
      <circle id="Ellipse_59" data-name="Ellipse 59" cx="3" cy="3" r="3" transform="translate(9 9)" fill="none" stroke="#464674" stroke-linecap="round" stroke-linejoin="round" stroke-width="1.5"/>
    </g>
  </g>
</svg>
