<svg xmlns="http://www.w3.org/2000/svg" width="21.04" height="13.787" viewBox="0 0 21.04 13.787">
  <g id="delivery-van" transform="translate(0.3 0.3)">
    <path id="Path_653" data-name="Path 653" d="M195.022,8.068H182.759a.33.33,0,0,1-.33-.33V1.129A1.115,1.115,0,0,1,183.528,0h10.725a1.115,1.115,0,0,1,1.1,1.129v6.61A.33.33,0,0,1,195.022,8.068Zm-11.933-.659h11.6V1.129a.456.456,0,0,0-.439-.469H183.528a.455.455,0,0,0-.439.469Zm0,0" transform="translate(-174.912)" fill="#313131" stroke="#313131" stroke-width="0.6"/>
    <path id="Path_654" data-name="Path 654" d="M7.847,63.727H6.012a.33.33,0,0,1,0-.659H7.518V54.945h-2.3A.888.888,0,0,0,4.6,55.2L.982,58.7a1.1,1.1,0,0,0-.323.786v2.54a1,1,0,0,0,.94,1.043H3.163a.33.33,0,0,1,0,.659H1.6a1.655,1.655,0,0,1-1.6-1.7v-2.54a1.758,1.758,0,0,1,.524-1.261l3.618-3.5a1.545,1.545,0,0,1,1.076-.442H7.847a.33.33,0,0,1,.33.33V63.4A.33.33,0,0,1,7.847,63.727Zm0,0" transform="translate(0 -52.048)" fill="#313131" stroke="#313131" stroke-width="0.6"/>
    <path id="Path_655" data-name="Path 655" d="M195.022,184.089H193.9a.33.33,0,0,1,0-.659h.8v-2.978h-11.6v2.977h7.956a.33.33,0,1,1,0,.659h-8.286a.33.33,0,0,1-.33-.33v-3.637a.33.33,0,0,1,.33-.33h12.263a.33.33,0,0,1,.33.33v3.637A.33.33,0,0,1,195.022,184.089Zm0,0" transform="translate(-174.912 -172.384)" fill="#313131" stroke="#313131" stroke-width="0.6"/>
    <path id="Path_656" data-name="Path 656" d="M57.128,97.154h-2.87a.834.834,0,0,1-.743-.489c0-.009-.007-.019-.01-.028a.972.972,0,0,1,.181-.838.336.336,0,0,1,.027-.032c.327-.342.655-.69.982-1.038s.66-.7.99-1.046a1.367,1.367,0,0,1,.961-.41h.5a.92.92,0,0,1,.965,1.017v1.824A.951.951,0,0,1,57.128,97.154Zm-3-.727a.207.207,0,0,0,.129.068h2.868c.17,0,.328-.046.328-.381V94.29c0-.331-.132-.357-.306-.357h-.5a.694.694,0,0,0-.495.216c-.319.334-.648.683-.976,1.032s-.647.688-.97,1.026A.351.351,0,0,0,54.13,96.427Zm0,0" transform="translate(-51.265 -89.43)" fill="#313131" stroke="#313131" stroke-width="0.6"/>
    <path id="Path_657" data-name="Path 657" d="M70.486,235.716a1.812,1.812,0,1,1,1.756-1.811A1.786,1.786,0,0,1,70.486,235.716Zm0-2.963a1.153,1.153,0,1,0,1.1,1.152A1.126,1.126,0,0,0,70.486,232.753Zm0,0" transform="translate(-65.898 -222.529)" fill="#313131" stroke="#313131" stroke-width="0.6"/>
    <path id="Path_658" data-name="Path 658" d="M385.244,235.716A1.812,1.812,0,1,1,387,233.905,1.786,1.786,0,0,1,385.244,235.716Zm0-2.963a1.153,1.153,0,1,0,1.1,1.152A1.126,1.126,0,0,0,385.244,232.753Zm0,0" transform="translate(-367.685 -222.529)" fill="#313131" stroke="#313131" stroke-width="0.6"/>
  </g>
</svg>
