<svg xmlns="http://www.w3.org/2000/svg" width="24" height="24">
    <g data-name="Group 539">
        <g data-name="Group 1292">
            <g data-name="Group 1373">
                <path data-name="Path 789" d="M33.345 6.383V2.794A2.594 2.594 0 0 0 30.551 0h-8.038a2.594 2.594 0 0 0-2.794 2.794v3.589A2.283 2.283 0 0 0 18 8.6v5.76a2.247 2.247 0 0 0 2.257 2.428v1.461a.77.77 0 0 0 .774.774h.8a.77.77 0 0 0 .774-.774v-1.465h7.887v1.461a.77.77 0 0 0 .774.774h.8a.77.77 0 0 0 .774-.774v-1.461a2.252 2.252 0 0 0 2.257-2.428V8.575a2.351 2.351 0 0 0-1.752-2.192zM20.493 2.794a1.847 1.847 0 0 1 2.02-2.042h8.038a1.829 1.829 0 0 1 2.02 2.02V6.3a2.291 2.291 0 0 0-2.085 2.278v.537h-7.908v-.54A2.291 2.291 0 0 0 20.493 6.3zm9.972 7.092v2.665h-7.887V9.886zm-8.639 8.36h-.8v-1.462h.8zm10.208 0h-.8v-1.462h.8zm2.278-3.89h-.022a1.5 1.5 0 0 1-1.676 1.676H20.45a1.5 1.5 0 0 1-1.676-1.676V8.575a1.526 1.526 0 0 1 3.052 0v4.363a.385.385 0 0 0 .387.387h8.661a.385.385 0 0 0 .387-.387V8.575a1.526 1.526 0 0 1 3.052 0z" transform="translate(-13.998 2.5)" style="fill:#464674;stroke:#464674;stroke-width:.4px" />
            </g>
        </g>
    </g>
</svg>