<svg width="20" height="20" viewBox="0 0 20 20" fill="none" xmlns="http://www.w3.org/2000/svg">
<g clip-path="url(#clip0_3869_28684)">
<path d="M9.6543 1.09375C7.89281 1.09375 6.17088 1.61609 4.70625 2.59472C3.24163 3.57335 2.10009 4.96432 1.426 6.59173C0.751906 8.21913 0.575532 10.0099 0.919182 11.7375C1.26283 13.4652 2.11107 15.0521 3.35663 16.2977C4.60219 17.5432 6.18913 18.3915 7.91678 18.7351C9.64442 19.0788 11.4352 18.9024 13.0626 18.2283C14.69 17.5542 16.0809 16.4127 17.0596 14.948C18.0382 13.4834 18.5606 11.7615 18.5606 10C18.5606 7.63792 17.6222 5.37258 15.952 3.70233C14.2817 2.03208 12.0164 1.09375 9.6543 1.09375ZM10.0361 6.56456C10.8457 6.56551 11.6218 6.88753 12.1943 7.46C12.7668 8.03247 13.0888 8.80863 13.0897 9.61822H12.3262C12.3255 9.01104 12.0841 8.42891 11.6547 7.99957C11.2254 7.57023 10.6433 7.32875 10.0361 7.32812V6.56456ZM12.5091 15.3438C12.4859 15.3438 10.1934 15.3046 7.24546 12.4088C4.34974 9.46206 4.31055 7.16841 4.31055 7.14525C4.31055 6.85966 6.0918 4.65625 6.48546 4.65625C6.62202 4.65625 6.7283 4.74887 6.84468 4.88781C7.12493 5.2215 8.36408 7.17731 8.30708 7.50328C8.27977 7.65647 8.14974 7.77284 7.77686 8.08575C7.59313 8.23019 7.42119 8.38902 7.26268 8.56075C7.33859 8.87496 7.4514 9.17909 7.59874 9.46681C8.14768 10.5955 9.05974 11.5071 10.1887 12.0556C10.4764 12.2029 10.7805 12.3157 11.0947 12.3916C11.2665 12.2331 11.4253 12.0612 11.5697 11.8774C11.8826 11.5046 11.999 11.3745 12.1522 11.3472C12.4782 11.2878 14.434 12.5294 14.7677 12.8096C14.9066 12.9284 14.9992 13.0323 14.9992 13.1688C14.9981 13.5625 12.7946 15.3438 12.5091 15.3438ZM14.2345 9.61822C14.2332 8.50512 13.7905 7.43797 13.0034 6.65089C12.2163 5.8638 11.1492 5.42107 10.0361 5.41981V4.65625C11.3516 4.65782 12.6128 5.1811 13.543 6.11131C14.4732 7.04152 14.9965 8.30271 14.9981 9.61822H14.2345Z" fill="url(#paint0_linear_3869_28684)"/>
</g>
<defs>
<linearGradient id="paint0_linear_3869_28684" x1="0.748047" y1="10" x2="18.5606" y2="10" gradientUnits="userSpaceOnUse">
<stop stop-color="#464774"/>
<stop offset="1" stop-color="#7071A8"/>
</linearGradient>
<clipPath id="clip0_3869_28684">
<rect width="19" height="19" fill="white" transform="translate(0.154297 0.5)"/>
</clipPath>
</defs>
</svg>
