<svg width="22" height="18" viewBox="0 0 22 18" fill="none" xmlns="http://www.w3.org/2000/svg">
<rect width="22" height="18" rx="9" fill="#EAEAEA"/>
<path d="M13.3334 4.02286C14.1977 4.4524 14.7917 5.34433 14.7917 6.375C14.7917 7.40567 14.1977 8.2976 13.3334 8.72714M14.5 11.7804C15.3817 12.1794 16.1757 12.8296 16.8334 13.6667M5.16669 13.6667C6.30214 12.2215 7.84371 11.3333 9.54169 11.3333C11.2397 11.3333 12.7812 12.2215 13.9167 13.6667M12.1667 6.375C12.1667 7.82475 10.9914 9 9.54169 9C8.09194 9 6.91669 7.82475 6.91669 6.375C6.91669 4.92525 8.09194 3.75 9.54169 3.75C10.9914 3.75 12.1667 4.92525 12.1667 6.375Z" stroke="#0A0C10" stroke-width="1.5" stroke-linecap="round" stroke-linejoin="round"/>
</svg>
