<svg width="78" height="78" viewBox="0 0 78 78" fill="none" xmlns="http://www.w3.org/2000/svg">
<circle cx="39" cy="39" r="38.5" fill="#C4C4C4" stroke="white"/>
<path d="M39.155 41.5291C45.4014 41.5291 50.4651 36.4654 50.4651 30.219C50.4651 23.9726 45.4014 18.9089 39.155 18.9089C32.9087 18.9089 27.845 23.9726 27.845 30.219C27.845 36.4654 32.9087 41.5291 39.155 41.5291Z" fill="white"/>
<path d="M46.6141 40.9031C44.3925 42.5226 41.7142 43.3952 38.9649 43.3952C36.2157 43.3952 33.5374 42.5226 31.3157 40.9031C27.7019 42.1378 24.5638 44.4702 22.3396 47.5746C20.1154 50.679 18.9161 54.4004 18.9092 58.2194C18.9095 58.4504 19.0014 58.6719 19.1648 58.8353C19.3281 58.9986 19.5496 59.0906 19.7807 59.0909H58.1492C58.3802 59.0906 58.6017 58.9986 58.7651 58.8353C58.9284 58.6719 59.0203 58.4504 59.0207 58.2194C59.0137 54.4004 57.8144 50.679 55.5902 47.5746C53.366 44.4702 50.228 42.1378 46.6141 40.9031Z" fill="white"/>
</svg>
