<svg xmlns="http://www.w3.org/2000/svg" width="19.163" height="19.163" viewBox="0 0 19.163 19.163">
  <g id="Layer_2" data-name="Layer 2" transform="translate(-2.418 -2.418)">
    <path id="Path_17139" data-name="Path 17139" d="M19.36,9V6.64a2,2,0,0,0-2-2H15.05L13.41,3a2,2,0,0,0-2.82,0L9,4.64H6.64a2,2,0,0,0-2,2V9L3,10.59a2,2,0,0,0,0,2.82l1.64,1.64v2.31a2,2,0,0,0,2,2H9L10.59,21a2,2,0,0,0,2.82,0l1.64-1.64h2.31a2,2,0,0,0,2-2V15.05L21,13.41a2,2,0,0,0,0-2.82Z" fill="#2196f3"/>
    <path id="Path_17140" data-name="Path 17140" d="M11.25,14.5a1,1,0,0,1-.71-.29L9,12.71a1,1,0,0,1,1.42-1.42l.79.8,2.29-2.3A1.033,1.033,0,0,1,15,11.21l-3,3A1,1,0,0,1,11.25,14.5Z" fill="#fff"/>
  </g>
</svg>
