<svg width="20" height="20" viewBox="0 0 20 20" fill="none" xmlns="http://www.w3.org/2000/svg">
<g clip-path="url(#clip0_3869_28696)">
<path d="M9.6358 0.5C4.41782 0.5 0.172852 4.78208 0.172852 10.0001C0.172852 11.5536 0.556082 13.0877 1.28232 14.4494L0.516932 18.4677C0.48268 18.6487 0.539754 18.8351 0.670231 18.9656C0.800709 19.0961 0.987147 19.1521 1.16817 19.1189L5.18643 18.3535C6.54813 19.0798 8.08217 19.5 9.63576 19.5C14.8537 19.5 19.1358 15.2181 19.1358 10.0001C19.1358 4.78211 14.8538 0.5 9.6358 0.5Z" fill="url(#paint0_linear_3869_28696)"/>
<path d="M15.4875 12.6955C15.4005 12.159 15.0722 11.7121 14.5862 11.4692L12.8184 10.5853C12.6037 10.4771 12.3444 10.519 12.1759 10.6897L11.5105 11.3556C11.2295 11.3751 10.4537 11.3289 9.42089 10.2961C8.3875 9.26325 8.33804 8.4848 8.36141 8.20648L9.02731 7.5411C9.1969 7.37203 9.23876 7.11275 9.1317 6.89859L8.24782 5.1308C8.00483 4.64537 7.55855 4.3165 7.02254 4.22952C6.48274 4.14472 5.9576 4.31268 5.5733 4.69703L4.59698 5.67334C4.27353 5.99679 4.0996 6.42949 4.10665 6.89317C4.12513 7.96133 4.53282 10.1314 7.05894 12.658C9.35076 14.9498 11.6083 15.4597 12.751 15.5597C13.2404 15.6028 13.7311 15.4326 14.0866 15.0765L15.0199 14.1437C15.4043 13.7593 15.5744 13.2315 15.4875 12.6955Z" fill="url(#paint1_linear_3869_28696)"/>
</g>
<defs>
<linearGradient id="paint0_linear_3869_28696" x1="9.65435" y1="19.5" x2="9.65435" y2="0.5" gradientUnits="userSpaceOnUse">
<stop stop-color="#00B59C"/>
<stop offset="1" stop-color="#9CFFAC"/>
</linearGradient>
<linearGradient id="paint1_linear_3869_28696" x1="9.80813" y1="15.5663" x2="9.80813" y2="4.20799" gradientUnits="userSpaceOnUse">
<stop stop-color="#C3FFE8"/>
<stop offset="0.9973" stop-color="#F0FFF4"/>
</linearGradient>
<clipPath id="clip0_3869_28696">
<rect width="19" height="19" fill="white" transform="translate(0.154297 0.5)"/>
</clipPath>
</defs>
</svg>
