<svg width="16" height="17" viewBox="0 0 16 17" fill="none" xmlns="http://www.w3.org/2000/svg">
<g clip-path="url(#clip0_6387_67469)">
<path d="M12.3557 16.3C12.1981 16.3 12.0427 16.2623 11.9027 16.19C11.6668 16.0694 11.4885 15.8601 11.4067 15.6081C11.325 15.3562 11.3465 15.082 11.4667 14.846C12.4762 12.883 13.0018 10.7072 12.9997 8.49995C13.0019 6.29234 12.4763 4.11618 11.4667 2.15295C11.3556 1.91786 11.3404 1.64872 11.4244 1.40261C11.5084 1.15651 11.6849 0.9528 11.9166 0.834689C12.1483 0.716578 12.4168 0.693356 12.6653 0.769947C12.9138 0.846538 13.1227 1.01692 13.2477 1.24495C14.4023 3.48881 15.0031 5.97645 14.9997 8.49995C15.0031 11.0235 14.4023 13.5111 13.2477 15.755C13.1638 15.9192 13.036 16.0571 12.8786 16.1533C12.7212 16.2495 12.5402 16.3002 12.3557 16.3Z" fill="white"/>
<path d="M8.74477 14.5903C8.57279 14.5902 8.40375 14.5457 8.25398 14.4611C8.10422 14.3766 7.97879 14.2548 7.88982 14.1076C7.80085 13.9605 7.75134 13.7928 7.74607 13.6209C7.74081 13.449 7.77997 13.2787 7.85977 13.1263C8.61183 11.7005 9.00323 10.1123 8.99977 8.5003C9.00323 6.88835 8.61183 5.30008 7.85977 3.8743C7.73671 3.63932 7.71204 3.36508 7.79118 3.1119C7.87032 2.85873 8.04679 2.64736 8.28177 2.5243C8.51675 2.40124 8.791 2.37657 9.04417 2.45571C9.29734 2.53485 9.50871 2.71132 9.63177 2.9463C10.5279 4.66064 10.9972 6.56588 10.9998 8.5003C10.9972 10.4347 10.5279 12.34 9.63177 14.0543C9.54699 14.2162 9.4195 14.3517 9.26312 14.4462C9.10675 14.5407 8.92748 14.5905 8.74477 14.5903Z" fill="white"/>
<path d="M5.12895 12.8781C4.95592 12.8773 4.78604 12.8317 4.63593 12.7456C4.48582 12.6595 4.36061 12.536 4.27254 12.3871C4.18446 12.2381 4.13654 12.0689 4.13346 11.8959C4.13038 11.7229 4.17224 11.552 4.25495 11.4001C4.74395 10.5117 5.00024 9.51409 4.99995 8.50006C4.9994 7.48771 4.74314 6.49191 4.25495 5.60506C4.1314 5.37322 4.10405 5.10208 4.17879 4.85023C4.25354 4.59839 4.42439 4.38607 4.65441 4.25918C4.88443 4.13228 5.15514 4.10099 5.40805 4.17207C5.66095 4.24316 5.87572 4.4109 6.00595 4.63906C6.65744 5.82169 6.99937 7.14984 6.99995 8.50006C6.99937 9.85027 6.65744 11.1784 6.00595 12.3611C5.91945 12.5179 5.79243 12.6486 5.63816 12.7395C5.48389 12.8305 5.30803 12.8783 5.12895 12.8781Z" fill="white"/>
<path d="M1.49988 11.1571C1.30256 11.1578 1.10958 11.0992 0.945881 10.9891C0.836092 10.9164 0.741729 10.8228 0.668203 10.7136C0.594678 10.6044 0.543438 10.4818 0.517424 10.3527C0.491409 10.2237 0.491132 10.0908 0.516608 9.96159C0.542084 9.83244 0.592811 9.70958 0.665881 9.60007C0.883331 9.2744 0.999544 8.89167 0.999881 8.50007C0.999544 8.10848 0.883331 7.72574 0.665881 7.40007C0.518553 7.17928 0.464969 6.909 0.516916 6.6487C0.568864 6.3884 0.722088 6.1594 0.942881 6.01207C1.16367 5.86474 1.43395 5.81116 1.69425 5.86311C1.95455 5.91506 2.18355 6.06828 2.33088 6.28907C2.76789 6.94357 3.00073 7.71309 2.99988 8.50007C3.00073 9.28706 2.76789 10.0566 2.33088 10.7111C2.23974 10.848 2.11622 10.9604 1.97126 11.0382C1.82631 11.116 1.66439 11.1568 1.49988 11.1571Z" fill="white"/>
</g>
<defs>
<clipPath id="clip0_6387_67469">
<rect width="16" height="16" fill="white" transform="translate(0 0.5)"/>
</clipPath>
</defs>
</svg>
