<svg width="278" height="191" viewBox="0 0 278 191" fill="none" xmlns="http://www.w3.org/2000/svg">
<path d="M230.617 95.3881C230.617 136.615 197.45 170.03 156.545 170.03C115.639 170.03 82.4725 136.615 82.4725 95.3881C82.4725 54.1611 115.639 20.7466 156.545 20.7466C197.45 20.7466 230.617 54.1611 230.617 95.3881Z" stroke="#F1F1F1"/>
<path d="M92.7363 114.812C92.7363 137.215 74.6346 155.373 52.3083 155.373C29.9821 155.373 11.8804 137.215 11.8804 114.812C11.8804 92.4099 29.9821 74.2517 52.3083 74.2517C74.6346 74.2517 92.7363 92.4099 92.7363 114.812Z" fill="#EFEFEF" stroke="white"/>
<g clip-path="url(#clip0_8362_80800)">
<mask id="mask0_8362_80800" style="mask-type:luminance" maskUnits="userSpaceOnUse" x="24" y="87" width="56" height="56">
<path d="M24.8306 87.2019H79.665V142.036H24.8306V87.2019Z" fill="white"/>
</mask>
<g mask="url(#mask0_8362_80800)">
<path d="M78.594 114.483C78.594 123.933 73.5989 132.216 66.1041 136.836C64.1839 138.019 62.0997 138.963 59.8935 139.622C58.9832 139.895 58.0514 140.12 57.1025 140.294C55.5635 140.575 53.9763 140.722 52.3548 140.722C50.5974 140.722 48.8806 140.55 47.2205 140.22C43.7634 139.534 40.5515 138.17 37.7284 136.27C30.7242 131.559 26.1157 123.56 26.1157 114.483C26.1157 99.9916 37.8634 88.2439 52.3548 88.2439C55.8602 88.2439 59.2038 88.9315 62.2604 90.1781C63.5905 90.7201 64.8661 91.3691 66.0763 92.1134C73.586 96.7293 78.594 105.022 78.594 114.483Z" fill="#FC5B5B"/>
<path d="M66.1042 92.4712V136.836C64.1839 138.019 62.0998 138.963 59.8935 139.622C58.9832 139.895 58.0514 140.12 57.1025 140.294V92.4712C57.1025 91.2042 58.1296 90.1782 59.3955 90.1782H63.8112C64.9561 90.1782 65.905 91.0168 66.0763 92.1134C66.0945 92.2302 66.1042 92.3491 66.1042 92.4712Z" fill="#FD9B3D"/>
<path d="M66.1042 92.4711V107.207H59.8936V92.4711C59.8936 91.2041 60.9206 90.1781 62.1876 90.1781H63.8112C64.9561 90.1781 65.905 91.0167 66.0763 92.1134C66.0946 92.2301 66.1042 92.349 66.1042 92.4711Z" fill="#FEE887"/>
<path d="M59.8936 111.533H66.1042V136.836C64.1839 138.019 62.0998 138.963 59.8936 139.622V111.533Z" fill="#FEE887"/>
<path d="M78.1572 95.8242V106.723C78.1572 108.222 76.9416 109.438 75.4422 109.438H48.1535C47.1875 109.438 46.2943 108.924 45.8081 108.089L42.6326 102.64C42.141 101.795 42.141 100.751 42.6326 99.9068L45.8081 94.4566C46.2943 93.6223 47.1875 93.1082 48.1535 93.1082H75.4422C76.9416 93.1082 78.1572 94.3238 78.1572 95.8242Z" fill="#272F38"/>
<path d="M78.157 95.8243V106.723C78.157 108.222 76.9415 109.438 75.4421 109.438H51.8033C50.8373 109.438 49.9441 108.925 49.4579 108.089L46.2824 102.64C45.7908 101.795 45.7908 100.751 46.2824 99.9069L49.4579 94.4567C49.9441 93.6224 50.8373 93.1083 51.8033 93.1083H75.4421C76.9415 93.1083 78.157 94.3239 78.157 95.8243Z" fill="#484F60"/>
<path d="M55.2593 116.448C54.878 118.406 54.0502 120.164 52.9042 121.632C51.1628 123.866 49.9012 126.432 49.3593 129.211L47.2205 140.22C43.7634 139.534 40.5515 138.17 37.7284 136.27C38.5873 131.129 37.0537 125.922 33.7411 121.875C31.356 118.958 30.3279 114.972 31.3721 110.981C31.9676 108.708 33.1928 106.733 34.8153 105.206L37.0194 112.562C37.723 114.91 39.8746 116.428 42.2072 116.428C42.7234 116.428 43.245 116.353 43.7644 116.198C46.6325 115.341 48.2615 112.319 47.4015 109.454L45.1739 102.009C52.0399 103.12 56.5766 109.673 55.2593 116.448Z" fill="#FCF9F4"/>
<path d="M46.3786 138.938C43.7195 138.292 41.2064 137.222 38.8873 135.749C39.5376 130.634 37.9836 125.368 34.5699 121.197C32.2767 118.392 31.4887 114.767 32.4083 111.252C32.7812 109.828 33.4371 108.497 34.3336 107.33L35.9935 112.869C36.8101 115.595 39.3653 117.499 42.2073 117.499C42.8333 117.499 43.4604 117.406 44.0711 117.224C45.7325 116.728 47.1009 115.613 47.924 114.087C48.7468 112.56 48.9256 110.806 48.4273 109.146L46.7337 103.486C49.0238 104.236 50.9967 105.696 52.4014 107.709C54.1495 110.215 54.791 113.246 54.208 116.244C53.8678 117.992 53.145 119.583 52.06 120.973C50.1258 123.454 48.8636 126.157 48.3081 129.006L46.3786 138.938Z" fill="#FCF9F4"/>
<path d="M73.4318 93.1084L72.8749 99.3212L71.2063 93.1084H73.4318Z" fill="#272F38"/>
<path d="M57.1025 109.438L58.0113 102.356L58.8487 109.438H57.1025Z" fill="#272F38"/>
<path d="M59.8936 109.438L60.5235 100.682L61.5703 109.438H59.8936Z" fill="#272F38"/>
</g>
</g>
<path d="M104.151 114.867C104.151 143.585 80.9466 166.862 52.3256 166.862C23.7047 166.862 0.5 143.585 0.5 114.867C0.5 86.1489 23.7047 62.8713 52.3256 62.8713C80.9466 62.8713 104.151 86.1489 104.151 114.867Z" stroke="#F1F1F1"/>
<path d="M269.326 72.5139C269.326 86.8664 257.729 98.4987 243.427 98.4987C229.125 98.4987 217.528 86.8664 217.528 72.5139C217.528 58.1614 229.125 46.5292 243.427 46.5292C257.729 46.5292 269.326 58.1614 269.326 72.5139Z" fill="#EFEFEF" stroke="white"/>
<path d="M230.06 67.7051V83.9805C230.06 84.3801 230.384 84.7041 230.783 84.7041H253.943C254.342 84.7041 254.666 84.3801 254.666 83.9805V67.7051L242.363 58.8845L230.06 67.7051Z" fill="#F1F2F2"/>
<path d="M248.878 63.5553V81.0863C248.878 81.4859 248.554 81.8099 248.154 81.8099H230.06V83.9805C230.06 84.3801 230.384 84.7041 230.783 84.7041H253.943C254.342 84.7041 254.666 84.3801 254.666 83.9805V67.7051L248.878 63.5553Z" fill="#E6E7E8"/>
<path d="M251.772 65.6302V82.5336C251.772 82.9331 251.448 83.2571 251.049 83.2571H230.06V83.9806C230.06 84.3802 230.384 84.7042 230.783 84.7042H253.943C254.342 84.7042 254.666 84.3802 254.666 83.9806V67.7051L251.772 65.6302Z" fill="#D1D3D4"/>
<path d="M247.474 68.7881C247.474 68.5719 247.298 68.3965 247.082 68.3965H237.644C237.428 68.3965 237.252 68.5717 237.252 68.7881V84.704H247.474V68.7881Z" fill="#58595B"/>
<path d="M245.536 74.8136H239.19C239.03 74.8136 238.901 74.6841 238.901 74.5242V70.4719C238.901 70.312 239.03 70.1825 239.19 70.1825H245.536C245.696 70.1825 245.825 70.312 245.825 70.4719V74.5242C245.825 74.6841 245.695 74.8136 245.536 74.8136Z" fill="#5E9CF7"/>
<path d="M239.533 77.818C239.882 77.818 240.165 77.535 240.165 77.1859C240.165 76.8368 239.882 76.5538 239.533 76.5538C239.184 76.5538 238.901 76.8368 238.901 77.1859C238.901 77.535 239.184 77.818 239.533 77.818Z" fill="#EF7816"/>
<path d="M257.202 69.1095C256.839 69.1095 256.473 69 256.155 68.7722L242.363 58.8845L228.571 68.7722C227.763 69.3513 226.638 69.1661 226.059 68.3579C225.479 67.5497 225.665 66.425 226.473 65.8455L241.314 55.2057C241.941 54.7561 242.785 54.7561 243.412 55.2057L258.253 65.8455C259.061 66.425 259.247 67.5497 258.667 68.3579C258.315 68.8483 257.763 69.1095 257.202 69.1095Z" fill="#377DE2"/>
<path d="M258.667 67.379C258.315 67.8694 257.763 68.1305 257.202 68.1305C256.839 68.1305 256.472 68.021 256.154 67.7932L242.363 57.9055L228.571 67.7932C227.763 68.3723 226.638 68.1871 226.059 67.3789C225.933 67.2041 225.846 67.0141 225.791 66.8183C225.647 67.3274 225.727 67.8945 226.059 68.3578C226.638 69.1659 227.763 69.3513 228.571 68.7721L242.363 58.8845L256.155 68.7721C256.472 68.9998 256.839 69.1095 257.202 69.1095C257.763 69.1095 258.315 68.8484 258.667 68.358C258.999 67.8946 259.079 67.3275 258.935 66.8184C258.88 67.0141 258.793 67.2041 258.667 67.379Z" fill="#2266D3"/>
<path d="M230.928 76.3528C230.768 76.3528 230.638 76.2231 230.638 76.0634V69.4068C230.638 69.247 230.768 69.1174 230.928 69.1174C231.088 69.1174 231.217 69.247 231.217 69.4068V76.0634C231.217 76.2231 231.088 76.3528 230.928 76.3528ZM230.928 68.5385C230.768 68.5385 230.638 68.4089 230.638 68.2491V68.151C230.638 67.9912 230.768 67.8616 230.928 67.8616C231.088 67.8616 231.217 67.9912 231.217 68.151V68.2491C231.217 68.4089 231.088 68.5385 230.928 68.5385Z" fill="white"/>
<path d="M251.145 66.3039L251.302 67.0364C251.467 67.8061 252.068 68.4072 252.838 68.5725L253.57 68.7298C253.747 68.7677 253.747 69.0198 253.57 69.0577L252.838 69.215C252.068 69.3803 251.467 69.9815 251.302 70.7511L251.145 71.4836C251.107 71.6602 250.855 71.6602 250.817 71.4836L250.659 70.7511C250.494 69.9814 249.893 69.3803 249.123 69.215L248.391 69.0577C248.214 69.0198 248.214 68.7677 248.391 68.7298L249.123 68.5725C249.893 68.4072 250.494 67.806 250.659 67.0364L250.817 66.3039C250.855 66.1272 251.107 66.1272 251.145 66.3039Z" fill="#FFC91D"/>
<path d="M233.78 76.7114L233.919 77.361C234.066 78.0435 234.599 78.5766 235.281 78.7232L235.931 78.8627C236.088 78.8962 236.088 79.1198 235.931 79.1534L235.281 79.2929C234.599 79.4395 234.066 79.9726 233.919 80.655L233.78 81.3046C233.746 81.4612 233.523 81.4612 233.489 81.3046L233.35 80.655C233.203 79.9726 232.67 79.4395 231.987 79.2929L231.338 79.1534C231.181 79.1198 231.181 78.8962 231.338 78.8627L231.987 78.7232C232.67 78.5766 233.203 78.0435 233.35 77.361L233.489 76.7114C233.523 76.5549 233.746 76.5549 233.78 76.7114Z" fill="#FFC91D"/>
<path d="M247.227 63.3221L247.344 63.8688C247.468 64.4432 247.916 64.8918 248.491 65.0152L249.037 65.1326C249.169 65.161 249.169 65.3489 249.037 65.3773L248.491 65.4947C247.916 65.6179 247.468 66.0667 247.344 66.641L247.227 67.1877C247.199 67.3196 247.011 67.3196 246.982 67.1877L246.865 66.641C246.742 66.0667 246.293 65.6181 245.719 65.4947L245.172 65.3773C245.04 65.3489 245.04 65.161 245.172 65.1326L245.719 65.0152C246.293 64.8919 246.742 64.4432 246.865 63.8688L246.982 63.3221C247.011 63.1903 247.199 63.1903 247.227 63.3221Z" fill="#FFC91D"/>
<path d="M242.155 79.7587L243.264 89.455C243.306 89.8204 243.615 90.0964 243.983 90.0964H250.385C250.753 90.0964 251.062 89.8204 251.104 89.455L252.213 79.7587H242.155Z" fill="#377DE2"/>
<path d="M251.406 79.7587L250.38 88.7315C250.338 89.0969 250.029 89.3728 249.661 89.3728H243.259C243.258 89.3728 243.256 89.3724 243.255 89.3724L243.264 89.455C243.306 89.8204 243.615 90.0964 243.983 90.0964H250.385C250.753 90.0964 251.062 89.8204 251.104 89.455L252.213 79.7587H251.406Z" fill="#2266D3"/>
<path d="M250.34 82.4103H244.028C242.218 82.4103 240.745 80.9372 240.745 79.1265C240.745 78.9667 240.874 78.837 241.034 78.837H253.334C253.494 78.837 253.624 78.9667 253.624 79.1265C253.624 80.9372 252.15 82.4103 250.34 82.4103ZM241.339 79.4159C241.484 80.7718 242.635 81.8315 244.028 81.8315H250.34C251.733 81.8315 252.884 80.7718 253.029 79.4159H241.339Z" fill="#414042"/>
<path d="M252.367 79.7587H242.001C241.652 79.7587 241.369 79.4757 241.369 79.1265C241.369 78.7773 241.652 78.4943 242.001 78.4943H252.367C252.716 78.4943 252.999 78.7773 252.999 79.1265C252.999 79.4757 252.716 79.7587 252.367 79.7587Z" fill="#5E9CF7"/>
<path d="M252.644 78.5605C252.685 78.6443 252.71 78.7374 252.71 78.8371C252.71 79.1863 252.427 79.4693 252.078 79.4693H241.712C241.612 79.4693 241.519 79.4441 241.435 79.403C241.538 79.6129 241.752 79.7587 242.001 79.7587H252.367C252.716 79.7587 252.999 79.4757 252.999 79.1265C252.999 78.877 252.853 78.6634 252.644 78.5605Z" fill="#478CF7"/>
<path d="M259.861 86.0371H249.472V84.7744C249.472 83.9751 250.12 83.3273 250.919 83.3273H258.414C259.213 83.3273 259.861 83.9751 259.861 84.7744V86.0371Z" fill="#8C3F0A"/>
<path d="M259.008 83.4563C259.09 83.6379 259.137 83.8388 259.137 84.0509V84.7348C259.137 85.0545 258.878 85.3136 258.558 85.3136H249.472V86.0372H259.86V84.7745C259.861 84.1875 259.51 83.6832 259.008 83.4563Z" fill="#7C3108"/>
<path d="M259.861 86.0371H249.472L248.709 89.3891C248.627 89.7514 248.902 90.0963 249.274 90.0963H260.059C260.43 90.0963 260.705 89.7514 260.623 89.3891L259.861 86.0371Z" fill="#FFA91A"/>
<path d="M260.623 89.3891L259.86 86.0371H259.301L259.899 88.6656C259.982 89.0278 259.707 89.3728 259.335 89.3728H248.713L248.709 89.3891C248.627 89.7514 248.902 90.0963 249.274 90.0963H260.058C260.43 90.0965 260.706 89.7515 260.623 89.3891Z" fill="#F79219"/>
<path d="M254.436 86.0371H254.897V90.0963H254.436V86.0371Z" fill="#EF7816"/>
<path d="M250.857 86.0371L249.934 90.0963H250.395L251.319 86.0371H250.857Z" fill="#EF7816"/>
<path d="M258.475 86.0371L259.399 90.0963H258.937L258.014 86.0371H258.475Z" fill="#EF7816"/>
<path d="M252.704 86.0371L252.242 90.0963H252.704L253.166 86.0371H252.704Z" fill="#EF7816"/>
<path d="M256.629 86.0371L257.09 90.0963H256.629L256.167 86.0371H256.629Z" fill="#EF7816"/>
<path d="M255.819 81.9288H253.514C253.194 81.9288 252.935 82.188 252.935 82.5077V83.3274H256.398V82.5077C256.398 82.1879 256.139 81.9288 255.819 81.9288Z" fill="#7C3108"/>
<path d="M256.056 81.9808C256.089 82.0535 256.108 82.1334 256.108 82.2182V82.7485C256.108 82.9084 255.979 83.0379 255.819 83.0379H252.935V83.3274H256.398V82.5076C256.398 82.2729 256.257 82.0716 256.056 81.9808Z" fill="#6D2E03"/>
<path d="M255.359 81.9288H253.974V70.8905C253.974 70.508 254.284 70.1979 254.666 70.1979C255.049 70.1979 255.359 70.508 255.359 70.8905V81.9288Z" fill="#58595B"/>
<path d="M254.666 70.1979C254.533 70.1979 254.41 70.2372 254.305 70.3024C254.502 70.4243 254.635 70.641 254.635 70.8905V81.9288H255.359V70.8905C255.359 70.5078 255.049 70.1979 254.666 70.1979Z" fill="#414042"/>
<path d="M276.869 72.5145C276.869 91.0461 261.895 106.066 243.427 106.066C224.959 106.066 209.985 91.0461 209.985 72.5145C209.985 53.9828 224.959 38.9626 243.427 38.9626C261.895 38.9626 276.869 53.9828 276.869 72.5145Z" stroke="#F1F1F1"/>
<path d="M183.251 159.822C183.251 172.712 172.836 183.158 159.992 183.158C147.147 183.158 136.732 172.712 136.732 159.822C136.732 146.932 147.147 136.486 159.992 136.486C172.836 136.486 183.251 146.932 183.251 159.822Z" fill="#EFEFEF" stroke="white"/>
<g clip-path="url(#clip1_8362_80800)">
<path d="M160.665 145.196C170.514 145.196 174.603 158.222 166.461 163.796V170.114C166.461 171.46 165.257 172.355 164.165 172.845C163.816 175.502 157.515 175.502 157.166 172.845C156.072 172.355 154.87 171.42 154.87 170.114V163.796C146.755 158.24 150.783 145.196 160.665 145.196Z" fill="#518282"/>
<path d="M166.461 164.528V170.114C166.461 172.006 163.866 173.541 160.665 173.541C157.465 173.541 154.87 172.006 154.87 170.114V164.528H166.461Z" fill="#518282"/>
<path d="M160.665 171.678C163.866 171.678 166.461 170.144 166.461 168.251V170.114C166.461 172.006 163.866 173.541 160.665 173.541C157.465 173.541 154.87 172.006 154.87 170.114V168.251C154.87 170.144 157.465 171.678 160.665 171.678Z" fill="#749B9B"/>
<path d="M160.665 167.955C163.866 167.955 166.461 166.421 166.461 164.528V166.391C166.461 168.284 163.866 169.818 160.665 169.818C157.465 169.818 154.87 168.284 154.87 166.391V164.528C154.87 166.421 157.465 167.955 160.665 167.955Z" fill="#749B9B"/>
<path d="M150.392 155.314C150.392 149.64 154.992 145.04 160.665 145.04C166.339 145.04 170.939 149.64 170.939 155.314C170.939 158.837 169.164 161.945 166.461 163.796V164.528C166.461 166.421 163.866 167.955 160.665 167.955C157.464 167.955 154.87 166.421 154.87 164.528V163.796C152.166 161.945 150.392 158.837 150.392 155.314Z" fill="#FFCA00"/>
<path opacity="0.3" d="M160.665 167.955C163.866 167.955 166.461 166.421 166.461 164.528C166.461 162.635 163.866 161.101 160.665 161.101C157.464 161.101 154.87 162.635 154.87 164.528C154.87 166.421 157.464 167.955 160.665 167.955Z" fill="white"/>
<path d="M156.782 158.897C157.403 158.692 158.054 158.455 158.629 158.064C158.945 157.963 159.134 158.076 159.195 158.402V159.081L159.203 159.076C159.438 158.945 159.584 158.697 159.584 158.428V157.101C159.584 156.564 159.873 156.062 160.339 155.793L160.386 155.766C160.999 155.554 161.366 155.766 161.489 156.402V157.776L161.498 157.771C161.737 157.641 161.886 157.391 161.886 157.118V155.786C161.886 154.762 163.724 153.668 163.724 155.127V155.164L164.591 154.678L164.614 154.581C164.778 153.91 165.815 154.163 165.651 154.833L163.588 163.302C163.402 164.064 162.403 163.656 162.55 163.049L164.342 155.697L163.528 156.154C163.209 156.261 163.019 156.149 162.956 155.819V155.189C162.514 155.513 162.573 156.667 162.654 157.119C162.654 157.672 162.352 158.181 161.865 158.445L161.807 158.477C161.2 158.674 160.838 158.459 160.721 157.832V156.459C160.493 156.592 160.351 156.838 160.351 157.102V158.428C160.351 158.974 160.055 159.479 159.578 159.746C159.117 159.961 158.427 159.874 158.427 159.137V159.045L157.548 159.517L159.448 165.286C159.647 165.888 158.676 166.352 158.435 165.62L156.442 159.571C156.35 159.291 156.502 158.989 156.782 158.897C156.887 158.862 156.502 158.989 156.782 158.897Z" fill="#CAA414"/>
<path opacity="0.3" d="M163.79 156.498C166.27 156.498 168.28 154.487 168.28 152.007C168.28 149.527 166.27 147.517 163.79 147.517C161.309 147.517 159.299 149.527 159.299 152.007C159.299 154.487 161.309 156.498 163.79 156.498Z" fill="white"/>
</g>
<path d="M190.385 160.19C190.385 176.841 176.931 190.336 160.337 190.336C143.744 190.336 130.29 176.841 130.29 160.19C130.29 143.539 143.744 130.043 160.337 130.043C176.931 130.043 190.385 143.539 190.385 160.19Z" stroke="#F1F1F1"/>
<g filter="url(#filter0_d_8362_80800)">
<path d="M109.297 20C109.297 14.4771 113.774 10 119.297 10H183.546C189.069 10 193.546 14.4772 193.546 20V96.7731C193.546 102.296 189.069 106.773 183.546 106.773H119.297C113.774 106.773 109.297 102.296 109.297 96.7731V20Z" fill="#BDB39A"/>
</g>
<path d="M166.842 41.6696C166.635 41.2278 166.307 40.8541 165.895 40.5924C165.484 40.3307 165.006 40.1918 164.518 40.192H153.278L159.116 28.5124C159.311 28.1214 159.404 27.687 159.384 27.2504C159.364 26.8137 159.233 26.3893 159.004 26.0175C158.774 25.6456 158.453 25.3386 158.071 25.1257C157.69 24.9127 157.26 24.8008 156.823 24.8005H141.432C140.975 24.8005 140.526 24.9228 140.132 25.1546C139.738 25.3864 139.412 25.7194 139.19 26.1191L126.365 49.2062C126.148 49.5967 126.036 50.0372 126.042 50.4839C126.047 50.9307 126.169 51.3683 126.395 51.7534C126.622 52.1386 126.945 52.4578 127.333 52.6797C127.721 52.9015 128.16 53.0182 128.607 53.0182H140.799L136.363 72.9834C136.239 73.5446 136.307 74.1312 136.556 74.6492C136.805 75.1672 137.221 75.5866 137.737 75.8401C138.252 76.0936 138.838 76.1665 139.401 76.0471C139.963 75.9278 140.469 75.623 140.837 75.1818L166.488 44.399C166.8 44.0247 166.999 43.5691 167.062 43.0858C167.125 42.6024 167.048 42.1111 166.842 41.6696Z" fill="url(#paint0_linear_8362_80800)"/>
<g filter="url(#filter1_d_8362_80800)">
<path d="M147.219 44.7831C147.219 36.9914 153.536 30.6749 161.327 30.6749C169.119 30.6749 175.435 36.9914 175.435 44.7831C175.435 52.5749 169.119 58.8913 161.327 58.8913C153.536 58.8913 147.219 52.5749 147.219 44.7831Z" fill="#5A5A5A"/>
</g>
<path d="M170.145 43.0199H163.091V35.9658C163.091 34.9906 162.303 34.2023 161.327 34.2023C160.352 34.2023 159.564 34.9906 159.564 35.9658V43.0199H152.51C151.535 43.0199 150.746 43.8082 150.746 44.7834C150.746 45.7586 151.535 46.5469 152.51 46.5469H159.564V53.601C159.564 54.5763 160.352 55.3646 161.327 55.3646C162.303 55.3646 163.091 54.5763 163.091 53.601V46.5469H170.145C171.12 46.5469 171.909 45.7586 171.909 44.7834C171.909 43.8082 171.12 43.0199 170.145 43.0199Z" fill="white"/>
<path d="M118.844 83.4965V84.7683H117.761V83.4965H118.844ZM120.781 83.4965V84.7683H119.697V83.4965H120.781ZM123.643 92.0523C123.903 92.0523 123.932 92.2546 123.932 92.5581C123.932 92.8616 123.903 93.0495 123.643 93.0495H119.134C116.604 93.0495 115.911 91.9222 115.911 89.4364C115.911 86.9506 116.604 85.8233 119.134 85.8233H122.096V92.0523H123.643ZM119.134 92.0523H121.012V86.8205H119.134C117.428 86.8205 116.995 87.283 116.995 89.4364C116.995 91.5898 117.428 92.0523 119.134 92.0523Z" fill="white"/>
<path d="M128.169 85.8233C130.583 85.8233 131.811 86.8061 131.811 89.5087V93.0495H123.645C123.4 93.0495 123.356 92.8616 123.356 92.5581C123.356 92.2546 123.4 92.0523 123.645 92.0523H125.409C125.307 91.4453 125.221 90.607 125.221 89.6965C125.221 88.2802 125.466 86.8783 125.625 86.2135C126.045 86.0401 127.042 85.8233 128.169 85.8233ZM126.507 92.0523H130.727V89.5087C130.727 87.4853 130.091 86.8205 128.169 86.8205C127.62 86.8205 127.027 86.8783 126.565 86.9795C126.42 87.7166 126.305 88.7427 126.305 89.6965C126.305 90.607 126.406 91.4886 126.507 92.0523Z" fill="white"/>
<path d="M140.636 92.0523C140.882 92.0523 140.925 92.2546 140.925 92.5581C140.925 92.8616 140.882 93.0495 140.636 93.0495H133.482V92.0523H137.991V89.6965C137.991 87.5432 137.297 86.8205 135.404 86.8205H134.234V85.8233H135.404C137.717 85.8233 139.075 86.7916 139.075 89.6965V92.0523H140.636Z" fill="white"/>
<path d="M144.8 83.5543V84.8261H143.717V83.5543H144.8ZM144.266 85.8233C146.448 85.8233 147.778 86.8639 147.778 88.7282V93.0495H140.638C140.392 93.0495 140.349 92.8616 140.349 92.5581C140.349 92.2546 140.392 92.0523 140.638 92.0523H146.694V88.7282C146.694 87.4564 145.899 86.8205 144.295 86.8205C143.717 86.8205 142.979 86.9073 141.708 87.0807L141.592 86.1846C142.387 85.9968 143.37 85.8233 144.266 85.8233Z" fill="white"/>
<path d="M155.328 83.4965V84.7683H154.244V83.4965H155.328ZM157.265 83.4965V84.7683H156.181V83.4965H157.265ZM160.126 92.0523C160.386 92.0523 160.415 92.2546 160.415 92.5581C160.415 92.8616 160.386 93.0495 160.126 93.0495H155.617C153.088 93.0495 152.394 91.9222 152.394 89.4364C152.394 86.9506 153.088 85.8233 155.617 85.8233H158.58V92.0523H160.126ZM155.617 92.0523H157.496V86.8205H155.617C153.912 86.8205 153.478 87.283 153.478 89.4364C153.478 91.5898 153.912 92.0523 155.617 92.0523Z" fill="white"/>
<path d="M165.563 83.4965V84.7683H164.479V83.4965H165.563ZM164.826 85.8233H167.789V93.0495H160.129C159.883 93.0495 159.84 92.8616 159.84 92.5581C159.84 92.2546 159.883 92.0523 160.129 92.0523H162.167C161.748 91.4597 161.603 90.5926 161.603 89.4364C161.603 86.9506 162.297 85.8233 164.826 85.8233ZM162.687 89.4364C162.687 91.5898 163.121 92.0523 164.826 92.0523H166.705V86.8205H164.826C163.121 86.8205 162.687 87.283 162.687 89.4364Z" fill="white"/>
<path d="M173.099 92.0523C173.345 92.0523 173.388 92.2546 173.388 92.5581C173.388 92.8616 173.345 93.0495 173.099 93.0495H170.281V82.6727H171.365V92.0523H173.099Z" fill="white"/>
<path d="M180.181 83.4965V84.7683H179.097V83.4965H180.181ZM180.47 85.8233C183.216 85.8233 183.837 87.9478 183.837 89.5665V93.0495H173.099C172.854 93.0495 172.81 92.8616 172.81 92.5581C172.81 92.2546 172.854 92.0523 173.099 92.0523H175.166V85.8233H176.25V88.2658C177.291 86.994 178.432 85.8233 180.47 85.8233ZM176.25 89.6965V92.0523H182.754V89.5665C182.754 87.731 182.002 86.8205 180.456 86.8205C178.49 86.8205 177.189 88.5115 176.25 89.6965Z" fill="white"/>
<path d="M186.328 93.0495V82.6727H187.412V93.0495H186.328Z" fill="white"/>
<defs>
<filter id="filter0_d_8362_80800" x="101.297" y="0" width="100.25" height="112.773" filterUnits="userSpaceOnUse" color-interpolation-filters="sRGB">
<feFlood flood-opacity="0" result="BackgroundImageFix"/>
<feColorMatrix in="SourceAlpha" type="matrix" values="0 0 0 0 0 0 0 0 0 0 0 0 0 0 0 0 0 0 127 0" result="hardAlpha"/>
<feOffset dy="-2"/>
<feGaussianBlur stdDeviation="4"/>
<feComposite in2="hardAlpha" operator="out"/>
<feColorMatrix type="matrix" values="0 0 0 0 0 0 0 0 0 0 0 0 0 0 0 0 0 0 0.05 0"/>
<feBlend mode="normal" in2="BackgroundImageFix" result="effect1_dropShadow_8362_80800"/>
<feBlend mode="normal" in="SourceGraphic" in2="effect1_dropShadow_8362_80800" result="shape"/>
</filter>
<filter id="filter1_d_8362_80800" x="139.219" y="20.6749" width="44.2164" height="44.2164" filterUnits="userSpaceOnUse" color-interpolation-filters="sRGB">
<feFlood flood-opacity="0" result="BackgroundImageFix"/>
<feColorMatrix in="SourceAlpha" type="matrix" values="0 0 0 0 0 0 0 0 0 0 0 0 0 0 0 0 0 0 127 0" result="hardAlpha"/>
<feOffset dy="-2"/>
<feGaussianBlur stdDeviation="4"/>
<feComposite in2="hardAlpha" operator="out"/>
<feColorMatrix type="matrix" values="0 0 0 0 0 0 0 0 0 0 0 0 0 0 0 0 0 0 0.05 0"/>
<feBlend mode="normal" in2="BackgroundImageFix" result="effect1_dropShadow_8362_80800"/>
<feBlend mode="normal" in="SourceGraphic" in2="effect1_dropShadow_8362_80800" result="shape"/>
</filter>
<linearGradient id="paint0_linear_8362_80800" x1="131.282" y1="33.8892" x2="156.714" y2="59.3196" gradientUnits="userSpaceOnUse">
<stop stop-color="#FFDD00"/>
<stop offset="1" stop-color="#FEB100"/>
</linearGradient>
<clipPath id="clip0_8362_80800">
<rect width="54.8344" height="54.8344" fill="white" transform="translate(24.8306 87.2019)"/>
</clipPath>
<clipPath id="clip1_8362_80800">
<rect width="29.7975" height="29.7975" fill="white" transform="translate(145.767 145.04)"/>
</clipPath>
</defs>
</svg>
