<svg width="17" height="17" viewBox="0 0 17 17" fill="none" xmlns="http://www.w3.org/2000/svg">
<g clip-path="url(#clip0_6387_67423)">
<path d="M8.5 0.5C4.6 0.5 1.5 3.6 1.5 7.5C1.5 9.4 2.2 11.2 3.6 12.5C3.7 12.6 7.7 16.2 7.8 16.3C8.2 16.6 8.8 16.6 9.1 16.3C9.2 16.2 13.3 12.6 13.3 12.5C14.7 11.2 15.4 9.4 15.4 7.5C15.5 3.6 12.4 0.5 8.5 0.5ZM8.5 9.5C7.4 9.5 6.5 8.6 6.5 7.5C6.5 6.4 7.4 5.5 8.5 5.5C9.6 5.5 10.5 6.4 10.5 7.5C10.5 8.6 9.6 9.5 8.5 9.5Z" fill="white"/>
</g>
<defs>
<clipPath id="clip0_6387_67423">
<rect width="16" height="16" fill="white" transform="translate(0.5 0.5)"/>
</clipPath>
</defs>
</svg>
