<svg width="17" height="17" viewBox="0 0 17 17" fill="none" xmlns="http://www.w3.org/2000/svg">
<g clip-path="url(#clip0_6387_67429)">
<path d="M13.8 5.7L14.9 3.6L13.5 2.2L11.4 3.3C11.1 3.1 10.7 3 10.3 2.9L9.5 0.5H7.5L6.7 2.8C6.4 2.9 6 3 5.7 3.2L3.6 2.1L2.1 3.6L3.2 5.7C3 6 2.9 6.4 2.8 6.7L0.5 7.5V9.5L2.8 10.3C2.9 10.7 3.1 11 3.2 11.4L2.1 13.5L3.5 14.9L5.6 13.8C5.9 14 6.3 14.1 6.7 14.2L7.5 16.5H9.5L10.3 14.2C10.7 14.1 11 13.9 11.4 13.8L13.5 14.9L14.9 13.5L13.8 11.4C14 11.1 14.1 10.7 14.2 10.3L16.5 9.5V7.5L14.2 6.7C14.1 6.4 14 6 13.8 5.7ZM8.5 11.5C6.8 11.5 5.5 10.2 5.5 8.5C5.5 6.8 6.8 5.5 8.5 5.5C10.2 5.5 11.5 6.8 11.5 8.5C11.5 10.2 10.2 11.5 8.5 11.5Z" fill="white"/>
</g>
<defs>
<clipPath id="clip0_6387_67429">
<rect width="16" height="16" fill="white" transform="translate(0.5 0.5)"/>
</clipPath>
</defs>
</svg>
