<svg xmlns="http://www.w3.org/2000/svg" width="16.426" height="16.426" viewBox="0 0 16.426 16.426">
  <g id="interview" transform="translate(-0.25 -0.25)">
    <path id="Path_13862" data-name="Path 13862" d="M14.233,2.826a5.419,5.419,0,0,0-7.89-.236" transform="translate(-1.718 0)" fill="none" stroke="#bcb39a" stroke-linecap="round" stroke-linejoin="round" stroke-width="1.5"/>
    <path id="Path_13863" data-name="Path 13863" d="M13.111,5.918A2.7,2.7,0,0,0,9.172,5.8" transform="translate(-2.628 -1.286)" fill="none" stroke="#bcb39a" stroke-linecap="round" stroke-linejoin="round" stroke-width="1.5"/>
    <path id="Path_13864" data-name="Path 13864" d="M1,6a4.071,4.071,0,0,1,4.071,4.071v.706l1.018,2.347-1.018.339V14.82a1.357,1.357,0,0,1-1.357,1.357H2.357v1.357" transform="translate(0 -1.608)" fill="none" stroke="#bcb39a" stroke-linecap="round" stroke-linejoin="round" stroke-width="1.5"/>
    <path id="Path_13865" data-name="Path 13865" d="M20.588,6a4.071,4.071,0,0,0-4.071,4.071v.706L15.5,13.124l1.018.339V14.82a1.357,1.357,0,0,0,1.357,1.357h1.357v1.357" transform="translate(-4.663 -1.608)" fill="none" stroke="#bcb39a" stroke-linecap="round" stroke-linejoin="round" stroke-width="1.5"/>
  </g>
</svg>
