<svg width="16" height="17" viewBox="0 0 16 17" fill="none" xmlns="http://www.w3.org/2000/svg">
<g clip-path="url(#clip0_8223_7600)">
<path d="M7 14.5C3.14 14.5 0 11.36 0 7.5C0 3.64 3.14 0.5 7 0.5C10.86 0.5 14 3.64 14 7.5C14 11.36 10.86 14.5 7 14.5ZM7 2.5C4.243 2.5 2 4.743 2 7.5C2 10.257 4.243 12.5 7 12.5C9.757 12.5 12 10.257 12 7.5C12 4.743 9.757 2.5 7 2.5Z" fill="white"/>
<path d="M15.707 14.7934L13.314 12.4004C12.903 12.9294 12.429 13.4034 11.9 13.8144L14.293 16.2074C14.488 16.4024 14.744 16.5004 15 16.5004C15.256 16.5004 15.512 16.4024 15.707 16.2074C16.098 15.8164 16.098 15.1844 15.707 14.7934Z" fill="white"/>
</g>
<defs>
<clipPath id="clip0_8223_7600">
<rect width="16" height="16" fill="white" transform="translate(0 0.5)"/>
</clipPath>
</defs>
</svg>
