<svg width="12" height="12" viewBox="0 0 12 12" fill="none" xmlns="http://www.w3.org/2000/svg">
<path d="M3.56104 6C4.0788 6 4.49854 5.58027 4.49854 5.0625C4.49854 4.54473 4.0788 4.125 3.56104 4.125C3.04327 4.125 2.62354 4.54473 2.62354 5.0625C2.62354 5.58027 3.04327 6 3.56104 6Z" fill="white"/>
<path d="M11.6228 1.5C11.0026 1.5 10.4978 0.99525 10.4978 0.375C10.4978 0.168 10.3298 0 10.1228 0C9.9158 0 9.7478 0.168 9.7478 0.375C9.7478 0.99525 9.24305 1.5 8.6228 1.5C8.4158 1.5 8.2478 1.668 8.2478 1.875C8.2478 2.082 8.4158 2.25 8.6228 2.25C9.24305 2.25 9.7478 2.75475 9.7478 3.375C9.7478 3.582 9.9158 3.75 10.1228 3.75C10.3298 3.75 10.4978 3.582 10.4978 3.375C10.4978 2.75475 11.0026 2.25 11.6228 2.25C11.8298 2.25 11.9978 2.082 11.9978 1.875C11.9978 1.668 11.8298 1.5 11.6228 1.5Z" fill="white"/>
<path d="M10.4985 5.21175V9H1.4985V3H6.954C6.828 2.64675 6.747 2.27175 6.747 1.875C6.747 1.74675 6.771 1.6245 6.7845 1.5H1.5C0.671251 1.5 6.2788e-07 2.17125 6.2788e-07 3V9C-0.000749372 9.82875 0.670501 10.5 1.49925 10.5H10.4985C11.3273 10.5 11.9985 9.82875 11.9985 9V4.67925C11.5613 4.9725 11.0475 5.15025 10.4985 5.21175Z" fill="white"/>
<path d="M9.67507 7.65L7.42507 4.65C7.35982 4.563 7.26007 4.509 7.15207 4.50075C7.04182 4.494 6.93682 4.533 6.86032 4.61025L3.86032 7.61025C3.75307 7.7175 3.72082 7.87875 3.77932 8.019C3.83707 8.15925 3.97432 8.25075 4.12582 8.25075H9.37582C9.51757 8.25075 9.64732 8.1705 9.71107 8.04375C9.77407 7.917 9.76057 7.76475 9.67582 7.6515L9.67507 7.65Z" fill="white"/>
</svg>
