<svg xmlns="http://www.w3.org/2000/svg" width="24" height="23" viewBox="0 0 24 23">
  <g id="shop" transform="translate(0 -1)">
    <path id="Path_14289" data-name="Path 14289" d="M23.857,6.485l-3-5A1,1,0,0,0,20,1H4a1,1,0,0,0-.857.485l-3,5A1,1,0,0,0,0,7a3.993,3.993,0,0,0,3.983,4h.008A3.974,3.974,0,0,0,6.665,9.975a3.976,3.976,0,0,0,5.332,0,3.976,3.976,0,0,0,5.337,0A3.992,3.992,0,0,0,24,7,1,1,0,0,0,23.857,6.485Z" fill="#fff"/>
    <path id="Path_14290" data-name="Path 14290" d="M20.016,13a6.009,6.009,0,0,1-2.679-.628l-.015.007a5.948,5.948,0,0,1-4.564.31,6.1,6.1,0,0,1-.76-.314l-.011.005a5.938,5.938,0,0,1-4.563.309,6.086,6.086,0,0,1-.759-.314A5.99,5.99,0,0,1,3.991,13,6.147,6.147,0,0,1,3,12.91V23a1,1,0,0,0,1,1h6V18h4v6h6a1,1,0,0,0,1-1V12.906a6.034,6.034,0,0,1-.984.094Z" fill="#fff"/>
  </g>
</svg>
