<svg width="12" height="12" viewBox="0 0 12 12" fill="none" xmlns="http://www.w3.org/2000/svg">
<path d="M10 0H2C1.46957 0 0.960859 0.210714 0.585786 0.585786C0.210714 0.960859 0 1.46957 0 2L0 10C0 10.5304 0.210714 11.0391 0.585786 11.4142C0.960859 11.7893 1.46957 12 2 12H10C10.5304 12 11.0391 11.7893 11.4142 11.4142C11.7893 11.0391 12 10.5304 12 10V2C12 1.46957 11.7893 0.960859 11.4142 0.585786C11.0391 0.210714 10.5304 0 10 0ZM4 2C4.19778 2 4.39112 2.05865 4.55557 2.16853C4.72002 2.27841 4.84819 2.43459 4.92388 2.61732C4.99957 2.80004 5.01937 3.00111 4.98079 3.19509C4.9422 3.38907 4.84696 3.56725 4.70711 3.70711C4.56725 3.84696 4.38907 3.9422 4.19509 3.98079C4.00111 4.01937 3.80004 3.99957 3.61732 3.92388C3.43459 3.84819 3.27841 3.72002 3.16853 3.55557C3.05865 3.39112 3 3.19778 3 3C3 2.73478 3.10536 2.48043 3.29289 2.29289C3.48043 2.10536 3.73478 2 4 2ZM10.03 6.03L7.03 9.03C6.9605 9.09978 6.87791 9.15516 6.78696 9.19294C6.696 9.23072 6.59849 9.25017 6.5 9.25017C6.40151 9.25017 6.304 9.23072 6.21304 9.19294C6.12209 9.15516 6.0395 9.09978 5.97 9.03L4.5 7.561L3.03 9.03C2.96134 9.10369 2.87854 9.16279 2.78654 9.20378C2.69454 9.24477 2.59523 9.26682 2.49452 9.26859C2.39382 9.27037 2.29379 9.25184 2.2004 9.21412C2.10701 9.1764 2.02218 9.12026 1.95096 9.04904C1.87974 8.97782 1.8236 8.89299 1.78588 8.7996C1.74816 8.70621 1.72963 8.60618 1.73141 8.50548C1.73319 8.40477 1.75523 8.30546 1.79622 8.21346C1.83721 8.12146 1.89631 8.03866 1.97 7.97L3.97 5.97C4.03957 5.90034 4.12218 5.84507 4.21312 5.80736C4.30407 5.76965 4.40155 5.75025 4.5 5.75025C4.59845 5.75025 4.69593 5.76965 4.78688 5.80736C4.87782 5.84507 4.96044 5.90034 5.03 5.97L6.5 7.439L8.97 4.97C9.11217 4.83752 9.30022 4.7654 9.49452 4.76883C9.68882 4.77225 9.87421 4.85097 10.0116 4.98838C10.149 5.12579 10.2277 5.31118 10.2312 5.50548C10.2346 5.69978 10.1625 5.88783 10.03 6.03Z" fill="white"/>
</svg>
