<svg xmlns="http://www.w3.org/2000/svg" width="21.205" height="33.941" viewBox="0 0 21.205 33.941">
  <path id="Path_14220" data-name="Path 14220" d="M115.172-2299.046c0-.045,0-.092,0-.136v-14.907c0-.026,0-.051,0-.076-.009-.08.025-.114.106-.1a.525.525,0,0,0,.073,0h20.84c.2,0,.183-.029.183.186v33.753c-.153-.031-.287-.044-.414-.083a5.358,5.358,0,0,1-1.428-.744,25.93,25.93,0,0,1-3.073-2.548,71.75,71.75,0,0,1-5.623-5.975c-.024-.03-.05-.056-.082-.093l-.078.086a70.546,70.546,0,0,1-5.17,5.574,30.938,30.938,0,0,1-3.136,2.7,8.676,8.676,0,0,1-1.357.836,2.187,2.187,0,0,1-.734.228c-.03,0-.06,0-.1,0,0-.049-.007-.089-.007-.13v-18.446c0-.041,0-.083,0-.123.054,0,.11.015.164.015q2.238,0,4.475,0c.1,0,.131.026.128.128-.009.341-.011.683-.014,1.022q-.034,3.608-.067,7.208v.11l.044.025a.681.681,0,0,1,.067-.1,82.644,82.644,0,0,0,5.632-6.4.2.2,0,0,1,.336,0c.8.968,1.589,1.944,2.4,2.9,1.025,1.215,2.106,2.381,3.224,3.509.027.027.057.052.1.093,0-.069,0-.112,0-.152-.011-.818-.023-1.637-.032-2.452q-.034-2.858-.066-5.718c0-.17-.028-.164.169-.164H136.2c.041,0,.084-.005.127-.007l.022-.041a.488.488,0,0,1-.1-.07c-.692-.709-1.393-1.41-2.071-2.132q-4.229-4.507-8.026-9.382a.445.445,0,0,0-.441-.208.217.217,0,0,0-.167.083q-1.938,2.476-4,4.854c-2.018,2.335-4.092,4.616-6.276,6.8C115.242-2299.1,115.206-2299.077,115.172-2299.046Z" transform="translate(-115.166 2314.272)" fill="#fff"/>
</svg>
