<svg width="17" height="14" viewBox="0 0 17 14" fill="none" xmlns="http://www.w3.org/2000/svg">
<path d="M5.24805 8C5.9384 8 6.49805 7.44036 6.49805 6.75C6.49805 6.05964 5.9384 5.5 5.24805 5.5C4.55769 5.5 3.99805 6.05964 3.99805 6.75C3.99805 7.44036 4.55769 8 5.24805 8Z" fill="#464774"/>
<path d="M15.9969 2C15.1699 2 14.4969 1.327 14.4969 0.5C14.4969 0.224 14.2729 0 13.9969 0C13.7209 0 13.4969 0.224 13.4969 0.5C13.4969 1.327 12.8239 2 11.9969 2C11.7209 2 11.4969 2.224 11.4969 2.5C11.4969 2.776 11.7209 3 11.9969 3C12.8239 3 13.4969 3.673 13.4969 4.5C13.4969 4.776 13.7209 5 13.9969 5C14.2729 5 14.4969 4.776 14.4969 4.5C14.4969 3.673 15.1699 3 15.9969 3C16.2729 3 16.4969 2.776 16.4969 2.5C16.4969 2.224 16.2729 2 15.9969 2Z" fill="#464774"/>
<path d="M14.498 6.949V12H2.498V4H9.772C9.604 3.529 9.496 3.029 9.496 2.5C9.496 2.329 9.528 2.166 9.546 2H2.5C1.395 2 0.500001 2.895 0.500001 4V12C0.499001 13.105 1.394 14 2.499 14H14.498C15.603 14 16.498 13.105 16.498 12V6.239C15.915 6.63 15.23 6.867 14.498 6.949Z" fill="#464774"/>
<path d="M13.4001 10.2L10.4001 6.2C10.3131 6.084 10.1801 6.012 10.0361 6.001C9.88906 5.992 9.74906 6.044 9.64706 6.147L5.64706 10.147C5.50406 10.29 5.46106 10.505 5.53906 10.692C5.61606 10.879 5.79906 11.001 6.00106 11.001H13.0011C13.1901 11.001 13.3631 10.894 13.4481 10.725C13.5321 10.556 13.5141 10.353 13.4011 10.202L13.4001 10.2Z" fill="#464774"/>
</svg>
