<svg width="32" height="32" viewBox="0 0 32 32" fill="none" xmlns="http://www.w3.org/2000/svg">
<rect width="32" height="32" rx="16" fill="#BDB39A"/>
<path fill-rule="evenodd" clip-rule="evenodd" d="M9.99626 14.6908C9.99626 12.0969 12.0941 9.99639 14.6793 9.99639C17.2644 9.99639 19.3623 12.0969 19.3623 14.6908C19.3623 15.9277 18.8852 17.0525 18.1057 17.8908C18.0647 17.9154 18.026 17.9454 17.9905 17.9807C17.9534 18.0178 17.9221 18.0586 17.8967 18.1018C17.0575 18.8974 15.9249 19.3852 14.6793 19.3852C12.0941 19.3852 9.99626 17.2846 9.99626 14.6908ZM18.4089 19.2495C17.394 20.0841 16.0952 20.5852 14.6793 20.5852C11.429 20.5852 8.79626 17.9449 8.79626 14.6908C8.79626 11.4366 11.429 8.79639 14.6793 8.79639C17.9296 8.79639 20.5623 11.4366 20.5623 14.6908C20.5623 16.0948 20.0722 17.3846 19.2538 18.3973L23.0285 22.1801C23.2626 22.4147 23.2621 22.7946 23.0276 23.0286C22.793 23.2627 22.4131 23.2623 22.1791 23.0277L18.4089 19.2495Z" fill="white"/>
</svg>
