<svg xmlns="http://www.w3.org/2000/svg" width="11.585" height="18.543" viewBox="0 0 11.585 18.543">
  <path id="Path_558" data-name="Path 558" d="M115.169-2305.954c0-.025,0-.05,0-.074v-8.144c0-.014,0-.028,0-.042-.005-.044.014-.062.058-.057a.274.274,0,0,0,.04,0H126.65c.107,0,.1-.016.1.1v18.44c-.083-.017-.157-.024-.226-.045a2.929,2.929,0,0,1-.78-.406,14.168,14.168,0,0,1-1.679-1.392,39.194,39.194,0,0,1-3.072-3.264c-.013-.016-.027-.031-.045-.051l-.043.047a38.5,38.5,0,0,1-2.824,3.045,16.924,16.924,0,0,1-1.713,1.473,4.736,4.736,0,0,1-.741.457,1.2,1.2,0,0,1-.4.125l-.056,0c0-.027,0-.048,0-.071v-10.077c0-.022,0-.045,0-.067.03,0,.06.008.09.008q1.223,0,2.445,0c.054,0,.072.014.07.07-.005.186-.006.373-.008.558l-.037,3.938v.06l.024.014a.371.371,0,0,1,.037-.057,45.144,45.144,0,0,0,3.077-3.5.107.107,0,0,1,.184,0c.436.529.868,1.062,1.31,1.586.56.664,1.15,1.3,1.761,1.917.015.015.031.028.056.051,0-.038,0-.061,0-.083q-.009-.67-.017-1.34-.018-1.561-.036-3.124c0-.093-.016-.089.092-.089h2.445c.023,0,.046,0,.069,0l.012-.022a.263.263,0,0,1-.056-.038c-.378-.387-.761-.77-1.132-1.165q-2.31-2.462-4.385-5.125a.243.243,0,0,0-.241-.113.118.118,0,0,0-.091.045q-1.059,1.353-2.183,2.652c-1.1,1.276-2.236,2.522-3.429,3.713C115.207-2305.985,115.188-2305.971,115.169-2305.954Z" transform="translate(-115.166 2314.272)" fill="#bdb39a"/>
</svg>
