<svg width="12" height="12" viewBox="0 0 12 12" fill="none" xmlns="http://www.w3.org/2000/svg">
<g clip-path="url(#clip0_8223_7565)">
<path d="M9.54299 6.18945C9.20394 6.84914 8.69893 7.40917 8.07769 7.81439C7.45644 8.21961 6.74038 8.45605 5.99999 8.50045C5.2596 8.45605 4.54354 8.21961 3.92229 7.81439C3.30105 7.40917 2.79604 6.84914 2.45699 6.18945C1.27867 7.04635 0.453984 8.30419 0.137989 9.72645C0.11702 9.82349 0.125414 9.92458 0.162101 10.0168C0.198787 10.1091 0.262106 10.1883 0.343989 10.2445C2.00842 11.3882 3.98048 12.0004 5.99999 12.0004C8.0195 12.0004 9.99156 11.3882 11.656 10.2445C11.7379 10.1883 11.8012 10.1091 11.8379 10.0168C11.8746 9.92458 11.883 9.82349 11.862 9.72645C11.546 8.30419 10.7213 7.04635 9.54299 6.18945Z" fill="white"/>
<path d="M6 0C5.20435 0 4.44129 0.31607 3.87868 0.87868C3.31607 1.44129 3 2.20435 3 3C3 4.611 4.26 7 6 7C7.74 7 9 4.611 9 3C9 2.20435 8.68393 1.44129 8.12132 0.87868C7.55871 0.31607 6.79565 0 6 0Z" fill="white"/>
</g>
<defs>
<clipPath id="clip0_8223_7565">
<rect width="12" height="12" fill="white"/>
</clipPath>
</defs>
</svg>
