<svg xmlns="http://www.w3.org/2000/svg" width="24.009" height="23.999" viewBox="0 0 24.009 23.999">
  <g id="stack" transform="translate(0.008 0)">
    <path id="Path_13825" data-name="Path 13825" d="M23.746,16.564l-1.62-.915-8.9,5.028a2.5,2.5,0,0,1-2.459,0l-8.9-5.029-1.62.915a.5.5,0,0,0,0,.872l11.5,6.5a.5.5,0,0,0,.492,0l11.5-6.5a.5.5,0,0,0,0-.872Z" fill="#fff"/>
    <path id="Path_13826" data-name="Path 13826" d="M23.746,11.564l-1.62-.915-8.9,5.028a2.5,2.5,0,0,1-2.459,0l-8.9-5.029-1.62.915a.5.5,0,0,0,0,.872l11.5,6.5a.5.5,0,0,0,.492,0l11.5-6.5a.5.5,0,0,0,0-.872Z" fill="#fff"/>
    <path id="Path_13827" data-name="Path 13827" d="M23.746,6.564l-11.5-6.5a.507.507,0,0,0-.492,0l-11.5,6.5a.5.5,0,0,0,0,.872l11.5,6.5a.5.5,0,0,0,.492,0l11.5-6.5a.5.5,0,0,0,0-.872Z" fill="#fff"/>
  </g>
</svg>
