<svg width="12" height="12" viewBox="0 0 12 12" fill="none" xmlns="http://www.w3.org/2000/svg">
<g clip-path="url(#clip0_8223_7559)">
<path d="M11.3 10.253L10.494 5.418C10.4745 5.30108 10.4142 5.19487 10.3237 5.11831C10.2332 5.04175 10.1185 4.99982 9.99998 5H1.99998C1.88163 5.00006 1.76713 5.04209 1.67686 5.11863C1.58659 5.19517 1.52639 5.30125 1.50698 5.418L0.699981 10.253C0.664082 10.468 0.675487 10.6883 0.733401 10.8985C0.791315 11.1087 0.894346 11.3037 1.03532 11.47C1.17629 11.6363 1.35182 11.7698 1.54968 11.8614C1.74754 11.9529 1.96297 12.0002 2.18098 12H9.81898C10.0369 12.0001 10.2522 11.9527 10.45 11.8611C10.6477 11.7695 10.8231 11.6359 10.964 11.4696C11.1048 11.3033 11.2078 11.1083 11.2656 10.8982C11.3235 10.6881 11.3349 10.4679 11.299 10.253H11.3Z" fill="white"/>
<path d="M4.75 4V2.75C4.75 2.41848 4.8817 2.10054 5.11612 1.86612C5.35054 1.6317 5.66848 1.5 6 1.5C6.33152 1.5 6.64946 1.6317 6.88388 1.86612C7.1183 2.10054 7.25 2.41848 7.25 2.75V4H8.75V2.75C8.75 2.02065 8.46027 1.32118 7.94454 0.805456C7.42882 0.289731 6.72935 0 6 0C5.27065 0 4.57118 0.289731 4.05546 0.805456C3.53973 1.32118 3.25 2.02065 3.25 2.75V4H4.75Z" fill="white"/>
</g>
<defs>
<clipPath id="clip0_8223_7559">
<rect width="12" height="12" fill="white"/>
</clipPath>
</defs>
</svg>
