<svg xmlns="http://www.w3.org/2000/svg" width="18" height="18.762" viewBox="0 0 18 18.762">
  <g id="Shipping_Icon" data-name="Shipping Icon" transform="translate(-3 -3.094)">
    <path id="Combined_Shape" data-name="Combined Shape" d="M9,18.762a1.006,1.006,0,0,1-.486-.126l-8-4.445A1,1,0,0,1,0,13.317V4.556a1,1,0,0,1,.594-.914l8-3.555a1,1,0,0,1,.812,0l2.467,1.1L4.6,5.223V9.812l2,1V6.4l7.562-4.2,3.245,1.442A1,1,0,0,1,18,4.556v8.762a1,1,0,0,1-.515.874l-8,4.445A1.006,1.006,0,0,1,9,18.762Z" transform="translate(3 3.094)" fill="#fff"/>
  </g>
</svg>
