<svg xmlns="http://www.w3.org/2000/svg" width="32" height="28" viewBox="0 0 32 28">
  <g id="delivery-fast" transform="translate(0 -2)">
    <path id="Path_14294" data-name="Path 14294" d="M31.2,15.02l-4.455-.891-2.805-7.48A1,1,0,0,0,23,6H13a1,1,0,0,0-1,1V25a1,1,0,0,0,1,1h1.1a5,5,0,0,0,9.8,0H31a1,1,0,0,0,1-1V16A1,1,0,0,0,31.2,15.02ZM15,9h7l1.771,5H15Zm4,19a3,3,0,1,1,3-3A3,3,0,0,1,19,28Z" fill="#bcb39a"/>
    <path id="Path_14295" data-name="Path 14295" d="M9,2H1A1,1,0,0,0,1,4H9A1,1,0,0,0,9,2Z" fill="#bcb39a"/>
    <path id="Path_14296" data-name="Path 14296" d="M9,7H3A1,1,0,0,0,3,9H9A1,1,0,0,0,9,7Z" fill="#bcb39a"/>
    <path id="Path_14297" data-name="Path 14297" d="M9,12H5a1,1,0,0,0,0,2H9a1,1,0,0,0,0-2Z" fill="#bcb39a"/>
    <path id="Path_14298" data-name="Path 14298" d="M9,17H7a1,1,0,0,0,0,2H9a1,1,0,0,0,0-2Z" fill="#bcb39a"/>
  </g>
</svg>
