<svg xmlns="http://www.w3.org/2000/svg" width="17.227" height="18.793" viewBox="0 0 17.227 18.793">
  <g id="recipe" transform="translate(-1)">
    <path id="Path_13743" data-name="Path 13743" d="M21.239,18H17v4.239Z" transform="translate(-3.471 -3.905)" fill="#b7b7b7"/>
    <path id="Path_13744" data-name="Path 13744" d="M17.444,0H1.783A.783.783,0,0,0,1,.783V18.01a.783.783,0,0,0,.783.783h10.18V13.312a.783.783,0,0,1,.783-.783h5.481V.783A.783.783,0,0,0,17.444,0ZM4.915,4.7H7.264V6.264H4.915Zm0,3.915H7.264V10.18H4.915ZM8.83,14.095H4.915V12.529H8.83Zm5.481-3.915H8.83V8.613h5.481Zm0-3.915H8.83V4.7h5.481Z" transform="translate(0)" fill="#b7b7b7"/>
  </g>
</svg>
