<svg xmlns="http://www.w3.org/2000/svg" width="26" height="31.001" viewBox="0 0 26 31.001">
  <g id="privacy" transform="translate(-3 -0.999)">
    <path id="Path_14299" data-name="Path 14299" d="M16,11a2,2,0,0,0-2,2v2h4V13A2,2,0,0,0,16,11Z" fill="#bcb39a"/>
    <path id="Path_14300" data-name="Path 14300" d="M28.243,4.03l-12-3a.976.976,0,0,0-.486,0l-12,3A1,1,0,0,0,3,5V19a13,13,0,0,0,26,0V5a1,1,0,0,0-.757-.97ZM22,23a1,1,0,0,1-1,1H11a1,1,0,0,1-1-1V16a1,1,0,0,1,1-1h1V13a4,4,0,1,1,8,0v2h1a1,1,0,0,1,1,1Z" fill="#bcb39a"/>
  </g>
</svg>
