<svg xmlns="http://www.w3.org/2000/svg" width="119" height="136.618" viewBox="0 0 119 136.618">
    <g data-name="Group 10262">
        <g transform="translate(8 20)">
            <path data-name="Path 13736" d="M25.391 111a2.391 2.391 0 1 1 0-4.783 50.217 50.217 0 0 0 0-100.435 2.391 2.391 0 1 1 0-4.783 55 55 0 0 1 0 110z" transform="translate(30.609)" style="fill:#bcb39a"/>
            <path data-name="Path 13737" d="M3.609 34.689a2.391 2.391 0 0 1-2.391-2.2C1.117 31.133 1 29.547 1 27.931s.117-3.2.227-4.558A2.392 2.392 0 0 1 6 23.76c-.1 1.265-.213 2.736-.213 4.17s.106 2.909.213 4.17a2.391 2.391 0 0 1-2.2 2.582c-.06.004-.127.007-.191.007z" transform="translate(0 28.069)" style="fill:#bcb39a"/>
            <path data-name="Path 13738" d="M13.875 11.377a2.391 2.391 0 0 1-1.258-4.424 54.866 54.866 0 0 1 8.13-4.158 2.393 2.393 0 0 1 1.8 4.433 49.86 49.86 0 0 0-7.413 3.793 2.377 2.377 0 0 1-1.26.356z" transform="translate(14.589 2.251)" style="fill:#bcb39a"/>
            <path data-name="Path 13739" d="M5.767 22.2a2.334 2.334 0 0 1-1.078-.261 2.391 2.391 0 0 1-1.052-3.212A55.344 55.344 0 0 1 8.42 10.96a2.394 2.394 0 0 1 3.86 2.834 50.5 50.5 0 0 0-4.38 7.092A2.391 2.391 0 0 1 5.767 22.2z" transform="translate(3.309 12.494)" style="fill:#bcb39a"/>
            <path data-name="Path 13740" d="M10.3 45.093a2.391 2.391 0 0 1-1.935-.98 55.762 55.762 0 0 1-4.768-7.8 2.392 2.392 0 1 1 4.277-2.153 50.456 50.456 0 0 0 4.359 7.126 2.391 2.391 0 0 1-1.93 3.8z" transform="translate(3.262 44.304)" style="fill:#bcb39a"/>
            <path data-name="Path 13741" d="M21.632 50.482a2.367 2.367 0 0 1-.9-.177 55.065 55.065 0 0 1-8.15-4.185 2.391 2.391 0 1 1 2.518-4.065 50.434 50.434 0 0 0 7.439 3.826 2.391 2.391 0 0 1-.9 4.606z" transform="translate(16.534 57.62)" style="fill:#bcb39a"/>
            <path data-name="Path 13742" d="m31.407 61.3-20.12-20.12a2.391 2.391 0 0 1 0-3.381l3.381-3.381a2.391 2.391 0 0 1 3.381 0L33.1 49.465l34.176-34.179a2.391 2.391 0 0 1 3.381 0l3.381 3.381a2.391 2.391 0 0 1 0 3.381L34.788 61.3a2.391 2.391 0 0 1-3.381 0z" transform="translate(13.337 18.903)" style="fill:#bcb39a"/>
            <circle data-name="Ellipse 7933" cx="8.5" cy="8.5" r="8.5" transform="translate(-8 -20)" style="fill:#bcb39a"/>
            <circle data-name="Ellipse 7934" cx="3" cy="3" r="3" transform="translate(25 -9)" style="fill:#bcb39a"/>
        </g>
        <path data-name="Path 13781" d="M26.5 52.618a1.147 1.147 0 0 1-.811-.336C24.925 51.519 7 33.445 7 20.5A19.312 19.312 0 0 1 26.5 1 19.312 19.312 0 0 1 46 20.5c0 12.944-17.925 31.019-18.689 31.781a1.147 1.147 0 0 1-.811.337z" transform="translate(-6.999 84)" style="fill:#464774"/>
        <path data-name="Path 13782" d="M34.353 26.882H16v-2.444a3.431 3.431 0 0 1 2.2-3.212 20.315 20.315 0 0 1 13.937.015 3.433 3.433 0 0 1 2.215 3.216z" transform="translate(-5.675 86.794)" style="fill:#fff"/>
        <path data-name="Path 13783" d="M20 13.679a4.588 4.588 0 0 1 9.176 0c0 2.591-2.054 5.631-4.588 5.631S20 16.27 20 13.679z" transform="translate(-5.087 85.19)" style="fill:#fff"/>
    </g>
</svg>
