<svg id="sign-24h" xmlns="http://www.w3.org/2000/svg" width="32" height="32" viewBox="0 0 32 32">
  <path id="Path_14301" data-name="Path 14301" d="M31,8H25.3l-6.4-4.294A2.945,2.945,0,0,0,19,3a3,3,0,0,0-6,0,2.938,2.938,0,0,0,.093.706L6.7,8H1A1,1,0,0,0,0,9V31a1,1,0,0,0,1,1H31a1,1,0,0,0,1-1V9A1,1,0,0,0,31,8ZM9.928,24h-5.7V22.6l1.917-1.939C6.834,19.946,8.214,18.66,7.473,18a1.175,1.175,0,0,0-1.309.035,5.369,5.369,0,0,0-.856.625L4.143,17.292a6.182,6.182,0,0,1,1.02-.776,3.923,3.923,0,0,1,1.993-.481,2.669,2.669,0,0,1,2.291,1.034,2.356,2.356,0,0,1,.215,1.969,3.935,3.935,0,0,1-1,1.568c-.267.279-1.7,1.644-1.7,1.644h2.97V24Zm6.7-1.52h-.865V24h-2.1V22.48H10.534V20.922L13.8,16.147h1.961V20.9h.865ZM18.7,24.107H16.846l2.927-8.073h1.859ZM10.284,8l3.907-2.622a2.942,2.942,0,0,0,3.618,0L21.716,8Zm17.455,9.41L24.973,24h-2.2l2.695-6.085h-3.4V16.159H27.74V17.41Z" fill="#bcb39a"/>
  <path id="Path_14302" data-name="Path 14302" d="M13.666,20.9v-.913c0-.057.023-1.1.048-1.155-.481.806-.407.675-1.342,2.068Z" fill="#bcb39a"/>
</svg>
