<svg width="30" height="30" viewBox="0 0 30 30" fill="none" xmlns="http://www.w3.org/2000/svg">
<circle cx="15" cy="15" r="15" fill="#BDB39A"/>
<path d="M10.5425 21.16C9.92383 21.16 9.3745 21.0747 8.8945 20.904C8.4145 20.7333 8.00383 20.4453 7.6625 20.04C7.33183 19.6347 7.08117 19.0907 6.9105 18.408C6.73983 17.7253 6.6545 16.8773 6.6545 15.864C6.6545 14.7973 6.7345 13.9013 6.8945 13.176C7.06517 12.4507 7.31583 11.8747 7.6465 11.448C7.98783 11.0213 8.3985 10.7173 8.8785 10.536C9.3585 10.3547 9.90783 10.264 10.5265 10.264C11.1665 10.264 11.7265 10.3547 12.2065 10.536C12.6865 10.7173 13.0865 11.0213 13.4065 11.448C13.7372 11.8747 13.9878 12.4507 14.1585 13.176C14.3292 13.8907 14.4145 14.7867 14.4145 15.864C14.4145 17.208 14.2598 18.264 13.9505 19.032C13.6412 19.8 13.1985 20.3493 12.6225 20.68C12.0572 21 11.3638 21.16 10.5425 21.16ZM10.5425 19.928C10.9372 19.928 11.2838 19.8693 11.5825 19.752C11.8918 19.624 12.1478 19.4107 12.3505 19.112C12.5532 18.8027 12.7025 18.3867 12.7985 17.864C12.9052 17.3307 12.9585 16.664 12.9585 15.864C12.9585 15 12.9105 14.2907 12.8145 13.736C12.7185 13.1707 12.5692 12.7227 12.3665 12.392C12.1745 12.0613 11.9238 11.832 11.6145 11.704C11.3158 11.5653 10.9585 11.496 10.5425 11.496C10.1265 11.496 9.76383 11.5653 9.4545 11.704C9.15583 11.832 8.90517 12.0613 8.7025 12.392C8.49983 12.712 8.34517 13.1547 8.2385 13.72C8.1425 14.2853 8.0945 15.0053 8.0945 15.88C8.0945 16.68 8.14783 17.3467 8.2545 17.88C8.36117 18.4027 8.52117 18.8133 8.7345 19.112C8.94783 19.4107 9.20383 19.624 9.5025 19.752C9.80117 19.8693 10.1478 19.928 10.5425 19.928ZM16.088 21V19.832L19.032 16.744C19.48 16.2747 19.864 15.8587 20.184 15.496C20.504 15.1333 20.7493 14.776 20.92 14.424C21.0907 14.072 21.176 13.6933 21.176 13.288C21.176 12.616 20.9893 12.1573 20.616 11.912C20.2533 11.656 19.6987 11.528 18.952 11.528C18.6747 11.528 18.3653 11.5493 18.024 11.592C17.6933 11.624 17.368 11.6667 17.048 11.72C16.7387 11.7627 16.4773 11.8107 16.264 11.864L16.152 10.712C16.3867 10.648 16.6693 10.584 17 10.52C17.3307 10.456 17.6933 10.4027 18.088 10.36C18.4827 10.3067 18.8667 10.28 19.24 10.28C20.36 10.28 21.2027 10.5093 21.768 10.968C22.344 11.416 22.632 12.136 22.632 13.128C22.632 13.6507 22.5467 14.1253 22.376 14.552C22.216 14.968 21.9707 15.3733 21.64 15.768C21.32 16.1627 20.904 16.6053 20.392 17.096L17.72 19.784H22.872V21H16.088Z" fill="white"/>
</svg>
