<svg width="30" height="30" viewBox="0 0 30 30" fill="none" xmlns="http://www.w3.org/2000/svg">
<circle cx="15" cy="15" r="15" fill="#BDB39A"/>
<path d="M10.5425 21.16C9.92383 21.16 9.3745 21.0747 8.8945 20.904C8.4145 20.7333 8.00383 20.4453 7.6625 20.04C7.33183 19.6347 7.08117 19.0907 6.9105 18.408C6.73983 17.7253 6.6545 16.8773 6.6545 15.864C6.6545 14.7973 6.7345 13.9013 6.8945 13.176C7.06517 12.4507 7.31583 11.8747 7.6465 11.448C7.98783 11.0213 8.3985 10.7173 8.8785 10.536C9.3585 10.3547 9.90783 10.264 10.5265 10.264C11.1665 10.264 11.7265 10.3547 12.2065 10.536C12.6865 10.7173 13.0865 11.0213 13.4065 11.448C13.7372 11.8747 13.9878 12.4507 14.1585 13.176C14.3292 13.8907 14.4145 14.7867 14.4145 15.864C14.4145 17.208 14.2598 18.264 13.9505 19.032C13.6412 19.8 13.1985 20.3493 12.6225 20.68C12.0572 21 11.3638 21.16 10.5425 21.16ZM10.5425 19.928C10.9372 19.928 11.2838 19.8693 11.5825 19.752C11.8918 19.624 12.1478 19.4107 12.3505 19.112C12.5532 18.8027 12.7025 18.3867 12.7985 17.864C12.9052 17.3307 12.9585 16.664 12.9585 15.864C12.9585 15 12.9105 14.2907 12.8145 13.736C12.7185 13.1707 12.5692 12.7227 12.3665 12.392C12.1745 12.0613 11.9238 11.832 11.6145 11.704C11.3158 11.5653 10.9585 11.496 10.5425 11.496C10.1265 11.496 9.76383 11.5653 9.4545 11.704C9.15583 11.832 8.90517 12.0613 8.7025 12.392C8.49983 12.712 8.34517 13.1547 8.2385 13.72C8.1425 14.2853 8.0945 15.0053 8.0945 15.88C8.0945 16.68 8.14783 17.3467 8.2545 17.88C8.36117 18.4027 8.52117 18.8133 8.7345 19.112C8.94783 19.4107 9.20383 19.624 9.5025 19.752C9.80117 19.8693 10.1478 19.928 10.5425 19.928ZM19.416 21.16C19.0213 21.16 18.6053 21.1333 18.168 21.08C17.7307 21.0373 17.32 20.984 16.936 20.92C16.552 20.856 16.232 20.792 15.976 20.728L16.088 19.592C16.3333 19.6347 16.632 19.6827 16.984 19.736C17.3467 19.7893 17.7307 19.8373 18.136 19.88C18.5413 19.912 18.92 19.928 19.272 19.928C20.0187 19.928 20.568 19.768 20.92 19.448C21.2827 19.128 21.464 18.648 21.464 18.008C21.464 17.5493 21.3733 17.1867 21.192 16.92C21.0107 16.6533 20.76 16.456 20.44 16.328C20.1307 16.2 19.784 16.1307 19.4 16.12H17.256V14.936H19.384C19.6507 14.936 19.9227 14.8667 20.2 14.728C20.488 14.5787 20.728 14.3707 20.92 14.104C21.1227 13.8267 21.224 13.496 21.224 13.112C21.224 12.536 21.064 12.1253 20.744 11.88C20.424 11.624 19.8907 11.496 19.144 11.496C18.8027 11.496 18.4453 11.5173 18.072 11.56C17.7093 11.592 17.3627 11.6347 17.032 11.688C16.712 11.7307 16.4453 11.7787 16.232 11.832L16.12 10.712C16.344 10.648 16.6213 10.584 16.952 10.52C17.2933 10.4453 17.656 10.3867 18.04 10.344C18.4347 10.2907 18.824 10.264 19.208 10.264C20.0613 10.264 20.7387 10.3653 21.24 10.568C21.7413 10.76 22.104 11.0587 22.328 11.464C22.552 11.8693 22.664 12.392 22.664 13.032C22.664 13.4267 22.6 13.768 22.472 14.056C22.3547 14.3333 22.2053 14.568 22.024 14.76C21.8533 14.9413 21.6827 15.0853 21.512 15.192C21.352 15.2987 21.224 15.3787 21.128 15.432C21.4907 15.56 21.8053 15.7147 22.072 15.896C22.3387 16.0773 22.5467 16.328 22.696 16.648C22.8453 16.968 22.92 17.4053 22.92 17.96C22.92 18.6853 22.7973 19.288 22.552 19.768C22.3067 20.2373 21.9227 20.5893 21.4 20.824C20.888 21.048 20.2267 21.16 19.416 21.16Z" fill="white"/>
</svg>
