<svg width="44" height="44" viewBox="0 0 44 44" fill="none" xmlns="http://www.w3.org/2000/svg">
<g filter="url(#filter0_b_10481_95461)">
<rect width="44" height="44" rx="14" fill="#0A0C10" fill-opacity="0.5"/>
<rect x="0.25" y="0.25" width="43.5" height="43.5" rx="13.75" stroke="url(#paint0_linear_10481_95461)" stroke-width="0.5"/>
</g>
<g clip-path="url(#clip0_10481_95461)">
<path d="M16.2504 29.4996C14.6494 29.4996 13.2254 28.4746 12.7084 26.9486L12.6734 26.8336C12.5514 26.4296 12.5004 26.0896 12.5004 25.7496V18.9316L10.0744 27.0296C9.76239 28.2206 10.4734 29.4556 11.6664 29.7846L27.1294 33.9256C27.3224 33.9756 27.5154 33.9996 27.7054 33.9996C28.7014 33.9996 29.6114 33.3386 29.8664 32.3646L30.7674 29.4996H16.2504Z" fill="white"/>
<path d="M19 19C20.103 19 21 18.103 21 17C21 15.897 20.103 15 19 15C17.897 15 17 15.897 17 17C17 18.103 17.897 19 19 19Z" fill="white"/>
<path d="M31.5 12H16.5C15.122 12 14 13.122 14 14.5V25.5C14 26.878 15.122 28 16.5 28H31.5C32.878 28 34 26.878 34 25.5V14.5C34 13.122 32.878 12 31.5 12ZM16.5 14H31.5C31.776 14 32 14.224 32 14.5V21.599L28.841 17.913C28.506 17.52 28.021 17.31 27.5 17.298C26.982 17.301 26.496 17.531 26.164 17.929L22.45 22.387L21.24 21.18C20.556 20.496 19.443 20.496 18.76 21.18L16 23.939V14.5C16 14.224 16.224 14 16.5 14Z" fill="white"/>
</g>
<defs>
<filter id="filter0_b_10481_95461" x="-24" y="-24" width="92" height="92" filterUnits="userSpaceOnUse" color-interpolation-filters="sRGB">
<feFlood flood-opacity="0" result="BackgroundImageFix"/>
<feGaussianBlur in="BackgroundImageFix" stdDeviation="12"/>
<feComposite in2="SourceAlpha" operator="in" result="effect1_backgroundBlur_10481_95461"/>
<feBlend mode="normal" in="SourceGraphic" in2="effect1_backgroundBlur_10481_95461" result="shape"/>
</filter>
<linearGradient id="paint0_linear_10481_95461" x1="-1.69231" y1="-4.65385" x2="31.3077" y2="38.0769" gradientUnits="userSpaceOnUse">
<stop stop-color="white"/>
<stop offset="1" stop-color="white" stop-opacity="0"/>
</linearGradient>
<clipPath id="clip0_10481_95461">
<rect width="24" height="24" fill="white" transform="translate(10 10)"/>
</clipPath>
</defs>
</svg>
