<svg width="31" height="32" viewBox="0 0 31 32" fill="none" xmlns="http://www.w3.org/2000/svg">
<g filter="url(#filter0_d_10434_72108)">
<rect x="2" y="0.5" width="27" height="27" rx="13.5" fill="white" shape-rendering="crispEdges"/>
<path d="M8.5073 16.6441C8.18414 14.5436 7.86098 12.4431 7.53782 10.3425C7.46616 9.87686 7.99597 9.55928 8.37284 9.84196C9.37967 10.5971 10.3864 11.3521 11.3933 12.1073C11.7248 12.3559 12.197 12.275 12.4269 11.9302L14.9414 8.15832C15.2072 7.75973 15.7928 7.75973 16.0585 8.15832L18.5731 11.9302C18.8029 12.275 19.2752 12.3558 19.6067 12.1073C20.6135 11.3521 21.6203 10.5971 22.6271 9.84196C23.004 9.55928 23.5338 9.87686 23.4622 10.3425C23.139 12.4431 22.8159 14.5436 22.4927 16.6441H8.5073Z" fill="#FFB743"/>
<path d="M21.7636 20.1414H9.23646C8.83378 20.1414 8.50732 19.815 8.50732 19.4123V17.8105H22.4927V19.4123C22.4927 19.815 22.1662 20.1414 21.7636 20.1414Z" fill="#FFB743"/>
</g>
<defs>
<filter id="filter0_d_10434_72108" x="0" y="0.5" width="31" height="31" filterUnits="userSpaceOnUse" color-interpolation-filters="sRGB">
<feFlood flood-opacity="0" result="BackgroundImageFix"/>
<feColorMatrix in="SourceAlpha" type="matrix" values="0 0 0 0 0 0 0 0 0 0 0 0 0 0 0 0 0 0 127 0" result="hardAlpha"/>
<feOffset dy="2"/>
<feGaussianBlur stdDeviation="1"/>
<feComposite in2="hardAlpha" operator="out"/>
<feColorMatrix type="matrix" values="0 0 0 0 0 0 0 0 0 0 0 0 0 0 0 0 0 0 0.06 0"/>
<feBlend mode="normal" in2="BackgroundImageFix" result="effect1_dropShadow_10434_72108"/>
<feBlend mode="normal" in="SourceGraphic" in2="effect1_dropShadow_10434_72108" result="shape"/>
</filter>
</defs>
</svg>
