<svg width="12" height="12" viewBox="0 0 12 12" fill="none" xmlns="http://www.w3.org/2000/svg">
<g clip-path="url(#clip0_11297_94739)">
<path d="M6 0C2.7 0 0 2.7 0 6C0 9.3 2.7 12 6 12C9.3 12 12 9.3 12 6C12 2.7 9.3 0 6 0ZM6.75 8.625C6.75 8.832 6.582 9 6.375 9H5.625C5.418 9 5.25 8.832 5.25 8.625V5.625C5.25 5.418 5.418 5.25 5.625 5.25H6.375C6.582 5.25 6.75 5.418 6.75 5.625V8.625ZM6 4.5C5.586 4.5 5.25 4.164 5.25 3.75C5.25 3.336 5.586 3 6 3C6.414 3 6.75 3.336 6.75 3.75C6.75 4.164 6.414 4.5 6 4.5Z" fill="white"/>
</g>
<defs>
<clipPath id="clip0_11297_94739">
<rect width="12" height="12" fill="white"/>
</clipPath>
</defs>
</svg>
