<svg width="29" height="30" viewBox="0 0 29 30" fill="none" xmlns="http://www.w3.org/2000/svg">
<g clip-path="url(#clip0_10434_72168)">
<path d="M29 15C29 6.99187 22.5081 0.5 14.5 0.5C6.49187 0.5 0 6.99187 0 15C0 23.0081 6.49187 29.5 14.5 29.5C22.5081 29.5 29 23.0081 29 15Z" fill="#F5F5F5"/>
<path d="M17.0368 8.49881C16.9399 8.41781 16.8279 8.35674 16.7073 8.31907C16.5867 8.28141 16.4599 8.2679 16.3341 8.27932C16.2083 8.29075 16.086 8.32687 15.9741 8.38563C15.8623 8.4444 15.7631 8.52464 15.6824 8.62177L10.8792 14.3855C10.7355 14.5581 10.6567 14.7757 10.6567 15.0003C10.6567 15.225 10.7355 15.4425 10.8792 15.6151L15.6824 21.3789C15.7631 21.4759 15.8622 21.556 15.9739 21.6148C16.0856 21.6735 16.2078 21.7096 16.3335 21.7212C16.4591 21.7327 16.5859 21.7193 16.7064 21.6818C16.8269 21.6444 16.9389 21.5835 17.0359 21.5028C17.1329 21.4221 17.2131 21.323 17.2718 21.2113C17.3305 21.0996 17.3667 20.9774 17.3782 20.8517C17.3897 20.726 17.3763 20.5993 17.3389 20.4788C17.3014 20.3582 17.2405 20.2463 17.1598 20.1493L12.8668 15.0003L17.1579 9.85137C17.3211 9.65592 17.4 9.40366 17.3773 9.15004C17.3546 8.89642 17.2322 8.66218 17.0368 8.49881Z" fill="#1C1C1E"/>
</g>
<defs>
<clipPath id="clip0_10434_72168">
<rect width="29" height="29" fill="white" transform="translate(0 0.5)"/>
</clipPath>
</defs>
</svg>
