<svg width="14" height="16" viewBox="0 0 14 16" fill="none" xmlns="http://www.w3.org/2000/svg">
<path d="M10.6523 6.5V5C10.6523 2.92893 8.97341 1.25 6.90234 1.25C4.83128 1.25 3.15234 2.92893 3.15234 5V6.5M6.90234 9.875V11.375M4.50234 14.75H9.30234C10.5625 14.75 11.1925 14.75 11.6738 14.5048C12.0972 14.289 12.4414 13.9448 12.6571 13.5215C12.9023 13.0402 12.9023 12.4101 12.9023 11.15V10.1C12.9023 8.83988 12.9023 8.20982 12.6571 7.72852C12.4414 7.30516 12.0972 6.96095 11.6738 6.74524C11.1925 6.5 10.5625 6.5 9.30234 6.5H4.50234C3.24223 6.5 2.61217 6.5 2.13087 6.74524C1.7075 6.96095 1.36329 7.30516 1.14758 7.72852C0.902344 8.20982 0.902344 8.83988 0.902344 10.1V11.15C0.902344 12.4101 0.902344 13.0402 1.14758 13.5215C1.36329 13.9448 1.7075 14.289 2.13087 14.5048C2.61217 14.75 3.24223 14.75 4.50234 14.75Z" stroke="black" stroke-width="1.5" stroke-linecap="round" stroke-linejoin="round"/>
</svg>
