<svg width="36" height="30" viewBox="0 0 36 30" fill="none" xmlns="http://www.w3.org/2000/svg">
<rect width="36" height="30" rx="15" fill="white"/>
<path d="M21.75 13.5V12C21.75 9.92893 20.0711 8.25 18 8.25C15.9289 8.25 14.25 9.92893 14.25 12V13.5M18 16.875V18.375M15.6 21.75H20.4C21.6601 21.75 22.2902 21.75 22.7715 21.5048C23.1948 21.289 23.539 20.9448 23.7548 20.5215C24 20.0402 24 19.4101 24 18.15V17.1C24 15.8399 24 15.2098 23.7548 14.7285C23.539 14.3052 23.1948 13.961 22.7715 13.7452C22.2902 13.5 21.6601 13.5 20.4 13.5H15.6C14.3399 13.5 13.7098 13.5 13.2285 13.7452C12.8052 13.961 12.461 14.3052 12.2452 14.7285C12 15.2098 12 15.8399 12 17.1V18.15C12 19.4101 12 20.0402 12.2452 20.5215C12.461 20.9448 12.8052 21.289 13.2285 21.5048C13.7098 21.75 14.3399 21.75 15.6 21.75Z" stroke="black" stroke-width="1.5" stroke-linecap="round" stroke-linejoin="round"/>
</svg>
