<svg width="17" height="17" viewBox="0 0 17 17" fill="none" xmlns="http://www.w3.org/2000/svg">
<g clip-path="url(#clip0_11672_137433)">
<path d="M8.15527 0.5C3.75527 0.5 0.155273 4.1 0.155273 8.5C0.155273 12.9 3.75527 16.5 8.15527 16.5C12.5553 16.5 16.1553 12.9 16.1553 8.5C16.1553 4.1 12.5553 0.5 8.15527 0.5ZM9.15527 12C9.15527 12.276 8.93127 12.5 8.65527 12.5H7.65527C7.37927 12.5 7.15527 12.276 7.15527 12V8C7.15527 7.724 7.37927 7.5 7.65527 7.5H8.65527C8.93127 7.5 9.15527 7.724 9.15527 8V12ZM8.15527 6.5C7.60327 6.5 7.15527 6.052 7.15527 5.5C7.15527 4.948 7.60327 4.5 8.15527 4.5C8.70727 4.5 9.15527 4.948 9.15527 5.5C9.15527 6.052 8.70727 6.5 8.15527 6.5Z" fill="#5A5A5A"/>
</g>
<defs>
<clipPath id="clip0_11672_137433">
<rect width="16" height="16" fill="white" transform="translate(0.155273 0.5)"/>
</clipPath>
</defs>
</svg>
