<svg width="31" height="32" viewBox="0 0 31 32" fill="none" xmlns="http://www.w3.org/2000/svg">
<g filter="url(#filter0_d_10434_75600)">
<rect x="2" y="0.5" width="27" height="27" rx="13.5" fill="white" shape-rendering="crispEdges"/>
<path d="M15.0831 18.4582C17.3152 18.4582 19.1247 16.6487 19.1247 14.4166C19.1247 12.1845 17.3152 10.375 15.0831 10.375C12.851 10.375 11.0415 12.1845 11.0415 14.4166C11.0415 16.6487 12.851 18.4582 15.0831 18.4582Z" fill="#56D49B"/>
<path d="M15.0832 6.33398C13.4845 6.33398 11.9217 6.80805 10.5924 7.69624C9.26313 8.58443 8.22709 9.84685 7.6153 11.3239C7.0035 12.8009 6.84343 14.4261 7.15532 15.9941C7.46721 17.5621 8.23706 19.0024 9.36751 20.1328C10.498 21.2633 11.9382 22.0331 13.5062 22.345C15.0742 22.6569 16.6995 22.4968 18.1765 21.885C19.6535 21.2732 20.9159 20.2372 21.8041 18.9079C22.6923 17.5786 23.1663 16.0159 23.1663 14.4172C23.1663 13.3557 22.9573 12.3046 22.551 11.3239C22.1448 10.3432 21.5494 9.45208 20.7988 8.70149C20.0482 7.9509 19.1572 7.3555 18.1765 6.94928C17.1958 6.54306 16.1447 6.33398 15.0832 6.33398ZM15.0832 20.0754C13.9641 20.0754 12.8701 19.7435 11.9396 19.1218C11.0091 18.5001 10.2839 17.6164 9.85566 16.5825C9.4274 15.5486 9.31535 14.4109 9.53367 13.3133C9.752 12.2157 10.2909 11.2075 11.0822 10.4162C11.8735 9.62487 12.8817 9.08598 13.9793 8.86766C15.0769 8.64933 16.2146 8.76138 17.2485 9.18964C18.2824 9.6179 19.1661 10.3431 19.7878 11.2736C20.4095 12.2041 20.7414 13.2981 20.7414 14.4172C20.7414 15.9178 20.1453 17.357 19.0841 18.4181C18.023 19.4792 16.5838 20.0754 15.0832 20.0754Z" fill="#56D49B"/>
</g>
<defs>
<filter id="filter0_d_10434_75600" x="0" y="0.5" width="31" height="31" filterUnits="userSpaceOnUse" color-interpolation-filters="sRGB">
<feFlood flood-opacity="0" result="BackgroundImageFix"/>
<feColorMatrix in="SourceAlpha" type="matrix" values="0 0 0 0 0 0 0 0 0 0 0 0 0 0 0 0 0 0 127 0" result="hardAlpha"/>
<feOffset dy="2"/>
<feGaussianBlur stdDeviation="1"/>
<feComposite in2="hardAlpha" operator="out"/>
<feColorMatrix type="matrix" values="0 0 0 0 0 0 0 0 0 0 0 0 0 0 0 0 0 0 0.06 0"/>
<feBlend mode="normal" in2="BackgroundImageFix" result="effect1_dropShadow_10434_75600"/>
<feBlend mode="normal" in="SourceGraphic" in2="effect1_dropShadow_10434_75600" result="shape"/>
</filter>
</defs>
</svg>
