<svg width="80" height="80" viewBox="0 0 80 80" fill="none" xmlns="http://www.w3.org/2000/svg">
<rect width="80" height="80" rx="20" fill="#F5F5F5"/>
<g clip-path="url(#clip0_10525_118731)">
<path d="M60.1672 38.166C59.681 38.166 59.2147 37.9728 58.8708 37.629C58.527 37.2852 58.3339 36.8189 58.3339 36.3327C58.33 32.444 56.7835 28.7157 54.0338 25.966C51.2841 23.2163 47.5559 21.6699 43.6672 21.666C43.181 21.666 42.7147 21.4728 42.3708 21.129C42.027 20.7852 41.8339 20.3189 41.8339 19.8327C41.8339 19.3464 42.027 18.8801 42.3708 18.5363C42.7147 18.1925 43.181 17.9993 43.6672 17.9993C48.5279 18.0047 53.1879 19.9379 56.6249 23.3749C60.0619 26.8119 61.9952 31.472 62.0005 36.3327C62.0005 36.8189 61.8074 37.2852 61.4636 37.629C61.1198 37.9728 60.6534 38.166 60.1672 38.166ZM54.6672 36.3327C54.6672 33.4153 53.5083 30.6174 51.4454 28.5545C49.3825 26.4916 46.5846 25.3327 43.6672 25.3327C43.181 25.3327 42.7147 25.5258 42.3708 25.8696C42.027 26.2134 41.8339 26.6798 41.8339 27.166C41.8339 27.6522 42.027 28.1185 42.3708 28.4623C42.7147 28.8062 43.181 28.9993 43.6672 28.9993C45.6121 28.9993 47.4774 29.7719 48.8527 31.1472C50.2279 32.5225 51.0005 34.3877 51.0005 36.3327C51.0005 36.8189 51.1937 37.2852 51.5375 37.629C51.8813 37.9728 52.3476 38.166 52.8339 38.166C53.3201 38.166 53.7864 37.9728 54.1302 37.629C54.4741 37.2852 54.6672 36.8189 54.6672 36.3327ZM58.6694 58.6333L60.3377 56.7102C61.3996 55.6449 61.9959 54.202 61.9959 52.6979C61.9959 51.1938 61.3996 49.751 60.3377 48.6857C60.2809 48.6288 55.8699 45.2353 55.8699 45.2353C54.8112 44.2276 53.405 43.6665 51.9434 43.6685C50.4818 43.6706 49.0772 44.2356 48.0214 45.2463L44.527 48.1907C41.6747 47.0102 39.0837 45.2778 36.9027 43.0931C34.7218 40.9084 32.9939 38.3144 31.8184 35.46L34.7517 31.9767C35.7632 30.921 36.3289 29.5161 36.3313 28.0541C36.3337 26.592 35.7726 25.1853 34.7645 24.1263C34.7645 24.1263 31.3674 19.7208 31.3105 19.664C30.2645 18.6112 28.8463 18.0122 27.3623 17.9964C25.8783 17.9806 24.4477 18.5493 23.3795 19.5797L21.2712 21.413C8.81554 35.8633 35.6372 62.4778 50.5642 61.9993C52.0715 62.0081 53.5654 61.7147 54.9574 61.1366C56.3495 60.5585 57.6117 59.7073 58.6694 58.6333Z" fill="#464774"/>
</g>
<defs>
<clipPath id="clip0_10525_118731">
<rect width="44" height="44" fill="white" transform="translate(18 18)"/>
</clipPath>
</defs>
</svg>
