<svg width="19" height="18" viewBox="0 0 19 18" fill="none" xmlns="http://www.w3.org/2000/svg">
<g clip-path="url(#clip0_10481_95471)">
<path d="M18.5 9.00011C18.5 4.02912 14.4706 0 9.50014 0C4.52948 0 0.5 4.02912 0.5 9.00011C0.5 13.9703 4.52948 17.9998 9.50014 17.9998C14.4706 17.9998 18.5 13.9703 18.5 9.00011Z" fill="#25B7D3"/>
<path d="M5.51465 6.29687C5.51465 5.79205 5.67671 5.28052 6.00089 4.76238C6.32497 4.24425 6.79805 3.81515 7.41979 3.475C8.04157 3.13495 8.76697 2.96484 9.59597 2.96484C10.3665 2.96484 11.0468 3.10709 11.6367 3.3913C12.2265 3.67565 12.6821 4.06228 13.0037 4.55113C13.3252 5.04013 13.486 5.57147 13.486 6.1454C13.486 6.59715 13.3943 6.99313 13.211 7.33313C13.0276 7.67328 12.8097 7.96689 12.5573 8.21395C12.3048 8.46108 11.8518 8.87694 11.1982 9.4615C11.0175 9.62628 10.8726 9.77114 10.7638 9.89597C10.6548 10.0209 10.5737 10.1351 10.5206 10.2387C10.4674 10.3423 10.4262 10.446 10.397 10.5496C10.3678 10.6532 10.3239 10.8353 10.2655 11.0956C10.1645 11.6484 9.84829 11.9247 9.31695 11.9247C9.04058 11.9247 8.80804 11.8344 8.61946 11.6536C8.43077 11.473 8.33648 11.2046 8.33648 10.8485C8.33648 10.4021 8.40549 10.0155 8.54374 9.68871C8.68189 9.36184 8.86521 9.07488 9.09377 8.82782C9.32218 8.58069 9.63047 8.28712 10.0184 7.94697C10.3585 7.64941 10.6043 7.42485 10.7558 7.27338C10.9073 7.12192 11.0348 6.95329 11.1384 6.76718C11.2421 6.58122 11.2939 6.37933 11.2939 6.16137C11.2939 5.73625 11.1357 5.37756 10.8196 5.08523C10.5033 4.79304 10.0954 4.6468 9.59597 4.6468C9.0113 4.6468 8.58086 4.79427 8.30459 5.08922C8.02822 5.38417 7.79444 5.8186 7.60311 6.39253C7.4224 6.99313 7.07961 7.2933 6.57479 7.2933C6.27708 7.2933 6.026 7.18842 5.82149 6.97844C5.61692 6.76853 5.51465 6.54135 5.51465 6.29687ZM9.40468 15.0335C9.08045 15.0335 8.79748 14.9285 8.55572 14.7186C8.31385 14.5088 8.193 14.2152 8.193 13.8378C8.193 13.503 8.30982 13.2214 8.54374 12.9928C8.77752 12.7644 9.06449 12.6501 9.40464 12.6501C9.73946 12.6501 10.0211 12.7644 10.2496 12.9928C10.478 13.2214 10.5924 13.503 10.5924 13.8378C10.5924 14.2098 10.4728 14.5021 10.2336 14.7147C9.9945 14.9272 9.7182 15.0335 9.40468 15.0335Z" fill="white"/>
</g>
<defs>
<clipPath id="clip0_10481_95471">
<rect width="18" height="18" fill="white" transform="translate(0.5)"/>
</clipPath>
</defs>
</svg>
