<svg width="118" height="130" viewBox="0 0 118 130" fill="none" xmlns="http://www.w3.org/2000/svg">
<path d="M82.7559 129.444L18.8941 105.223C17.8447 104.825 16.8838 104.224 16.0662 103.454C15.2486 102.684 14.5903 101.759 14.1289 100.734C13.6675 99.7085 13.4121 98.6019 13.3772 97.4775C13.3423 96.353 13.5286 95.2327 13.9256 94.1805L47.3546 5.53829C48.1562 3.41314 49.7667 1.69434 51.832 0.759957C53.8973 -0.174428 56.2481 -0.247866 58.3673 0.555796L98.8689 15.9163L117.999 60.2109L93.7686 124.461C92.9668 126.586 91.3562 128.305 89.2911 129.239C87.2259 130.173 84.8752 130.247 82.7559 129.444Z" fill="#F5F5F5"/>
<path d="M98.8674 15.916L89.459 40.8602C88.7137 42.8366 88.7817 45.029 89.648 46.9552C90.5144 48.8814 92.1082 50.3837 94.0789 51.1316L117.998 60.2072L98.8674 15.916Z" fill="#EBEBEB"/>
<path d="M88.9613 43.1777C88.9613 43.1777 86.3647 49.1086 92.4836 53.7019C92.7145 53.8737 92.9545 54.0328 93.2028 54.1783C96.1155 55.9237 115.293 67.3875 115.471 66.9155L118 60.2114L94.0791 51.1411C94.0791 51.1411 88.1842 48.671 88.9613 43.1786" fill="#E0E0E0"/>
<path d="M84.4882 37.8134C84.367 38.134 77.6545 35.8849 69.4975 32.794C61.3404 29.703 54.8185 26.9291 54.9432 26.6086C55.0679 26.288 61.7751 28.5353 69.9348 31.628C78.0944 34.7207 84.6094 37.4903 84.4882 37.8108" fill="#464674"/>
<path d="M98.2502 59.1558C98.129 59.4763 87.1452 55.6078 73.7193 50.517C60.2935 45.4262 49.5029 41.0364 49.6241 40.7141C49.7452 40.3918 60.7264 44.2612 74.1566 49.3555C87.5869 54.4498 98.374 58.8361 98.2502 59.1558Z" fill="#464674"/>
<path d="M98.1888 72.5962C98.0676 72.9167 86.103 68.6757 71.4688 63.1261C56.8346 57.5765 45.0622 52.8141 45.1826 52.4936C45.3029 52.1731 57.2658 56.4123 71.9061 61.9654C86.5464 67.5186 98.3091 72.2756 98.1888 72.5962Z" fill="#E0E0E0"/>
<path d="M93.9965 83.7075C93.8754 84.028 81.9107 79.7879 67.2765 74.2374C52.6423 68.6869 40.87 63.9255 40.9912 63.6049C41.1123 63.2844 53.0735 67.5237 67.7138 73.0768C82.3542 78.6299 94.1177 83.387 93.9965 83.7075Z" fill="#E0E0E0"/>
<path d="M89.8071 94.8208C89.6859 95.1413 77.7213 90.9012 63.0862 85.3507C48.4511 79.8002 36.6805 75.0388 36.8017 74.7182C36.9229 74.3977 48.884 78.6387 63.5244 84.1865C78.1647 89.7344 89.9283 94.4976 89.8071 94.8181" fill="#E0E0E0"/>
<path d="M85.6146 105.938C85.4934 106.258 73.5288 102.017 58.8946 96.4675C44.2604 90.9179 32.488 86.152 32.6083 85.8315C32.7286 85.511 44.6915 89.7502 59.3319 95.3025C73.9722 100.855 85.7358 105.614 85.6146 105.938Z" fill="#E0E0E0"/>
<path d="M40.0449 70.4479C40.0449 59.3587 31.0806 50.3691 20.0225 50.3691C8.96436 50.3691 0 59.3587 0 70.4479C0 81.5371 8.96436 90.5267 20.0225 90.5267C31.0806 90.5267 40.0449 81.5371 40.0449 70.4479Z" fill="#56D49B"/>
</svg>
