<svg width="29" height="30" viewBox="0 0 29 30" fill="none" xmlns="http://www.w3.org/2000/svg">
<g clip-path="url(#clip0_10434_72157)">
<path d="M0 15C0 6.99187 6.49187 0.5 14.5 0.5C22.5081 0.5 29 6.99187 29 15C29 23.0081 22.5081 29.5 14.5 29.5C6.49187 29.5 0 23.0081 0 15Z" fill="#F5F5F5"/>
<path d="M11.9632 8.49881C12.0601 8.41781 12.1721 8.35674 12.2927 8.31907C12.4133 8.28141 12.5401 8.2679 12.6659 8.27932C12.7917 8.29075 12.914 8.32687 13.0259 8.38563C13.1377 8.4444 13.2369 8.52464 13.3176 8.62177L18.1208 14.3855C18.2645 14.5581 18.3433 14.7757 18.3433 15.0003C18.3433 15.225 18.2645 15.4425 18.1208 15.6151L13.3176 21.3789C13.2369 21.4759 13.1378 21.556 13.0261 21.6148C12.9144 21.6735 12.7922 21.7096 12.6665 21.7212C12.5409 21.7327 12.4141 21.7193 12.2936 21.6818C12.1731 21.6444 12.0611 21.5835 11.9641 21.5028C11.8671 21.4221 11.7869 21.323 11.7282 21.2113C11.6695 21.0996 11.6333 20.9774 11.6218 20.8517C11.6103 20.726 11.6237 20.5993 11.6611 20.4788C11.6986 20.3582 11.7595 20.2463 11.8402 20.1493L16.1332 15.0003L11.8421 9.85137C11.6789 9.65592 11.6 9.40366 11.6227 9.15004C11.6454 8.89642 11.7678 8.66218 11.9632 8.49881Z" fill="#1C1C1E"/>
</g>
<defs>
<clipPath id="clip0_10434_72157">
<rect width="29" height="29" fill="white" transform="matrix(-1 0 0 1 29 0.5)"/>
</clipPath>
</defs>
</svg>
