<svg width="17" height="16" viewBox="0 0 17 16" fill="none" xmlns="http://www.w3.org/2000/svg">
<path d="M7.34277 7.18623L9.65699 5.74023" stroke="white" stroke-linecap="round" stroke-linejoin="round"/>
<path d="M7.34277 8.81445L9.65699 10.2605" stroke="white" stroke-linecap="round" stroke-linejoin="round"/>
<path d="M10.9621 6.46136C11.8117 6.46136 12.5004 5.77264 12.5004 4.92306C12.5004 4.07348 11.8117 3.38477 10.9621 3.38477C10.1125 3.38477 9.42383 4.07348 9.42383 4.92306C9.42383 5.77264 10.1125 6.46136 10.9621 6.46136Z" stroke="white" stroke-linecap="round" stroke-linejoin="round"/>
<path d="M10.9621 12.6157C11.8117 12.6157 12.5004 11.9269 12.5004 11.0774C12.5004 10.2278 11.8117 9.53906 10.9621 9.53906C10.1125 9.53906 9.42383 10.2278 9.42383 11.0774C9.42383 11.9269 10.1125 12.6157 10.9621 12.6157Z" stroke="white" stroke-linecap="round" stroke-linejoin="round"/>
<path d="M6.0383 9.53753C6.88787 9.53753 7.57659 8.84881 7.57659 7.99923C7.57659 7.14966 6.88787 6.46094 6.0383 6.46094C5.18872 6.46094 4.5 7.14966 4.5 7.99923C4.5 8.84881 5.18872 9.53753 6.0383 9.53753Z" stroke="white" stroke-linecap="round" stroke-linejoin="round"/>
</svg>
