<svg width="56" height="55" viewBox="0 0 56 55" fill="none" xmlns="http://www.w3.org/2000/svg">
<g clip-path="url(#clip0_10434_75803)">
<path d="M27.3125 16.5566V17.2441C27.3125 17.7504 26.9021 18.1608 26.3958 18.1608H17.2292C16.7229 18.1608 16.3125 17.7504 16.3125 17.2441V16.647C16.3125 13.7063 18.5855 11.2149 21.5225 11.0641C24.6915 10.9015 27.3125 13.4216 27.3125 16.5566Z" fill="#D1E7FF"/>
<path d="M22.1505 13.7164C20.6517 14.2987 19.4123 15.5324 18.8804 17.1841C18.6945 17.7614 18.169 18.161 17.5625 18.161H17.2292C16.7229 18.161 16.3125 17.7506 16.3125 17.2444V16.6474C16.3125 13.6916 18.6105 11.1798 21.5894 11.0618C23.128 11.001 23.5858 13.1588 22.1505 13.7164Z" fill="#E8F3FF"/>
<path d="M54.5833 39.4597V47.3958C54.5833 49.1592 53.1533 50.5892 51.3899 50.5892H16.7559C14.9925 50.5892 13.5625 49.1592 13.5625 47.3958V39.4597C13.5625 37.6963 14.9925 36.2663 16.7559 36.2663H17.4583V29.3729C17.4583 27.1684 19.2458 25.3809 21.4504 25.3809H46.7041C48.9087 25.3809 50.6962 27.1684 50.6962 29.3729V36.2663H51.3899C53.1533 36.2663 54.5833 37.6963 54.5833 39.4597Z" fill="#B9DCFF"/>
<path d="M54.5827 39.4591V47.3951C54.5827 49.1585 53.1527 50.5885 51.3892 50.5885H46.791C46.791 49.4733 46.791 40.7615 46.791 39.4591C46.791 37.6956 48.221 36.2656 49.9845 36.2656H51.3892C53.1527 36.2656 54.5827 37.6956 54.5827 39.4591Z" fill="#B9DCFF"/>
<path d="M46.791 43.8281V50.5885H21.3535V43.8281H46.791Z" fill="#D1E7FF"/>
<path d="M21.3542 50.5885H16.7559C14.9925 50.5885 13.5625 49.1585 13.5625 47.3951V39.4591C13.5625 37.6956 14.9925 36.2656 16.7559 36.2656H18.1607C19.9242 36.2656 21.3542 37.6956 21.3542 39.4591V50.5885Z" fill="#B9DCFF"/>
<path d="M50.6968 33.8594H48.6038C46.248 33.8594 44.3379 35.7695 44.3379 38.1253V43.8281H46.7923V39.4591C46.7923 37.6956 48.2223 36.2656 49.9857 36.2656H50.6968V33.8594Z" fill="#A2D0FF"/>
<path d="M46.6361 28.8146C43.3068 28.8137 36.8986 28.8167 24.8891 28.8167C22.6843 28.8167 20.8965 30.604 20.8965 32.8088V37.8081C20.3362 36.8834 19.321 36.2647 18.1614 36.2647H17.459V29.3713C17.459 27.1665 19.2463 25.3792 21.4511 25.3792C21.616 25.3792 46.6116 25.3773 46.7422 25.3827C48.9607 25.4747 48.8564 28.8151 46.6361 28.8146Z" fill="#D1E7FF"/>
<path d="M23.8092 38.1256V43.8284H21.3548V39.4593C21.3548 37.6959 19.9248 36.2659 18.1614 36.2659H17.459V33.8654C17.5775 33.8575 17.5116 33.8596 19.5433 33.8596C21.8991 33.8596 23.8092 35.7698 23.8092 38.1256Z" fill="#A2D0FF"/>
<path d="M19.0491 38.5569C17.2851 38.5569 15.8542 39.9872 15.8542 41.7512C15.8542 44.431 15.8506 46.2377 15.8497 47.4707C15.8486 48.9374 13.5625 49.0846 13.5625 47.3947V39.4586C13.5625 37.695 14.9923 36.2652 16.7559 36.2652C18.2071 36.2652 18.7547 36.1908 19.5692 36.5918C20.5247 37.062 20.2669 38.5569 19.0491 38.5569Z" fill="#D1E7FF"/>
<path d="M10.9271 50.5878C10.9271 51.094 10.5166 51.5044 10.0104 51.5044H1.41667C0.910437 51.5044 0.5 51.094 0.5 50.5878C0.5 50.0815 0.910437 49.6711 1.41667 49.6711H10.0104C10.5166 49.6711 10.9271 50.0815 10.9271 50.5878ZM21.8125 10.1399C25.3506 10.1399 28.2292 13.0184 28.2292 16.5565V18.1607C28.2292 18.6669 27.8187 19.0774 27.3125 19.0774H16.3125C15.8063 19.0774 15.3958 18.6669 15.3958 18.1607V16.5565C15.3958 13.0184 18.2744 10.1399 21.8125 10.1399ZM17.2292 16.5565V17.244H26.3958V16.5565C26.3958 14.0293 24.3398 11.9732 21.8125 11.9732C19.2852 11.9732 17.2292 14.0293 17.2292 16.5565ZM8.11979 47.8378C8.62602 47.8378 9.03715 47.4272 9.03646 46.9198L8.98833 11.0925C8.98409 7.90732 11.5604 5.32736 14.7458 5.32736H15.1385C16.9764 5.32736 18.6609 6.17413 19.76 7.65054C20.0622 8.05651 20.6365 8.14072 21.0426 7.83845C21.4487 7.53618 21.5328 6.96189 21.2305 6.55581C19.8033 4.63871 17.5258 3.49414 15.1385 3.49414H14.7458C10.5464 3.49414 7.14939 6.89532 7.155 11.095L7.20312 46.9224C7.20381 47.4281 7.61402 47.8378 8.11979 47.8378ZM51.375 35.3482V29.3712C51.375 26.6647 49.1731 24.4628 46.4666 24.4628H21.4501C18.7436 24.4628 16.5417 26.6647 16.5417 29.3712V31.5669C16.5417 32.0732 16.9521 32.4836 17.4583 32.4836C17.9646 32.4836 18.375 32.0732 18.375 31.5669V29.3712C18.375 27.6756 19.7545 26.2961 21.4501 26.2961H33.1562V36.6086C33.1562 37.1148 33.5667 37.5253 34.0729 37.5253C34.5791 37.5253 34.9896 37.1148 34.9896 36.6086V26.2961H46.4666C48.1622 26.2961 49.5417 27.6756 49.5417 29.3712V35.3725C47.4832 35.5943 45.875 37.3417 45.875 39.4583V40.2753C45.875 40.7815 46.2854 41.1919 46.7917 41.1919C47.2979 41.1919 47.7083 40.7815 47.7083 40.2753V39.4583C47.7083 38.2029 48.7296 37.1815 49.985 37.1815H51.39C52.6454 37.1815 53.6667 38.2029 53.6667 39.4583V47.3945C53.6667 48.6498 52.6454 49.6712 51.39 49.6712H47.7083C47.7083 43.6716 47.7128 44.0408 47.7004 43.9421C47.7703 43.3823 47.3326 42.9108 46.7917 42.9108H26.2812C25.775 42.9108 25.3646 43.3212 25.3646 43.8275C25.3646 44.3337 25.775 44.7441 26.2812 44.7441H45.875V50.5879C45.875 51.0941 46.2854 51.5046 46.7917 51.5046H51.39C53.6562 51.5046 55.5 49.6608 55.5 47.3945V39.4583C55.5 37.2216 53.692 35.3482 51.375 35.3482ZM42.0938 49.6711C41.2649 49.6711 18.0578 49.6711 16.7559 49.6711C15.5006 49.6711 14.4792 48.6497 14.4792 47.3943V39.4583C14.4792 38.2029 15.5006 37.1815 16.7559 37.1815H18.1608C19.4162 37.1815 20.4376 38.2029 20.4376 39.4583V44.6294C20.4376 45.1357 20.8481 45.5461 21.3543 45.5461C21.8605 45.5461 22.2709 45.1357 22.2709 44.6294V39.4583C22.2709 37.192 20.4272 35.3482 18.1608 35.3482H16.7559C14.4896 35.3482 12.6458 37.192 12.6458 39.4583V47.3945C12.6458 49.6608 14.4896 51.5046 16.7559 51.5046H42.0938C42.6 51.5046 43.0104 51.0941 43.0104 50.5879C43.0104 50.0817 42.6 49.6711 42.0938 49.6711Z" fill="#464774"/>
</g>
<defs>
<clipPath id="clip0_10434_75803">
<rect width="55" height="55" fill="white" transform="translate(0.5)"/>
</clipPath>
</defs>
</svg>
