<svg width="56" height="55" viewBox="0 0 56 55" fill="none" xmlns="http://www.w3.org/2000/svg">
<g clip-path="url(#clip0_10434_75842)">
<path d="M28.4908 0.916016C34.0378 0.916016 38.5352 5.41341 38.5352 10.9615C38.5352 16.5097 34.0378 21.0071 28.4908 21.0071C22.9427 21.0071 18.4453 16.5097 18.4453 10.9615C18.4453 5.41341 22.9427 0.916016 28.4908 0.916016Z" fill="#D1E7FF"/>
<path d="M29.0693 4.43926C25.7037 5.41425 22.9555 8.17742 21.9822 11.5449C21.4033 13.5473 18.4657 13.1443 18.4458 11.06C18.3922 5.4665 22.9848 0.868152 28.5792 0.916392C30.6542 0.934267 31.0624 3.86187 29.0693 4.43926Z" fill="#E8F3FF"/>
<path d="M49.9279 42.1846V50.669C49.9279 52.5543 48.3991 54.0832 46.5138 54.0832H9.48639C7.60104 54.0832 6.07227 52.5544 6.07227 50.669V42.1846C6.07227 40.2992 7.60104 38.7705 9.48639 38.7705H10.2373V31.4008C10.2373 29.0438 12.1483 27.1328 14.5053 27.1328H41.5042C43.8612 27.1328 45.7722 29.0438 45.7722 31.4008V38.7705H46.5138C48.3991 38.7705 49.9279 40.2994 49.9279 42.1846Z" fill="#B9DCFF"/>
<path d="M49.9278 42.1837V50.6681C49.9278 52.5534 48.399 54.0822 46.5136 54.0822H41.5977C41.5977 51.5952 41.5977 44.7936 41.5977 42.1837C41.5977 40.2983 43.1264 38.7695 45.0118 38.7695H46.5136C48.399 38.7695 49.9278 40.2984 49.9278 42.1837Z" fill="#B9DCFF"/>
<path d="M41.5978 46.8555V54.083H14.4023V46.8555H41.5978Z" fill="#D1E7FF"/>
<path d="M14.4024 54.0822H9.48639C7.60104 54.0822 6.07227 52.5534 6.07227 50.6681V42.1837C6.07227 40.2983 7.60104 38.7695 9.48639 38.7695H10.9882C12.8736 38.7695 14.4024 40.2983 14.4024 42.1837V54.0822Z" fill="#B9DCFF"/>
<path d="M45.773 36.1973H43.5354C41.0167 36.1973 38.9746 38.2394 38.9746 40.758V46.8549H41.5986V42.1839C41.5986 40.2985 43.1273 38.7698 45.0127 38.7698H45.773V36.1973Z" fill="#A2D0FF"/>
<path d="M41.4297 30.8038C37.8703 30.8029 31.0192 30.8063 18.1798 30.8063C15.8227 30.8063 13.9112 32.717 13.9112 35.0743V40.419C13.3122 39.4304 12.2269 38.7689 10.9871 38.7689H10.2363V31.3992C10.2363 29.0421 12.1471 27.1312 14.5043 27.1312C14.6823 27.1312 41.4035 27.1292 41.5432 27.1349C43.915 27.2332 43.8035 30.8045 41.4297 30.8038Z" fill="#D1E7FF"/>
<path d="M17.0253 40.7583V46.8552H14.4013V42.1842C14.4013 40.2989 12.8725 38.7701 10.9872 38.7701H10.2363V36.2037C10.3629 36.1952 10.2926 36.1976 12.4646 36.1976C14.9832 36.1976 17.0253 38.2397 17.0253 40.7583Z" fill="#A2D0FF"/>
<path d="M11.938 41.2193C10.0521 41.2193 8.52229 42.7486 8.52229 44.6345C8.52229 47.4994 8.51839 49.4311 8.51747 50.7492C8.51633 52.3174 6.07227 52.4746 6.07227 50.668V42.1836C6.07227 40.298 7.60081 38.7694 9.48639 38.7694C11.0392 38.7694 11.6238 38.6903 12.4941 39.1186C13.5156 39.6211 13.24 41.2193 11.938 41.2193Z" fill="#D1E7FF"/>
<path d="M50.8439 42.1844V50.6692C50.8439 53.0572 48.9012 55 46.5132 55H41.5971C41.0908 55 40.6804 54.5896 40.6804 54.0833V47.7723H19.6688C19.1626 47.7723 18.7521 47.3619 18.7521 46.8556C18.7521 46.3494 19.1626 45.939 19.6688 45.939H41.5971C42.1426 45.939 42.5797 46.417 42.5046 46.9781C42.5188 47.0842 42.5137 46.6849 42.5137 53.1667H46.5132C47.8902 53.1667 49.0106 52.0464 49.0106 50.6692V42.1844C49.0106 40.8073 47.8902 39.687 46.5132 39.687H45.0112C43.6341 39.687 42.5137 40.8073 42.5137 42.1844V43.0579C42.5137 43.5641 42.1033 43.9746 41.5971 43.9746C41.0908 43.9746 40.6804 43.5641 40.6804 43.0579V42.1844C40.6804 39.852 42.5341 37.9453 44.8455 37.8579V31.4002C44.8455 29.5524 43.3423 28.0492 41.4945 28.0492H28.9158V39.1378C28.9158 39.644 28.5054 40.0544 27.9991 40.0544C27.4929 40.0544 27.0825 39.644 27.0825 39.1378V28.0492H14.5037C12.656 28.0492 11.1527 29.5524 11.1527 31.4002V33.7477C11.1527 34.2539 10.7423 34.6643 10.2361 34.6643C9.72984 34.6643 9.3194 34.2539 9.3194 33.7477V31.4002C9.3194 28.5416 11.6451 26.2159 14.5037 26.2159H41.4945C44.3531 26.2159 46.6788 28.5416 46.6788 31.4002V37.8579C48.9902 37.9454 50.8439 39.852 50.8439 42.1844ZM36.5744 53.1667C35.689 53.1667 10.8791 53.1667 9.48509 53.1667C8.10803 53.1667 6.98763 52.0464 6.98763 50.6692V42.1844C6.98763 40.8073 8.10803 39.687 9.48509 39.687H10.987C12.3641 39.687 13.4845 40.8073 13.4845 42.1844V47.7131C13.4845 48.2193 13.8949 48.6297 14.4012 48.6297C14.9074 48.6297 15.3178 48.2193 15.3178 47.7131V42.1844C15.3178 39.7964 13.3751 37.8536 10.987 37.8536H9.48509C7.09706 37.8536 5.1543 39.7964 5.1543 42.1844V50.6692C5.1543 53.0572 7.09706 55 9.48509 55H36.5744C37.0807 55 37.4911 54.5896 37.4911 54.0833C37.4911 53.5771 37.0807 53.1667 36.5744 53.1667ZM28.4891 21.9239C32.3406 21.9239 35.9553 19.8639 37.9228 16.5481C38.1811 16.1127 38.0375 15.5503 37.6022 15.2921C37.167 15.0337 36.6044 15.1772 36.3462 15.6127C34.7074 18.3747 31.6967 20.0906 28.4892 20.0906C23.4557 20.0906 19.3606 15.9955 19.3606 10.962C19.3606 5.92843 23.4555 1.83333 28.4891 1.83333C33.5226 1.83333 37.6177 5.92843 37.6177 10.962C37.6177 11.4682 38.0281 11.8786 38.5344 11.8786C39.0406 11.8786 39.451 11.4682 39.451 10.962C39.4512 4.91746 34.5336 0 28.4891 0C22.4447 0 17.5271 4.91746 17.5271 10.962C17.5271 17.0065 22.4447 21.9239 28.4891 21.9239ZM27.5724 4.7143V10.5654L24.8623 13.1114C24.2563 13.6808 24.6655 14.6962 25.4901 14.6962C25.7151 14.6962 25.9406 14.6138 26.1175 14.4477L29.1168 11.6301C29.3011 11.4567 29.4057 11.215 29.4057 10.962V4.7143C29.4057 4.20807 28.9953 3.79764 28.4891 3.79764C27.9829 3.79764 27.5724 4.20807 27.5724 4.7143Z" fill="#464774"/>
</g>
<defs>
<clipPath id="clip0_10434_75842">
<rect width="55" height="55" fill="white" transform="translate(0.5)"/>
</clipPath>
</defs>
</svg>
