<svg width="56" height="55" viewBox="0 0 56 55" fill="none" xmlns="http://www.w3.org/2000/svg">
<g clip-path="url(#clip0_10434_75858)">
<path d="M54.5833 4.69858V38.2717C54.5833 39.2846 53.7629 40.105 52.7499 40.105H3.26108C2.24816 40.105 1.42773 39.2846 1.42773 38.2717V4.69858C1.42773 3.68566 2.24816 2.86523 3.26108 2.86523H52.7499C53.7629 2.86523 54.5833 3.68566 54.5833 4.69858Z" fill="#D1E7FF"/>
<path d="M54.5834 31.2031C52.616 31.7944 50.8457 32.1278 49.3652 32.3192C51.1848 32.0602 52.9345 31.6671 54.5834 31.2031Z" fill="#B9DCFF"/>
<path d="M54.5833 31.2037V38.2701C54.5833 39.283 53.7629 40.1035 52.7499 40.1035H3.26108C2.24816 40.1035 1.42773 39.283 1.42773 38.2701V21.5328C4.34734 19.5918 9.04643 17.1511 14.3643 17.8742C21.9234 18.9031 24.4843 25.4768 32.4686 29.6763C37.3235 32.2099 42.0818 32.8804 47.5169 32.5031C49.9102 32.3367 52.2858 31.8942 54.5833 31.2037Z" fill="#B9DCFF"/>
<path d="M31.318 6.11117C28.7604 19.973 21.1551 32.2895 8.80351 40.105H3.26108C2.2485 40.105 1.42773 39.2843 1.42773 38.2717V4.69858C1.42773 3.686 2.2485 2.86523 3.26108 2.86523H28.612C30.3293 2.86523 31.6297 4.42243 31.318 6.11117Z" fill="#E8F3FF"/>
<path d="M40.2699 28.3871C40.1614 27.342 40.7948 26.4715 41.7125 25.998H41.7137C43.4794 27.2378 46.1446 27.5197 47.9253 26.2513C48.2828 26.5125 48.748 26.9651 48.9118 27.6481C49.0352 28.1609 49.1395 26.4826 46.9181 50.1145C46.8058 51.3028 45.8089 52.2114 44.6149 52.2114C43.421 52.2114 42.4241 51.3028 42.3118 50.1145C40.3403 29.1412 41.174 37.9936 40.2699 28.3871Z" fill="#D1E7FF"/>
<path d="M49.3128 20.6248C50.3008 22.1352 49.7045 24.9141 47.9252 26.1752C46.1446 27.4437 43.4794 27.1618 41.7136 25.922H41.7125C38.0247 23.334 38.58 16.4326 44.6269 14.8964C45.2693 14.7332 45.8736 15.2786 45.7621 15.932C45.6255 16.7321 45.649 17.6054 46.1045 18.3331C46.9352 19.6588 48.4626 19.3242 49.3128 20.6248Z" fill="#E8F8FC"/>
<path d="M49.3128 20.7009C50.3008 22.2114 49.7045 24.9903 47.9252 26.2514C46.1446 27.5198 43.4794 27.2379 41.7136 25.9982H41.7125C38.0247 23.4102 38.58 16.5088 44.6269 14.9725C45.2693 14.8094 45.8736 15.3548 45.7621 16.0081C45.6255 16.8083 45.649 17.6815 46.1045 18.4092C46.9352 19.735 48.4626 19.4004 49.3128 20.7009Z" fill="#D1E7FF"/>
<path d="M24.6734 23.8681C20.8599 30.2287 15.7264 35.5713 9.49445 39.6584C9.04895 39.9506 8.5269 40.1035 7.99409 40.1035H3.26108C2.2485 40.1035 1.42773 39.2827 1.42773 38.2701V21.5328C4.34734 19.5918 9.04643 17.1511 14.3643 17.8742C18.8285 18.4813 21.5498 21.0229 24.6734 23.8681Z" fill="#D1E7FF"/>
<path d="M30.864 18.5619C33.6484 18.5619 35.9057 16.3047 35.9057 13.5202C35.9057 10.7358 33.6484 8.47852 30.864 8.47852C28.0795 8.47852 25.8223 10.7358 25.8223 13.5202C25.8223 16.3047 28.0795 18.5619 30.864 18.5619Z" fill="#B9DCFF"/>
<path d="M30.8273 8.47852C30.1089 11.6158 29.1246 14.6626 27.8791 17.5834C26.6312 16.6655 25.8223 15.1874 25.8223 13.5202C25.8223 10.7484 28.0601 8.49799 30.8273 8.47852Z" fill="#D1E7FF"/>
<path d="M45.7624 15.9324C45.7309 16.1192 45.7077 16.3098 45.6967 16.5016C45.6806 16.7793 45.5466 17.0393 45.3198 17.2003C42.5786 19.1458 42.0595 22.3917 43.1099 24.8084C43.4736 25.6452 42.5144 26.4834 41.7142 25.9218H41.713C38.0179 23.3283 38.5894 16.4305 44.6269 14.8965C45.2697 14.7328 45.8747 15.2781 45.7624 15.9324Z" fill="#E8F3FF"/>
<path d="M42.824 51.2871C42.5436 50.9459 42.3566 50.5189 42.3112 50.0384C40.0914 26.4233 40.1945 28.0827 40.3174 27.5719C40.5661 26.5418 41.4965 26.033 41.7119 25.9219C41.7276 25.9219 41.8988 26.07 42.3206 26.2926C42.7962 26.5435 42.9872 27.1274 42.7569 27.6134C42.394 28.3789 42.4443 27.5328 44.603 50.4968C44.7026 51.5473 43.4527 52.0523 42.824 51.2871Z" fill="#E8F3FF"/>
<path d="M48.3906 28.4561C46.1354 29.6009 43.1658 29.232 41.0694 27.9342C40.5866 27.6352 40.4972 26.9601 40.8844 26.5448C41.217 26.1878 41.6857 25.9219 41.7132 25.9219C43.4789 27.1617 46.1441 27.4436 47.9248 26.1751C48.3911 26.5159 48.6917 26.9239 48.8458 27.351C48.9997 27.7769 48.7945 28.2511 48.3906 28.4561Z" fill="#B9DCFF"/>
<path d="M36.67 40.1037C36.67 40.61 36.2596 41.0204 35.7534 41.0204H3.26087C1.74458 41.0204 0.510854 39.7867 0.510854 38.2704V26.9998C0.510854 26.4936 0.921294 26.0831 1.42753 26.0831C1.93376 26.0831 2.3442 26.4936 2.3442 26.9998V38.2704C2.3442 38.7758 2.75544 39.1871 3.26087 39.1871H35.7534C36.2596 39.1871 36.67 39.5975 36.67 40.1037ZM52.7499 1.94727H3.26087C1.74458 1.94727 0.510854 3.18099 0.510854 4.69728C0.510854 22.9722 0.44153 21.7309 0.653282 22.0491C0.961856 22.5126 1.60387 22.5872 2.01374 22.2457C6.2836 19.4255 10.3964 18.2598 14.2408 18.7828C22.2949 19.879 24.576 27.9533 35.2374 31.9142C35.7103 32.0901 36.2391 31.8501 36.4159 31.3742C36.5922 30.8996 36.3504 30.3719 35.8758 30.1957C25.5737 26.3674 23.3334 18.1702 14.488 16.9663C10.6048 16.438 6.52652 17.4179 2.34431 19.8788V4.69728C2.34431 4.19185 2.75555 3.78061 3.26099 3.78061H52.7501C53.2555 3.78061 53.6667 4.19185 53.6667 4.69728V38.2704C53.6667 38.7758 53.2555 39.1871 52.7501 39.1871C52.2438 39.1871 51.8334 39.5975 51.8334 40.1037C51.8334 40.61 52.2438 41.0204 52.7501 41.0204C54.2663 41.0204 55.5001 39.7867 55.5001 38.2704V4.69728C55.5 3.18088 54.2663 1.94727 52.7499 1.94727ZM36.8228 13.5203C36.8228 16.8057 34.1499 19.4786 30.8644 19.4786C27.5789 19.4786 24.906 16.8057 24.906 13.5203C24.906 10.2348 27.5789 7.56188 30.8644 7.56188C34.1499 7.56188 36.8228 10.2348 36.8228 13.5203ZM34.9894 13.5203C34.9894 11.2456 33.139 9.39523 30.8644 9.39523C28.5898 9.39523 26.7394 11.2456 26.7394 13.5203C26.7394 15.7949 28.5898 17.6453 30.8644 17.6453C33.139 17.6453 34.9894 15.7947 34.9894 13.5203ZM41.1815 28.2245L43.2241 49.9526C43.2921 50.6742 43.8897 51.2184 44.6145 51.2184C45.3392 51.2184 45.9369 50.6742 46.0048 49.9526L47.9594 29.1614C48.0069 28.6575 48.4533 28.2873 48.9579 28.3346C49.4618 28.3819 49.8321 28.8289 49.7847 29.3331L47.8302 50.1242C47.6732 51.7932 46.2907 53.0517 44.6146 53.0517C42.9385 53.0517 41.556 51.7933 41.399 50.1242L39.3564 28.3961C39.2666 27.4407 39.607 26.5191 40.2453 25.8549C38.5536 24.0495 38.2127 21.4512 38.6814 19.4943C39.4387 16.3332 42.4679 13.9716 46.0479 13.7511C46.7078 13.7132 47.1882 14.3579 46.9672 14.975C46.5124 16.2458 46.4835 17.2118 46.881 17.8463C47.4744 18.7933 49.0615 18.5662 50.0797 20.1228C51.7461 22.6709 50.0833 27.9244 45.1844 27.9244C43.9617 27.9244 42.7321 27.5829 41.7051 26.999C41.3405 27.288 41.1366 27.7465 41.1815 28.2245ZM42.0807 25.055C43.6851 26.2929 46.3842 26.5808 47.8443 25.0364C48.8524 23.9702 49.1865 22.1065 48.5453 21.1262C47.9334 20.1908 46.3264 20.4144 45.3273 18.8194C44.8112 17.9958 44.6546 16.9789 44.8574 15.7847C42.67 16.3419 40.9436 17.9206 40.4642 19.9214C40.0731 21.5541 40.4212 23.7747 42.0807 25.055Z" fill="#464774"/>
</g>
<defs>
<clipPath id="clip0_10434_75858">
<rect width="55" height="55" fill="white" transform="translate(0.5)"/>
</clipPath>
</defs>
</svg>
