<svg width="56" height="55" viewBox="0 0 56 55" fill="none" xmlns="http://www.w3.org/2000/svg">
<g clip-path="url(#clip0_10434_75819)">
<path d="M45.1869 38.1556H44.3848V1.83268C44.3848 1.32645 43.9743 0.916016 43.4681 0.916016H12.5306C12.0244 0.916016 11.6139 1.32645 11.6139 1.83268V38.1556H10.8118C9.79893 38.1556 8.97852 38.976 8.97852 39.9889V41.5931C8.97852 42.606 9.79893 43.4264 10.8118 43.4264H11.6139V52.2494C11.6139 53.2618 12.4348 54.0827 13.4473 54.0827H42.5514C43.5639 54.0827 44.3848 53.2618 44.3848 52.2494V43.4264H45.1869C46.1998 43.4264 47.0202 42.606 47.0202 41.5931V39.9889C47.0202 38.976 46.1998 38.1556 45.1869 38.1556Z" fill="#B9DCFF"/>
<path d="M15.4427 54.084H13.4486C12.436 54.084 11.6152 53.2632 11.6152 52.2507V43.4277H16.1986V52.2507C16.1986 52.4677 16.2381 52.663 16.3097 52.8389C16.5527 53.435 16.0864 54.084 15.4427 54.084Z" fill="#D1E7FF"/>
<path d="M45.2153 39.9896H13.791C12.7784 39.9896 11.9577 40.8103 11.9577 41.8229V42.2812C11.9577 42.9141 11.4447 43.4271 10.8118 43.4271C9.79928 43.4271 8.97852 42.6063 8.97852 41.5938V39.9896C8.97852 38.977 9.79928 38.1562 10.8118 38.1562C10.8118 38.1562 45.2589 38.1573 45.2946 38.1593C46.4633 38.2271 46.3858 39.9896 45.2153 39.9896Z" fill="#D1E7FF"/>
<path d="M20.3236 43.4277V44.3444C20.3236 44.8506 19.9131 45.2611 19.4069 45.2611H12.5319C12.0257 45.2611 11.6152 44.8506 11.6152 44.3444V43.4277H20.3236Z" fill="#A2D0FF"/>
<path d="M44.3861 43.4277V44.3444C44.3861 44.8506 43.9756 45.2611 43.4694 45.2611H36.5944C36.0882 45.2611 35.6777 44.8506 35.6777 44.3444V43.4277H44.3861Z" fill="#A2D0FF"/>
<path d="M35.6764 43.4277V47.8965C35.6764 48.4027 35.266 48.8132 34.7598 48.8132H21.2389C20.7327 48.8132 20.3223 48.4027 20.3223 47.8965V43.4277H35.6764Z" fill="#E8F3FF"/>
<path d="M35.6764 43.4277V44.3444C35.6764 44.8506 35.266 45.2611 34.7598 45.2611H21.2389C20.7327 45.2611 20.3223 44.8506 20.3223 44.3444V43.4277H35.6764Z" fill="#D1E7FF"/>
<path d="M11.6152 1.83268V38.1556H44.3861V1.83268C44.3861 1.32645 43.9756 0.916016 43.4694 0.916016H12.5319C12.0257 0.916016 11.6152 1.32645 11.6152 1.83268Z" fill="#D1E7FF"/>
<path d="M44.3861 1.83268V3.43685C44.3861 3.94308 43.9756 4.35352 43.4694 4.35352H28.4349C21.677 4.35352 16.1986 9.83197 16.1986 16.5899V37.2389C16.1986 37.7452 15.7881 38.1556 15.2819 38.1556H11.6152V1.83268C11.6152 1.32645 12.0257 0.916016 12.5319 0.916016H43.4694C43.9756 0.916016 44.3861 1.32645 44.3861 1.83268Z" fill="#E8F3FF"/>
<path d="M34.7897 12.9722L28.9173 9.58172C28.3501 9.25401 27.6512 9.25401 27.084 9.58172L21.2116 12.9722C20.6444 13.2999 20.2949 13.9049 20.2949 14.5604V26.8046C20.2949 27.4602 20.6444 28.065 21.2116 28.3929L27.084 31.7834C27.6512 32.1111 28.3501 32.1111 28.9173 31.7834L34.7897 28.3929C35.3569 28.0652 35.7064 27.4602 35.7064 26.8047V14.5604C35.7064 13.9049 35.3569 13.2999 34.7897 12.9722Z" fill="#B9DCFF"/>
<path d="M34.8887 13.0335C35.3319 13.3279 34.898 14.0028 34.4371 13.7369L31.209 11.8734C30.6418 11.5457 29.9428 11.5457 29.3757 11.8734L23.5033 15.2639C22.9361 15.5916 22.5865 16.1966 22.5865 16.852V27.6003C22.5864 28.3058 21.8224 28.7458 21.2116 28.3929C20.6443 28.0652 20.2949 27.4598 20.2949 26.8046V14.5604C20.2949 13.9048 20.6444 13.2999 21.2116 12.9722L27.084 9.58172C27.6512 9.25401 28.3501 9.25401 28.9173 9.58172C28.9173 9.58172 34.8565 13.0122 34.8887 13.0335Z" fill="#D1E7FF"/>
<path d="M31.0743 18.3461V23.019C31.0743 23.3465 30.8996 23.6491 30.616 23.8129L28.4584 25.0585C28.1748 25.2222 27.8253 25.2222 27.5417 25.0585L25.3845 23.8131C25.1009 23.6494 24.9258 23.3464 24.9258 23.0189V18.3461C24.9258 18.0186 25.1005 17.7159 25.3841 17.5521L27.5417 16.3064C27.8253 16.1427 28.1748 16.1427 28.4584 16.3064L30.616 17.552C30.8996 17.7158 31.0743 18.0185 31.0743 18.3461Z" fill="#D1E7FF"/>
<path d="M31.0743 18.3462V18.4247C31.0743 18.7772 30.6925 18.9977 30.3872 18.8214L29.6042 18.3691C29.3201 18.2052 28.9717 18.2052 28.6876 18.3691L26.5299 19.6146C26.2458 19.7786 26.0716 20.081 26.0716 20.4088V23.4166C26.0716 23.7691 25.6898 23.9893 25.3845 23.8132C25.1004 23.6494 24.9258 23.3468 24.9258 23.019V18.3462C24.9258 18.0185 25.0999 17.7161 25.3841 17.5522L27.5417 16.3065C27.8259 16.1426 28.1742 16.1426 28.4584 16.3065L30.616 17.5521C30.9002 17.7161 31.0743 18.0184 31.0743 18.3462Z" fill="#E8F3FF"/>
<path d="M40.1452 35.3123V38.1563H15.8535V35.3123C15.8535 33.4652 17.35 31.9688 19.1971 31.9688H36.8016C38.6487 31.9688 40.1452 33.4652 40.1452 35.3123Z" fill="#B9DCFF"/>
<path d="M36.8828 34.0313H22.4054C20.5588 34.0313 19.0618 35.5282 19.0618 37.3748C19.0618 37.8064 18.712 38.1563 18.2804 38.1563H15.8535V35.3123C15.8535 33.4658 17.3504 31.9688 19.1971 31.9688C19.1971 31.9688 36.901 31.9698 36.9501 31.972C38.279 32.0301 38.2129 34.0313 36.8828 34.0313Z" fill="#D1E7FF"/>
<path d="M45.3021 37.2424V0.916667C45.3021 0.410437 44.8916 0 44.3854 0H11.6146C11.1084 0 10.6979 0.410437 10.6979 0.916667V33.5286C10.6979 34.0348 11.1084 34.4452 11.6146 34.4452C12.1208 34.4452 12.5312 34.0348 12.5312 33.5286V1.83333H43.4688V37.2396H16.7708V35.3121C16.7708 33.974 17.8594 32.8854 19.1975 32.8854H36.8026C37.6101 32.8854 38.3625 33.2855 38.8153 33.956C39.0988 34.3755 39.6684 34.4859 40.088 34.2023C40.5075 33.919 40.6178 33.3491 40.3343 32.9296C39.5403 31.754 38.2198 31.0521 36.8025 31.0521H32.0164L35.2477 29.1864C36.0959 28.6968 36.6227 27.7842 36.6227 26.8049V14.5596C36.6227 13.5804 36.0959 12.6678 35.2477 12.1781L29.375 8.78751C28.527 8.29778 27.473 8.29801 26.625 8.78751L20.7523 12.1781C19.9041 12.6678 19.3773 13.5804 19.3773 14.5596V26.8048C19.3773 27.7841 19.9041 28.6967 20.7523 29.1863L21.6897 29.7276C22.1278 29.9806 22.6886 29.8305 22.9418 29.3921C23.1951 28.9537 23.0447 28.3931 22.6063 28.1399L21.6689 27.5987C21.3862 27.4354 21.2106 27.1312 21.2106 26.8047V14.5596C21.2106 14.2332 21.3862 13.929 21.6689 13.7657L27.5417 10.3752C27.8246 10.212 28.1757 10.212 28.4583 10.3752L34.3311 13.7658C34.6138 13.9291 34.7894 14.2333 34.7894 14.5598V26.8049C34.7894 27.1314 34.6138 27.4356 34.3311 27.5988C28.0076 31.2492 28.4375 31.0089 28.3226 31.0522H19.1974C16.8484 31.0522 14.9374 32.9632 14.9374 35.3122V37.2396H10.8125C9.29622 37.2396 8.0625 38.4733 8.0625 39.9896V41.5938C8.0625 43.0716 9.23457 44.2805 10.6979 44.3409V52.25C10.6979 53.7663 11.9316 55 13.4479 55H42.5521C44.0684 55 45.3021 53.7663 45.3021 52.25V48.4761C45.3021 47.9699 44.8916 47.5594 44.3854 47.5594C43.8792 47.5594 43.4688 47.9699 43.4688 48.4761V52.25C43.4688 52.7554 43.0575 53.1667 42.5521 53.1667H13.4479C12.9425 53.1667 12.5312 52.7554 12.5312 52.25V44.3438H30.5541C31.0603 44.3438 31.4707 43.9333 31.4707 43.4271C31.4707 42.9209 31.0603 42.5104 30.5541 42.5104H10.8125C10.3071 42.5104 9.89583 42.0992 9.89583 41.5938V39.9896C9.89583 39.4842 10.3071 39.0729 10.8125 39.0729H45.1875C45.6929 39.0729 46.1042 39.4842 46.1042 39.9896V41.5938C46.1042 42.0992 45.6929 42.5104 45.1875 42.5104H35.6771C35.1709 42.5104 34.7604 42.9209 34.7604 43.4271V47.8958H20.3229C19.8167 47.8958 19.4062 48.3063 19.4062 48.8125C19.4062 49.3187 19.8167 49.7292 20.3229 49.7292H35.6771C36.1833 49.7292 36.5938 49.3187 36.5938 48.8125V44.3438H45.1875C46.7038 44.3438 47.9375 43.11 47.9375 41.5938V39.9896C47.9375 38.5117 46.7654 37.3028 45.3021 37.2424Z" fill="#464774"/>
<path d="M31.0742 24.4644C31.5804 24.4644 31.9908 24.054 31.9908 23.5477V17.817C31.9908 17.4895 31.8162 17.1869 31.5325 17.0231L28.4577 15.2479C28.1741 15.084 27.8246 15.084 27.541 15.2479L24.4661 17.0231C24.1824 17.1869 24.0078 17.4894 24.0078 17.817V23.5477C24.0078 23.8752 24.1824 24.1778 24.4661 24.3416L27.541 26.1168C27.9773 26.3688 28.5389 26.2218 28.7932 25.7813C29.0464 25.3429 28.8961 24.7823 28.4577 24.5291L25.8411 23.0184V18.3462L27.9993 17.1001L30.1575 18.3462V23.5477C30.1575 24.054 30.5679 24.4644 31.0742 24.4644Z" fill="#464774"/>
</g>
<defs>
<clipPath id="clip0_10434_75819">
<rect width="55" height="55" fill="white" transform="translate(0.5)"/>
</clipPath>
</defs>
</svg>
