<svg width="20" height="20" viewBox="0 0 20 20" fill="none" xmlns="http://www.w3.org/2000/svg">
<path d="M3.56004 17.2733L9.05715 11.7761C9.38717 11.4461 9.55217 11.2811 9.74245 11.2193C9.90982 11.1649 10.0901 11.1649 10.2575 11.2193C10.4477 11.2811 10.6128 11.4461 10.9428 11.7761L16.4032 17.2366M11.6666 12.5L14.0572 10.1095C14.3872 9.77946 14.5522 9.61445 14.7424 9.55263C14.9098 9.49825 15.0901 9.49825 15.2575 9.55263C15.4477 9.61445 15.6128 9.77946 15.9428 10.1095L18.3333 12.5M8.33329 7.5C8.33329 8.42047 7.5871 9.16667 6.66663 9.16667C5.74615 9.16667 4.99996 8.42047 4.99996 7.5C4.99996 6.57953 5.74615 5.83333 6.66663 5.83333C7.5871 5.83333 8.33329 6.57953 8.33329 7.5ZM5.66663 17.5H14.3333C15.7334 17.5 16.4335 17.5 16.9683 17.2275C17.4387 16.9878 17.8211 16.6054 18.0608 16.135C18.3333 15.6002 18.3333 14.9001 18.3333 13.5V6.5C18.3333 5.09987 18.3333 4.3998 18.0608 3.86502C17.8211 3.39462 17.4387 3.01217 16.9683 2.77248C16.4335 2.5 15.7334 2.5 14.3333 2.5H5.66663C4.26649 2.5 3.56643 2.5 3.03165 2.77248C2.56124 3.01217 2.17879 3.39462 1.93911 3.86502C1.66663 4.3998 1.66663 5.09987 1.66663 6.5V13.5C1.66663 14.9001 1.66663 15.6002 1.93911 16.135C2.17879 16.6054 2.56124 16.9878 3.03165 17.2275C3.56643 17.5 4.26649 17.5 5.66663 17.5Z" stroke="black" stroke-width="1.5" stroke-linecap="round" stroke-linejoin="round"/>
</svg>
