<svg width="20" height="21" viewBox="0 0 20 21" fill="none" xmlns="http://www.w3.org/2000/svg">
<path d="M7.5 15.9165H12.5M5.83333 12.9998H14.1667M4.16667 2.1665H15.8333C16.7538 2.1665 17.5 2.99561 17.5 4.01836V16.9813C17.5 18.0041 16.7538 18.8332 15.8333 18.8332H4.16667C3.24619 18.8332 2.5 18.0041 2.5 16.9813V4.01836C2.5 2.99561 3.24619 2.1665 4.16667 2.1665ZM9.998 5.67645C9.41486 5.02717 8.44243 4.85252 7.71179 5.44706C6.98115 6.04161 6.87828 7.03566 7.45206 7.73884C8.02583 8.44201 9.998 10.0832 9.998 10.0832C9.998 10.0832 11.9702 8.44201 12.5439 7.73884C13.1177 7.03566 13.0274 6.03536 12.2842 5.44706C11.541 4.85877 10.5811 5.02717 9.998 5.67645Z" stroke="black" stroke-width="1.5" stroke-linecap="round" stroke-linejoin="round"/>
</svg>
