<svg width="20" height="20" viewBox="0 0 20 20" fill="none" xmlns="http://www.w3.org/2000/svg">
<path d="M3.33337 13.1667C3.33337 11.7665 3.33337 11.0665 3.60586 10.5317C3.84554 10.0613 4.22799 9.67883 4.6984 9.43915C5.23318 9.16667 5.93324 9.16667 7.33337 9.16667H12.6667C14.0668 9.16667 14.7669 9.16667 15.3017 9.43915C15.7721 9.67883 16.1545 10.0613 16.3942 10.5317C16.6667 11.0665 16.6667 11.7665 16.6667 13.1667V13.5C16.6667 14.9001 16.6667 15.6002 16.3942 16.135C16.1545 16.6054 15.7721 16.9878 15.3017 17.2275C14.7669 17.5 14.0668 17.5 12.6667 17.5H7.33337C5.93324 17.5 5.23318 17.5 4.6984 17.2275C4.22799 16.9878 3.84554 16.6054 3.60586 16.135C3.33337 15.6002 3.33337 14.9001 3.33337 13.5V13.1667Z" fill="url(#paint0_linear_14014_88935)"/>
<path d="M14.1667 9.16667V6.66667C14.1667 4.36548 12.3012 2.5 10 2.5C7.69885 2.5 5.83337 4.36548 5.83337 6.66667V9.16667M7.33337 17.5H12.6667C14.0668 17.5 14.7669 17.5 15.3017 17.2275C15.7721 16.9878 16.1545 16.6054 16.3942 16.135C16.6667 15.6002 16.6667 14.9001 16.6667 13.5V13.1667C16.6667 11.7665 16.6667 11.0665 16.3942 10.5317C16.1545 10.0613 15.7721 9.67883 15.3017 9.43915C14.7669 9.16667 14.0668 9.16667 12.6667 9.16667H7.33337C5.93324 9.16667 5.23318 9.16667 4.6984 9.43915C4.22799 9.67883 3.84554 10.0613 3.60586 10.5317C3.33337 11.0665 3.33337 11.7665 3.33337 13.1667V13.5C3.33337 14.9001 3.33337 15.6002 3.60586 16.135C3.84554 16.6054 4.22799 16.9878 4.6984 17.2275C5.23318 17.5 5.93324 17.5 7.33337 17.5Z" stroke="#D4A441" stroke-width="1.5" stroke-linecap="round" stroke-linejoin="round"/>
<defs>
<linearGradient id="paint0_linear_14014_88935" x1="10" y1="2.5" x2="10" y2="17.5" gradientUnits="userSpaceOnUse">
<stop stop-color="#FFBA3C" stop-opacity="0.34"/>
<stop offset="1" stop-color="#EBD189" stop-opacity="0.54"/>
</linearGradient>
</defs>
</svg>
