<svg width="20" height="20" viewBox="0 0 20 20" fill="none" xmlns="http://www.w3.org/2000/svg">
<path d="M10.8333 8.00016C10.8333 7.53345 10.8333 7.3001 10.9242 7.12184C11.0041 6.96504 11.1315 6.83755 11.2883 6.75766C11.4666 6.66683 11.7 6.66683 12.1667 6.66683H16.1667C16.6334 6.66683 16.8667 6.66683 17.045 6.75766C17.2018 6.83755 17.3293 6.96504 17.4092 7.12184C17.5 7.3001 17.5 7.53345 17.5 8.00016V12.0002C17.5 12.4669 17.5 12.7002 17.4092 12.8785C17.3293 13.0353 17.2018 13.1628 17.045 13.2427C16.8667 13.3335 16.6334 13.3335 16.1667 13.3335H12.1667C11.7 13.3335 11.4666 13.3335 11.2883 13.2427C11.1315 13.1628 11.0041 13.0353 10.9242 12.8785C10.8333 12.7002 10.8333 12.4669 10.8333 12.0002V8.00016Z" fill="url(#paint0_linear_14014_89486)"/>
<path d="M17.5 3.3335H2.5M17.5 16.6668H2.5M7.5 7.7085H2.5M7.5 12.2918H2.5M12.1667 13.3335H16.1667C16.6334 13.3335 16.8667 13.3335 17.045 13.2427C17.2018 13.1628 17.3293 13.0353 17.4092 12.8785C17.5 12.7002 17.5 12.4669 17.5 12.0002V8.00016C17.5 7.53345 17.5 7.3001 17.4092 7.12184C17.3293 6.96504 17.2018 6.83755 17.045 6.75766C16.8667 6.66683 16.6334 6.66683 16.1667 6.66683H12.1667C11.7 6.66683 11.4666 6.66683 11.2883 6.75766C11.1315 6.83755 11.0041 6.96504 10.9242 7.12184C10.8333 7.3001 10.8333 7.53345 10.8333 8.00016V12.0002C10.8333 12.4669 10.8333 12.7002 10.9242 12.8785C11.0041 13.0353 11.1315 13.1628 11.2883 13.2427C11.4666 13.3335 11.7 13.3335 12.1667 13.3335Z" stroke="#D4A441" stroke-width="1.5" stroke-linecap="round" stroke-linejoin="round"/>
<defs>
<linearGradient id="paint0_linear_14014_89486" x1="10" y1="3.3335" x2="10" y2="16.6668" gradientUnits="userSpaceOnUse">
<stop stop-color="#FFBA3C" stop-opacity="0.34"/>
<stop offset="1" stop-color="#EBD189" stop-opacity="0.54"/>
</linearGradient>
</defs>
</svg>
