<svg width="20" height="20" viewBox="0 0 20 20" fill="none" xmlns="http://www.w3.org/2000/svg">
<mask id="path-1-inside-1_14014_88939" fill="white">
<path d="M10.0008 7.49984C9.33775 7.49984 8.70187 7.76323 8.23303 8.23207C7.76418 8.70091 7.50079 9.3368 7.50079 9.99984C7.50079 10.6629 7.76418 11.2988 8.23303 11.7676C8.70187 12.2364 9.33775 12.4998 10.0008 12.4998C10.6638 12.4998 11.2997 12.2364 11.7686 11.7676C12.2374 11.2988 12.5008 10.6629 12.5008 9.99984C12.5008 9.3368 12.2374 8.70091 11.7686 8.23207C11.2997 7.76323 10.6638 7.49984 10.0008 7.49984ZM10.0008 5.83317C11.1059 5.83317 12.1657 6.27216 12.9471 7.05356C13.7285 7.83496 14.1675 8.89477 14.1675 9.99984C14.1675 11.1049 13.7285 12.1647 12.9471 12.9461C12.1657 13.7275 11.1059 14.1665 10.0008 14.1665C8.89572 14.1665 7.83592 13.7275 7.05451 12.9461C6.27311 12.1647 5.83413 11.1049 5.83413 9.99984C5.83413 8.89477 6.27311 7.83496 7.05451 7.05356C7.83592 6.27216 8.89572 5.83317 10.0008 5.83317ZM15.4175 5.62484C15.4175 5.9011 15.3077 6.16606 15.1124 6.36141C14.917 6.55676 14.6521 6.6665 14.3758 6.6665C14.0995 6.6665 13.8346 6.55676 13.6392 6.36141C13.4439 6.16606 13.3341 5.9011 13.3341 5.62484C13.3341 5.34857 13.4439 5.08362 13.6392 4.88827C13.8346 4.69292 14.0995 4.58317 14.3758 4.58317C14.6521 4.58317 14.917 4.69292 15.1124 4.88827C15.3077 5.08362 15.4175 5.34857 15.4175 5.62484ZM10.0008 3.33317C7.93913 3.33317 7.60246 3.339 6.64329 3.3815C5.98996 3.41234 5.55163 3.49984 5.14496 3.65817C4.80464 3.78312 4.49697 3.98339 4.24496 4.244C3.98413 4.496 3.78359 4.80366 3.65829 5.144C3.49996 5.55234 3.41246 5.98984 3.38246 6.64234C3.33913 7.56234 3.33329 7.884 3.33329 9.99984C3.33329 12.0623 3.33913 12.3982 3.38163 13.3573C3.41246 14.0098 3.49996 14.449 3.65746 14.8548C3.79913 15.2173 3.96579 15.4782 4.24246 15.7548C4.52329 16.0348 4.78413 16.2023 5.14246 16.3407C5.55413 16.4998 5.99246 16.5882 6.64246 16.6182C7.56246 16.6615 7.88413 16.6665 9.99996 16.6665C12.0625 16.6665 12.3983 16.6607 13.3575 16.6182C14.0091 16.5873 14.4475 16.4998 14.855 16.3423C15.195 16.2168 15.5025 16.0166 15.755 15.7565C16.0358 15.4765 16.2033 15.2157 16.3416 14.8565C16.5 14.4465 16.5883 14.0082 16.6183 13.3565C16.6616 12.4373 16.6666 12.1148 16.6666 9.99984C16.6666 7.93817 16.6608 7.6015 16.6183 6.64234C16.5875 5.99067 16.4991 5.55067 16.3416 5.144C16.216 4.80402 16.0158 4.49649 15.7558 4.244C15.5039 3.98304 15.1962 3.78248 14.8558 3.65734C14.4475 3.499 14.0091 3.4115 13.3575 3.3815C12.4383 3.33817 12.1166 3.33317 9.99996 3.33317M9.99996 1.6665C12.2641 1.6665 12.5466 1.67484 13.4358 1.7165C14.3225 1.75817 14.9275 1.89734 15.4583 2.104C16.0083 2.31567 16.4716 2.60234 16.935 3.06484C17.3587 3.48142 17.6866 3.98533 17.8958 4.5415C18.1016 5.07234 18.2416 5.67734 18.2833 6.56484C18.3225 7.45317 18.3333 7.73567 18.3333 9.99984C18.3333 12.264 18.325 12.5465 18.2833 13.4348C18.2416 14.3223 18.1016 14.9265 17.8958 15.4582C17.6872 16.0146 17.3592 16.5187 16.935 16.9348C16.5183 17.3584 16.0144 17.6863 15.4583 17.8957C14.9275 18.1015 14.3225 18.2415 13.4358 18.2832C12.5466 18.3223 12.2641 18.3332 9.99996 18.3332C7.73579 18.3332 7.45329 18.3248 6.56413 18.2832C5.67746 18.2415 5.07329 18.1015 4.54163 17.8957C3.98523 17.6869 3.48123 17.359 3.06496 16.9348C2.64115 16.5183 2.31326 16.0144 2.10413 15.4582C1.89746 14.9273 1.75829 14.3223 1.71663 13.4348C1.67663 12.5465 1.66663 12.264 1.66663 9.99984C1.66663 7.73567 1.67496 7.45317 1.71663 6.56484C1.75829 5.67734 1.89746 5.07317 2.10413 4.5415C2.31266 3.98499 2.64063 3.48094 3.06496 3.06484C3.48135 2.64086 3.98532 2.31295 4.54163 2.104C5.07246 1.89734 5.67663 1.75817 6.56413 1.7165C7.45413 1.67734 7.73663 1.6665 10.0008 1.6665"/>
</mask>
<path d="M10.0008 12.4998V13.9998V12.4998ZM10.0008 5.83317V4.33317V5.83317ZM14.1675 9.99984H12.6675H14.1675ZM10.0008 14.1665V12.6665V14.1665ZM10.0008 4.83317C10.8292 4.83317 11.5008 4.1616 11.5008 3.33317C11.5008 2.50474 10.8292 1.83317 10.0008 1.83317V4.83317ZM6.64329 3.3815L6.57689 1.88297L6.57258 1.88317L6.64329 3.3815ZM5.14496 3.65817L5.66194 5.06627C5.67105 5.06292 5.68013 5.05948 5.68918 5.05596L5.14496 3.65817ZM4.24496 4.244L5.28721 5.32276C5.29943 5.31095 5.31145 5.29893 5.32327 5.28671L4.24496 4.244ZM3.65829 5.144L5.05683 5.6863C5.05994 5.67829 5.06297 5.67026 5.06594 5.66221L3.65829 5.144ZM3.38246 6.64234L4.8808 6.71291L4.88088 6.71123L3.38246 6.64234ZM3.38163 13.3573L1.88309 13.4237L1.8833 13.4281L3.38163 13.3573ZM3.65746 14.8548L2.25907 15.3975L2.26036 15.4008L3.65746 14.8548ZM4.24246 15.7548L3.1818 16.8155L3.18338 16.8171L4.24246 15.7548ZM5.14246 16.3407L5.68339 14.9416L5.68267 14.9413L5.14246 16.3407ZM6.64246 16.6182L6.71303 15.1198L6.71162 15.1198L6.64246 16.6182ZM13.3575 16.6182L13.4239 18.1167L13.4284 18.1165L13.3575 16.6182ZM14.855 16.3423L14.3353 14.9352C14.3283 14.9378 14.3212 14.9405 14.3142 14.9432L14.855 16.3423ZM15.755 15.7565L14.6959 14.6943C14.6901 14.7001 14.6843 14.7059 14.6786 14.7118L15.755 15.7565ZM16.3416 14.8565L14.9423 14.3161L14.9419 14.3174L16.3416 14.8565ZM16.6183 13.3565L15.12 13.2859L15.1199 13.2875L16.6183 13.3565ZM16.6183 6.64234L18.1168 6.57594L18.1166 6.57144L16.6183 6.64234ZM16.3416 5.144L14.9346 5.66386C14.9373 5.67118 14.9401 5.67847 14.9429 5.68574L16.3416 5.144ZM15.7558 4.244L14.6765 5.28574C14.6878 5.2974 14.6992 5.30889 14.7109 5.32018L15.7558 4.244ZM14.8558 3.65734L14.3135 5.05588C14.3217 5.05907 14.33 5.06218 14.3383 5.06523L14.8558 3.65734ZM13.3575 3.3815L13.2868 4.87984L13.2885 4.87992L13.3575 3.3815ZM9.99996 1.83317C9.17153 1.83317 8.49996 2.50474 8.49996 3.33317C8.49996 4.1616 9.17153 4.83317 9.99996 4.83317V1.83317ZM9.99996 0.166504C9.17153 0.166504 8.49996 0.838077 8.49996 1.6665C8.49996 2.49493 9.17153 3.1665 9.99996 3.1665V0.166504ZM13.4358 1.7165L13.5062 0.218157L13.506 0.218148L13.4358 1.7165ZM15.4583 2.104L14.9141 3.50182L14.9195 3.50391L15.4583 2.104ZM16.935 3.06484L15.8752 4.12648L15.8834 4.1345L16.935 3.06484ZM17.8958 4.5415L16.4918 5.0696C16.4936 5.07434 16.4954 5.07907 16.4973 5.0838L17.8958 4.5415ZM18.2833 6.56484L19.7818 6.49877L19.7816 6.49449L18.2833 6.56484ZM18.2833 13.4348L19.7816 13.5052L19.7816 13.5051L18.2833 13.4348ZM17.8958 15.4582L16.497 14.9166C16.495 14.9216 16.4931 14.9266 16.4913 14.9316L17.8958 15.4582ZM16.935 16.9348L15.8845 15.864C15.8782 15.8703 15.8719 15.8766 15.8656 15.8829L16.935 16.9348ZM15.4583 17.8957L14.9298 16.4919C14.9252 16.4936 14.9206 16.4954 14.916 16.4971L15.4583 17.8957ZM13.4358 18.2832L13.5018 19.7817L13.5062 19.7815L13.4358 18.2832ZM6.56413 18.2832L6.49372 19.7815L6.49391 19.7815L6.56413 18.2832ZM4.54163 17.8957L5.08318 16.4968C5.07832 16.495 5.07346 16.4931 5.06859 16.4913L4.54163 17.8957ZM3.06496 16.9348L4.13548 15.8841C4.12917 15.8777 4.12281 15.8713 4.11639 15.865L3.06496 16.9348ZM2.10413 15.4582L3.50816 14.9303C3.50611 14.9248 3.50404 14.9194 3.50193 14.914L2.10413 15.4582ZM1.71663 13.4348L0.218142 13.5023L0.218276 13.5052L1.71663 13.4348ZM1.71663 6.56484L0.218276 6.49449L0.218273 6.49456L1.71663 6.56484ZM2.10413 4.5415L3.50222 5.08496C3.50443 5.07926 3.50661 5.07355 3.50876 5.06783L2.10413 4.5415ZM3.06496 3.06484L4.11518 4.13583C4.1219 4.12925 4.12855 4.1226 4.13514 4.11589L3.06496 3.06484ZM4.54163 2.104L5.06903 3.50823C5.07464 3.50612 5.08024 3.50398 5.08582 3.50181L4.54163 2.104ZM6.56413 1.7165L6.49818 0.217948L6.49378 0.218154L6.56413 1.7165ZM10.0008 3.1665C10.8292 3.1665 11.5008 2.49493 11.5008 1.6665C11.5008 0.838077 10.8292 0.166504 10.0008 0.166504V3.1665ZM10.0008 5.99984C8.93993 5.99984 7.92251 6.42126 7.17237 7.17141L9.29369 9.29273C9.48122 9.10519 9.73558 8.99984 10.0008 8.99984V5.99984ZM7.17237 7.17141C6.42222 7.92156 6.00079 8.93897 6.00079 9.99984H9.00079C9.00079 9.73462 9.10615 9.48027 9.29369 9.29273L7.17237 7.17141ZM6.00079 9.99984C6.00079 11.0607 6.42222 12.0781 7.17237 12.8283L9.29369 10.7069C9.10615 10.5194 9.00079 10.2651 9.00079 9.99984H6.00079ZM7.17237 12.8283C7.92251 13.5784 8.93993 13.9998 10.0008 13.9998V10.9998C9.73558 10.9998 9.48122 10.8945 9.29369 10.7069L7.17237 12.8283ZM10.0008 13.9998C11.0617 13.9998 12.0791 13.5784 12.8292 12.8283L10.7079 10.7069C10.5204 10.8945 10.266 10.9998 10.0008 10.9998V13.9998ZM12.8292 12.8283C13.5794 12.0781 14.0008 11.0607 14.0008 9.99984H11.0008C11.0008 10.2651 10.8954 10.5194 10.7079 10.7069L12.8292 12.8283ZM14.0008 9.99984C14.0008 8.93897 13.5794 7.92156 12.8292 7.17141L10.7079 9.29273C10.8954 9.48027 11.0008 9.73462 11.0008 9.99984H14.0008ZM12.8292 7.17141C12.0791 6.42126 11.0617 5.99984 10.0008 5.99984V8.99984C10.266 8.99984 10.5204 9.10519 10.7079 9.29273L12.8292 7.17141ZM10.0008 7.33317C10.708 7.33317 11.3863 7.61412 11.8864 8.11422L14.0077 5.9929C12.945 4.93019 11.5037 4.33317 10.0008 4.33317V7.33317ZM11.8864 8.11422C12.3865 8.61432 12.6675 9.29259 12.6675 9.99984H15.6675C15.6675 8.49694 15.0704 7.05561 14.0077 5.9929L11.8864 8.11422ZM12.6675 9.99984C12.6675 10.7071 12.3865 11.3854 11.8864 11.8855L14.0077 14.0068C15.0704 12.9441 15.6675 11.5027 15.6675 9.99984H12.6675ZM11.8864 11.8855C11.3863 12.3856 10.708 12.6665 10.0008 12.6665V15.6665C11.5037 15.6665 12.945 15.0695 14.0077 14.0068L11.8864 11.8855ZM10.0008 12.6665C9.29355 12.6665 8.61527 12.3856 8.11518 11.8855L5.99385 14.0068C7.05656 15.0695 8.4979 15.6665 10.0008 15.6665V12.6665ZM8.11518 11.8855C7.61508 11.3854 7.33413 10.7071 7.33413 9.99984H4.33413C4.33413 11.5027 4.93115 12.9441 5.99385 14.0068L8.11518 11.8855ZM7.33413 9.99984C7.33413 9.29259 7.61508 8.61432 8.11518 8.11422L5.99385 5.9929C4.93115 7.0556 4.33413 8.49694 4.33413 9.99984H7.33413ZM8.11518 8.11422C8.61527 7.61412 9.29355 7.33317 10.0008 7.33317V4.33317C8.4979 4.33317 7.05656 4.93019 5.99385 5.9929L8.11518 8.11422ZM13.9175 5.62484C13.9175 5.50328 13.9657 5.3867 14.0517 5.30075L16.173 7.42207C16.6497 6.94541 16.9175 6.29893 16.9175 5.62484H13.9175ZM14.0517 5.30075C14.1377 5.21479 14.2542 5.1665 14.3758 5.1665V8.1665C15.0499 8.1665 15.6964 7.89872 16.173 7.42207L14.0517 5.30075ZM14.3758 5.1665C14.4974 5.1665 14.6139 5.21479 14.6999 5.30075L12.5786 7.42207C13.0552 7.89872 13.7017 8.1665 14.3758 8.1665V5.1665ZM14.6999 5.30075C14.7858 5.3867 14.8341 5.50328 14.8341 5.62484H11.8341C11.8341 6.29893 12.1019 6.94541 12.5786 7.42207L14.6999 5.30075ZM14.8341 5.62484C14.8341 5.7464 14.7858 5.86298 14.6999 5.94893L12.5786 3.82761C12.1019 4.30426 11.8341 4.95074 11.8341 5.62484H14.8341ZM14.6999 5.94893C14.6139 6.03488 14.4974 6.08317 14.3758 6.08317V3.08317C13.7017 3.08317 13.0552 3.35095 12.5786 3.82761L14.6999 5.94893ZM14.3758 6.08317C14.2542 6.08317 14.1377 6.03488 14.0517 5.94893L16.173 3.82761C15.6964 3.35095 15.0499 3.08317 14.3758 3.08317V6.08317ZM14.0517 5.94893C13.9657 5.86297 13.9175 5.74639 13.9175 5.62484H16.9175C16.9175 4.95075 16.6497 4.30426 16.173 3.82761L14.0517 5.94893ZM10.0008 1.83317C7.93447 1.83317 7.5706 1.83894 6.57689 1.88297L6.70969 4.88003C7.63432 4.83906 7.94378 4.83317 10.0008 4.83317V1.83317ZM6.57258 1.88317C5.80766 1.91927 5.19971 2.02717 4.60074 2.26038L5.68918 5.05596C5.90354 4.9725 6.17226 4.9054 6.714 4.87984L6.57258 1.88317ZM4.62798 2.25008C4.0754 2.45295 3.57584 2.77813 3.16665 3.20129L5.32327 5.28671C5.4181 5.18864 5.53388 5.11328 5.66194 5.06627L4.62798 2.25008ZM3.20271 3.16524C2.77943 3.5742 2.45398 4.07347 2.25065 4.6258L5.06594 5.66221C5.11319 5.53384 5.18883 5.41781 5.28721 5.32276L3.20271 3.16524ZM2.25975 4.60171C2.02745 5.20081 1.91927 5.80722 1.88404 6.57344L4.88088 6.71123C4.90565 6.17245 4.97247 5.90386 5.05683 5.6863L2.25975 4.60171ZM1.88412 6.57176C1.83902 7.5293 1.83329 7.88078 1.83329 9.99984H4.83329C4.83329 7.88723 4.83923 7.59538 4.8808 6.71291L1.88412 6.57176ZM1.83329 9.99984C1.83329 12.067 1.83907 12.43 1.8831 13.4237L4.88016 13.2909C4.83919 12.3663 4.83329 12.0577 4.83329 9.99984H1.83329ZM1.8833 13.4281C1.91939 14.1919 2.02719 14.8 2.25908 15.3975L5.05584 14.3121C4.97273 14.098 4.90553 13.8278 4.87995 13.2865L1.8833 13.4281ZM2.26036 15.4008C2.47417 15.9479 2.75244 16.3861 3.1818 16.8155L5.30312 14.6942C5.17915 14.5702 5.12409 14.4868 5.05456 14.3088L2.26036 15.4008ZM3.18338 16.8171C3.61262 17.245 4.05041 17.527 4.60225 17.74L5.68267 14.9413C5.51784 14.8777 5.43397 14.8246 5.30154 14.6926L3.18338 16.8171ZM4.60152 17.7397C5.20117 17.9716 5.80693 18.0812 6.5733 18.1166L6.71162 15.1198C6.17799 15.0951 5.90708 15.0281 5.68339 14.9416L4.60152 17.7397ZM6.57189 18.1165C7.52999 18.1616 7.88214 18.1665 9.99996 18.1665V15.1665C7.88611 15.1665 7.59493 15.1614 6.71303 15.1198L6.57189 18.1165ZM9.99996 18.1665C12.0671 18.1665 12.4302 18.1607 13.4239 18.1167L13.2911 15.1196C12.3664 15.1606 12.0578 15.1665 9.99996 15.1665V18.1665ZM13.4284 18.1165C14.1922 18.0804 14.7983 17.9724 15.3957 17.7415L14.3142 14.9432C14.0966 15.0273 13.826 15.0943 13.2866 15.1198L13.4284 18.1165ZM15.3746 17.7495C15.9249 17.5462 16.4227 17.2222 16.8313 16.8013L14.6786 14.7118C14.5823 14.811 14.465 14.8873 14.3353 14.9352L15.3746 17.7495ZM16.814 16.8187C17.2455 16.3886 17.5283 15.949 17.7414 15.3956L14.9419 14.3174C14.8783 14.4823 14.8261 14.5644 14.6959 14.6943L16.814 16.8187ZM17.7409 15.3969C17.9719 14.7987 18.0814 14.193 18.1167 13.4255L15.1199 13.2875C15.0952 13.8233 15.028 14.0943 14.9423 14.3161L17.7409 15.3969ZM18.1166 13.4271C18.1618 12.4698 18.1666 12.1168 18.1666 9.99984H15.1666C15.1666 12.1129 15.1615 12.4049 15.12 13.2859L18.1166 13.4271ZM18.1666 9.99984C18.1666 7.93352 18.1609 7.56965 18.1168 6.57594L15.1198 6.70874C15.1607 7.63336 15.1666 7.94283 15.1666 9.99984H18.1666ZM18.1166 6.57144C18.0804 5.80665 17.9714 5.19869 17.7404 4.60227L14.9429 5.68574C15.0269 5.90265 15.0945 6.17469 15.12 6.71323L18.1166 6.57144ZM17.7487 4.62415C17.5454 4.074 17.2215 3.57638 16.8007 3.16783L14.7109 5.32018C14.8102 5.4166 14.8866 5.53403 14.9346 5.66386L17.7487 4.62415ZM16.835 3.20227C16.4259 2.77843 15.9262 2.45269 15.3733 2.24945L14.3383 5.06523C14.4662 5.11226 14.5819 5.18765 14.6765 5.28574L16.835 3.20227ZM15.3981 2.2588C14.7988 2.02643 14.1916 1.91831 13.4264 1.88309L13.2885 4.87992C13.8267 4.90469 14.0961 4.97157 14.3135 5.05588L15.3981 2.2588ZM13.4281 1.88317C12.4708 1.83804 12.1186 1.83317 9.99996 1.83317V4.83317C12.1147 4.83317 12.4058 4.83831 13.2868 4.87984L13.4281 1.88317ZM9.99996 3.1665C12.2587 3.1665 12.5127 3.17489 13.3656 3.21486L13.506 0.218148C12.5806 0.174781 12.2695 0.166504 9.99996 0.166504V3.1665ZM13.3654 3.21485C14.1134 3.25 14.5553 3.36211 14.9141 3.50181L16.0025 0.706203C15.2996 0.432562 14.5316 0.266341 13.5062 0.218157L13.3654 3.21485ZM14.9195 3.50391C15.2828 3.64372 15.5665 3.81822 15.8753 4.12645L17.9947 2.00322C17.3768 1.38646 16.7338 0.987626 15.997 0.704095L14.9195 3.50391ZM15.8834 4.1345C16.1517 4.3983 16.3594 4.7174 16.4918 5.0696L19.2998 4.0134C19.0138 3.25325 18.5657 2.56453 17.9865 1.99517L15.8834 4.1345ZM16.4973 5.0838C16.6372 5.44481 16.7499 5.88775 16.7849 6.63518L19.7816 6.49449C19.7334 5.46692 19.566 4.69987 19.2943 3.99921L16.4973 5.0838ZM16.7847 6.63091C16.8225 7.48736 16.8333 7.7449 16.8333 9.99984H19.8333C19.8333 7.72644 19.8224 7.41898 19.7818 6.49877L16.7847 6.63091ZM16.8333 9.99984C16.8333 12.2586 16.8249 12.5126 16.7849 13.3646L19.7816 13.5051C19.825 12.5805 19.8333 12.2694 19.8333 9.99984H16.8333ZM16.7849 13.3645C16.7499 14.1115 16.6374 14.554 16.497 14.9166L19.2946 15.9997C19.5659 15.299 19.7334 14.5332 19.7816 13.5052L16.7849 13.3645ZM16.4913 14.9316C16.3595 15.283 16.1524 15.6012 15.8845 15.864L17.9854 18.0056C18.566 17.4361 19.0148 16.7463 19.3003 15.9847L16.4913 14.9316ZM15.8656 15.8829C15.6015 16.1514 15.2822 16.3592 14.9298 16.4919L15.9868 19.2995C16.7466 19.0134 17.435 18.5655 18.0043 17.9868L15.8656 15.8829ZM14.916 16.4971C14.5549 16.6371 14.1119 16.7497 13.3654 16.7848L13.5062 19.7815C14.533 19.7333 15.3 19.5659 16.0006 19.2942L14.916 16.4971ZM13.3698 16.7846C12.5125 16.8224 12.2549 16.8332 9.99996 16.8332V19.8332C12.2734 19.8332 12.5808 19.8223 13.5018 19.7817L13.3698 16.7846ZM9.99996 16.8332C7.7412 16.8332 7.48723 16.8248 6.63434 16.7848L6.49391 19.7815C7.41936 19.8249 7.73039 19.8332 9.99996 19.8332V16.8332ZM6.63454 16.7848C5.88843 16.7498 5.4459 16.6373 5.08318 16.4968L4.00007 19.2945C4.70068 19.5657 5.46648 19.7332 6.49372 19.7815L6.63454 16.7848ZM5.06859 16.4913C4.717 16.3594 4.39852 16.1521 4.13548 15.8841L1.99444 17.9855C2.56394 18.5658 3.25346 19.0144 4.01467 19.3001L5.06859 16.4913ZM4.11639 15.865C3.84811 15.6014 3.64055 15.2824 3.50816 14.9303L0.700092 15.9861C0.985972 16.7464 1.43419 17.4353 2.01353 18.0046L4.11639 15.865ZM3.50193 14.914C3.36227 14.5553 3.25013 14.1134 3.21498 13.3645L0.218276 13.5052C0.266451 14.5313 0.432649 15.2994 0.706325 16.0024L3.50193 14.914ZM3.21511 13.3674C3.17661 12.5124 3.16663 12.256 3.16663 9.99984H0.166626C0.166626 12.272 0.176641 12.5806 0.218144 13.5023L3.21511 13.3674ZM3.16663 9.99984C3.16663 7.74105 3.17502 7.48712 3.21498 6.63512L0.218273 6.49456C0.174903 7.41922 0.166626 7.73029 0.166626 9.99984H3.16663ZM3.21498 6.63518C3.25011 5.88675 3.36215 5.4453 3.50222 5.08496L0.706037 3.99805C0.432773 4.70104 0.266472 5.46793 0.218276 6.49449L3.21498 6.63518ZM3.50876 5.06783C3.64037 4.71658 3.84737 4.39845 4.11518 4.13583L2.01474 1.99384C1.43389 2.56342 0.984943 3.25339 0.699496 4.01518L3.50876 5.06783ZM4.13514 4.11589C4.39848 3.84775 4.7172 3.64037 5.06903 3.50823L4.01422 0.69978C3.25343 0.985522 2.56422 1.43397 1.99477 2.01379L4.13514 4.11589ZM5.08582 3.50181C5.44476 3.36206 5.88586 3.25 6.63447 3.21485L6.49378 0.218154C5.46739 0.266342 4.70016 0.432611 3.99743 0.706203L5.08582 3.50181ZM6.63007 3.21505C7.48829 3.17729 7.7459 3.1665 10.0008 3.1665V0.166504C7.72735 0.166504 7.41997 0.177389 6.49818 0.217954L6.63007 3.21505Z" fill="#D4A441" mask="url(#path-1-inside-1_14014_88939)"/>
</svg>
