<svg width="20" height="20" viewBox="0 0 20 20" fill="none" xmlns="http://www.w3.org/2000/svg">
<path d="M18.3333 7.44265C18.3333 6.9378 18.3333 6.68538 18.2335 6.56849C18.1468 6.46707 18.0169 6.41325 17.8839 6.42371C17.7307 6.43577 17.5522 6.61426 17.1952 6.97124L14.1666 9.99984L17.1952 13.0284C17.5522 13.3854 17.7307 13.5639 17.8839 13.576C18.0169 13.5864 18.1468 13.5326 18.2335 13.4312C18.3333 13.3143 18.3333 13.0619 18.3333 12.557V7.44265Z" stroke="black" stroke-width="1.5" stroke-linecap="round" stroke-linejoin="round"/>
<path d="M1.66663 8.1665C1.66663 6.76637 1.66663 6.06631 1.93911 5.53153C2.17879 5.06112 2.56124 4.67867 3.03165 4.43899C3.56643 4.1665 4.26649 4.1665 5.66663 4.1665H10.1666C11.5668 4.1665 12.2668 4.1665 12.8016 4.43899C13.272 4.67867 13.6545 5.06112 13.8941 5.53153C14.1666 6.06631 14.1666 6.76637 14.1666 8.1665V11.8332C14.1666 13.2333 14.1666 13.9334 13.8941 14.4681C13.6545 14.9386 13.272 15.321 12.8016 15.5607C12.2668 15.8332 11.5668 15.8332 10.1666 15.8332H5.66663C4.26649 15.8332 3.56643 15.8332 3.03165 15.5607C2.56124 15.321 2.17879 14.9386 1.93911 14.4681C1.66663 13.9334 1.66663 13.2333 1.66663 11.8332V8.1665Z" stroke="black" stroke-width="1.5" stroke-linecap="round" stroke-linejoin="round"/>
</svg>
