<svg id="google" xmlns="http://www.w3.org/2000/svg" width="26.032" height="26.436" viewBox="0 0 26.032 26.436">
  <path id="Path_5088" data-name="Path 5088" d="M16.131,7.406a7.768,7.768,0,0,1,5.013,1.83L25.073,5.5A13.2,13.2,0,0,0,4.293,9.35l4.429,3.414a7.819,7.819,0,0,1,7.409-5.358Z" transform="translate(-2.916 -2)" fill="#d94f3d"/>
  <path id="Path_5089" data-name="Path 5089" d="M7.406,20.1a7.774,7.774,0,0,1,.4-2.451L3.377,14.236a13.177,13.177,0,0,0,0,11.731l4.429-3.414a7.774,7.774,0,0,1-.4-2.451Z" transform="translate(-2 -6.886)" fill="#f2c042"/>
  <path id="Path_5090" data-name="Path 5090" d="M36.715,20H24.1v5.406h7.148a6.444,6.444,0,0,1-2.736,3.7L32.907,32.5C35.715,29.975,37.365,25.877,36.715,20Z" transform="translate(-10.824 -9.187)" fill="#5085ed"/>
  <path id="Path_5091" data-name="Path 5091" d="M20.6,32.335a8.4,8.4,0,0,1-4.47,1.1,7.819,7.819,0,0,1-7.409-5.358L4.293,31.495a13.229,13.229,0,0,0,11.838,7.35A13.134,13.134,0,0,0,25,35.721Z" transform="translate(-2.916 -12.414)" fill="#57a75c"/>
</svg>
