<svg width="24" height="25" viewBox="0 0 24 25" fill="none" xmlns="http://www.w3.org/2000/svg">
<path d="M15.707 4.79308L22.707 11.7931C22.8944 11.9806 22.9998 12.2349 22.9998 12.5001C22.9998 12.7652 22.8944 13.0196 22.707 13.2071L15.707 20.2071C15.5184 20.3892 15.2658 20.49 15.0036 20.4878C14.7414 20.4855 14.4906 20.3803 14.3052 20.1949C14.1197 20.0095 14.0146 19.7587 14.0123 19.4965C14.01 19.2343 14.1108 18.9817 14.293 18.7931L19.586 13.5001H1.99997C1.73475 13.5001 1.4804 13.3947 1.29286 13.2072C1.10533 13.0197 0.999969 12.7653 0.999969 12.5001C0.999969 12.2349 1.10533 11.9805 1.29286 11.793C1.4804 11.6054 1.73475 11.5001 1.99997 11.5001H19.586L14.293 6.20708C14.1975 6.11483 14.1213 6.00449 14.0689 5.88249C14.0165 5.76048 13.9889 5.62926 13.9877 5.49648C13.9866 5.3637 14.0119 5.23202 14.0621 5.10913C14.1124 4.98623 14.1867 4.87458 14.2806 4.78069C14.3745 4.68679 14.4861 4.61254 14.609 4.56226C14.7319 4.51198 14.8636 4.48668 14.9964 4.48783C15.1291 4.48898 15.2604 4.51657 15.3824 4.56898C15.5044 4.62139 15.6147 4.69757 15.707 4.79308Z" fill="#313131"/>
</svg>
