<svg width="16" height="17" viewBox="0 0 16 17" fill="none" xmlns="http://www.w3.org/2000/svg">
<g clip-path="url(#clip0_3384_14373)">
<path d="M15.9047 4.82317L13.9047 1.48984C13.8454 1.39123 13.7617 1.30963 13.6616 1.25297C13.5614 1.19631 13.4484 1.16653 13.3333 1.1665H2.66667C2.55164 1.16653 2.43856 1.19631 2.33845 1.25297C2.23833 1.30963 2.15458 1.39123 2.09534 1.48984L0.0953374 4.82317C0.0329974 4.92685 4.23983e-05 5.04553 4.11099e-06 5.1665C-0.00123517 5.87216 0.277763 6.54944 0.775678 7.04948C1.27359 7.54952 1.94968 7.8314 2.65534 7.83317H2.66067C3.31917 7.83485 3.95469 7.59124 4.44334 7.14984C4.93057 7.5902 5.56393 7.834 6.22067 7.834C6.87741 7.834 7.51077 7.5902 7.998 7.14984C8.48543 7.59113 9.11948 7.83551 9.777 7.83551C10.4345 7.83551 11.0686 7.59113 11.556 7.14984C11.9386 7.49503 12.4133 7.72171 12.9223 7.80234C13.4313 7.88298 13.9527 7.8141 14.4233 7.60408C14.8939 7.39405 15.2934 7.05191 15.5733 6.61921C15.8532 6.1865 16.0014 5.68184 16 5.1665C16 5.04553 15.967 4.92685 15.9047 4.82317Z" fill="#464774"/>
<path d="M13.344 9.16671C12.7243 9.16718 12.1129 9.02387 11.558 8.74805L11.548 8.75271C11.0796 8.98627 10.5695 9.12478 10.0473 9.16025C9.52511 9.19572 9.00104 9.12745 8.50533 8.95938C8.33193 8.90108 8.16265 8.83114 7.99867 8.75005L7.99133 8.75338C7.52307 8.98709 7.01311 9.12564 6.49096 9.161C5.96881 9.19636 5.44483 9.12783 4.94933 8.95938C4.77614 8.90108 4.60709 8.83114 4.44333 8.75005C3.88939 9.02511 3.27914 9.16774 2.66067 9.16671C2.43918 9.1646 2.21824 9.14453 2 9.10671V15.8334C2 16.0102 2.07024 16.1798 2.19526 16.3048C2.32029 16.4298 2.48986 16.5 2.66667 16.5H6.66667V12.5H9.33333V16.5H13.3333C13.5101 16.5 13.6797 16.4298 13.8047 16.3048C13.9298 16.1798 14 16.0102 14 15.8334V9.10405C13.7834 9.14284 13.564 9.1638 13.344 9.16671Z" fill="#464774"/>
</g>
<defs>
<clipPath id="clip0_3384_14373">
<rect width="16" height="16" fill="white" transform="translate(0 0.5)"/>
</clipPath>
</defs>
</svg>
