<svg width="16" height="17" viewBox="0 0 16 17" fill="none" xmlns="http://www.w3.org/2000/svg">
<path d="M8.00001 0.500001C7.13282 0.499623 6.27591 0.687772 5.48865 1.05142C4.70139 1.41506 4.0026 1.9455 3.44067 2.606L4.38467 3.55C4.82233 3.01378 5.37378 2.58163 5.99908 2.28486C6.62438 1.98808 7.30786 1.83412 8.00001 1.83412C8.69216 1.83412 9.37564 1.98808 10.0009 2.28486C10.6262 2.58163 11.1777 3.01378 11.6153 3.55L12.5593 2.606C11.9974 1.9455 11.2986 1.41506 10.5114 1.05142C9.7241 0.687772 8.8672 0.499623 8.00001 0.500001Z" fill="#464774"/>
<path d="M7.99998 3.1665C7.48297 3.16759 6.97337 3.28942 6.51178 3.5223C6.0502 3.75517 5.64939 4.09265 5.34131 4.50784L6.29731 5.46384C6.47379 5.1699 6.72337 4.92666 7.02174 4.75778C7.32012 4.58891 7.65713 4.50015 7.99998 4.50015C8.34282 4.50015 8.67984 4.58891 8.97821 4.75778C9.27658 4.92666 9.52616 5.1699 9.70264 5.46384L10.6586 4.50784C10.3506 4.09265 9.94975 3.75517 9.48817 3.5223C9.02658 3.28942 8.51698 3.16759 7.99998 3.1665Z" fill="#464774"/>
<path d="M2.66667 16.5002H0V3.8335H0.666667C1.90434 3.8335 3.09133 4.32516 3.9665 5.20033C4.84167 6.0755 5.33333 7.26249 5.33333 8.50016V9.0555L6.278 11.2335C6.31463 11.3182 6.33327 11.4096 6.33274 11.5019C6.33221 11.5942 6.31252 11.6854 6.27492 11.7697C6.23731 11.854 6.18262 11.9295 6.1143 11.9916C6.04597 12.0536 5.96551 12.1008 5.878 12.1302L5.33333 12.3142V13.8335C5.33333 14.1871 5.19286 14.5263 4.94281 14.7763C4.69276 15.0264 4.35362 15.1668 4 15.1668H2.66667V16.5002Z" fill="#464774"/>
<path d="M13.3333 16.5002H16V3.8335H15.3333C14.0956 3.8335 12.9087 4.32516 12.0335 5.20033C11.1583 6.0755 10.6667 7.26249 10.6667 8.50016V9.0555L9.72199 11.2335C9.68536 11.3182 9.66672 11.4096 9.66725 11.5019C9.66778 11.5942 9.68747 11.6854 9.72507 11.7697C9.76267 11.854 9.81736 11.9295 9.88569 11.9916C9.95401 12.0536 10.0345 12.1008 10.122 12.1302L10.666 12.3122V13.8335C10.666 14.1871 10.8065 14.5263 11.0565 14.7763C11.3066 15.0264 11.6457 15.1668 11.9993 15.1668H13.3327L13.3333 16.5002Z" fill="#464774"/>
</svg>
