<svg width="16" height="17" viewBox="0 0 16 17" fill="none" xmlns="http://www.w3.org/2000/svg">
<g clip-path="url(#clip0_3384_14350)">
<path d="M2 7.8335H0V9.16683H2V7.8335Z" fill="#464774"/>
<path d="M2.81426 2.37165L1.87146 3.31445L3.28566 4.72865L4.22846 3.78585L2.81426 2.37165Z" fill="#464774"/>
<path d="M8.66671 0.5H7.33337V2.5H8.66671V0.5Z" fill="#464774"/>
<path d="M13.1854 2.37144L11.7712 3.78564L12.714 4.72844L14.1282 3.31424L13.1854 2.37144Z" fill="#464774"/>
<path d="M16 7.8335H14V9.16683H16V7.8335Z" fill="#464774"/>
<path d="M8.00004 3.8335C5.42671 3.8335 3.33337 5.9275 3.33337 8.50016C3.33337 10.3095 4.38737 11.9468 6.00004 12.7128V15.8335H10V12.7128C11.6127 11.9475 12.6667 10.3102 12.6667 8.50016C12.6667 5.9275 10.5734 3.8335 8.00004 3.8335Z" fill="#464774"/>
</g>
<defs>
<clipPath id="clip0_3384_14350">
<rect width="16" height="16" fill="white" transform="translate(0 0.5)"/>
</clipPath>
</defs>
</svg>
