<svg width="16" height="17" viewBox="0 0 16 17" fill="none" xmlns="http://www.w3.org/2000/svg">
<g clip-path="url(#clip0_3384_14381)">
<path d="M14 0.5H2.00004C1.82323 0.5 1.65366 0.570238 1.52864 0.695262C1.40361 0.820286 1.33337 0.989856 1.33337 1.16667V15.8333C1.33337 16.0101 1.40361 16.1797 1.52864 16.3047C1.65366 16.4298 1.82323 16.5 2.00004 16.5H14C14.1769 16.5 14.3464 16.4298 14.4714 16.3047C14.5965 16.1797 14.6667 16.0101 14.6667 15.8333V1.16667C14.6667 0.989856 14.5965 0.820286 14.4714 0.695262C14.3464 0.570238 14.1769 0.5 14 0.5ZM12 13.8333H4.00004V12.5H12V13.8333ZM12 10.5H4.00004V9.16667H12V10.5ZM12 7.16667H4.00004V3.16667H12V7.16667Z" fill="#464774"/>
</g>
<defs>
<clipPath id="clip0_3384_14381">
<rect width="16" height="16" fill="white" transform="translate(0 0.5)"/>
</clipPath>
</defs>
</svg>
