<svg width="16" height="17" viewBox="0 0 16 17" fill="none" xmlns="http://www.w3.org/2000/svg">
<path d="M9.02467 11.1613C7.96667 10.7227 6.72467 10.5 5.33333 10.5C3.942 10.5 2.7 10.7227 1.64267 11.1613C0.644667 11.574 0 12.5413 0 13.6253V15.8333H10.6667V13.6253C10.6667 12.5413 10.022 11.574 9.02467 11.1613Z" fill="#464774"/>
<path d="M5.33333 9.83317C7.17428 9.83317 8.66667 8.34079 8.66667 6.49984C8.66667 4.65889 7.17428 3.1665 5.33333 3.1665C3.49238 3.1665 2 4.65889 2 6.49984C2 8.34079 3.49238 9.83317 5.33333 9.83317Z" fill="#464774"/>
<path d="M11.392 9.20457L10.3927 8.32257L10.8334 7.82257C11.1554 7.45723 11.3334 6.98723 11.3334 6.4999C11.3334 6.01257 11.156 5.54257 10.834 5.1779L10.3934 4.6779L11.3927 3.7959L11.834 4.2959C12.3714 4.9039 12.6667 5.68723 12.6667 6.4999C12.6667 7.31257 12.3707 8.0959 11.8334 8.70457L11.392 9.20457Z" fill="#464774"/>
<path d="M13.282 11.9134L12.3927 10.9201L12.8894 10.4754C14.0187 9.4634 14.6667 8.01474 14.6667 6.50007C14.6667 4.9854 14.0187 3.53674 12.8894 2.5254L12.3927 2.08074L13.282 1.0874L13.7787 1.53207C15.19 2.7954 16 4.60674 16 6.50007C16 8.3934 15.19 10.2047 13.7787 11.4687L13.282 11.9134Z" fill="#464774"/>
</svg>
