<svg width="16" height="17" viewBox="0 0 16 17" fill="none" xmlns="http://www.w3.org/2000/svg">
<path d="M15.8307 11.5423L14.7507 10.9323L8.81734 14.2843C8.56725 14.4256 8.2849 14.4998 7.99767 14.4998C7.71045 14.4998 7.4281 14.4256 7.17801 14.2843L1.24467 10.9316L0.164672 11.5416C0.113054 11.5706 0.070083 11.6128 0.0401766 11.6639C0.0102702 11.715 -0.00549316 11.7731 -0.00549316 11.8323C-0.00549316 11.8915 0.0102702 11.9496 0.0401766 12.0007C0.070083 12.0518 0.113054 12.094 0.164672 12.123L7.83134 16.4563C7.88137 16.4846 7.93787 16.4994 7.99534 16.4994C8.05281 16.4994 8.1093 16.4846 8.15934 16.4563L15.826 12.123C15.8776 12.094 15.9206 12.0518 15.9505 12.0007C15.9804 11.9496 15.9962 11.8915 15.9962 11.8323C15.9962 11.7731 15.9804 11.715 15.9505 11.6639C15.9206 11.6128 15.8776 11.5706 15.826 11.5416L15.8307 11.5423Z" fill="#464774"/>
<path d="M15.8307 8.2093L14.7507 7.5993L8.81734 10.9513C8.56725 11.0926 8.2849 11.1668 7.99767 11.1668C7.71045 11.1668 7.4281 11.0926 7.17801 10.9513L1.24467 7.59863L0.164672 8.20863C0.113054 8.23761 0.070083 8.27981 0.0401766 8.33089C0.0102702 8.38198 -0.00549316 8.4401 -0.00549316 8.4993C-0.00549316 8.55849 0.0102702 8.61662 0.0401766 8.66771C0.070083 8.71879 0.113054 8.76099 0.164672 8.78997L7.83134 13.1233C7.88137 13.1516 7.93787 13.1664 7.99534 13.1664C8.05281 13.1664 8.1093 13.1516 8.15934 13.1233L15.826 8.78997C15.8776 8.76099 15.9206 8.71879 15.9505 8.66771C15.9804 8.61662 15.9962 8.55849 15.9962 8.4993C15.9962 8.4401 15.9804 8.38198 15.9505 8.33089C15.9206 8.27981 15.8776 8.23761 15.826 8.20863L15.8307 8.2093Z" fill="#464774"/>
<path d="M15.8306 4.87579L8.16398 0.542453C8.1138 0.51461 8.05736 0.5 7.99998 0.5C7.94259 0.5 7.88615 0.51461 7.83598 0.542453L0.16931 4.87579C0.117692 4.90476 0.0747217 4.94696 0.0448153 4.99805C0.0149089 5.04913 -0.000854492 5.10726 -0.000854492 5.16645C-0.000854492 5.22565 0.0149089 5.28377 0.0448153 5.33486C0.0747217 5.38594 0.117692 5.42814 0.16931 5.45712L7.83598 9.79045C7.88601 9.81873 7.94251 9.83359 7.99998 9.83359C8.05745 9.83359 8.11394 9.81873 8.16398 9.79045L15.8306 5.45712C15.8823 5.42814 15.9252 5.38594 15.9551 5.33486C15.985 5.28377 16.0008 5.22565 16.0008 5.16645C16.0008 5.10726 15.985 5.04913 15.9551 4.99805C15.9252 4.94696 15.8823 4.90476 15.8306 4.87579Z" fill="#464774"/>
</svg>
