<svg width="17" height="17" viewBox="0 0 17 17" fill="none" xmlns="http://www.w3.org/2000/svg">
<path d="M4.49996 1.1665H1.83329C1.4651 1.1665 1.16663 1.46498 1.16663 1.83317V4.49984C1.16663 4.86803 1.4651 5.1665 1.83329 5.1665H4.49996C4.86815 5.1665 5.16663 4.86803 5.16663 4.49984V1.83317C5.16663 1.46498 4.86815 1.1665 4.49996 1.1665Z" fill="#464774"/>
<path d="M4.49996 6.5H1.83329C1.4651 6.5 1.16663 6.79848 1.16663 7.16667V9.83333C1.16663 10.2015 1.4651 10.5 1.83329 10.5H4.49996C4.86815 10.5 5.16663 10.2015 5.16663 9.83333V7.16667C5.16663 6.79848 4.86815 6.5 4.49996 6.5Z" fill="#464774"/>
<path d="M4.49996 11.833H1.83329C1.4651 11.833 1.16663 12.1315 1.16663 12.4997V15.1663C1.16663 15.5345 1.4651 15.833 1.83329 15.833H4.49996C4.86815 15.833 5.16663 15.5345 5.16663 15.1663V12.4997C5.16663 12.1315 4.86815 11.833 4.49996 11.833Z" fill="#464774"/>
<path d="M9.83333 1.1665H7.16667C6.79848 1.1665 6.5 1.46498 6.5 1.83317V4.49984C6.5 4.86803 6.79848 5.1665 7.16667 5.1665H9.83333C10.2015 5.1665 10.5 4.86803 10.5 4.49984V1.83317C10.5 1.46498 10.2015 1.1665 9.83333 1.1665Z" fill="#464774"/>
<path d="M9.83333 6.5H7.16667C6.79848 6.5 6.5 6.79848 6.5 7.16667V9.83333C6.5 10.2015 6.79848 10.5 7.16667 10.5H9.83333C10.2015 10.5 10.5 10.2015 10.5 9.83333V7.16667C10.5 6.79848 10.2015 6.5 9.83333 6.5Z" fill="#464774"/>
<path d="M9.83333 11.833H7.16667C6.79848 11.833 6.5 12.1315 6.5 12.4997V15.1663C6.5 15.5345 6.79848 15.833 7.16667 15.833H9.83333C10.2015 15.833 10.5 15.5345 10.5 15.1663V12.4997C10.5 12.1315 10.2015 11.833 9.83333 11.833Z" fill="#464774"/>
<path d="M15.1666 1.1665H12.4999C12.1317 1.1665 11.8333 1.46498 11.8333 1.83317V4.49984C11.8333 4.86803 12.1317 5.1665 12.4999 5.1665H15.1666C15.5348 5.1665 15.8333 4.86803 15.8333 4.49984V1.83317C15.8333 1.46498 15.5348 1.1665 15.1666 1.1665Z" fill="#464774"/>
<path d="M15.1666 6.5H12.4999C12.1317 6.5 11.8333 6.79848 11.8333 7.16667V9.83333C11.8333 10.2015 12.1317 10.5 12.4999 10.5H15.1666C15.5348 10.5 15.8333 10.2015 15.8333 9.83333V7.16667C15.8333 6.79848 15.5348 6.5 15.1666 6.5Z" fill="#464774"/>
<path d="M15.1666 11.833H12.4999C12.1317 11.833 11.8333 12.1315 11.8333 12.4997V15.1663C11.8333 15.5345 12.1317 15.833 12.4999 15.833H15.1666C15.5348 15.833 15.8333 15.5345 15.8333 15.1663V12.4997C15.8333 12.1315 15.5348 11.833 15.1666 11.833Z" fill="#464774"/>
</svg>
