<svg width="16" height="17" viewBox="0 0 16 17" fill="none" xmlns="http://www.w3.org/2000/svg">
<path d="M13.1293 16.5002H2.87066C2.58405 16.5002 2.3008 16.4386 2.04007 16.3196C1.77934 16.2006 1.54723 16.027 1.35947 15.8104C1.17171 15.5939 1.03267 15.3396 0.951787 15.0646C0.870901 14.7897 0.850053 14.5005 0.890655 14.2168L2.00665 6.4055C2.02944 6.2467 2.10871 6.10144 2.22995 5.99637C2.35118 5.8913 2.50623 5.83347 2.66665 5.8335H13.3333C13.4937 5.83347 13.6488 5.8913 13.77 5.99637C13.8913 6.10144 13.9705 6.2467 13.9933 6.4055L15.1093 14.2168C15.1499 14.5005 15.1291 14.7897 15.0482 15.0646C14.9673 15.3396 14.8283 15.5939 14.6405 15.8104C14.4527 16.027 14.2206 16.2006 13.9599 16.3196C13.6992 16.4386 13.4159 16.5002 13.1293 16.5002Z" fill="#464774"/>
<path d="M5.99996 4.5V3.83333C5.99996 3.3029 6.21067 2.79419 6.58575 2.41912C6.96082 2.04405 7.46953 1.83333 7.99996 1.83333C8.53039 1.83333 9.0391 2.04405 9.41417 2.41912C9.78925 2.79419 9.99996 3.3029 9.99996 3.83333V4.5H11.3333V3.83333C11.3333 2.94928 10.9821 2.10143 10.357 1.47631C9.73186 0.851189 8.88401 0.5 7.99996 0.5C7.1159 0.5 6.26806 0.851189 5.64294 1.47631C5.01782 2.10143 4.66663 2.94928 4.66663 3.83333V4.5H5.99996Z" fill="#464774"/>
</svg>
