<svg width="16" height="17" viewBox="0 0 16 17" fill="none" xmlns="http://www.w3.org/2000/svg">
<g clip-path="url(#clip0_3384_14377)">
<path d="M14 2.49984H2V1.83317C2 1.65636 2.07024 1.48679 2.19526 1.36177C2.32029 1.23674 2.48986 1.1665 2.66667 1.1665H13.3333C13.5101 1.1665 13.6797 1.23674 13.8047 1.36177C13.9298 1.48679 14 1.65636 14 1.83317V2.49984Z" fill="#464774"/>
<path d="M15.3333 3.83301H0.666667C0.489856 3.83301 0.320286 3.90325 0.195262 4.02827C0.0702379 4.15329 0 4.32286 0 4.49967L0 15.1663C0 15.3432 0.0702379 15.5127 0.195262 15.6377C0.320286 15.7628 0.489856 15.833 0.666667 15.833H15.3333C15.5101 15.833 15.6797 15.7628 15.8047 15.6377C15.9298 15.5127 16 15.3432 16 15.1663V4.49967C16 4.32286 15.9298 4.15329 15.8047 4.02827C15.6797 3.90325 15.5101 3.83301 15.3333 3.83301ZM6.66667 12.4997V7.16634L10.6667 9.83301L6.66667 12.4997Z" fill="#464774"/>
</g>
<defs>
<clipPath id="clip0_3384_14377">
<rect width="16" height="16" fill="white" transform="translate(0 0.5)"/>
</clipPath>
</defs>
</svg>
