<svg width="107" height="18" viewBox="0 0 107 18" fill="none" xmlns="http://www.w3.org/2000/svg">
<path d="M0.000672399 8.76985C0.000672399 8.7483 0.000672399 8.72678 0.000672399 8.70609V1.687C0.000672399 1.67493 0.000672399 1.66287 0.000672399 1.6508C-0.00363695 1.61288 0.0127374 1.59747 0.0506596 1.60178C0.0621359 1.60262 0.0736589 1.60262 0.0851352 1.60178H9.89579C9.98801 1.60178 9.98198 1.58807 9.98198 1.68805V17.5809C9.91044 17.5662 9.84666 17.5602 9.7872 17.5421C9.54678 17.46 9.32014 17.342 9.11494 17.1922C8.60247 16.8301 8.11868 16.4289 7.66786 15.9924C6.73237 15.106 5.84836 14.1668 5.02019 13.1794C5.00899 13.1656 4.99693 13.1526 4.98141 13.1354L4.94435 13.1758C4.18085 14.0937 3.36837 14.9697 2.51044 15.8001C2.04714 16.2557 1.55391 16.6799 1.03405 17.0698C0.833714 17.2204 0.619931 17.3523 0.395408 17.4637C0.287701 17.5195 0.171005 17.556 0.0506596 17.5714H0.00239519C0.00239519 17.5481 0.00239519 17.53 0.00239519 17.5102V8.82519C0.00239519 8.80623 0.00239519 8.78629 0.00239519 8.76732C0.0282513 8.76732 0.0541107 8.77427 0.0799668 8.77427C0.782677 8.77427 1.4851 8.77427 2.18724 8.77427C2.23378 8.77427 2.24929 8.78639 2.24757 8.83466C2.24326 8.99497 2.24239 9.15602 2.24067 9.31546L2.20878 12.7095V12.7613L2.22946 12.7732C2.23857 12.7559 2.24924 12.7396 2.26136 12.7242C3.19669 11.765 4.08186 10.7582 4.91333 9.70768C4.9215 9.69393 4.9331 9.68256 4.947 9.67464C4.9609 9.66673 4.97662 9.66244 4.99262 9.66244C5.00861 9.66244 5.02434 9.66673 5.03824 9.67464C5.05214 9.68256 5.06374 9.69393 5.07191 9.70768C5.44769 10.1636 5.82001 10.6229 6.20096 11.0745C6.6836 11.6468 7.19211 12.195 7.71871 12.7267C7.73164 12.7397 7.74543 12.7509 7.76697 12.7707C7.76697 12.738 7.76697 12.7181 7.76697 12.6992C7.7618 12.3142 7.75692 11.9292 7.75232 11.5442C7.74198 10.6473 7.73164 9.74998 7.72129 8.85191C7.72129 8.77176 7.70751 8.77511 7.80059 8.77511H9.90786C9.92768 8.77511 9.9475 8.77511 9.96733 8.77511L9.97767 8.75617C9.96024 8.74738 9.94402 8.7363 9.9294 8.72335C9.60362 8.3898 9.27352 8.05967 8.95377 7.71924C7.62649 6.30462 6.36672 4.83226 5.17447 3.30216C5.15308 3.26748 5.12203 3.23992 5.08514 3.22262C5.04825 3.20532 5.0071 3.19921 4.96676 3.20495C4.95163 3.20517 4.93673 3.20876 4.92317 3.21547C4.9096 3.22218 4.89769 3.23177 4.88833 3.24366C4.27985 4.02107 3.6527 4.78284 3.00687 5.52921C2.05881 6.62896 1.07973 7.70296 0.051521 8.72945C0.0334218 8.74324 0.0170479 8.7552 0.000672399 8.76985Z" fill="#BDB39A"/>
<path d="M32.4612 1.59961V17.5804H28.3061L28.3923 10.314C26.6058 12.1014 24.92 13.9866 23.3426 15.961H23.1504C21.5862 13.982 19.9073 12.0965 18.1223 10.314L18.2085 17.5804H14.0319V1.59961C15.5832 1.59961 19.9977 5.83992 23.2582 9.67437C26.4953 5.83992 30.9279 1.59961 32.4612 1.59961Z" fill="white"/>
<path d="M45.5211 17.7106C44.3575 17.7157 43.2074 17.461 42.1547 16.9651C41.0422 17.5168 39.8162 17.8009 38.5745 17.795C35.9328 17.795 34.4375 16.4531 34.4375 14.0235C34.4375 11.6163 36.1423 10.2734 39.2105 10.2734C39.9829 10.2802 40.7479 10.4248 41.4695 10.7002V10.4235C41.4695 9.42196 40.7024 8.84617 39.401 8.84617C38.0359 8.86547 36.6772 9.03718 35.3502 9.35811V6.41753C36.9271 5.91418 38.5751 5.66961 40.2301 5.69349C43.5544 5.69349 45.5142 7.31382 45.5142 10.083L45.5211 17.7106ZM40.2586 14.9405C40.6743 14.935 41.0858 14.8557 41.4738 14.7061V13.1082C41.0877 12.9491 40.676 12.8614 40.2586 12.8496C39.1933 12.8496 38.621 13.2107 38.621 13.9355C38.6176 14.6207 39.1924 14.938 40.2577 14.938L40.2586 14.9405Z" fill="white"/>
<path d="M59.8385 10.4023V17.5832H55.7877V10.7211C55.7877 9.42139 55.1697 8.84564 53.8916 8.84564C53.2172 8.8501 52.5585 9.05006 51.9955 9.42134V17.5832H47.9447V5.77565C49.2569 5.73977 50.5538 6.0642 51.6947 6.71348C52.8828 6.076 54.2037 5.72562 55.5516 5.69043C58.2621 5.69215 59.8385 7.09531 59.8385 10.4023Z" fill="white"/>
<path d="M72.1736 14.7251V17.5779H61.6045C61.6045 16.0645 64.5659 11.7395 66.2491 8.75659H61.689V5.90039H72.0633C72.0633 7.39229 69.101 11.7396 67.4178 14.7226L72.1736 14.7251Z" fill="white"/>
<path d="M73.812 2.30314C73.7999 1.99765 73.8513 1.69292 73.9627 1.40824C74.0742 1.12355 74.2433 0.864981 74.4596 0.648841C74.6758 0.432702 74.9344 0.2636 75.2191 0.152257C75.5038 0.0409138 75.8085 -0.010319 76.114 0.00180842C76.4205 -0.0105344 76.7262 0.0404093 77.0121 0.151415C77.298 0.262421 77.558 0.431256 77.7758 0.647158C77.9937 0.86306 78.1647 1.12143 78.2783 1.40634C78.3918 1.69125 78.4455 1.99658 78.4359 2.30314C78.4455 2.6097 78.3918 2.91482 78.2783 3.19973C78.1647 3.48464 77.9937 3.74322 77.7758 3.95912C77.558 4.17503 77.298 4.34365 77.0121 4.45466C76.7262 4.56566 76.4205 4.61661 76.114 4.60426C75.8085 4.61639 75.5038 4.56516 75.2191 4.45381C74.9344 4.34247 74.6758 4.17337 74.4596 3.95723C74.2433 3.74109 74.0742 3.48273 73.9627 3.19805C73.8513 2.91336 73.7999 2.60863 73.812 2.30314ZM78.117 5.90401V17.5815H74.0662V5.90401H78.117Z" fill="white"/>
<path d="M80.675 1.85583L84.7258 0.683594V17.5805H80.675V1.85583Z" fill="white"/>
<path d="M87.0219 2.30314C87.01 1.99769 87.0614 1.69308 87.1729 1.40845C87.2844 1.12382 87.4536 0.865375 87.6698 0.649262C87.8859 0.43315 88.1445 0.264066 88.4291 0.152678C88.7138 0.0412887 89.0185 -0.0101889 89.3239 0.00180842C89.6304 -0.0105344 89.9361 0.0404093 90.222 0.151415C90.5079 0.262421 90.7679 0.431256 90.9857 0.647158C91.2036 0.86306 91.3746 1.12143 91.4882 1.40634C91.6017 1.69125 91.6554 1.99658 91.6458 2.30314C91.6554 2.6097 91.6017 2.91482 91.4882 3.19973C91.3746 3.48464 91.2036 3.74322 90.9857 3.95912C90.7679 4.17503 90.5079 4.34365 90.222 4.45466C89.9361 4.56566 89.6304 4.61661 89.3239 4.60426C89.0184 4.61639 88.7137 4.56516 88.429 4.45381C88.1443 4.34247 87.8857 4.17337 87.6695 3.95723C87.4532 3.74109 87.2841 3.48273 87.1726 3.19805C87.0612 2.91336 87.0098 2.60863 87.0219 2.30314ZM91.3269 5.90401V17.5815H87.2761V5.90401H91.3269Z" fill="white"/>
<path d="M101.404 17.5805C100.4 15.7559 99.2373 14.0231 97.9296 12.4024V17.5805H93.8788V1.85583L97.9296 0.683594V10.5278C99.1284 9.06833 100.218 7.52288 101.191 5.90383H105.879C104.601 7.82841 103.213 9.67833 101.724 11.4441C103.38 13.3343 104.837 15.3907 106.071 17.5805H101.404Z" fill="white"/>
</svg>
