<svg id="logo-instagram" xmlns="http://www.w3.org/2000/svg" width="21.563" height="21.56" viewBox="0 0 21.563 21.56">
  <path id="Path_5129" data-name="Path 5129" d="M10.78,1.942c2.878,0,3.219.012,4.357.063a5.955,5.955,0,0,1,2,.372,3.331,3.331,0,0,1,1.24.809,3.331,3.331,0,0,1,.809,1.24,5.955,5.955,0,0,1,.372,2c.051,1.137.063,1.482.063,4.357s-.012,3.219-.063,4.357a5.955,5.955,0,0,1-.372,2,3.563,3.563,0,0,1-2.046,2.046,5.955,5.955,0,0,1-2,.372c-1.137.051-1.482.063-4.357.063s-3.219-.012-4.357-.063a5.955,5.955,0,0,1-2-.372,3.331,3.331,0,0,1-1.24-.809,3.331,3.331,0,0,1-.809-1.24,5.955,5.955,0,0,1-.372-2C1.954,14,1.942,13.654,1.942,10.78s.012-3.219.063-4.357a5.955,5.955,0,0,1,.372-2,3.331,3.331,0,0,1,.809-1.24,3.331,3.331,0,0,1,1.24-.809,5.955,5.955,0,0,1,2-.372c1.137-.051,1.482-.063,4.357-.063M10.78,0C7.852,0,7.485.012,6.333.065a7.907,7.907,0,0,0-2.614.5A5.266,5.266,0,0,0,1.81,1.81,5.266,5.266,0,0,0,.566,3.719a7.907,7.907,0,0,0-.5,2.614C.012,7.485,0,7.852,0,10.78s.012,3.295.065,4.447a7.907,7.907,0,0,0,.5,2.614A5.266,5.266,0,0,0,1.81,19.751a5.266,5.266,0,0,0,1.909,1.244,7.907,7.907,0,0,0,2.617.5c1.149.053,1.516.065,4.444.065s3.295-.012,4.447-.065a7.907,7.907,0,0,0,2.617-.5A5.517,5.517,0,0,0,21,17.841a7.907,7.907,0,0,0,.5-2.617c.053-1.149.065-1.516.065-4.447s-.012-3.295-.065-4.447a7.907,7.907,0,0,0-.5-2.611A5.266,5.266,0,0,0,19.751,1.81,5.266,5.266,0,0,0,17.841.566a7.907,7.907,0,0,0-2.614-.5C14.075.012,13.708,0,10.78,0Z" fill="#464774"/>
  <path id="Path_5130" data-name="Path 5130" d="M9.428,3.892a5.536,5.536,0,1,0,5.536,5.536A5.536,5.536,0,0,0,9.428,3.892Zm0,9.129a3.594,3.594,0,1,1,3.594-3.594A3.594,3.594,0,0,1,9.428,13.021Z" transform="translate(1.353 1.353)" fill="#464774"/>
  <ellipse id="Ellipse_223" data-name="Ellipse 223" cx="1.294" cy="1.294" rx="1.294" ry="1.294" transform="translate(15.24 3.733)" fill="#464774"/>
</svg>
