<svg id="logo-youtube" xmlns="http://www.w3.org/2000/svg" width="21.56" height="16.17" viewBox="0 0 21.56 16.17">
  <path id="Path_5131" data-name="Path 5131" d="M21.291,5.773c-.27-1.752-1.078-2.965-2.965-3.234a53.092,53.092,0,0,0-15.092,0A3.228,3.228,0,0,0,.27,5.773a34.631,34.631,0,0,0,0,8.624c.27,1.752,1.078,2.965,2.965,3.234a53.365,53.365,0,0,0,7.546.539,53.365,53.365,0,0,0,7.546-.539A3.445,3.445,0,0,0,21.291,14.4a35.338,35.338,0,0,0,.27-4.312A35.338,35.338,0,0,0,21.291,5.773ZM8.085,14.128V6.043l6.738,4.043Z" transform="translate(0 -2)" fill="#464774"/>
</svg>
