<svg id="logo-twitter" xmlns="http://www.w3.org/2000/svg" width="21.56" height="17.518" viewBox="0 0 21.56 17.518">
  <path id="Path_5128" data-name="Path 5128" d="M21.56,3.521A7.975,7.975,0,0,1,19,4.2,3.81,3.81,0,0,0,20.887,1.77a8.841,8.841,0,0,1-2.83,1.078A4.705,4.705,0,0,0,14.823,1.5a4.461,4.461,0,0,0-4.312,4.447,2,2,0,0,0,.135.943A12.4,12.4,0,0,1,1.482,2.309,4.129,4.129,0,0,0,.943,4.6,4.422,4.422,0,0,0,2.965,8.238,5.647,5.647,0,0,1,.943,7.7h0a4.35,4.35,0,0,0,3.5,4.312,3.731,3.731,0,0,1-1.213.135,1.709,1.709,0,0,1-.809-.135A4.366,4.366,0,0,0,6.6,15.11,8.569,8.569,0,0,1,1.078,17H0a13.147,13.147,0,0,0,6.738,2.021A12.473,12.473,0,0,0,19.269,6.486V5.947A7.834,7.834,0,0,0,21.56,3.521Z" transform="translate(0 -1.5)" fill="#464774"/>
</svg>
