<svg xmlns="http://www.w3.org/2000/svg" width="24" height="24" viewBox="0 0 24 24">
  <g id="Group_1637" data-name="Group 1637" transform="translate(-67 -9)">
    <g id="Group_1608" data-name="Group 1608" transform="translate(67 9)">
      <rect id="Rectangle_562" data-name="Rectangle 562" width="24" height="24" fill="#fff" opacity="0"/>
      <g id="apple-black-logo" transform="translate(2.003 1)">
        <g id="Group_1608-2" data-name="Group 1608">
          <path id="Path_826" data-name="Path 826" d="M61.788,128.266c-.624-3.141,2.358-4.984,2.358-4.984a5.7,5.7,0,0,0-3.114-2.113,5.428,5.428,0,0,0-3.9.514,4.347,4.347,0,0,1-1.463.407c-1.408,0-2.437-1.491-5.12-.812a6.326,6.326,0,0,0-4.145,5.146,13.957,13.957,0,0,0,1.87,8.317c1.463,2.521,2.952,3.469,4.01,3.5s2.113-.758,3.386-.948,2.058.462,3.307.813,1.681.025,3.114-1.194,2.738-4.716,2.738-4.716A5.05,5.05,0,0,1,61.788,128.266Z" transform="translate(-46.315 -115.547)" fill="#fff"/>
          <path id="Path_827" data-name="Path 827" d="M255.37,3.59A4.3,4.3,0,0,0,256.285,0a6.623,6.623,0,0,0-3.243,1.694,4.881,4.881,0,0,0-1.085,3.494A6.11,6.11,0,0,0,255.37,3.59Z" transform="translate(-242.661)" fill="#fff"/>
        </g>
      </g>
    </g>
  </g>
</svg>
