<svg width="89" height="29" viewBox="0 0 89 29" fill="none" xmlns="http://www.w3.org/2000/svg">
<path d="M88.588 25.0617C88.5881 26.1002 88.1757 27.0962 87.4415 27.8306C86.7073 28.5651 85.7114 28.9778 84.6729 28.9781H3.91597C2.87735 28.978 1.88131 28.5653 1.14693 27.8308C0.412561 27.0963 -7.63178e-09 26.1003 0 25.0617V3.91597C0.000125891 2.87742 0.412741 1.88146 1.1471 1.1471C1.88146 0.412741 2.87743 0.000125891 3.91597 0H84.6729C85.7113 0.000251798 86.7071 0.412944 87.4413 1.1473C88.1755 1.88166 88.588 2.87755 88.588 3.91597V25.0617Z" fill="black"/>
<path d="M23.1016 19.1582C22.7476 20.005 22.3132 20.8158 21.8045 21.5796C20.9617 22.8615 19.7743 24.4596 18.3034 24.4729C16.9959 24.4848 16.6602 23.6216 14.885 23.6316C13.1098 23.6416 12.7405 24.4862 11.4325 24.4762C9.96064 24.4624 8.83589 23.0201 7.99364 21.7377C5.63779 18.1512 5.39137 13.9423 6.84419 11.7047C7.28355 10.9735 7.89562 10.3612 8.62671 9.9217C9.3578 9.48215 10.1856 9.22869 11.0374 9.18359C12.5971 9.18359 13.5775 10.0382 14.8665 10.0382C16.1171 10.0382 16.8796 9.18359 18.6823 9.18359C19.4314 9.21772 20.1637 9.41699 20.8268 9.76713C21.4899 10.1173 22.0674 10.6096 22.5181 11.209C19.1476 13.0559 19.6936 17.8711 23.1016 19.1582Z" fill="white"/>
<path d="M17.3157 7.7496C17.6848 7.30081 17.9608 6.78303 18.1277 6.22645C18.2945 5.66987 18.3489 5.08562 18.2876 4.50781C17.0989 4.64903 16.0079 5.23573 15.2348 6.1496C14.8556 6.577 14.5708 7.07959 14.399 7.62453C14.2272 8.16947 14.1722 8.7445 14.2377 9.3121C14.835 9.29862 15.4216 9.15122 15.9544 8.88079C16.4871 8.61036 16.9523 8.22379 17.3157 7.7496Z" fill="white"/>
<path d="M30.279 11.6484L26.9043 21.5827H28.4497L29.4572 18.5323H32.7251L33.761 21.5827H35.3492L31.9597 11.6484H30.279ZM31.08 13.2817C31.1939 13.7251 31.3174 14.1838 31.475 14.6832L32.3847 17.3173H29.7962L30.693 14.6661C30.8293 14.2365 30.9589 13.7721 31.08 13.2817Z" fill="white"/>
<path d="M39.7169 14.2253C39.255 14.2053 38.7953 14.2994 38.3785 14.4994C37.9617 14.6994 37.6007 14.9991 37.3273 15.3719L37.2675 14.3839H35.8906L35.8987 14.5102C35.9391 15.1274 35.9561 15.8035 35.9561 16.7758V24.4331H37.4593V20.8599C37.7163 21.1485 38.0335 21.3771 38.3886 21.5296C38.7437 21.6821 39.1279 21.7547 39.5141 21.7424C39.9401 21.7464 40.3624 21.6625 40.7545 21.4959C41.1466 21.3294 41.5002 21.0838 41.7931 20.7744C42.4883 19.9764 42.8485 18.9407 42.7986 17.8835C42.8328 16.9274 42.523 15.9908 41.9255 15.2437C41.6549 14.922 41.3166 14.664 40.9349 14.488C40.5531 14.312 40.1372 14.2223 39.7169 14.2253ZM39.3423 15.4697C40.6821 15.4697 41.2817 16.7108 41.2817 17.9385C41.2817 19.5248 40.5164 20.5104 39.2853 20.5104C38.8764 20.5103 38.4794 20.3727 38.1582 20.1197C37.837 19.8667 37.6102 19.513 37.5144 19.1155C37.4759 18.9562 37.458 18.7927 37.4612 18.6288V17.4201C37.4668 17.2954 37.4826 17.1714 37.5087 17.0493C37.5163 17.008 37.5243 16.9671 37.53 16.9272C37.6285 16.5182 37.8598 16.1532 38.1876 15.8895C38.5155 15.6258 38.9216 15.4781 39.3423 15.4697Z" fill="white"/>
<path d="M47.4557 14.2253C46.9939 14.2054 46.5343 14.2996 46.1175 14.4996C45.7007 14.6996 45.3396 14.9991 45.0662 15.3718L45.0064 14.3838H43.6338L43.6414 14.5101C43.6822 15.1273 43.6993 15.8034 43.6993 16.7758V24.433H45.2006V20.8598C45.4574 21.1484 45.7745 21.377 46.1294 21.5295C46.4843 21.682 46.8684 21.7546 47.2545 21.7424C47.6804 21.7461 48.1026 21.6621 48.4947 21.4956C48.8867 21.329 49.2403 21.0835 49.5334 20.7744C50.228 19.976 50.588 18.9405 50.5385 17.8834C50.5725 16.9273 50.2625 15.9908 49.6649 15.2437C49.3942 14.9219 49.0559 14.6638 48.674 14.4877C48.2922 14.3117 47.8762 14.2221 47.4557 14.2253ZM47.0816 15.4696C48.421 15.4696 49.0206 16.7107 49.0206 17.9385C49.0206 19.5247 48.2548 20.5104 47.0266 20.5104C46.6177 20.5103 46.2207 20.3726 45.8995 20.1196C45.5783 19.8666 45.3515 19.513 45.2556 19.1155C45.2172 18.9562 45.1993 18.7926 45.2024 18.6288V17.42C45.2078 17.2948 45.2237 17.1703 45.2499 17.0478C45.2575 17.007 45.2646 16.9666 45.2718 16.9272C45.3699 16.5184 45.6008 16.1536 45.9282 15.8899C46.2557 15.6262 46.6613 15.4784 47.0816 15.4696Z" fill="white"/>
<path d="M57.1522 15.8573C55.7492 15.3142 55.3005 14.8869 55.3005 14.0978C55.3005 13.4331 55.8285 12.7627 57.0097 12.7627C57.627 12.7482 58.2368 12.9012 58.774 13.2057L58.9012 13.2845L59.3252 12.0301L59.2412 11.9826C58.567 11.6307 57.8124 11.4615 57.0524 11.4917C55.1358 11.4917 53.7969 12.6231 53.7969 14.2431C53.7969 15.5492 54.6353 16.4622 56.4348 17.1164C57.7105 17.5912 58.1853 18.0816 58.1853 18.9206C58.1853 19.8701 57.4527 20.4565 56.2748 20.4565C55.5095 20.4572 54.7593 20.2444 54.1083 19.8421L53.9778 19.7586L53.5742 21.0405L53.6483 21.0879C54.4244 21.5211 55.2995 21.746 56.1884 21.7408C58.7716 21.7408 59.6875 20.1655 59.6875 18.8171C59.687 17.4255 58.953 16.5681 57.1522 15.8573Z" fill="white"/>
<path d="M62.3932 12.6719L60.919 13.1348V14.3834H59.8398V15.5846H60.919V19.2641C60.8566 19.942 61.0421 20.6194 61.4413 21.1709C61.6305 21.3621 61.8576 21.5116 62.1081 21.6097C62.3585 21.7078 62.6268 21.7524 62.8955 21.7406C63.2901 21.7459 63.6827 21.6853 64.0573 21.5611L64.1413 21.5312L64.0692 20.3276L63.9267 20.3718C63.6994 20.435 63.4636 20.4622 63.2279 20.4525C62.6453 20.4525 62.3965 20.0841 62.3965 19.2181V15.5818H64.2097V14.3806H62.3965L62.3932 12.6719Z" fill="white"/>
<path d="M67.9307 14.2241C65.8274 14.2241 64.3594 15.7938 64.3594 18.0399C64.3594 20.2192 65.7804 21.7408 67.8158 21.7408H67.8295C69.5501 21.7408 71.4008 20.5424 71.4008 17.9108C71.4355 16.9343 71.0925 15.9821 70.4432 15.252C70.1195 14.9145 69.7287 14.6487 69.2959 14.4717C68.8631 14.2946 68.398 14.2103 67.9307 14.2241ZM67.887 15.4111C69.2392 15.4111 69.8545 16.729 69.8545 17.9545C69.8545 19.4609 69.0146 20.5548 67.8604 20.5548H67.8433C66.7038 20.5548 65.8763 19.4795 65.8763 17.9981C65.8772 16.7101 66.4987 15.4106 67.8875 15.4106L67.887 15.4111Z" fill="white"/>
<path d="M76.0049 14.2929L75.9147 14.2701C75.7928 14.2381 75.6672 14.2222 75.5411 14.2227C75.146 14.2311 74.7609 14.3486 74.4283 14.5622C74.0958 14.7757 73.8287 15.0771 73.6567 15.4329L73.6125 14.3812H72.2637L72.2722 14.5075C72.3121 15.1024 72.3287 15.7704 72.3287 16.672L72.3149 21.5822H73.8181V17.7517C73.8172 17.5567 73.831 17.362 73.8594 17.1691C73.8947 16.7679 74.0745 16.3931 74.3654 16.1145C74.6563 15.8359 75.0385 15.6725 75.4409 15.6546C75.5756 15.6559 75.7102 15.6643 75.844 15.6797L76.0049 15.6964V14.2929Z" fill="white"/>
<path d="M79.3848 14.207C77.3841 14.207 75.9863 15.8056 75.9863 18.095C75.9863 20.2994 77.3765 21.7242 79.5286 21.7242C80.3452 21.7423 81.1564 21.5866 81.9082 21.2674L81.9989 21.2266L81.7103 20.1066L81.5849 20.1574C80.9873 20.3987 80.3461 20.5133 79.7019 20.494C79.4065 20.5174 79.1095 20.4776 78.8306 20.3774C78.5517 20.2771 78.2974 20.1187 78.0844 19.9125C77.8715 19.7064 77.7048 19.4574 77.5955 19.1819C77.4863 18.9064 77.4368 18.6108 77.4506 18.3148L82.3018 18.3295L82.3213 18.2346C82.3568 18.0275 82.3727 17.8175 82.3688 17.6074C82.3664 16.0392 81.5854 14.207 79.3848 14.207ZM79.2846 15.3503C79.4876 15.3412 79.6902 15.3739 79.88 15.4463C80.0698 15.5188 80.2427 15.6294 80.388 15.7714C80.7228 16.1606 80.9065 16.6572 80.9055 17.1706H77.4776C77.6172 16.3036 78.1603 15.3512 79.2846 15.3512V15.3503Z" fill="white"/>
<path d="M26.9037 4.86174C27.3816 4.79761 27.8631 4.76509 28.3452 4.7644C29.0966 4.70357 29.8456 4.90859 30.4613 5.34364C30.7091 5.54837 30.9056 5.80832 31.0349 6.10267C31.1641 6.39702 31.2227 6.71757 31.2057 7.03861C31.2186 7.3793 31.1581 7.71876 31.0283 8.03404C30.8986 8.34932 30.7026 8.63306 30.4537 8.86603C29.7863 9.3605 28.9644 9.60056 28.1358 9.54305C27.7236 9.5488 27.3114 9.5301 26.9014 9.48703L26.9037 4.86174ZM27.586 9.02648C27.8125 9.05186 28.0405 9.06123 28.2683 9.0545C29.7097 9.06115 30.4926 8.32904 30.4926 7.06043C30.5002 5.9371 29.8027 5.24677 28.3765 5.24677C28.1116 5.24318 27.847 5.26417 27.586 5.30945V9.02648Z" fill="white"/>
<path d="M33.6231 9.57705C33.3884 9.59149 33.1533 9.55694 32.9327 9.47559C32.7121 9.39424 32.5108 9.26785 32.3417 9.1045C32.1726 8.94115 32.0394 8.74441 31.9504 8.52676C31.8615 8.30911 31.8188 8.07533 31.8251 7.8403C31.8174 7.59699 31.8607 7.35475 31.9524 7.12923C32.044 6.90371 32.1819 6.69991 32.3572 6.53098C32.5325 6.36205 32.7413 6.23174 32.97 6.14847C33.1988 6.0652 33.4424 6.03082 33.6853 6.04753C33.9204 6.03017 34.1565 6.06244 34.3783 6.14224C34.6 6.22203 34.8026 6.34758 34.9727 6.51072C35.1428 6.67387 35.2768 6.87098 35.3658 7.08924C35.4548 7.3075 35.4969 7.54202 35.4894 7.77762C35.4972 8.02122 35.454 8.26377 35.3625 8.48967C35.271 8.71557 35.1332 8.91981 34.9581 9.08932C34.783 9.25882 34.5743 9.38981 34.3455 9.47389C34.1168 9.55796 33.8729 9.59326 33.6297 9.57751L33.6231 9.57705ZM33.6463 9.1165C33.8092 9.10892 33.9688 9.06827 34.1155 8.99702C34.2621 8.92577 34.3927 8.8254 34.4993 8.70205C34.6059 8.5787 34.6863 8.43494 34.7356 8.27952C34.7848 8.1241 34.8019 7.96029 34.7858 7.79805C34.7531 7.58153 34.6591 7.3789 34.5149 7.21411C34.3706 7.04932 34.1823 6.92927 33.972 6.86811C33.7618 6.80695 33.5384 6.80725 33.3283 6.86898C33.1182 6.93071 32.9302 7.05125 32.7864 7.21643C32.6426 7.3816 32.5492 7.58449 32.517 7.80109C32.4849 8.01769 32.5154 8.23897 32.605 8.43878C32.6945 8.6386 32.8395 8.8086 33.0226 8.92869C33.2057 9.04878 33.4193 9.11395 33.6383 9.1165H33.6463Z" fill="white"/>
<path d="M36.57 6.12205L37.0737 7.83127C37.1744 8.20777 37.2755 8.56384 37.3448 8.91233H37.3681C37.4536 8.57049 37.5775 8.20775 37.7004 7.83837L38.3129 6.12205H38.8864L39.468 7.80988C39.6072 8.20775 39.7159 8.56954 39.8004 8.91233H39.8236C39.8964 8.54181 39.9915 8.17603 40.1085 7.81701L40.6431 6.12205H41.3178L40.1123 9.49725H39.4923L38.9187 7.88586C38.7884 7.51989 38.6775 7.1473 38.5864 6.76965H38.5712C38.4812 7.15077 38.3672 7.5258 38.2298 7.8925L37.624 9.49725H37.0039L35.8721 6.12109L36.57 6.12205Z" fill="white"/>
<path d="M42.005 7.03901C42.005 6.6834 41.9974 6.40423 41.9736 6.12506H42.5776L42.616 6.67629H42.6317C42.7672 6.4741 42.9525 6.31014 43.1696 6.20015C43.3868 6.09015 43.6286 6.03783 43.8718 6.04815C44.0576 6.04051 44.2428 6.07336 44.4146 6.14445C44.5864 6.21554 44.7407 6.32317 44.8668 6.45985C44.9929 6.59653 45.0877 6.759 45.1447 6.93599C45.2017 7.11298 45.2195 7.30027 45.1969 7.48483V9.50073H44.5151V7.55415C44.5151 7.01005 44.2901 6.54997 43.6467 6.54997C43.4485 6.54897 43.2548 6.60857 43.0913 6.72074C42.9279 6.83291 42.8027 6.99232 42.7323 7.17764C42.6999 7.26907 42.6838 7.36551 42.6848 7.46252V9.49931H42.0031L42.005 7.03901Z" fill="white"/>
<path d="M46.3057 4.54688H46.9879V9.49977H46.3057V4.54688Z" fill="white"/>
<path d="M49.6475 9.57705C49.4128 9.59149 49.1777 9.55694 48.9571 9.47559C48.7365 9.39424 48.5352 9.26785 48.3661 9.1045C48.197 8.94115 48.0638 8.74441 47.9748 8.52676C47.8859 8.30911 47.8432 8.07533 47.8495 7.8403C47.8418 7.59699 47.8851 7.35475 47.9768 7.12923C48.0684 6.90371 48.2063 6.69991 48.3816 6.53098C48.5569 6.36205 48.7657 6.23174 48.9944 6.14847C49.2232 6.0652 49.4668 6.03082 49.7097 6.04753C49.9448 6.03017 50.1809 6.06244 50.4027 6.14224C50.6245 6.22203 50.827 6.34758 50.9971 6.51072C51.1673 6.67387 51.3012 6.87098 51.3902 7.08924C51.4792 7.3075 51.5213 7.54202 51.5138 7.77762C51.5216 8.02124 51.4783 8.2638 51.3867 8.4897C51.2951 8.7156 51.1574 8.91985 50.9822 9.08934C50.807 9.25884 50.5983 9.38981 50.3695 9.47389C50.1408 9.55796 49.8969 9.59326 49.6537 9.57751L49.6475 9.57705ZM49.6703 9.1165C49.8331 9.10892 49.9928 9.06827 50.1394 8.99702C50.286 8.92577 50.4166 8.8254 50.5232 8.70205C50.6298 8.5787 50.7102 8.43494 50.7595 8.27952C50.8087 8.1241 50.8258 7.96029 50.8098 7.79805C50.777 7.58151 50.683 7.37888 50.5387 7.21408C50.3945 7.04928 50.2061 6.9292 49.9959 6.86805C49.7856 6.80691 49.5622 6.80724 49.3521 6.86901C49.142 6.93077 48.9539 7.05138 48.8102 7.2166C48.6664 7.38182 48.573 7.58475 48.5409 7.80138C48.5088 8.01801 48.5394 8.2393 48.629 8.4391C48.7187 8.63891 48.8637 8.80888 49.0468 8.92892C49.23 9.04896 49.4437 9.11404 49.6627 9.1165H49.6703Z" fill="white"/>
<path d="M55.019 8.69144C55.0158 8.9615 55.034 9.2314 55.0736 9.49857H54.4611L54.399 9.07128H54.3762C54.235 9.23575 54.0585 9.36628 53.8599 9.45316C53.6613 9.54004 53.4457 9.58105 53.2291 9.57313C53.0891 9.59043 52.9471 9.57855 52.8119 9.5383C52.6767 9.49804 52.5513 9.43027 52.4435 9.33922C52.3358 9.24816 52.2481 9.13581 52.1859 9.00921C52.1236 8.88262 52.0883 8.74452 52.082 8.60361C52.082 7.78746 52.8892 7.34119 54.3372 7.34784V7.27803C54.3372 6.99886 54.2522 6.4899 53.4826 6.49655C53.1382 6.4922 52.7987 6.57884 52.4984 6.7477L52.3432 6.33606C52.7266 6.13861 53.1525 6.03807 53.5838 6.04315C54.7384 6.04315 55.0176 6.74772 55.0176 7.42428L55.019 8.69144ZM54.3543 7.7775C53.6103 7.76373 52.7652 7.88196 52.7652 8.53716C52.7623 8.61925 52.7771 8.70101 52.8087 8.77684C52.8403 8.85266 52.8879 8.92074 52.9483 8.97644C53.0087 9.03213 53.0804 9.07413 53.1586 9.09951C53.2367 9.12489 53.3194 9.13307 53.401 9.1235C53.594 9.13483 53.7859 9.0867 53.9508 8.9856C54.1157 8.88449 54.2456 8.73527 54.323 8.55805C54.3448 8.49536 54.3555 8.4293 54.3543 8.36291V7.7775Z" fill="white"/>
<path d="M59.3519 4.54734V8.63042C59.3519 8.93048 59.3605 9.27235 59.3828 9.50214H58.7708L58.739 8.91197H58.7233C58.5908 9.12682 58.4028 9.30197 58.1791 9.41895C57.9555 9.53592 57.7044 9.59042 57.4523 9.57667C57.2313 9.57774 57.0124 9.53329 56.8093 9.44607C56.6062 9.35885 56.4232 9.23074 56.2718 9.06973C56.1203 8.90872 56.0037 8.71823 55.9291 8.51016C55.8545 8.30209 55.8235 8.08091 55.8381 7.86035C55.8201 7.62868 55.8502 7.39578 55.9266 7.17633C56.003 6.95687 56.1241 6.7556 56.2821 6.58523C56.4401 6.41485 56.6317 6.27906 56.8448 6.18637C57.0579 6.09369 57.2878 6.04613 57.5202 6.0467C57.7365 6.02958 57.9536 6.06728 58.1515 6.15632C58.3493 6.24537 58.5215 6.38289 58.6521 6.55613H58.6673V4.54688L59.3519 4.54734ZM58.6701 7.4981C58.6715 7.40882 58.6611 7.31973 58.6393 7.23315C58.5769 7.02303 58.4462 6.83969 58.268 6.7121C58.0898 6.5845 57.8741 6.51995 57.6551 6.52861C56.9495 6.52861 56.5308 7.08646 56.5308 7.82616C56.5117 7.98324 56.526 8.14258 56.573 8.29369C56.6199 8.44481 56.6983 8.58426 56.8031 8.70287C56.9078 8.82147 57.0365 8.91652 57.1807 8.98178C57.3248 9.04704 57.4812 9.08102 57.6394 9.08147C57.8636 9.08695 58.0832 9.01805 58.2641 8.88552C58.445 8.75299 58.5769 8.5643 58.6393 8.3489C58.6619 8.26246 58.6723 8.1733 58.6701 8.08398V7.4981Z" fill="white"/>
<path d="M63.6543 9.57705C63.4197 9.59142 63.1846 9.5568 62.964 9.47542C62.7434 9.39404 62.5422 9.26769 62.3731 9.10436C62.204 8.94102 62.0708 8.74429 61.9818 8.52668C61.8928 8.30906 61.8501 8.07531 61.8563 7.8403C61.8487 7.59701 61.8921 7.35481 61.9838 7.12932C62.0754 6.90383 62.2134 6.70007 62.3886 6.53115C62.5639 6.36224 62.7726 6.23194 63.0013 6.14864C63.23 6.06534 63.4737 6.03089 63.7165 6.04753C63.9516 6.03017 64.1877 6.06244 64.4095 6.14224C64.6313 6.22203 64.8338 6.34758 65.004 6.51072C65.1741 6.67387 65.308 6.87098 65.397 7.08924C65.4861 7.3075 65.5282 7.54202 65.5207 7.77762C65.5284 8.0212 65.4851 8.26372 65.3936 8.48958C65.302 8.71545 65.1643 8.91966 64.9892 9.08914C64.814 9.25863 64.6054 9.38964 64.3767 9.47374C64.148 9.55784 63.9042 9.59319 63.661 9.57751L63.6543 9.57705ZM63.6776 9.1165C63.8404 9.10892 64.0001 9.06827 64.1467 8.99702C64.2933 8.92577 64.4239 8.8254 64.5306 8.70205C64.6372 8.5787 64.7175 8.43494 64.7668 8.27952C64.816 8.1241 64.8332 7.96029 64.8171 7.79805C64.7842 7.58167 64.6902 7.37918 64.546 7.21454C64.4018 7.0499 64.2135 6.92998 64.0033 6.86892C63.7931 6.80786 63.5699 6.80824 63.3599 6.86999C63.15 6.93174 62.962 7.0523 62.8184 7.21741C62.6747 7.38253 62.5814 7.5853 62.5492 7.80179C62.5171 8.01828 62.5477 8.23943 62.6372 8.43913C62.7268 8.63883 62.8716 8.80872 63.0546 8.92875C63.2376 9.04878 63.4511 9.11393 63.67 9.1165H63.6776Z" fill="white"/>
<path d="M66.3829 7.03901C66.3829 6.6834 66.3748 6.40423 66.3516 6.12506H66.9564L66.9954 6.67629H67.0106C67.1461 6.4741 67.3314 6.31014 67.5485 6.20015C67.7657 6.09015 68.0075 6.03783 68.2507 6.04815C68.4365 6.04044 68.6218 6.07324 68.7937 6.1443C68.9655 6.21537 69.1199 6.32295 69.246 6.45964C69.3721 6.59634 69.467 6.75885 69.524 6.93587C69.581 7.1129 69.5989 7.30023 69.5763 7.48483V9.50073H68.894V7.55415C68.894 7.01005 68.6694 6.54997 68.0256 6.54997C67.8275 6.54944 67.6339 6.60933 67.4707 6.72164C67.3075 6.83395 67.1824 6.99336 67.1122 7.17859C67.0798 7.27005 67.0637 7.36645 67.0647 7.46345V9.50027H66.3829V7.03901Z" fill="white"/>
<path d="M73.1505 5.31641V6.12354H74.1272V6.59069H73.1505V8.41148C73.1505 8.82976 73.2825 9.06714 73.6624 9.06714C73.7955 9.07207 73.9287 9.05803 74.0579 9.02538L74.0887 9.49254C73.8924 9.55058 73.6885 9.57891 73.4838 9.57657C73.214 9.59006 72.9497 9.49737 72.7475 9.31832C72.5473 9.06858 72.4527 8.75045 72.484 8.43191V6.59023H71.9023V6.12304H72.484V5.50204L73.1505 5.31641Z" fill="white"/>
<path d="M74.8945 4.54688H75.5763V6.65347H75.592C75.71 6.46545 75.8796 6.31531 76.0805 6.22094C76.2945 6.10479 76.5345 6.04484 76.7779 6.0467C76.9632 6.04115 77.1474 6.07582 77.3179 6.14832C77.4884 6.22083 77.6412 6.32945 77.7657 6.46668C77.8902 6.60391 77.9835 6.7665 78.0391 6.94325C78.0947 7.12 78.1114 7.30671 78.0879 7.49051V9.4993H77.4061V7.56029C77.4061 7.00907 77.181 6.55567 76.5377 6.55567C76.3413 6.55456 76.149 6.61249 75.9859 6.72195C75.8228 6.83141 75.6963 6.98733 75.6228 7.16954C75.5855 7.26247 75.5693 7.36253 75.5753 7.46248V9.4993H74.8936L74.8945 4.54688Z" fill="white"/>
<path d="M79.5829 7.91698C79.5776 8.08167 79.6079 8.24558 79.6718 8.39747C79.7357 8.54935 79.8317 8.68563 79.9531 8.79696C80.0746 8.90829 80.2188 8.99205 80.3756 9.04249C80.5325 9.09294 80.6984 9.10886 80.862 9.08921C81.2158 9.09849 81.5683 9.04167 81.9013 8.92163L82.0252 9.35415C81.6243 9.5059 81.198 9.57939 80.7694 9.57065C79.6219 9.57065 78.9244 8.87984 78.9244 7.86856C78.9091 7.62971 78.9439 7.39028 79.0264 7.16564C79.109 6.94099 79.2376 6.73607 79.4039 6.56399C79.5703 6.39191 79.7707 6.25647 79.9925 6.16635C80.2142 6.07623 80.4523 6.03344 80.6915 6.04067C80.9008 6.03089 81.1098 6.06572 81.3046 6.14285C81.4994 6.21998 81.6756 6.33766 81.8215 6.48807C81.9674 6.63847 82.0796 6.81816 82.1507 7.01524C82.2219 7.21232 82.2503 7.42227 82.2341 7.63117C82.2367 7.72934 82.229 7.82752 82.2113 7.92411L79.5829 7.91698ZM81.577 7.47735C81.5902 7.34819 81.5755 7.21772 81.5338 7.09475C81.4921 6.97179 81.4245 6.85922 81.3355 6.76466C81.2466 6.67011 81.1383 6.59578 81.0181 6.54672C80.8979 6.49766 80.7686 6.475 80.6389 6.4803C80.3711 6.48412 80.1147 6.58898 79.921 6.77388C79.7273 6.95878 79.6106 7.21006 79.5943 7.47735H81.577Z" fill="white"/>
</svg>
