<svg width="60" height="60" viewBox="0 0 60 60" fill="none" xmlns="http://www.w3.org/2000/svg">
<path d="M52.5881 20.2191C52.3577 19.727 51.9918 19.3109 51.5334 19.0194C51.0749 18.7279 50.5428 18.5731 49.9995 18.5733H37.4796L43.9824 5.56416C44.2 5.12865 44.3027 4.64476 44.2808 4.1584C44.2589 3.67204 44.1131 3.19934 43.8573 2.78516C43.6014 2.37098 43.2439 2.02905 42.8188 1.79183C42.3937 1.5546 41.915 1.42995 41.4281 1.42969H24.2854C23.7761 1.42967 23.276 1.56581 22.8369 1.82403C22.3979 2.08225 22.0358 2.45315 21.7883 2.89832L7.50269 28.6138C7.26084 29.0487 7.13678 29.5393 7.14279 30.0369C7.1488 30.5345 7.28467 31.022 7.53696 31.4509C7.78925 31.8799 8.1492 32.2355 8.58118 32.4826C9.01316 32.7297 9.50217 32.8597 9.99982 32.8597H23.5797L18.6397 55.0978C18.5014 55.7229 18.577 56.3763 18.8543 56.9532C19.1317 57.5302 19.5948 57.9973 20.1693 58.2797C20.7438 58.562 21.3965 58.6432 22.0227 58.5102C22.6489 58.3773 23.2123 58.0379 23.6226 57.5465L52.1938 23.2592C52.5415 22.8423 52.7633 22.3349 52.8331 21.7965C52.903 21.2581 52.8179 20.7109 52.5881 20.2191Z" fill="url(#paint0_linear_11874_19043)"/>
<defs>
<linearGradient id="paint0_linear_11874_19043" x1="12.9798" y1="11.553" x2="41.3068" y2="39.8785" gradientUnits="userSpaceOnUse">
<stop stop-color="#FFDD00"/>
<stop offset="1" stop-color="#FEB100"/>
</linearGradient>
</defs>
</svg>
