<svg width="90" height="29" viewBox="0 0 90 29" fill="none" xmlns="http://www.w3.org/2000/svg">
<path d="M89.1758 25.0616C89.176 26.1001 88.7636 27.0962 88.0294 27.8306C87.2952 28.5651 86.2993 28.9778 85.2608 28.9781H4.50386C3.46528 28.9778 2.46931 28.5651 1.73496 27.8307C1.00062 27.0963 0.588016 26.1002 0.587891 25.0616V3.91644C0.587891 2.87782 1.00045 1.88172 1.73482 1.14726C2.4692 0.412798 3.46524 0.000125909 4.50386 0H85.2608C86.2993 0.000251811 87.2952 0.413001 88.0294 1.14746C88.7636 1.88193 89.176 2.87795 89.1758 3.91644V25.0616Z" fill="#1A1818"/>
<mask id="mask0_11874_18988" style="mask-type:luminance" maskUnits="userSpaceOnUse" x="7" y="5" width="17" height="20">
<path d="M19.786 12.7542L15.7917 10.4477L8.08702 5.99904C7.65972 5.75216 7.23242 5.90172 7.23242 6.4178V24.5429C7.23242 24.9299 7.53722 25.0965 7.90898 24.8824L15.7903 20.3307L19.7846 18.0247L23.6241 15.8084C24.0747 15.5483 24.0315 15.1912 23.6512 14.9866C23.2709 14.782 19.786 12.7542 19.786 12.7542Z" fill="white"/>
</mask>
<g mask="url(#mask0_11874_18988)">
<path d="M7.23242 5.57812V25.2021L17.1278 15.3904L7.23242 5.57812Z" fill="url(#paint0_linear_11874_18988)"/>
<path d="M19.7856 12.7558L15.7913 10.4498L7.23242 5.50781V5.57904L17.1278 15.3913L19.7856 12.7558Z" fill="url(#paint1_linear_11874_18988)"/>
<path d="M7.23242 25.2024V25.2736L15.7913 20.3316L19.7856 18.0257L17.1268 15.3906L7.23242 25.2024Z" fill="url(#paint2_linear_11874_18988)"/>
<path d="M19.7857 12.7539L17.127 15.3894L19.7857 18.0244L24.3507 15.3889L19.7857 12.7539Z" fill="url(#paint3_linear_11874_18988)"/>
</g>
<path d="M69.5314 19.2275C69.1814 19.2319 68.8344 19.1618 68.5135 19.0219C68.2043 18.8831 67.9375 18.6649 67.7401 18.3895H67.6779C67.7182 18.7044 67.739 19.0216 67.7401 19.3391V21.6873H66.876V13.4162H67.5786L67.6983 14.1972H67.7401C67.9356 13.9079 68.2031 13.6746 68.5163 13.5202C68.835 13.3763 69.1818 13.3051 69.5314 13.3118C69.864 13.2935 70.1962 13.3543 70.5008 13.4892C70.8054 13.624 71.0737 13.8291 71.2838 14.0875C71.6892 14.743 71.9031 15.4989 71.9014 16.2696C71.8996 17.0404 71.6822 17.7952 71.2738 18.4489C71.0648 18.7061 70.7981 18.9107 70.4955 19.0459C70.1928 19.1812 69.8625 19.2434 69.5314 19.2275ZM69.4065 14.0462C69.1727 14.0246 68.937 14.057 68.7177 14.141C68.4984 14.225 68.3013 14.3582 68.1417 14.5305C67.843 14.9867 67.7021 15.5282 67.7405 16.0721V16.2649C67.6889 16.8666 67.8294 17.4691 68.1417 17.986C68.2999 18.1678 68.499 18.3095 68.7225 18.3996C68.9461 18.4896 69.1878 18.5254 69.4279 18.5039C69.6561 18.5113 69.8824 18.4602 70.0853 18.3554C70.2881 18.2506 70.4608 18.0956 70.5868 17.9052C70.8919 17.4107 71.0381 16.8346 71.0056 16.2544C71.0424 15.6781 70.8958 15.1048 70.5868 14.6169C70.453 14.4315 70.2751 14.2823 70.0692 14.1827C69.8634 14.0831 69.636 14.0362 69.4075 14.0462H69.4065Z" fill="#F9F9F9"/>
<path d="M73.9017 19.123H73.0371V11.0195H73.9017V19.123Z" fill="#F9F9F9"/>
<path d="M78.8721 19.1238L78.7002 18.3115H78.6584C78.4359 18.6175 78.144 18.8665 77.8067 19.0379C77.4707 19.1749 77.1096 19.2396 76.747 19.2278C76.2644 19.2558 75.7893 19.0995 75.4176 18.7906C75.2522 18.6302 75.1234 18.436 75.0402 18.2212C74.957 18.0064 74.9214 17.7761 74.9357 17.5462C74.9357 16.3937 75.8574 15.7896 77.7008 15.7339L78.6698 15.7026V15.3489C78.6989 14.994 78.596 14.6408 78.3807 14.3571C78.2582 14.241 78.1125 14.1524 77.9531 14.0972C77.7937 14.0419 77.6243 14.0213 77.4563 14.0366C76.8922 14.0596 76.3405 14.2092 75.8421 14.4743L75.5762 13.813C75.8685 13.6559 76.1789 13.5352 76.5006 13.4536C76.8295 13.3676 77.168 13.3239 77.508 13.3235C78.0512 13.2796 78.5911 13.4412 79.0207 13.7764C79.1995 13.9708 79.3357 14.2006 79.4204 14.4508C79.5051 14.701 79.5365 14.9662 79.5126 15.2292V19.1224L78.8721 19.1238ZM76.9193 18.5147C77.384 18.541 77.84 18.3819 78.1875 18.0722C78.3462 17.909 78.4692 17.7144 78.5486 17.501C78.628 17.2875 78.662 17.0599 78.6485 16.8326V16.3179L77.7839 16.354C77.2696 16.3377 76.7591 16.4479 76.2974 16.6749C76.1486 16.767 76.0278 16.8978 75.9476 17.0532C75.8674 17.2087 75.8309 17.383 75.8421 17.5576C75.8334 17.69 75.8545 17.8227 75.9037 17.9459C75.953 18.0692 76.0293 18.1798 76.1269 18.2697C76.3525 18.4449 76.6342 18.5319 76.9193 18.5147Z" fill="#F9F9F9"/>
<path d="M80.0137 13.418H80.94L82.1896 16.6726C82.396 17.1967 82.5665 17.7343 82.7 18.2816H82.7418C82.7867 18.1044 82.8817 17.8013 83.0266 17.3724C83.1716 16.9435 83.6429 15.6254 84.4405 13.418H85.3682L82.9155 19.9167C82.7512 20.4369 82.4582 20.9072 82.0638 21.2841C81.7267 21.5572 81.3028 21.7003 80.8692 21.6872C80.6062 21.6873 80.3441 21.6576 80.0877 21.5989V20.9067C80.2984 20.9503 80.5131 20.9713 80.7282 20.9693C81.0209 20.967 81.3044 20.8676 81.5344 20.6866C81.7644 20.5056 81.9277 20.2533 81.9987 19.9694L82.3164 19.1571L80.0137 13.418Z" fill="#F9F9F9"/>
<path d="M53.5189 13.9448C53.7769 14.1278 53.9881 14.3692 54.1354 14.6491C54.2826 14.9291 54.3618 15.2399 54.3664 15.5562C54.3664 16.4388 53.865 16.8575 53.3637 17.2511C53.2709 17.3205 53.1935 17.4083 53.1363 17.5091C53.0791 17.6098 53.0434 17.7213 53.0313 17.8365C53.0385 17.9406 53.0703 18.0415 53.1243 18.1308C53.1784 18.2201 53.2529 18.2952 53.3418 18.3498L53.7715 18.6821C54.2966 19.1241 54.7738 19.5301 54.7738 20.3538C54.7738 21.4757 53.6875 22.6095 51.6345 22.6095C49.9035 22.6095 49.0684 21.7862 49.0684 20.9003C49.0799 20.5981 49.1709 20.3044 49.3323 20.0487C49.4937 19.793 49.7197 19.5845 49.9875 19.4441C50.6948 19.0881 51.4747 18.9001 52.2665 18.8948C52.0518 18.6774 51.9243 18.3889 51.908 18.0839C51.9122 17.9214 51.9531 17.7621 52.0277 17.6177C51.8957 17.63 51.7646 17.6419 51.6455 17.6419C51.391 17.6546 51.1366 17.6156 50.8976 17.5273C50.6586 17.4391 50.4399 17.3033 50.2548 17.1282C50.0696 16.9532 49.9219 16.7424 49.8204 16.5087C49.7189 16.275 49.6658 16.0232 49.6642 15.7684C49.6703 15.4628 49.7416 15.162 49.8732 14.8862C50.0049 14.6104 50.1939 14.3658 50.4277 14.1689C51.04 13.7047 51.7968 13.4721 52.5642 13.5123H55.0226L54.2586 13.9419L53.5189 13.9448ZM52.671 19.2452C52.5801 19.2343 52.4885 19.2302 52.397 19.2329C51.9727 19.2402 51.5511 19.3041 51.1436 19.4228C50.863 19.4899 50.6114 19.6457 50.4264 19.8672C50.2414 20.0886 50.1328 20.3639 50.1167 20.652C50.1167 21.499 50.9409 22.1086 52.218 22.1086C53.3632 22.1086 53.9747 21.5583 53.9747 20.8191C53.9728 20.2109 53.5788 19.89 52.671 19.2452ZM53.0176 16.9772C53.2281 16.7374 53.3351 16.424 53.3153 16.1055C53.3153 15.2461 52.802 13.9096 51.8121 13.9096C51.6527 13.9117 51.4955 13.948 51.3513 14.0159C51.2071 14.0839 51.0791 14.182 50.976 14.3037C50.7896 14.5593 50.6969 14.8713 50.7135 15.1873C50.7135 15.9868 51.1792 17.3119 52.2062 17.3119C52.5091 17.304 52.7982 17.1839 53.0176 16.9748V16.9772Z" fill="#F9F9F9"/>
<path d="M46.0052 19.056C45.6279 19.0687 45.2519 19.0054 44.8996 18.8697C44.5473 18.7341 44.2259 18.5289 43.9546 18.2664C43.6832 18.0039 43.4675 17.6894 43.3203 17.3418C43.1731 16.9941 43.0974 16.6204 43.0977 16.2429C43.1049 15.8485 43.191 15.4595 43.3511 15.0989C43.5111 14.7383 43.7418 14.4135 44.0294 14.1435C44.3171 13.8735 44.6559 13.6639 45.0259 13.5271C45.3959 13.3903 45.7896 13.3289 46.1837 13.3468C46.5571 13.3383 46.9283 13.4051 47.2754 13.543C47.6224 13.6809 47.9382 13.8872 48.2039 14.1495C48.4697 14.4119 48.68 14.7251 48.8223 15.0703C48.9646 15.4156 49.036 15.7859 49.0324 16.1594C49.0307 16.5504 48.9502 16.937 48.7958 17.2963C48.6414 17.6555 48.4162 17.9799 48.1337 18.2503C47.8512 18.5206 47.5171 18.7313 47.1514 18.8697C46.7857 19.0081 46.3959 19.0715 46.0052 19.056ZM47.4946 18.0908C47.7547 17.7004 47.8804 17.2358 47.8526 16.7676C47.8526 15.7183 47.3522 13.7166 45.8742 13.7166C45.48 13.7205 45.1 13.8644 44.8021 14.1226C44.608 14.3087 44.458 14.5359 44.363 14.7875C44.2681 15.0392 44.2306 15.3088 44.2533 15.5768C44.2533 16.7557 44.8373 18.6975 46.2796 18.6975C46.5151 18.6972 46.7473 18.6422 46.958 18.5369C47.1687 18.4316 47.352 18.2789 47.4936 18.0908H47.4946Z" fill="#F9F9F9"/>
<path d="M39.5438 19.056C39.1664 19.0688 38.7904 19.0055 38.438 18.8699C38.0856 18.7342 37.7642 18.529 37.4928 18.2665C37.2214 18.004 37.0057 17.6896 36.8585 17.3419C36.7112 16.9942 36.6355 16.6205 36.6357 16.2429C36.643 15.8485 36.7291 15.4595 36.8892 15.0989C37.0492 14.7383 37.2798 14.4135 37.5675 14.1435C37.8552 13.8735 38.194 13.6639 38.564 13.5271C38.934 13.3903 39.3277 13.3289 39.7218 13.3468C40.0952 13.3383 40.4664 13.4051 40.8134 13.543C41.1605 13.6809 41.4763 13.8872 41.742 14.1495C42.0078 14.4119 42.218 14.7251 42.3604 15.0703C42.5027 15.4156 42.5741 15.7859 42.5705 16.1594C42.5687 16.5503 42.4883 16.9369 42.3339 17.2961C42.1795 17.6553 41.9544 17.9798 41.6719 18.2501C41.3895 18.5204 41.0555 18.7311 40.6898 18.8696C40.3242 19.008 39.9344 19.0714 39.5438 19.056ZM41.0336 18.0908C41.2934 17.7002 41.4189 17.2357 41.3911 16.7676C41.3911 15.7183 40.8902 13.7166 39.4122 13.7166C39.0179 13.7204 38.6377 13.8643 38.3397 14.1226C38.1457 14.3088 37.9958 14.536 37.9009 14.7876C37.806 15.0392 37.7686 15.3089 37.7914 15.5768C37.7914 16.7557 38.3749 18.6975 39.8177 18.6975C40.0536 18.6975 40.2863 18.6427 40.4973 18.5374C40.7084 18.4321 40.8922 18.2792 41.0341 18.0908H41.0336Z" fill="#F9F9F9"/>
<path d="M35.7257 18.8678L34.0122 19.2633C33.3597 19.3825 32.6988 19.4505 32.0357 19.4665C28.7284 19.4665 27.4707 17.0342 27.4707 15.1289C27.4707 12.8025 29.2559 10.6484 32.3134 10.6484C32.9329 10.6496 33.5493 10.7343 34.1461 10.9001C34.7153 11.0461 35.2518 11.2982 35.7276 11.6431L34.7305 12.5898L34.3113 12.6848L34.6109 12.2057C34.287 11.848 33.8911 11.5629 33.4493 11.3689C33.0075 11.1749 32.5296 11.0764 32.0471 11.08C30.1537 11.08 28.7279 12.5186 28.7279 14.6152C28.7098 15.1833 28.8061 15.7492 29.0111 16.2793C29.2162 16.8093 29.5258 17.2927 29.9215 17.7007C30.3172 18.1087 30.7909 18.4329 31.3145 18.654C31.838 18.8752 32.4008 18.9887 32.9691 18.9879C33.4923 19.0009 34.012 18.8986 34.4913 18.6883V16.7588L32.6823 16.8538L33.6405 16.3382H36.1805L35.8695 16.6378C35.8375 16.6594 35.8102 16.6874 35.7896 16.7201C35.7689 16.7528 35.7552 16.7894 35.7494 16.8277C35.7371 16.9359 35.7257 17.2835 35.7257 17.4031V18.8678Z" fill="#F9F9F9"/>
<path d="M57.3056 18.5238C56.9101 18.4877 56.827 18.4161 56.827 17.9484V11.1671C56.8294 11.1415 56.8312 11.1149 56.8336 11.0897C56.8811 10.6705 57.0012 10.5988 57.3735 10.3828H55.6595L54.7607 10.8144H55.6766V18.2124C55.6766 18.4498 55.6291 18.4877 55.3533 18.8471H57.4741L57.9171 18.5841C57.7139 18.5594 57.5097 18.5476 57.3056 18.5238Z" fill="#F9F9F9"/>
<path d="M62.1818 18.6356C62.0512 18.7073 61.9206 18.7908 61.7901 18.8497C61.4255 19.007 61.0314 19.084 60.6345 19.0757C60.0699 19.1011 59.5129 18.9377 59.0516 18.6114C58.666 18.3178 58.3553 17.9374 58.1445 17.501C57.9337 17.0647 57.8289 16.5848 57.8385 16.1003C57.8316 15.7394 57.8971 15.3809 58.0313 15.0458C58.1654 14.7108 58.3655 14.4061 58.6196 14.1498C58.8737 13.8935 59.1766 13.6908 59.5105 13.5537C59.8444 13.4166 60.2024 13.348 60.5633 13.3518C60.9951 13.3459 61.4199 13.461 61.7896 13.6841C62.2057 13.9574 62.5029 14.3781 62.6214 14.8616L59.8259 15.9925L58.9096 16.0637C59.2068 17.5749 60.23 18.4547 61.3609 18.4547C61.8717 18.439 62.3705 18.2962 62.8123 18.0393L62.1818 18.6356ZM61.0637 15.0895C61.2892 15.0064 61.4084 14.9347 61.4084 14.7685C61.37 14.4838 61.2292 14.2229 61.0123 14.0345C60.7954 13.8462 60.5172 13.7434 60.23 13.7454C59.7552 13.7454 58.8616 14.1143 58.8616 15.399C58.8616 15.6013 58.8854 15.8154 58.8977 16.03L61.0637 15.0895Z" fill="#F9F9F9"/>
<path d="M63.3293 13.4327V14.218H63.2343V13.4327H62.9746V13.3516H63.5895V13.4327H63.3293Z" fill="#F9F9F9"/>
<path d="M64.3994 14.218V13.4256H64.3951L64.153 14.218H64.0784L63.8344 13.4256H63.8316V14.218H63.7461V13.3516H63.8947L64.1155 14.0519H64.1183L64.3358 13.3516H64.4863V14.218H64.3994Z" fill="#F9F9F9"/>
<path d="M29.8509 8.31685H29.2555C29.2202 8.08018 29.1635 7.84723 29.086 7.62083H28.2267C28.1454 7.84644 28.0868 8.07959 28.052 8.31685H27.4922C27.4922 8.26842 27.637 7.87151 27.9266 7.1261C28.0999 6.72619 28.245 6.31466 28.361 5.89453H29.0642C29.1701 6.3068 29.3016 6.71209 29.4578 7.10806C29.6128 7.50279 29.7441 7.90644 29.8509 8.31685ZM28.9915 7.26569C28.8677 6.92528 28.7615 6.5787 28.6734 6.22735H28.6435C28.5512 6.57873 28.4414 6.92528 28.3145 7.26569H28.9915Z" fill="#F7F8F8"/>
<path d="M32.2504 8.31874H31.7908C31.6491 8.0324 31.4776 7.76187 31.279 7.51163C31.0284 7.19088 30.8231 6.83717 30.6689 6.46046H30.639C30.6686 6.70499 30.6845 6.951 30.6865 7.19732C30.6865 7.50371 30.6952 7.87705 30.7126 8.31732H30.2549C30.2736 7.93275 30.2829 7.51036 30.2829 7.05014C30.2829 6.59752 30.2736 6.21248 30.2549 5.89501H30.8075C30.9258 6.17614 31.0803 6.44061 31.2671 6.68171C31.4944 6.98794 31.6831 7.32107 31.8288 7.67353H31.8568C31.8288 7.42634 31.8139 7.17784 31.8122 6.92908C31.8122 6.59294 31.8035 6.24808 31.786 5.89453H32.2513C32.2339 6.20219 32.2252 6.58724 32.2252 7.04967C32.2252 7.51211 32.2336 7.93512 32.2504 8.31874Z" fill="#F7F8F8"/>
<path d="M34.9466 7.02272C34.9515 7.36169 34.8308 7.69047 34.6076 7.94568C34.4893 8.07868 34.3424 8.18323 34.178 8.25155C34.0136 8.31986 33.8359 8.35018 33.6581 8.34022C33.4745 8.34022 33.2213 8.33279 32.8984 8.31791C32.9146 7.94315 32.9226 7.52075 32.9226 7.05072C32.9226 6.59937 32.9146 6.21433 32.8984 5.8956H33.2241C33.2776 5.8956 33.3568 5.89368 33.4615 5.88989C33.5663 5.88609 33.6351 5.88419 33.6681 5.88419C33.8449 5.8679 34.0232 5.88936 34.1912 5.94715C34.3591 6.00493 34.5129 6.09772 34.6423 6.21938C34.843 6.43821 34.952 6.72582 34.9466 7.02272ZM34.4386 7.10296C34.4452 6.88353 34.3711 6.66932 34.2302 6.50093C34.1492 6.41525 34.0499 6.3488 33.9398 6.30649C33.8297 6.26418 33.7116 6.24707 33.594 6.25642C33.5205 6.25786 33.4471 6.2634 33.3742 6.27304C33.3865 6.52119 33.3927 6.78042 33.3927 7.05072C33.3927 7.3473 33.3989 7.64135 33.4112 7.93286C33.4909 7.94889 33.572 7.957 33.6533 7.95707C33.7647 7.96573 33.8766 7.94773 33.9796 7.90455C34.0827 7.86137 34.1739 7.79426 34.2459 7.70877C34.3777 7.534 34.4457 7.31937 34.4386 7.10058V7.10296Z" fill="#F7F8F8"/>
<path d="M37.433 8.31795H36.8822C36.8045 8.03464 36.6929 7.76173 36.5499 7.50513C36.505 7.45119 36.4476 7.40898 36.3828 7.3821C36.3179 7.35522 36.2475 7.34449 36.1776 7.35083C36.1055 7.35083 36.0352 7.35083 35.9711 7.35083C35.9711 7.66957 35.9767 7.99146 35.9877 8.31653H35.4707C35.4868 7.94177 35.4949 7.51937 35.4949 7.04934C35.4949 6.59799 35.4868 6.21294 35.4707 5.8942H35.7926C35.83 5.8942 35.9078 5.8923 36.0262 5.88851C36.1446 5.88471 36.2541 5.88281 36.3547 5.88281C36.9245 5.88281 37.2093 6.07748 37.2093 6.4668C37.212 6.61345 37.1654 6.75677 37.077 6.87382C36.9886 6.99088 36.8635 7.07491 36.7217 7.11249V7.14049C36.8658 7.19107 36.9842 7.2963 37.0512 7.43343C37.2003 7.71838 37.3279 8.01404 37.433 8.31795ZM36.7355 6.60637C36.7355 6.35948 36.5773 6.23604 36.2607 6.23604C36.1571 6.23485 36.0536 6.24361 35.9517 6.26217C35.9653 6.45429 35.9721 6.70481 35.9721 7.01373C36.0401 7.01626 36.0977 7.01753 36.1449 7.01753C36.5386 7.01753 36.7355 6.88079 36.7355 6.60637Z" fill="#F7F8F8"/>
<path d="M40.0999 7.06222C40.1116 7.41155 39.986 7.75157 39.75 8.0094C39.6412 8.13042 39.5076 8.22662 39.3584 8.2915C39.2091 8.35638 39.0476 8.38841 38.8849 8.38542C38.7313 8.38899 38.5786 8.36009 38.4369 8.30061C38.2952 8.24113 38.1677 8.15242 38.0626 8.04026C37.9519 7.9234 37.8655 7.7857 37.8084 7.63516C37.7514 7.48462 37.7248 7.32423 37.7303 7.16334C37.7184 6.81398 37.8441 6.47393 38.0802 6.21616C38.189 6.09511 38.3225 5.99888 38.4718 5.934C38.621 5.86911 38.7825 5.83711 38.9452 5.84013C39.0988 5.83659 39.2513 5.8654 39.393 5.92471C39.5347 5.98401 39.6623 6.07249 39.7675 6.18435C39.8784 6.30131 39.9649 6.43916 40.022 6.58987C40.079 6.74059 40.1055 6.90116 40.0999 7.06222ZM39.5866 7.11586C39.5969 6.88871 39.5262 6.6653 39.3872 6.48536C39.3297 6.40966 39.2554 6.34836 39.1701 6.30634C39.0848 6.26431 38.9909 6.2427 38.8958 6.24322C38.805 6.24418 38.7158 6.26683 38.6355 6.30928C38.5552 6.35173 38.4863 6.41275 38.4344 6.48726C38.3026 6.66536 38.2356 6.8831 38.2444 7.10447C38.2343 7.33138 38.3052 7.55449 38.4443 7.73402C38.5017 7.80968 38.5759 7.87099 38.661 7.91309C38.7461 7.95519 38.8398 7.97695 38.9348 7.97664C39.0257 7.9759 39.1151 7.9533 39.1954 7.91074C39.2757 7.86818 39.3446 7.80692 39.3963 7.73212C39.5272 7.55406 39.5937 7.33672 39.5847 7.11586H39.5866Z" fill="#F7F8F8"/>
<path d="M41.152 8.31685H40.623C40.6392 7.93228 40.6473 7.50989 40.6473 7.04967C40.6473 6.59705 40.6392 6.212 40.623 5.89453H41.1496C41.1334 6.20694 41.1254 6.59199 41.1254 7.04967C41.127 7.51749 41.1358 7.93987 41.152 8.31685Z" fill="#F7F8F8"/>
<path d="M43.8485 7.02272C43.8535 7.36162 43.7329 7.6904 43.51 7.94568C43.3916 8.07868 43.2447 8.18323 43.0803 8.25155C42.9159 8.31986 42.7382 8.35018 42.5604 8.34022C42.3768 8.34022 42.1236 8.33279 41.8008 8.31791C41.8169 7.94315 41.825 7.52075 41.825 7.05072C41.825 6.59937 41.8169 6.21433 41.8008 5.8956H42.1265C42.18 5.8956 42.2591 5.89368 42.3639 5.88989C42.4686 5.88609 42.5375 5.88419 42.5704 5.88419C42.7473 5.8679 42.9256 5.88936 43.0935 5.94715C43.2615 6.00493 43.4152 6.09772 43.5446 6.21938C43.7451 6.43833 43.8539 6.7259 43.8485 7.02272ZM43.3405 7.10296C43.347 6.88354 43.2728 6.66936 43.1321 6.50093C43.051 6.41528 42.9518 6.34884 42.8417 6.30653C42.7316 6.26422 42.6134 6.2471 42.4959 6.25642C42.4223 6.25785 42.3489 6.2634 42.276 6.27304C42.2884 6.52119 42.2945 6.78042 42.2945 7.05072C42.2945 7.3473 42.3007 7.64135 42.3131 7.93286C42.3928 7.94889 42.4739 7.957 42.5552 7.95707C42.6666 7.96573 42.7784 7.94773 42.8815 7.90455C42.9845 7.86137 43.0758 7.79426 43.1477 7.70877C43.2797 7.53406 43.3479 7.31943 43.341 7.10058L43.3405 7.10296Z" fill="#F7F8F8"/>
<path d="M47.4256 8.31685H46.8302C46.795 8.08015 46.7383 7.84719 46.6607 7.62083H45.8023C45.721 7.84642 45.6624 8.07958 45.6276 8.31685H45.0664C45.0664 8.26842 45.2112 7.87151 45.5008 7.1261C45.6742 6.72621 45.8193 6.31468 45.9352 5.89453H46.6384C46.7443 6.30681 46.8757 6.71211 47.032 7.10806C47.1871 7.50282 47.3185 7.90646 47.4256 8.31685ZM46.5662 7.26569C46.4423 6.92527 46.336 6.57869 46.2476 6.22735H46.2182C46.2182 6.27577 46.1085 6.62189 45.8892 7.26569H46.5662Z" fill="#F7F8F8"/>
<path d="M49.5971 6.52908C49.6053 6.65822 49.5789 6.78721 49.5204 6.90266C49.462 7.01812 49.3737 7.11583 49.2648 7.18569C49.0211 7.33352 48.7397 7.40726 48.4548 7.39793C48.3966 7.39793 48.355 7.39665 48.33 7.39412C48.33 7.62739 48.3368 7.93505 48.3504 8.31709H47.8281C47.8443 7.95879 47.8523 7.53641 47.8523 7.04992C47.8523 6.60331 47.8443 6.21826 47.8281 5.89477H48.1519C48.1975 5.89477 48.2855 5.89288 48.4159 5.88908C48.5463 5.88528 48.6591 5.88339 48.7544 5.88339C48.9649 5.87647 49.1728 5.93216 49.3517 6.04339C49.4318 6.09546 49.4968 6.16782 49.5399 6.25313C49.583 6.33844 49.6028 6.43366 49.5971 6.52908ZM49.1171 6.63115C49.1171 6.36591 48.941 6.2333 48.5887 6.2333C48.495 6.23381 48.4015 6.24318 48.3096 6.2613C48.3232 6.49553 48.33 6.76093 48.33 7.05751C48.3616 7.06004 48.3975 7.06131 48.4377 7.06131C48.8907 7.06067 49.1171 6.91698 49.1171 6.63021V6.63115Z" fill="#F7F8F8"/>
<path d="M51.8266 6.52908C51.8348 6.65822 51.8084 6.78721 51.7499 6.90266C51.6915 7.01812 51.6032 7.11583 51.4943 7.18569C51.2504 7.33345 50.9689 7.40719 50.6838 7.39793C50.6255 7.39793 50.5841 7.39792 50.5595 7.39412C50.5595 7.62739 50.5663 7.93505 50.5799 8.31709H50.0576C50.0738 7.95879 50.0818 7.53641 50.0818 7.04992C50.0818 6.60331 50.0738 6.21826 50.0576 5.89477H50.3814C50.4273 5.89477 50.5155 5.89288 50.6459 5.88908C50.7763 5.88528 50.8891 5.88339 50.9844 5.88339C51.1949 5.87647 51.4028 5.93216 51.5817 6.04339C51.6617 6.09552 51.7266 6.16791 51.7696 6.25322C51.8126 6.33853 51.8323 6.4337 51.8266 6.52908ZM51.3467 6.63115C51.3467 6.36591 51.1705 6.2333 50.8182 6.2333C50.7245 6.23381 50.631 6.24318 50.539 6.2613C50.5527 6.49553 50.5595 6.76093 50.5595 7.05751C50.5911 7.06004 50.627 7.06131 50.6672 7.06131C51.1211 7.06067 51.3481 6.91698 51.3481 6.63021L51.3467 6.63115Z" fill="#F7F8F8"/>
<path d="M55.4768 7.06221C55.4886 7.41156 55.363 7.75162 55.1269 8.00939C55.0181 8.13044 54.8846 8.22666 54.7353 8.29154C54.5861 8.35642 54.4246 8.38844 54.2619 8.38541C54.1082 8.38898 53.9556 8.36009 53.8139 8.30061C53.6722 8.24113 53.5446 8.15241 53.4396 8.04025C53.3288 7.92338 53.2425 7.78568 53.1854 7.63514C53.1283 7.4846 53.1018 7.32422 53.1072 7.16333C53.0954 6.81399 53.2211 6.47395 53.4571 6.21615C53.566 6.09507 53.6996 5.99883 53.849 5.93395C53.9983 5.86907 54.1599 5.83707 54.3226 5.84013C54.4762 5.83662 54.6287 5.86544 54.7704 5.92475C54.9121 5.98405 55.0397 6.0725 55.145 6.18435C55.2557 6.30136 55.3421 6.43923 55.3991 6.58994C55.456 6.74065 55.4825 6.90119 55.4768 7.06221ZM54.9631 7.11585C54.9736 6.88875 54.9031 6.66532 54.7642 6.48536C54.7067 6.40969 54.6325 6.34841 54.5473 6.30639C54.4621 6.26436 54.3683 6.24274 54.2733 6.24322C54.1825 6.24417 54.0932 6.26682 54.0129 6.30927C53.9327 6.35172 53.8637 6.41275 53.8118 6.48726C53.68 6.66535 53.613 6.8831 53.6219 7.10446C53.6118 7.33137 53.6826 7.55449 53.8217 7.73401C53.879 7.80964 53.9531 7.87092 54.0382 7.91303C54.1232 7.95513 54.2168 7.97691 54.3117 7.97663C54.4026 7.97594 54.492 7.95336 54.5724 7.91079C54.6527 7.86823 54.7216 7.80694 54.7732 7.73211C54.9048 7.55428 54.9718 7.33689 54.9631 7.11585Z" fill="#F7F8F8"/>
<path d="M57.998 8.31874H57.5384C57.3968 8.0324 57.2252 7.76187 57.0266 7.51163C56.7759 7.19088 56.5704 6.83718 56.416 6.46046H56.389C56.4185 6.705 56.4344 6.951 56.4365 7.19732C56.4365 7.50371 56.4452 7.87705 56.4626 8.31732H56.0049C56.0236 7.93275 56.0329 7.51036 56.0329 7.05014C56.0329 6.59752 56.0236 6.21248 56.0049 5.89501H56.5575C56.6758 6.17612 56.8303 6.44058 57.0171 6.68171C57.2444 6.98793 57.4331 7.32107 57.5788 7.67353H57.6068C57.5787 7.42635 57.5638 7.17785 57.5622 6.92908C57.5622 6.59294 57.5535 6.24808 57.536 5.89453H58.0009C57.9834 6.20219 57.9747 6.58724 57.9747 7.04967C57.9747 7.51211 57.9825 7.93512 57.998 8.31874Z" fill="#F7F8F8"/>
<defs>
<linearGradient id="paint0_linear_11874_18988" x1="12.1801" y1="5.57812" x2="12.1801" y2="25.2021" gradientUnits="userSpaceOnUse">
<stop stop-color="#006AA2"/>
<stop offset="0.345" stop-color="#2F8DA6"/>
<stop offset="0.786" stop-color="#66B6AC"/>
<stop offset="1" stop-color="#7CC6AF"/>
</linearGradient>
<linearGradient id="paint1_linear_11874_18988" x1="7.23242" y1="10.4495" x2="19.7856" y2="10.4495" gradientUnits="userSpaceOnUse">
<stop stop-color="#4AB59D"/>
<stop offset="1" stop-color="#DFE385"/>
</linearGradient>
<linearGradient id="paint2_linear_11874_18988" x1="13.509" y1="15.3906" x2="13.509" y2="25.2736" gradientUnits="userSpaceOnUse">
<stop stop-color="#E4282D"/>
<stop offset="0.316" stop-color="#BA2D4E"/>
<stop offset="0.777" stop-color="#83357B"/>
<stop offset="1" stop-color="#6E388D"/>
</linearGradient>
<linearGradient id="paint3_linear_11874_18988" x1="20.7388" y1="12.7539" x2="20.7388" y2="18.0244" gradientUnits="userSpaceOnUse">
<stop stop-color="#F07165"/>
<stop offset="0.659" stop-color="#FAA460"/>
<stop offset="1" stop-color="#FFBA5E"/>
</linearGradient>
</defs>
</svg>
