<svg width="20" height="20" viewBox="0 0 20 20" fill="none" xmlns="http://www.w3.org/2000/svg">
<g clip-path="url(#clip0_11874_19031)">
<path d="M19.1758 4.61771C18.4633 4.93438 17.7508 5.17188 16.9591 5.25104C17.7508 4.77604 18.3841 3.98438 18.7008 3.11354C17.9091 3.58854 17.1174 3.90521 16.2466 4.06354C15.5341 3.27188 14.5049 2.79688 13.3966 2.79688C11.2591 2.79688 9.51745 4.53854 9.51745 6.67604C9.51745 6.99271 9.51745 7.30938 9.59661 7.54688C6.27161 7.38854 3.42161 5.80521 1.52161 3.43021C1.12578 4.06354 0.967448 4.69687 0.967448 5.40937C0.967448 6.75521 1.67995 7.94271 2.70911 8.65521C2.07578 8.65521 1.44245 8.49688 0.967448 8.18021C0.967448 8.18021 0.967448 8.18021 0.967448 8.25937C0.967448 10.1594 2.31328 11.7427 4.05495 12.0594C3.73828 12.1385 3.42161 12.2177 3.02578 12.2177C2.78828 12.2177 2.55078 12.2177 2.31328 12.1385C2.78828 13.7219 4.21328 14.8302 5.95495 14.8302C4.60911 15.8594 2.94661 16.4927 1.12578 16.4927C0.809115 16.4927 0.492448 16.4927 0.175781 16.4135C1.91745 17.5219 3.97578 18.1552 6.11328 18.1552C13.3174 18.1552 17.1966 12.2177 17.1966 7.07187C17.1966 6.91354 17.1966 6.75521 17.1966 6.59688C17.9883 6.04271 18.6216 5.33021 19.1758 4.61771Z" fill="black"/>
</g>
<defs>
<clipPath id="clip0_11874_19031">
<rect width="19" height="19" fill="white" transform="translate(0.175781 0.976562)"/>
</clipPath>
</defs>
</svg>
