<svg width="31" height="31" viewBox="0 0 31 31" fill="none" xmlns="http://www.w3.org/2000/svg">
<circle opacity="0.5" cx="15.5" cy="15.5" r="15.5" fill="#0A0C10"/>
<g clip-path="url(#clip0_5515_51111)">
<path d="M19.375 9.04167C19.375 8.6991 19.2389 8.37055 18.9967 8.12832C18.7544 7.88609 18.4259 7.75 18.0833 7.75H9.04167C8.6991 7.75 8.37055 7.88609 8.12832 8.12832C7.88609 8.37055 7.75 8.6991 7.75 9.04167V19.375C7.75 19.7176 7.88609 20.0461 8.12832 20.2883C8.37055 20.5306 8.6991 20.6667 9.04167 20.6667H13.5625V13.5625C13.5625 13.2199 13.6986 12.8914 13.9408 12.6492C14.1831 12.4069 14.5116 12.2708 14.8542 12.2708H19.375V9.04167Z" fill="white"/>
<path d="M22.6042 14.207H16.1458C15.7891 14.207 15.5 14.4962 15.5 14.8529V22.6029C15.5 22.9595 15.7891 23.2487 16.1458 23.2487H22.6042C22.9609 23.2487 23.25 22.9595 23.25 22.6029V14.8529C23.25 14.4962 22.9609 14.207 22.6042 14.207Z" fill="white"/>
</g>
<defs>
<clipPath id="clip0_5515_51111">
<rect width="15.5" height="15.5" fill="white" transform="translate(7.75 7.75)"/>
</clipPath>
</defs>
</svg>
