<svg xmlns="http://www.w3.org/2000/svg" width="28" height="28" viewBox="0 0 28 28">
  <g id="Group_9824" data-name="Group 9824" transform="translate(5 4)">
    <rect id="Rectangle_3398" data-name="Rectangle 3398" width="28" height="28" rx="8" transform="translate(-5 -4)" fill="#efefef"/>
    <g id="Group_9473" data-name="Group 9473" transform="translate(2.8 2.8)">
      <path id="Path_14147" data-name="Path 14147" d="M13.624,3.176l-2.4-2.4a.6.6,0,0,0-.848,0l-8.4,8.4a.608.608,0,0,0-.145.235l-1.2,3.6a.6.6,0,0,0,.569.79.608.608,0,0,0,.19-.031l3.6-1.2a.608.608,0,0,0,.235-.145l8.4-8.4A.6.6,0,0,0,13.624,3.176ZM8.9,3.951,9.746,3.1,11.3,4.654l-.848.848Z" fill="#313131"/>
    </g>
  </g>
</svg>
