<svg width="20" height="20" viewBox="0 0 20 20" fill="none" xmlns="http://www.w3.org/2000/svg">
<path d="M18.2808 8.94209L10.5776 1.23973C10.4246 1.08673 10.2168 1 10 1H1.81818C1.36655 1 1 1.36655 1 1.81818V10C1 10.2168 1.08591 10.4246 1.23973 10.5785L5.09091 14.4305V17.3636C5.09091 17.8153 5.45664 18.1818 5.90909 18.1818C6.36155 18.1818 6.72727 17.8153 6.72727 17.3636V8.36364C5.82318 8.36364 5.09091 7.63136 5.09091 6.72727C5.09091 5.82318 5.82318 5.09091 6.72727 5.09091C7.63136 5.09091 8.36364 5.82318 8.36364 6.72727V17.704L8.94127 18.2816C9.90018 19.2405 11.4539 19.2405 12.4128 18.2816L18.2808 12.4136C19.2397 11.4547 19.2397 9.901 18.2808 8.94209Z" fill="white"/>
</svg>
