<svg width="44" height="44" viewBox="0 0 44 44" fill="none" xmlns="http://www.w3.org/2000/svg">
<circle cx="22" cy="22" r="17.5" fill="white" fill-opacity="0.4" stroke="white"/>
<path d="M30.2808 20.9421L22.5776 13.2397C22.4246 13.0867 22.2168 13 22 13H13.8182C13.3665 13 13 13.3665 13 13.8182V22C13 22.2168 13.0859 22.4246 13.2397 22.5785L17.0909 26.4305V29.3636C17.0909 29.8153 17.4566 30.1818 17.9091 30.1818C18.3615 30.1818 18.7273 29.8153 18.7273 29.3636V20.3636C17.8232 20.3636 17.0909 19.6314 17.0909 18.7273C17.0909 17.8232 17.8232 17.0909 18.7273 17.0909C19.6314 17.0909 20.3636 17.8232 20.3636 18.7273V29.704L20.9413 30.2816C21.9002 31.2405 23.4539 31.2405 24.4128 30.2816L30.2808 24.4136C31.2397 23.4547 31.2397 21.901 30.2808 20.9421Z" fill="white"/>
</svg>
