<svg width="24" height="24" viewBox="0 0 24 24" fill="none" xmlns="http://www.w3.org/2000/svg">
<path d="M11.7154 0C9.40799 0 7.15236 0.703788 5.23379 2.02236C3.31521 3.34094 1.81987 5.21509 0.936844 7.4078C0.0538221 9.60051 -0.177217 12.0133 0.272944 14.3411C0.723105 16.6689 1.83425 18.8071 3.46586 20.4853C5.09747 22.1635 7.17627 23.3064 9.43939 23.7694C11.7025 24.2324 14.0483 23.9948 16.1801 23.0866C18.3119 22.1783 20.134 20.6402 21.4159 18.6668C22.6979 16.6935 23.3821 14.3734 23.3821 12C23.3788 8.81846 22.1485 5.76821 19.9613 3.51852C17.7741 1.26883 14.8086 0.00344108 11.7154 0V0ZM7.82655 10C7.82655 8.93913 8.23627 7.92172 8.96558 7.17157C9.69489 6.42143 10.684 6 11.7154 6C12.7468 6 13.736 6.42143 14.4653 7.17157C15.1946 7.92172 15.6043 8.93913 15.6043 10V11C15.6043 12.0609 15.1946 13.0783 14.4653 13.8284C13.736 14.5786 12.7468 15 11.7154 15C10.684 15 9.69489 14.5786 8.96558 13.8284C8.23627 13.0783 7.82655 12.0609 7.82655 11V10ZM11.7154 22C9.44002 22.0011 7.23698 21.1775 5.49322 19.674C5.90173 18.8697 6.51614 18.1955 7.27006 17.7242C8.02398 17.253 8.88877 17.0025 9.77099 17H13.6599C14.5421 17.0025 15.4069 17.253 16.1608 17.7242C16.9147 18.1955 17.5291 18.8697 17.9377 19.674C16.1939 21.1775 13.9909 22.0011 11.7154 22Z" fill="#3C3D69"/>
</svg>
