<svg width="17" height="17" viewBox="0 0 17 17" fill="none" xmlns="http://www.w3.org/2000/svg">
<path d="M16.5 8.5C16.5 12.9183 12.9183 16.5 8.5 16.5C4.08172 16.5 0.5 12.9183 0.5 8.5C0.5 4.08172 4.08172 0.5 8.5 0.5C12.9183 0.5 16.5 4.08172 16.5 8.5Z" fill="#EABB37" stroke="white"/>
<path d="M8.26367 4C5.85086 4 3.88867 5.7715 3.88867 7.95025C3.88867 10.129 5.85086 11.8997 8.26367 11.8997C8.51658 11.8998 8.76912 11.88 9.01909 11.8405L11.0061 12.9543C11.0596 12.9841 11.1195 12.9998 11.1803 13C11.277 13 11.3698 12.9605 11.4381 12.8902C11.5065 12.8198 11.5449 12.7245 11.5449 12.625V10.5333C11.8837 10.198 12.1547 9.79729 12.3424 9.35401C12.5301 8.91074 12.6308 8.43368 12.6387 7.95025C12.6387 5.7715 10.6765 4 8.26367 4Z" fill="white"/>
</svg>
