<svg width="17" height="17" viewBox="0 0 17 17" fill="none" xmlns="http://www.w3.org/2000/svg">
<path d="M16.5 8.5C16.5 12.9183 12.9183 16.5 8.5 16.5C4.08172 16.5 0.5 12.9183 0.5 8.5C0.5 4.08172 4.08172 0.5 8.5 0.5C12.9183 0.5 16.5 4.08172 16.5 8.5Z" fill="#EABB37" stroke="white"/>
<g clip-path="url(#clip0_3202_15726)">
<path d="M11.1572 8.6416C10.9029 9.13637 10.5241 9.55639 10.0582 9.8603C9.59227 10.1642 9.05522 10.3416 8.49993 10.3749C7.94464 10.3416 7.40759 10.1642 6.94166 9.8603C6.47572 9.55639 6.09697 9.13637 5.84268 8.6416C4.95894 9.28427 4.34043 10.2277 4.10343 11.2944C4.0877 11.3671 4.094 11.4429 4.12151 11.5121C4.14903 11.5813 4.19652 11.6407 4.25793 11.6829C5.50625 12.5406 6.9853 12.9998 8.49993 12.9998C10.0146 12.9998 11.4936 12.5406 12.7419 11.6829C12.8033 11.6407 12.8508 11.5813 12.8783 11.5121C12.9059 11.4429 12.9122 11.3671 12.8964 11.2944C12.6594 10.2277 12.0409 9.28427 11.1572 8.6416Z" fill="white"/>
<path d="M8.5 4C7.90326 4 7.33097 4.23705 6.90901 4.65901C6.48705 5.08097 6.25 5.65326 6.25 6.25C6.25 7.45825 7.195 9.25 8.5 9.25C9.805 9.25 10.75 7.45825 10.75 6.25C10.75 5.65326 10.5129 5.08097 10.091 4.65901C9.66903 4.23705 9.09674 4 8.5 4Z" fill="white"/>
</g>
<defs>
<clipPath id="clip0_3202_15726">
<rect width="9" height="9" fill="white" transform="translate(4 4)"/>
</clipPath>
</defs>
</svg>
