<svg width="17" height="17" viewBox="0 0 17 17" fill="none" xmlns="http://www.w3.org/2000/svg">
<path d="M16.5 8.5C16.5 12.9183 12.9183 16.5 8.5 16.5C4.08172 16.5 0.5 12.9183 0.5 8.5C0.5 4.08172 4.08172 0.5 8.5 0.5C12.9183 0.5 16.5 4.08172 16.5 8.5Z" fill="#EABB37" stroke="white"/>
<g clip-path="url(#clip0_3202_15704)">
<path d="M10.525 5.19727C10.1206 5.20182 9.72367 5.30706 9.37012 5.50348C9.01657 5.69989 8.71752 5.9813 8.5 6.32227C8.28248 5.9813 7.98343 5.69989 7.62988 5.50348C7.27633 5.30706 6.87942 5.20182 6.475 5.19727C5.82048 5.20294 5.19435 5.46542 4.73145 5.92819C4.26854 6.39095 4.00587 7.01699 4 7.67152C4 10.1465 8.5 13.8028 8.5 13.8028C8.5 13.8028 13 10.1465 13 7.67152C12.9941 7.01699 12.7315 6.39095 12.2686 5.92819C11.8056 5.46542 11.1795 5.20294 10.525 5.19727Z" fill="white"/>
</g>
<defs>
<clipPath id="clip0_3202_15704">
<rect width="9" height="9" fill="white" transform="translate(4 5)"/>
</clipPath>
</defs>
</svg>
