<svg width="309" height="51" viewBox="0 0 309 51" fill="none" xmlns="http://www.w3.org/2000/svg">
<path d="M0.500015 16C0.500015 24.5283 7.92122 31.5 17.15 31.5C26.3788 31.5 33.8 24.5283 33.8 16C33.8 7.47171 26.3788 0.5 17.15 0.5C7.92122 0.5 0.500015 7.47171 0.500015 16Z" fill="url(#paint0_linear_3438_17189)" stroke="url(#paint1_linear_3438_17189)"/>
<rect width="60.025" height="12.25" rx="6.125" transform="matrix(-1 0 0 1 105.044 8)" fill="url(#paint2_linear_3438_17189)"/>
<rect width="55.7375" height="10.5" rx="5.25" transform="matrix(-1 0 0 1 308.7 8)" fill="url(#paint3_linear_3438_17189)"/>
<rect width="303.341" height="10.5" rx="5.25" transform="matrix(-1 0 0 1 308.7 40)" fill="url(#paint4_linear_3438_17189)"/>
<defs>
<linearGradient id="paint0_linear_3438_17189" x1="1.49942e-05" y1="16.2807" x2="34.3" y2="16.2807" gradientUnits="userSpaceOnUse">
<stop stop-color="#DBDBDB" stop-opacity="0.05"/>
<stop offset="0.5" stop-color="#DBDBDB"/>
</linearGradient>
<linearGradient id="paint1_linear_3438_17189" x1="1.49942e-05" y1="16.2807" x2="34.3" y2="16.2807" gradientUnits="userSpaceOnUse">
<stop stop-color="#DBDBDB" stop-opacity="0.05"/>
<stop offset="0.5" stop-color="#DBDBDB"/>
</linearGradient>
<linearGradient id="paint2_linear_3438_17189" x1="60.025" y1="6.23245" x2="4.63106e-07" y2="6.23246" gradientUnits="userSpaceOnUse">
<stop stop-color="#DBDBDB" stop-opacity="0.05"/>
<stop offset="0.5" stop-color="#DBDBDB"/>
</linearGradient>
<linearGradient id="paint3_linear_3438_17189" x1="55.7375" y1="5.3421" x2="4.30027e-07" y2="5.34211" gradientUnits="userSpaceOnUse">
<stop stop-color="#DBDBDB" stop-opacity="0.05"/>
<stop offset="0.5" stop-color="#DBDBDB"/>
</linearGradient>
<linearGradient id="paint4_linear_3438_17189" x1="303.341" y1="5.3421" x2="2.34039e-06" y2="5.34224" gradientUnits="userSpaceOnUse">
<stop stop-color="#DBDBDB" stop-opacity="0.05"/>
<stop offset="0.5" stop-color="#DBDBDB"/>
</linearGradient>
</defs>
</svg>
