<svg width="309" height="51" viewBox="0 0 309 51" fill="none" xmlns="http://www.w3.org/2000/svg">
<path d="M308.35 16C308.35 24.5283 300.929 31.5 291.7 31.5C282.471 31.5 275.05 24.5283 275.05 16C275.05 7.47171 282.471 0.5 291.7 0.5C300.929 0.5 308.35 7.47171 308.35 16Z" fill="url(#paint0_linear_3438_16264)" stroke="url(#paint1_linear_3438_16264)"/>
<rect x="203.806" y="8" width="60.025" height="12.25" rx="6.125" fill="url(#paint2_linear_3438_16264)"/>
<rect x="0.150024" y="8" width="55.7375" height="10.5" rx="5.25" fill="url(#paint3_linear_3438_16264)"/>
<rect x="0.150024" y="40" width="303.341" height="10.5" rx="5.25" fill="url(#paint4_linear_3438_16264)"/>
<defs>
<linearGradient id="paint0_linear_3438_16264" x1="308.85" y1="16.2807" x2="274.55" y2="16.2807" gradientUnits="userSpaceOnUse">
<stop stop-color="#DBDBDB" stop-opacity="0.05"/>
<stop offset="0.5" stop-color="#DBDBDB"/>
</linearGradient>
<linearGradient id="paint1_linear_3438_16264" x1="308.85" y1="16.2807" x2="274.55" y2="16.2807" gradientUnits="userSpaceOnUse">
<stop stop-color="#DBDBDB" stop-opacity="0.05"/>
<stop offset="0.5" stop-color="#DBDBDB"/>
</linearGradient>
<linearGradient id="paint2_linear_3438_16264" x1="263.831" y1="14.2325" x2="203.806" y2="14.2325" gradientUnits="userSpaceOnUse">
<stop stop-color="#DBDBDB" stop-opacity="0.05"/>
<stop offset="0.5" stop-color="#DBDBDB"/>
</linearGradient>
<linearGradient id="paint3_linear_3438_16264" x1="55.8875" y1="13.3421" x2="0.150025" y2="13.3421" gradientUnits="userSpaceOnUse">
<stop stop-color="#DBDBDB" stop-opacity="0.05"/>
<stop offset="0.5" stop-color="#DBDBDB"/>
</linearGradient>
<linearGradient id="paint4_linear_3438_16264" x1="303.491" y1="45.3421" x2="0.150027" y2="45.3422" gradientUnits="userSpaceOnUse">
<stop stop-color="#DBDBDB" stop-opacity="0.05"/>
<stop offset="0.5" stop-color="#DBDBDB"/>
</linearGradient>
</defs>
</svg>
