<svg width="17" height="17" viewBox="0 0 17 17" fill="none" xmlns="http://www.w3.org/2000/svg">
<path d="M16.5 8.5C16.5 12.9183 12.9183 16.5 8.5 16.5C4.08172 16.5 0.5 12.9183 0.5 8.5C0.5 4.08172 4.08172 0.5 8.5 0.5C12.9183 0.5 16.5 4.08172 16.5 8.5Z" fill="#EABB37" stroke="white"/>
<g clip-path="url(#clip0_3307_14029)">
<path d="M12.0302 6.46975L9.78025 4.21975C9.63963 4.07909 9.4489 4.00004 9.25 4H5.5C5.30109 4 5.11032 4.07902 4.96967 4.21967C4.82902 4.36032 4.75 4.55109 4.75 4.75V12.25C4.75 12.4489 4.82902 12.6397 4.96967 12.7803C5.11032 12.921 5.30109 13 5.5 13H11.5C11.6989 13 11.8897 12.921 12.0303 12.7803C12.171 12.6397 12.25 12.4489 12.25 12.25V7C12.25 6.8011 12.1709 6.61037 12.0302 6.46975ZM6.25 11.5V5.5H8.5V7.75H10.75V11.5H6.25Z" fill="white"/>
</g>
<defs>
<clipPath id="clip0_3307_14029">
<rect width="9" height="9" fill="white" transform="translate(4 4)"/>
</clipPath>
</defs>
</svg>
