<svg width="17" height="17" viewBox="0 0 17 17" fill="none" xmlns="http://www.w3.org/2000/svg">
<path d="M16.5 8.5C16.5 12.9183 12.9183 16.5 8.5 16.5C4.08172 16.5 0.5 12.9183 0.5 8.5C0.5 4.08172 4.08172 0.5 8.5 0.5C12.9183 0.5 16.5 4.08172 16.5 8.5Z" fill="#EABB37" stroke="white"/>
<g clip-path="url(#clip0_3202_15692)">
<path d="M5.875 5.5C5.37772 5.5 4.90081 5.69754 4.54917 6.04917C4.19754 6.40081 4 6.87772 4 7.375C4 7.87228 4.19754 8.34919 4.54917 8.70082C4.90081 9.05246 5.37772 9.25 5.875 9.25C5.917 9.25 5.95675 9.24025 5.998 9.23725C5.79282 9.88799 5.45295 10.4883 5.0005 10.999C4.86763 11.1472 4.79906 11.3421 4.80989 11.5408C4.82072 11.7396 4.91006 11.9259 5.05825 12.0587C5.20644 12.1916 5.40134 12.2602 5.60009 12.2494C5.79883 12.2385 5.98513 12.1492 6.118 12.001C7.16781 10.8339 7.74907 9.31981 7.75 7.75C7.74527 7.70757 7.73673 7.66565 7.7245 7.62475C7.73871 7.54218 7.74723 7.45874 7.75 7.375C7.75 6.87772 7.55246 6.40081 7.20082 6.04917C6.84919 5.69754 6.37228 5.5 5.875 5.5Z" fill="white"/>
<path d="M13 7.375C13 7.00416 12.89 6.64165 12.684 6.33331C12.478 6.02496 12.1851 5.78464 11.8425 5.64273C11.4999 5.50081 11.1229 5.46368 10.7592 5.53603C10.3955 5.60838 10.0614 5.78695 9.79918 6.04918C9.53695 6.3114 9.35838 6.64549 9.28603 7.00921C9.21368 7.37292 9.25081 7.74992 9.39273 8.09253C9.53464 8.43514 9.77496 8.72798 10.0833 8.93401C10.3916 9.14003 10.7542 9.25 11.125 9.25C11.167 9.25 11.2068 9.24025 11.248 9.23725C11.0428 9.88799 10.7029 10.4883 10.2505 10.999C10.1176 11.1472 10.0491 11.3421 10.0599 11.5408C10.0707 11.7396 10.1601 11.9259 10.3083 12.0588C10.4564 12.1916 10.6513 12.2602 10.8501 12.2494C11.0488 12.2385 11.2351 12.1492 11.368 12.001C12.4178 10.8339 12.9991 9.31981 13 7.75C12.9953 7.70757 12.9867 7.66565 12.9745 7.62475C12.9887 7.54218 12.9972 7.45874 13 7.375Z" fill="white"/>
</g>
<defs>
<clipPath id="clip0_3202_15692">
<rect width="9" height="9" fill="white" transform="translate(4 4)"/>
</clipPath>
</defs>
</svg>
