<svg width="17" height="17" viewBox="0 0 17 17" fill="none" xmlns="http://www.w3.org/2000/svg">
<path d="M16.5 8.5C16.5 12.9183 12.9183 16.5 8.5 16.5C4.08172 16.5 0.5 12.9183 0.5 8.5C0.5 4.08172 4.08172 0.5 8.5 0.5C12.9183 0.5 16.5 4.08172 16.5 8.5Z" fill="#EABB37" stroke="white"/>
<g clip-path="url(#clip0_3307_13986)">
<path d="M11.5 4H5.5C5.10218 4 4.72064 4.15804 4.43934 4.43934C4.15804 4.72064 4 5.10218 4 5.5V11.5C4 11.8978 4.15804 12.2794 4.43934 12.5607C4.72064 12.842 5.10218 13 5.5 13H11.5C11.8978 13 12.2794 12.842 12.5607 12.5607C12.842 12.2794 13 11.8978 13 11.5V5.5C13 5.10218 12.842 4.72064 12.5607 4.43934C12.2794 4.15804 11.8978 4 11.5 4ZM7 5.5C7.14834 5.5 7.29334 5.54399 7.41668 5.6264C7.54001 5.70881 7.63614 5.82594 7.69291 5.96299C7.74968 6.10003 7.76453 6.25083 7.73559 6.39632C7.70665 6.5418 7.63522 6.67544 7.53033 6.78033C7.42544 6.88522 7.2918 6.95665 7.14632 6.98559C7.00083 7.01453 6.85003 6.99968 6.71299 6.94291C6.57594 6.88614 6.45881 6.79001 6.3764 6.66668C6.29399 6.54334 6.25 6.39834 6.25 6.25C6.25 6.05109 6.32902 5.86032 6.46967 5.71967C6.61032 5.57902 6.80109 5.5 7 5.5ZM11.2232 10.75H6.0175C5.97898 10.75 5.9414 10.7381 5.90987 10.716C5.87834 10.6938 5.85439 10.6625 5.84128 10.6263C5.82817 10.5901 5.82653 10.5507 5.83659 10.5135C5.84665 10.4764 5.86792 10.4432 5.8975 10.4185L9.802 7.165C9.82477 7.1461 9.85169 7.13285 9.88056 7.12635C9.90943 7.11985 9.93944 7.12027 9.96811 7.12759C9.99679 7.1349 10.0233 7.1489 10.0456 7.16844C10.0678 7.18798 10.0851 7.2125 10.096 7.24L11.3973 10.4927C11.4087 10.5212 11.4129 10.552 11.4096 10.5825C11.4064 10.613 11.3957 10.6422 11.3785 10.6675C11.3613 10.6929 11.3382 10.7137 11.3111 10.7281C11.2841 10.7425 11.2539 10.75 11.2232 10.75Z" fill="white"/>
</g>
<defs>
<clipPath id="clip0_3307_13986">
<rect width="9" height="9" fill="white" transform="translate(4 4)"/>
</clipPath>
</defs>
</svg>
