<svg width="17" height="17" viewBox="0 0 17 17" fill="none" xmlns="http://www.w3.org/2000/svg">
<path d="M16.5 8.5C16.5 12.9183 12.9183 16.5 8.5 16.5C4.08172 16.5 0.5 12.9183 0.5 8.5C0.5 4.08172 4.08172 0.5 8.5 0.5C12.9183 0.5 16.5 4.08172 16.5 8.5Z" fill="#EABB37" stroke="white"/>
<g clip-path="url(#clip0_3307_14018)">
<path d="M11.875 4.75H5.125C4.82663 4.75 4.54048 4.86853 4.3295 5.0795C4.11853 5.29048 4 5.57663 4 5.875V11.125C4 11.4234 4.11853 11.7095 4.3295 11.9205C4.54048 12.1315 4.82663 12.25 5.125 12.25H11.875C12.1734 12.25 12.4595 12.1315 12.6705 11.9205C12.8815 11.7095 13 11.4234 13 11.125V5.875C13 5.57663 12.8815 5.29048 12.6705 5.0795C12.4595 4.86853 12.1734 4.75 11.875 4.75ZM7 10.75V6.25L10.75 8.5L7 10.75Z" fill="white"/>
</g>
<defs>
<clipPath id="clip0_3307_14018">
<rect width="9" height="9" fill="white" transform="translate(4 4)"/>
</clipPath>
</defs>
</svg>
