<svg width="17" height="17" viewBox="0 0 17 17" fill="none" xmlns="http://www.w3.org/2000/svg">
<path d="M16.5 8.5C16.5 12.9183 12.9183 16.5 8.5 16.5C4.08172 16.5 0.5 12.9183 0.5 8.5C0.5 4.08172 4.08172 0.5 8.5 0.5C12.9183 0.5 16.5 4.08172 16.5 8.5Z" fill="#FF3B30" stroke="white"/>
<g clip-path="url(#clip0_3307_14040)">
<path d="M12.0302 4.96959C11.8895 4.82899 11.6988 4.75 11.4999 4.75C11.3011 4.75 11.1103 4.82899 10.9697 4.96959L8.49994 7.43934L6.03019 4.96959C5.88874 4.83297 5.69929 4.75738 5.50264 4.75908C5.30599 4.76079 5.11788 4.83967 4.97882 4.97873C4.83977 5.11778 4.76089 5.30589 4.75918 5.50254C4.75747 5.69919 4.83307 5.88864 4.96969 6.03009L7.43944 8.49984L4.96969 10.9696C4.89806 11.0388 4.84092 11.1215 4.80161 11.213C4.76231 11.3045 4.74162 11.403 4.74075 11.5025C4.73989 11.6021 4.75886 11.7009 4.79657 11.7931C4.83428 11.8852 4.88997 11.969 4.96039 12.0394C5.03081 12.1098 5.11455 12.1655 5.20672 12.2032C5.2989 12.2409 5.39766 12.2599 5.49724 12.259C5.59682 12.2582 5.69524 12.2375 5.78674 12.1982C5.87825 12.1589 5.961 12.1017 6.03019 12.0301L8.49994 9.56034L10.9697 12.0301C11.1111 12.1667 11.3006 12.2423 11.4972 12.2406C11.6939 12.2389 11.882 12.16 12.0211 12.021C12.1601 11.8819 12.239 11.6938 12.2407 11.4971C12.2424 11.3005 12.1668 11.111 12.0302 10.9696L9.56044 8.49984L12.0302 6.03009C12.1708 5.88944 12.2498 5.69871 12.2498 5.49984C12.2498 5.30097 12.1708 5.11024 12.0302 4.96959Z" fill="white"/>
</g>
<defs>
<clipPath id="clip0_3307_14040">
<rect width="9" height="9" fill="white" transform="translate(4 4)"/>
</clipPath>
</defs>
</svg>
