<svg width="17" height="17" viewBox="0 0 17 17" fill="none" xmlns="http://www.w3.org/2000/svg">
<path d="M16.5 8.5C16.5 12.9183 12.9183 16.5 8.5 16.5C4.08172 16.5 0.5 12.9183 0.5 8.5C0.5 4.08172 4.08172 0.5 8.5 0.5C12.9183 0.5 16.5 4.08172 16.5 8.5Z" fill="#FFBA3C" stroke="white"/>
<g clip-path="url(#clip0_3307_14064)">
<path d="M8.5 13C7.60999 13 6.73996 12.7361 5.99994 12.2416C5.25991 11.7471 4.68314 11.0443 4.34254 10.2221C4.00195 9.39981 3.91283 8.49501 4.08647 7.6221C4.2601 6.74918 4.68869 5.94736 5.31802 5.31802C5.94736 4.68869 6.74918 4.2601 7.6221 4.08647C8.49501 3.91283 9.39981 4.00195 10.2221 4.34254C11.0443 4.68314 11.7471 5.25991 12.2416 5.99994C12.7361 6.73996 13 7.60999 13 8.5C12.9988 9.69311 12.5243 10.837 11.6807 11.6807C10.837 12.5243 9.69311 12.9988 8.5 13ZM8.5 5.5C7.90666 5.5 7.32664 5.67595 6.83329 6.00559C6.33994 6.33524 5.95543 6.80377 5.72836 7.35195C5.5013 7.90013 5.44189 8.50333 5.55765 9.08527C5.6734 9.66722 5.95912 10.2018 6.37868 10.6213C6.79824 11.0409 7.33279 11.3266 7.91473 11.4424C8.49667 11.5581 9.09987 11.4987 9.64805 11.2716C10.1962 11.0446 10.6648 10.6601 10.9944 10.1667C11.3241 9.67337 11.5 9.09335 11.5 8.5C11.5 7.70435 11.1839 6.94129 10.6213 6.37868C10.0587 5.81607 9.29565 5.5 8.5 5.5Z" fill="white"/>
<path d="M10.375 8.875H8.5C8.40054 8.875 8.30516 8.83549 8.23484 8.76516C8.16451 8.69484 8.125 8.59946 8.125 8.5V6.625C8.125 6.52554 8.16451 6.43016 8.23484 6.35984C8.30516 6.28951 8.40054 6.25 8.5 6.25C8.59946 6.25 8.69484 6.28951 8.76516 6.35984C8.83549 6.43016 8.875 6.52554 8.875 6.625V8.125H10.375C10.4745 8.125 10.5698 8.16451 10.6402 8.23484C10.7105 8.30516 10.75 8.40054 10.75 8.5C10.75 8.59946 10.7105 8.69484 10.6402 8.76516C10.5698 8.83549 10.4745 8.875 10.375 8.875Z" fill="white"/>
</g>
<defs>
<clipPath id="clip0_3307_14064">
<rect width="9" height="9" fill="white" transform="translate(4 4)"/>
</clipPath>
</defs>
</svg>
