<svg width="17" height="17" viewBox="0 0 17 17" fill="none" xmlns="http://www.w3.org/2000/svg">
<path d="M16.5 8.5C16.5 12.9183 12.9183 16.5 8.5 16.5C4.08172 16.5 0.5 12.9183 0.5 8.5C0.5 4.08172 4.08172 0.5 8.5 0.5C12.9183 0.5 16.5 4.08172 16.5 8.5Z" fill="#56D49B" stroke="white"/>
<g clip-path="url(#clip0_3307_14051)">
<path d="M7.39737 7.35263C7.34587 7.29736 7.28377 7.25304 7.21477 7.22229C7.14578 7.19155 7.07129 7.17502 6.99576 7.17369C6.92024 7.17235 6.84521 7.18625 6.77517 7.21454C6.70513 7.24283 6.64151 7.28494 6.58809 7.33835C6.53468 7.39176 6.49257 7.45539 6.46428 7.52543C6.43599 7.59547 6.42209 7.67049 6.42343 7.74602C6.42476 7.82155 6.44129 7.89603 6.47204 7.96503C6.50278 8.03403 6.54711 8.09613 6.60237 8.14763L8.10237 9.64763C8.15449 9.69997 8.21644 9.7415 8.28465 9.76983C8.35287 9.79817 8.42601 9.81276 8.49987 9.81276C8.57374 9.81276 8.64687 9.79817 8.71509 9.76983C8.7833 9.7415 8.84525 9.69997 8.89737 9.64763L12.6474 5.89763C12.7467 5.791 12.8008 5.64996 12.7983 5.50424C12.7957 5.35851 12.7366 5.21947 12.6336 5.11641C12.5305 5.01335 12.3915 4.95432 12.2458 4.95175C12.1 4.94918 11.959 5.00327 11.8524 5.10263L8.49987 8.45438L7.39737 7.35263Z" fill="white"/>
<path d="M12.3248 8.515C12.2283 8.49528 12.1288 8.49477 12.0321 8.5135C11.9354 8.53223 11.8433 8.56983 11.7611 8.62416C11.6789 8.67848 11.6083 8.74847 11.5531 8.83012C11.498 8.91176 11.4595 9.00347 11.4398 9.1C11.3211 9.68129 11.0326 10.2143 10.611 10.6317C10.1893 11.0491 9.65335 11.332 9.07088 11.4448C8.48841 11.5576 7.88557 11.4952 7.33858 11.2654C6.7916 11.0356 6.32503 10.6488 5.99787 10.1538C5.67071 9.6589 5.49764 9.07807 5.50056 8.48478C5.50348 7.89149 5.68224 7.3124 6.01426 6.8207C6.34627 6.32901 6.81662 5.9468 7.36584 5.7224C7.91506 5.498 8.51848 5.44148 9.09982 5.56C9.29485 5.59978 9.4977 5.56046 9.66374 5.45068C9.82978 5.3409 9.94541 5.16966 9.98519 4.97463C10.025 4.77959 9.98565 4.57674 9.87587 4.4107C9.76609 4.24466 9.59485 4.12903 9.39982 4.08925C9.10352 4.0297 8.80204 3.9998 8.49982 4C7.64839 4.00017 6.81448 4.24189 6.09495 4.69708C5.37541 5.15227 4.79978 5.80225 4.4349 6.57153C4.07002 7.34081 3.93088 8.19782 4.03362 9.04303C4.13636 9.88823 4.47678 10.6869 5.01534 11.3464C5.5539 12.0059 6.26849 12.499 7.07613 12.7685C7.88376 13.0381 8.75129 13.073 9.57796 12.8692C10.4046 12.6653 11.1565 12.2312 11.7463 11.6171C12.3361 11.003 12.7395 10.2342 12.9098 9.4C12.9295 9.30348 12.93 9.20402 12.9113 9.1073C12.8926 9.01058 12.855 8.91849 12.8007 8.83631C12.7463 8.75412 12.6763 8.68345 12.5947 8.62832C12.5131 8.57319 12.4213 8.53468 12.3248 8.515Z" fill="white"/>
</g>
<defs>
<clipPath id="clip0_3307_14051">
<rect width="9" height="9" fill="white" transform="translate(4 4)"/>
</clipPath>
</defs>
</svg>
