<svg width="17" height="17" viewBox="0 0 17 17" fill="none" xmlns="http://www.w3.org/2000/svg">
<path d="M16.5 8.5C16.5 12.9183 12.9183 16.5 8.5 16.5C4.08172 16.5 0.5 12.9183 0.5 8.5C0.5 4.08172 4.08172 0.5 8.5 0.5C12.9183 0.5 16.5 4.08172 16.5 8.5Z" fill="#EABB37" stroke="white"/>
<g clip-path="url(#clip0_3202_15721)">
<path d="M11.8973 5H5.23063C5.05382 5 4.88425 5.07024 4.75923 5.19526C4.6342 5.32029 4.56396 5.48986 4.56396 5.66667V10.3333C4.56396 10.5101 4.6342 10.6797 4.75923 10.8047C4.88425 10.9298 5.05382 11 5.23063 11H6.7413L8.30797 12.88C8.33925 12.9175 8.37839 12.9477 8.42263 12.9684C8.46687 12.9891 8.51512 12.9998 8.56396 12.9998C8.61281 12.9998 8.66106 12.9891 8.7053 12.9684C8.74954 12.9477 8.78868 12.9175 8.81996 12.88L10.3866 11H11.8973C12.0741 11 12.2437 10.9298 12.3687 10.8047C12.4937 10.6797 12.564 10.5101 12.564 10.3333V5.66667C12.564 5.48986 12.4937 5.32029 12.3687 5.19526C12.2437 5.07024 12.0741 5 11.8973 5Z" fill="white"/>
</g>
<defs>
<clipPath id="clip0_3202_15721">
<rect width="8" height="8" fill="white" transform="translate(4.56396 5)"/>
</clipPath>
</defs>
</svg>
