<svg width="17" height="17" viewBox="0 0 17 17" fill="none" xmlns="http://www.w3.org/2000/svg">
<path d="M16.5 8.5C16.5 12.9183 12.9183 16.5 8.5 16.5C4.08172 16.5 0.5 12.9183 0.5 8.5C0.5 4.08172 4.08172 0.5 8.5 0.5C12.9183 0.5 16.5 4.08172 16.5 8.5Z" fill="#EABB37" stroke="white"/>
<path d="M12.6789 7.13032L10.024 6.7261L8.83599 4.20324C8.80158 4.14139 8.75231 4.09008 8.69309 4.05442C8.63388 4.01876 8.56679 4 8.4985 4C8.43021 4 8.36312 4.01876 8.30391 4.05442C8.24469 4.09008 8.19542 4.14139 8.16101 4.20324L6.97604 6.7261L4.3211 7.13032C4.25184 7.14087 4.18678 7.17153 4.13327 7.21884C4.07976 7.26614 4.03995 7.32821 4.01833 7.39801C3.99672 7.46781 3.99416 7.54256 4.01095 7.6138C4.02775 7.68504 4.06322 7.74994 4.11336 7.80114L6.03481 9.76721L5.58032 12.5402C5.56845 12.6125 5.57615 12.6869 5.60253 12.7549C5.62892 12.823 5.67293 12.8819 5.7296 12.925C5.78627 12.9681 5.85333 12.9938 5.92317 12.999C5.99302 13.0042 6.06287 12.9889 6.12481 12.9546L8.5 11.6428L10.8752 12.9522C10.9288 12.9821 10.9885 12.9975 11.0492 12.9971C11.1038 12.9972 11.1578 12.9848 11.2074 12.9607C11.257 12.9367 11.301 12.9016 11.3363 12.8578C11.3716 12.8141 11.3974 12.7627 11.4118 12.7075C11.4262 12.6522 11.4289 12.5943 11.4197 12.5378L10.9652 9.76485L12.8866 7.79878C12.9368 7.74758 12.9723 7.68269 12.989 7.61144C13.0058 7.5402 13.0033 7.46545 12.9817 7.39565C12.96 7.32585 12.9202 7.26378 12.8667 7.21648C12.8132 7.16917 12.7482 7.13851 12.6789 7.12796V7.13032Z" fill="white"/>
</svg>
