<svg width="17" height="17" viewBox="0 0 17 17" fill="none" xmlns="http://www.w3.org/2000/svg">
<path d="M16.5 8.5C16.5 12.9183 12.9183 16.5 8.5 16.5C4.08172 16.5 0.5 12.9183 0.5 8.5C0.5 4.08172 4.08172 0.5 8.5 0.5C12.9183 0.5 16.5 4.08172 16.5 8.5Z" fill="#EABB37" stroke="white"/>
<g clip-path="url(#clip0_3202_15716)">
<path d="M12.1415 5.07768L6.89731 10.3218L4.98648 8.41101C4.82931 8.25921 4.61881 8.17522 4.40031 8.17711C4.18181 8.17901 3.9728 8.26665 3.8183 8.42116C3.66379 8.57567 3.57615 8.78468 3.57425 9.00318C3.57235 9.22167 3.65635 9.43217 3.80815 9.58934L6.30815 12.0893C6.46442 12.2456 6.67634 12.3333 6.89731 12.3333C7.11828 12.3333 7.3302 12.2456 7.48648 12.0893L13.3198 6.25601C13.4716 6.09884 13.5556 5.88834 13.5537 5.66984C13.5518 5.45134 13.4642 5.24233 13.3097 5.08783C13.1552 4.93332 12.9461 4.84568 12.7276 4.84378C12.5091 4.84188 12.2986 4.92588 12.1415 5.07768Z" fill="white"/>
</g>
<defs>
<clipPath id="clip0_3202_15716">
<rect width="10" height="10" fill="white" transform="translate(3.56396 4)"/>
</clipPath>
</defs>
</svg>
