<svg width="32" height="32" viewBox="0 0 32 32" fill="none" xmlns="http://www.w3.org/2000/svg">
<path d="M31.5 16C31.5 24.5604 24.5604 31.5 16 31.5C7.43959 31.5 0.5 24.5604 0.5 16C0.5 7.43959 7.43959 0.5 16 0.5C24.5604 0.5 31.5 7.43959 31.5 16Z" fill="#EFEFEF" stroke="white"/>
<path d="M16 4C13.6266 4 11.3066 4.70379 9.33316 6.02236C7.35977 7.34094 5.8217 9.21509 4.91345 11.4078C4.0052 13.6005 3.76756 16.0133 4.23058 18.3411C4.6936 20.6689 5.83649 22.8071 7.51472 24.4853C9.19295 26.1635 11.3312 27.3064 13.6589 27.7694C15.9867 28.2324 18.3995 27.9948 20.5922 27.0866C22.7849 26.1783 24.6591 24.6402 25.9776 22.6668C27.2962 20.6935 28 18.3734 28 16C27.9966 12.8185 26.7312 9.76821 24.4815 7.51852C22.2318 5.26883 19.1815 4.00344 16 4V4ZM12 14C12 12.9391 12.4214 11.9217 13.1716 11.1716C13.9217 10.4214 14.9391 10 16 10C17.0609 10 18.0783 10.4214 18.8284 11.1716C19.5786 11.9217 20 12.9391 20 14V15C20 16.0609 19.5786 17.0783 18.8284 17.8284C18.0783 18.5786 17.0609 19 16 19C14.9391 19 13.9217 18.5786 13.1716 17.8284C12.4214 17.0783 12 16.0609 12 15V14ZM16 26C13.6596 26.0011 11.3936 25.1775 9.60001 23.674C10.0202 22.8697 10.6522 22.1955 11.4276 21.7242C12.2031 21.253 13.0926 21.0025 14 21H18C18.9074 21.0025 19.7969 21.253 20.5724 21.7242C21.3479 22.1955 21.9798 22.8697 22.4 23.674C20.6064 25.1775 18.3404 26.0011 16 26Z" fill="#3C3D69"/>
</svg>
