<svg xmlns="http://www.w3.org/2000/svg" width="15" height="16" viewBox="0 0 15 16">
    <path data-name="Line 384" transform="translate(.5 5.5)" style="fill:none;stroke:#2b2b2b;stroke-linecap:round;stroke-linejoin:round" d="M0 0h14"/>
    <path data-name="Path 14284" d="M14.5 2.5h-12a1 1 0 0 0-1 1v11a1 1 0 0 0 1 1h12a1 1 0 0 0 1-1v-11a1 1 0 0 0-1-1z" style="fill:none;stroke:#2b2b2b;stroke-linecap:round;stroke-linejoin:round" transform="translate(-1)"/>
    <path data-name="Line 385" transform="translate(3.5 .5)" style="fill:none;stroke:#2b2b2b;stroke-linecap:round;stroke-linejoin:round" d="M0 0v2"/>
    <path data-name="Line 386" transform="translate(11.5 .5)" style="fill:none;stroke:#2b2b2b;stroke-linecap:round;stroke-linejoin:round" d="M0 0v2"/>
    <path data-name="Line 387" transform="translate(7.5 .5)" style="fill:none;stroke:#2b2b2b;stroke-linecap:round;stroke-linejoin:round" d="M0 0v2"/>
    <path data-name="Line 388" transform="translate(5.5 7.5)" style="fill:none;stroke:#2b2b2b;stroke-linecap:round;stroke-linejoin:round" d="M0 0v6"/>
    <path data-name="Line 389" transform="translate(9.5 7.5)" style="fill:none;stroke:#2b2b2b;stroke-linecap:round;stroke-linejoin:round" d="M0 0v6"/>
    <path data-name="Line 390" transform="translate(2.5 10.5)" style="fill:none;stroke:#2b2b2b;stroke-linecap:round;stroke-linejoin:round" d="M0 0h10"/>
</svg>
