<svg width="16" height="16" viewBox="0 0 16 16" fill="none" xmlns="http://www.w3.org/2000/svg">
<g clip-path="url(#clip0_11924_45117)">
<path d="M15 3H13V1C13 0.734784 12.8946 0.48043 12.7071 0.292893C12.5196 0.105357 12.2652 0 12 0C11.7348 0 11.4804 0.105357 11.2929 0.292893C11.1054 0.48043 11 0.734784 11 1V3H5V1C5 0.734784 4.89464 0.48043 4.70711 0.292893C4.51957 0.105357 4.26522 0 4 0C3.73478 0 3.48043 0.105357 3.29289 0.292893C3.10536 0.48043 3 0.734784 3 1V3H1C0.734784 3 0.48043 3.10536 0.292893 3.29289C0.105357 3.48043 0 3.73478 0 4L0 15C0 15.2652 0.105357 15.5196 0.292893 15.7071C0.48043 15.8946 0.734784 16 1 16H4.465L3.232 14.768C3.01228 14.5467 2.83591 14.2862 2.712 14H2V6H14V14H11.535L9.535 16H15C15.2652 16 15.5196 15.8946 15.7071 15.7071C15.8946 15.5196 16 15.2652 16 15V4C16 3.73478 15.8946 3.48043 15.7071 3.29289C15.5196 3.10536 15.2652 3 15 3Z" fill="#1C1C1E"/>
<path d="M11.7064 10.2928C11.5189 10.1053 11.2646 10 10.9994 10C10.7343 10 10.48 10.1053 10.2924 10.2928L6.99943 13.5858L5.70643 12.2928C5.51783 12.1106 5.26523 12.0098 5.00303 12.0121C4.74083 12.0144 4.49002 12.1196 4.30461 12.305C4.1192 12.4904 4.01403 12.7412 4.01176 13.0034C4.00948 13.2656 4.11027 13.5182 4.29243 13.7068L6.29243 15.7068C6.47996 15.8943 6.73427 15.9996 6.99943 15.9996C7.2646 15.9996 7.5189 15.8943 7.70643 15.7068L11.7064 11.7068C11.8939 11.5193 11.9992 11.265 11.9992 10.9998C11.9992 10.7346 11.8939 10.4803 11.7064 10.2928Z" fill="#1C1C1E"/>
</g>
<defs>
<clipPath id="clip0_11924_45117">
<rect width="16" height="16" fill="white"/>
</clipPath>
</defs>
</svg>
