<svg width="19" height="18" viewBox="0 0 19 18" fill="none" xmlns="http://www.w3.org/2000/svg">
<path d="M16.417 7.5H2.91699M16.417 9.375V6.6C16.417 5.33988 16.417 4.70982 16.1718 4.22852C15.956 3.80516 15.6118 3.46095 15.1885 3.24524C14.7072 3 14.0771 3 12.817 3H6.51699C5.25687 3 4.62681 3 4.14551 3.24524C3.72215 3.46095 3.37794 3.80516 3.16223 4.22852C2.91699 4.70982 2.91699 5.33988 2.91699 6.6V12.9C2.91699 14.1601 2.91699 14.7902 3.16223 15.2715C3.37794 15.6948 3.72215 16.039 4.14551 16.2548C4.62681 16.5 5.25687 16.5 6.51699 16.5H9.66699M12.667 1.5V4.5M6.66699 1.5V4.5M11.542 14.25L13.042 15.75L16.417 12.375" stroke="black" stroke-width="2" stroke-linecap="round" stroke-linejoin="round"/>
</svg>
