<svg width="196" height="137" viewBox="0 0 196 137" fill="none" xmlns="http://www.w3.org/2000/svg">
<g opacity="0.7">
<rect x="24.5" width="147" height="68" rx="12" fill="white"/>
<rect x="36.5" y="21" width="63" height="10" rx="5" fill="#D9D9D9"/>
<rect x="50.5" y="40" width="39" height="7" rx="3.5" fill="#D9D9D9"/>
<rect x="91.5" y="40" width="8" height="7" rx="3.5" fill="#D9D9D9"/>
<circle cx="137.5" cy="34" r="22" fill="#D9D9D9"/>
</g>
<g opacity="0.9" filter="url(#filter0_b_13556_4698)">
<rect x="17.1504" y="20" width="161.7" height="74.8" rx="13.2" fill="white"/>
<rect x="17.7004" y="20.55" width="160.6" height="73.7" rx="12.65" stroke="#F5F5F5" stroke-width="1.1"/>
<rect x="30.3496" y="43.1" width="69.3" height="11" rx="5.5" fill="#D9D9D9"/>
<rect x="45.75" y="64" width="42.9" height="7.7" rx="3.85" fill="#D9D9D9"/>
<rect x="90.8496" y="64" width="8.8" height="7.7" rx="3.85" fill="#D9D9D9"/>
<circle cx="141.45" cy="57.4" r="24.2" fill="#D9D9D9"/>
</g>
<rect x="1.64047" y="47.46" width="192.72" height="88.44" rx="15.18" fill="white"/>
<rect x="1.64047" y="47.46" width="192.72" height="88.44" rx="15.18" stroke="#F5F5F5" stroke-width="1.32"/>
<rect x="16.8203" y="74.52" width="83.16" height="13.2" rx="6.6" fill="#D9D9D9"/>
<rect x="35.3008" y="99.6" width="51.48" height="9.24" rx="4.62" fill="#D9D9D9"/>
<rect x="89.4219" y="99.6" width="10.56" height="9.24" rx="4.62" fill="#D9D9D9"/>
<circle cx="150.14" cy="91.68" r="29.04" fill="#D9D9D9"/>
<defs>
<filter id="filter0_b_13556_4698" x="5.15039" y="8" width="185.699" height="98.8" filterUnits="userSpaceOnUse" color-interpolation-filters="sRGB">
<feFlood flood-opacity="0" result="BackgroundImageFix"/>
<feGaussianBlur in="BackgroundImageFix" stdDeviation="6"/>
<feComposite in2="SourceAlpha" operator="in" result="effect1_backgroundBlur_13556_4698"/>
<feBlend mode="normal" in="SourceGraphic" in2="effect1_backgroundBlur_13556_4698" result="shape"/>
</filter>
</defs>
</svg>
