<svg width="17" height="18" viewBox="0 0 17 18" fill="none" xmlns="http://www.w3.org/2000/svg">
<path d="M8.50065 1.20898C6.95961 1.20898 5.45317 1.66596 4.17184 2.52212C2.8905 3.37828 1.89183 4.59517 1.30209 6.01891C0.71236 7.44265 0.558059 9.00929 0.858703 10.5207C1.15935 12.0322 1.90143 13.4205 2.99111 14.5102C4.0808 15.5999 5.46914 16.342 6.98058 16.6426C8.49201 16.9432 10.0587 16.7889 11.4824 16.1992C12.9061 15.6095 14.123 14.6108 14.9792 13.3295C15.8353 12.0481 16.2923 10.5417 16.2923 9.00065C16.2899 6.93492 15.4682 4.9545 14.0075 3.4938C12.5468 2.03311 10.5664 1.21142 8.50065 1.20898ZM11.8348 7.73061L8.29311 11.2723C8.16028 11.4051 7.98015 11.4797 7.79232 11.4797C7.6045 11.4797 7.42436 11.4051 7.29153 11.2723L5.16653 9.14728C5.09888 9.08193 5.04491 9.00377 5.00779 8.91735C4.97067 8.83093 4.95113 8.73799 4.95031 8.64393C4.94949 8.54988 4.96742 8.45661 5.00303 8.36956C5.03865 8.28251 5.09124 8.20342 5.15775 8.13691C5.22426 8.07041 5.30334 8.01781 5.3904 7.98219C5.47745 7.94658 5.57072 7.92866 5.66477 7.92947C5.75882 7.93029 5.85177 7.94983 5.93819 7.98695C6.02461 8.02408 6.10277 8.07804 6.16811 8.14569L7.79232 9.7699L10.8332 6.72903C10.9668 6.6 11.1457 6.5286 11.3314 6.53022C11.5172 6.53183 11.6948 6.60632 11.8262 6.73765C11.9575 6.86899 12.032 7.04664 12.0336 7.23237C12.0352 7.41809 11.9638 7.59702 11.8348 7.73061Z" fill="url(#paint0_linear_11815_42521)"/>
<defs>
<linearGradient id="paint0_linear_11815_42521" x1="-0.906012" y1="19.4337" x2="13.7296" y2="3.20082" gradientUnits="userSpaceOnUse">
<stop stop-color="#1BA0DB"/>
<stop offset="1" stop-color="#57BF99"/>
</linearGradient>
</defs>
</svg>
