<svg width="21" height="22" viewBox="0 0 21 22" fill="none" xmlns="http://www.w3.org/2000/svg">
<g clip-path="url(#clip0_5759_78529)">
<path d="M16.4059 7.57629C16.3253 7.40407 16.1972 7.25841 16.0368 7.15638C15.8763 7.05436 15.6901 7.0002 15.4999 7.00027H11.118L13.3939 2.44706C13.4701 2.29464 13.5061 2.12527 13.4984 1.95505C13.4907 1.78482 13.4397 1.61938 13.3501 1.47442C13.2606 1.32945 13.1355 1.20978 12.9867 1.12675C12.8379 1.04372 12.6703 1.00009 12.4999 1H6.49999C6.32172 0.999993 6.14669 1.04764 5.99302 1.13802C5.83936 1.2284 5.71264 1.35821 5.626 1.51402L0.62604 10.5144C0.541391 10.6667 0.497969 10.8384 0.500073 11.0125C0.502177 11.1867 0.549733 11.3573 0.638035 11.5074C0.726336 11.6576 0.852319 11.7821 1.00351 11.8685C1.1547 11.955 1.32586 12.0005 1.50003 12.0005H6.253L4.52401 19.7838C4.47559 20.0026 4.50204 20.2313 4.59911 20.4332C4.69619 20.6352 4.85826 20.7987 5.05935 20.8975C5.26043 20.9963 5.48888 21.0247 5.70804 20.9782C5.92721 20.9317 6.1244 20.8129 6.268 20.6409L16.2679 8.64034C16.3896 8.49442 16.4673 8.31684 16.4917 8.12839C16.5161 7.93995 16.4864 7.74844 16.4059 7.57629Z" fill="url(#paint0_linear_5759_78529)"/>
<g filter="url(#filter0_d_5759_78529)">
<rect x="8.50146" y="10" width="11" height="11" rx="5.5" fill="black"/>
</g>
<path d="M17.439 14.8125H14.689V12.0625C14.689 11.6823 14.3817 11.375 14.0015 11.375C13.6213 11.375 13.314 11.6823 13.314 12.0625V14.8125H10.564C10.1838 14.8125 9.87646 15.1198 9.87646 15.5C9.87646 15.8802 10.1838 16.1875 10.564 16.1875H13.314V18.9375C13.314 19.3177 13.6213 19.625 14.0015 19.625C14.3817 19.625 14.689 19.3177 14.689 18.9375V16.1875H17.439C17.8192 16.1875 18.1265 15.8802 18.1265 15.5C18.1265 15.1198 17.8192 14.8125 17.439 14.8125Z" fill="white"/>
</g>
<defs>
<filter id="filter0_d_5759_78529" x="0.501465" y="0" width="27" height="27" filterUnits="userSpaceOnUse" color-interpolation-filters="sRGB">
<feFlood flood-opacity="0" result="BackgroundImageFix"/>
<feColorMatrix in="SourceAlpha" type="matrix" values="0 0 0 0 0 0 0 0 0 0 0 0 0 0 0 0 0 0 127 0" result="hardAlpha"/>
<feOffset dy="-2"/>
<feGaussianBlur stdDeviation="4"/>
<feComposite in2="hardAlpha" operator="out"/>
<feColorMatrix type="matrix" values="0 0 0 0 0 0 0 0 0 0 0 0 0 0 0 0 0 0 0.05 0"/>
<feBlend mode="normal" in2="BackgroundImageFix" result="effect1_dropShadow_5759_78529"/>
<feBlend mode="normal" in="SourceGraphic" in2="effect1_dropShadow_5759_78529" result="shape"/>
</filter>
<linearGradient id="paint0_linear_5759_78529" x1="2.54303" y1="4.54316" x2="12.4575" y2="14.4571" gradientUnits="userSpaceOnUse">
<stop stop-color="#FFDD00"/>
<stop offset="1" stop-color="#FEB100"/>
</linearGradient>
<clipPath id="clip0_5759_78529">
<rect width="21" height="21" fill="white" transform="translate(0 0.5)"/>
</clipPath>
</defs>
</svg>
