<svg width="21" height="22" viewBox="0 0 21 22" fill="none" xmlns="http://www.w3.org/2000/svg">
<path d="M18.4059 7.57629C18.3253 7.40407 18.1972 7.25841 18.0368 7.15638C17.8763 7.05436 17.6901 7.0002 17.4999 7.00027H13.118L15.3939 2.44706C15.4701 2.29464 15.5061 2.12527 15.4984 1.95505C15.4907 1.78482 15.4397 1.61938 15.3501 1.47442C15.2606 1.32945 15.1355 1.20978 14.9867 1.12675C14.8379 1.04372 14.6703 1.00009 14.4999 1H8.49999C8.32172 0.999993 8.14669 1.04764 7.99302 1.13802C7.83936 1.2284 7.71264 1.35821 7.626 1.51402L2.62604 10.5144C2.54139 10.6667 2.49797 10.8384 2.50007 11.0125C2.50218 11.1867 2.54973 11.3573 2.63803 11.5074C2.72634 11.6576 2.85232 11.7821 3.00351 11.8685C3.1547 11.955 3.32586 12.0005 3.50003 12.0005H8.253L6.52401 19.7838C6.47559 20.0026 6.50204 20.2313 6.59911 20.4332C6.69619 20.6352 6.85826 20.7987 7.05935 20.8975C7.26043 20.9963 7.48888 21.0247 7.70804 20.9782C7.92721 20.9317 8.1244 20.8129 8.268 20.6409L18.2679 8.64034C18.3896 8.49442 18.4673 8.31684 18.4917 8.12839C18.5161 7.93995 18.4864 7.74844 18.4059 7.57629Z" fill="url(#paint0_linear_6961_69943)"/>
<defs>
<linearGradient id="paint0_linear_6961_69943" x1="4.54303" y1="4.54316" x2="14.4575" y2="14.4571" gradientUnits="userSpaceOnUse">
<stop stop-color="#FFDD00"/>
<stop offset="1" stop-color="#FEB100"/>
</linearGradient>
</defs>
</svg>
