<svg width="85" height="84" viewBox="0 0 85 84" fill="none" xmlns="http://www.w3.org/2000/svg">
<path d="M42.5 24.5H26.75C24.4294 24.5 22.2038 23.5781 20.5628 21.9372C18.9219 20.2962 18 18.0706 18 15.75C18 13.4294 18.9219 11.2038 20.5628 9.56282C22.2038 7.92187 24.4294 7 26.75 7C39 7 42.5 24.5 42.5 24.5ZM42.5 24.5H58.25C60.5706 24.5 62.7962 23.5781 64.4372 21.9372C66.0781 20.2962 67 18.0706 67 15.75C67 13.4294 66.0781 11.2038 64.4372 9.56282C62.7962 7.92187 60.5706 7 58.25 7C46 7 42.5 24.5 42.5 24.5ZM42.5 24.5L42.5 77M7.5 49H77.5M7.5 35.7L7.5 65.8C7.5 69.7204 7.5 71.6805 8.26295 73.1779C8.93407 74.4951 10.0049 75.5659 11.3221 76.237C12.8194 77 14.7796 77 18.7 77L66.3 77C70.2204 77 72.1806 77 73.6779 76.237C74.9951 75.5659 76.0659 74.4951 76.7371 73.1779C77.5 71.6805 77.5 69.7204 77.5 65.8V35.7C77.5 31.7796 77.5 29.8195 76.7371 28.3221C76.0659 27.0049 74.9951 25.9341 73.6779 25.263C72.1806 24.5 70.2204 24.5 66.3 24.5L18.7 24.5C14.7796 24.5 12.8195 24.5 11.3221 25.263C10.0049 25.9341 8.93407 27.0049 8.26296 28.3221C7.5 29.8194 7.5 31.7796 7.5 35.7Z" stroke="#BDB39A" stroke-width="6" stroke-linecap="round" stroke-linejoin="round"/>
</svg>
