<svg width="24" height="24" viewBox="0 0 24 24" fill="none" xmlns="http://www.w3.org/2000/svg">
<path d="M21 8V13.0655C21 14.917 20.1452 16.6649 18.6836 17.8016L15.6836 20.1349C13.517 21.8201 10.483 21.8201 8.31636 20.1349L5.31636 17.8016C3.85484 16.6649 3 14.917 3 13.0655V8C3 4.68629 5.68629 2 9 2H15C18.3137 2 21 4.68629 21 8Z" stroke="#FFBA3C" stroke-width="1.5" stroke-linejoin="round"/>
<path d="M12 9V14" stroke="#FFBA3C" stroke-width="1.5" stroke-linecap="round"/>
<path d="M12.75 6.5C12.75 6.91421 12.4142 7.25 12 7.25C11.5858 7.25 11.25 6.91421 11.25 6.5C11.25 6.08579 11.5858 5.75 12 5.75C12.4142 5.75 12.75 6.08579 12.75 6.5Z" fill="#FFBA3C"/>
</svg>
