<svg width="25" height="25" viewBox="0 0 25 25" fill="none" xmlns="http://www.w3.org/2000/svg">
<g clip-path="url(#clip0_5730_59328)">
<path d="M22.3971 10.0577C22.2291 9.71568 21.8811 9.49969 21.5001 9.49969H13.6171L14.4931 1.60968C14.5431 1.16368 14.2891 0.739685 13.8731 0.571685C13.4561 0.401685 12.9791 0.533685 12.7061 0.888685L2.70606 13.8887C2.47406 14.1907 2.43306 14.5987 2.60206 14.9407C2.77106 15.2837 3.11906 15.4997 3.50006 15.4997H11.3831L10.5071 23.3897C10.4571 23.8357 10.7111 24.2597 11.1271 24.4277C11.2481 24.4767 11.3751 24.4997 11.5001 24.4997C11.8041 24.4997 12.1001 24.3607 12.2931 24.1097L22.2931 11.1097C22.5251 10.8077 22.5651 10.3997 22.3971 10.0577Z" fill="white"/>
</g>
<defs>
<clipPath id="clip0_5730_59328">
<rect width="24" height="24" fill="white" transform="translate(0.5 0.5)"/>
</clipPath>
</defs>
</svg>
