<svg width="47" height="48" viewBox="0 0 47 48" fill="none" xmlns="http://www.w3.org/2000/svg">
<rect y="0.5" width="47" height="47" rx="23.5" fill="#8C8DB5"/>
<path d="M23.8772 41.7544C33.7505 41.7544 41.7544 33.7505 41.7544 23.8772C41.7544 14.0039 33.7505 6 23.8772 6C14.0039 6 6 14.0039 6 23.8772C6 33.7505 14.0039 41.7544 23.8772 41.7544Z" fill="#464774"/>
<path fill-rule="evenodd" clip-rule="evenodd" d="M16.5396 18.9357C16.0555 18.9357 15.5912 19.128 15.2489 19.4704C14.9066 19.8127 14.7143 20.277 14.7143 20.7611V25.6877C14.5458 26.9338 14.702 28.2023 15.1678 29.3704C15.4039 29.7461 15.7216 30.0638 16.0974 30.3C17.2654 30.7657 18.534 30.922 19.7801 30.7535H27.3751C28.6212 30.922 29.8898 30.7657 31.0578 30.3C31.4335 30.0638 31.7513 29.7461 31.9874 29.3704C32.4532 28.2023 32.6094 26.9338 32.4409 25.6877V20.7611C32.4409 20.277 32.2486 19.8127 31.9063 19.4704C31.564 19.128 31.0997 18.9357 30.6156 18.9357C30.2765 18.9359 29.9441 18.8416 29.6556 18.6635C29.367 18.4853 29.1339 18.2303 28.9822 17.9271L28.173 16.3106C28.1059 16.1668 28.0312 16.0267 27.949 15.8909C27.7907 15.6483 27.5807 15.4436 27.3342 15.2913C27.0876 15.1391 26.8105 15.0431 26.5226 15.0103C26.3649 14.9974 26.2066 14.993 26.0484 14.9971H21.1124C20.9542 14.993 20.7959 14.9974 20.6382 15.0103C20.3503 15.0431 20.0732 15.1391 19.8267 15.2913C19.5801 15.4436 19.3702 15.6483 19.2118 15.8909C19.1297 16.0267 19.0549 16.1668 18.9879 16.3106L18.1787 17.9271C18.0265 18.2312 17.7925 18.4867 17.5029 18.665C17.2133 18.8432 16.8797 18.9369 16.5396 18.9357ZM25.546 23.8604C25.546 24.2502 25.4304 24.6312 25.2138 24.9552C24.9972 25.2793 24.6894 25.5318 24.3293 25.6809C23.9691 25.8299 23.5729 25.8688 23.1906 25.7927C22.8084 25.7165 22.4573 25.5287 22.1819 25.2529C21.9064 24.9772 21.7189 24.626 21.6431 24.2436C21.5673 23.8613 21.6066 23.4651 21.756 23.1051C21.9054 22.7451 22.1582 22.4376 22.4825 22.2213C22.8067 22.005 23.1878 21.8898 23.5776 21.8902C24.0998 21.8907 24.6005 22.0985 24.9696 22.4679C25.3386 22.8373 25.546 23.3382 25.546 23.8604ZM27.5162 23.8604C27.5159 24.6393 27.2845 25.4006 26.8515 26.0481C26.4185 26.6955 25.8033 27.2001 25.0835 27.4979C24.3638 27.7957 23.5719 27.8734 22.8081 27.7213C22.0442 27.5691 21.3425 27.1938 20.7919 26.6429C20.2413 26.092 19.8663 25.3902 19.7145 24.6262C19.5627 23.8623 19.6408 23.0704 19.939 22.3508C20.2371 21.6313 20.7419 21.0162 21.3896 20.5836C22.0373 20.1509 22.7987 19.9199 23.5776 19.9199C24.6215 19.9214 25.6222 20.3373 26.3596 21.0762C27.0971 21.815 27.5111 22.8165 27.5106 23.8604H27.5162Z" fill="white"/>
</svg>
