<svg width="17" height="16" viewBox="0 0 17 16" fill="none" xmlns="http://www.w3.org/2000/svg">
<g clip-path="url(#clip0_13437_16145)">
<path d="M7.54573 2.30223C7.69939 1.99094 7.77622 1.83529 7.88052 1.78556C7.97126 1.7423 8.07669 1.7423 8.16744 1.78556C8.27174 1.83529 8.34856 1.99094 8.50222 2.30223L9.96001 5.25554C10.0054 5.34744 10.0281 5.39339 10.0612 5.42907C10.0905 5.46066 10.1257 5.48625 10.1648 5.50443C10.209 5.52497 10.2597 5.53238 10.3611 5.5472L13.622 6.02382C13.9653 6.07401 14.137 6.09911 14.2165 6.18298C14.2856 6.25595 14.3181 6.35622 14.305 6.45587C14.2898 6.57041 14.1655 6.69147 13.9169 6.93361L11.5583 9.23097C11.4847 9.30258 11.448 9.33839 11.4243 9.381C11.4032 9.41872 11.3898 9.46016 11.3846 9.50302C11.3787 9.55143 11.3874 9.60202 11.4047 9.70318L11.9613 12.9481C12.02 13.2903 12.0493 13.4615 11.9942 13.563C11.9462 13.6514 11.8609 13.7133 11.762 13.7317C11.6484 13.7527 11.4947 13.6719 11.1874 13.5103L8.27222 11.9772C8.18139 11.9295 8.13597 11.9056 8.08813 11.8962C8.04576 11.8879 8.00219 11.8879 7.95983 11.8962C7.91198 11.9056 7.86657 11.9295 7.77574 11.9772L4.86058 13.5103C4.55324 13.6719 4.39957 13.7527 4.28595 13.7317C4.18709 13.7133 4.10178 13.6514 4.05379 13.563C3.99863 13.4615 4.02798 13.2903 4.08668 12.9481L4.64322 9.70318C4.66057 9.60202 4.66925 9.55143 4.66338 9.50302C4.65818 9.46016 4.64471 9.41872 4.6237 9.381C4.59998 9.33839 4.56322 9.30258 4.48969 9.23097L2.13101 6.93361C1.88241 6.69147 1.75811 6.57041 1.74298 6.45587C1.72982 6.35622 1.76234 6.25595 1.83147 6.18298C1.91092 6.09911 2.08261 6.07401 2.426 6.02382L5.68684 5.5472C5.78825 5.53238 5.83895 5.52497 5.88311 5.50443C5.92221 5.48625 5.95741 5.46066 5.98676 5.42907C6.0199 5.39339 6.04259 5.34744 6.08795 5.25554L7.54573 2.30223Z" stroke="#C4C4C4" stroke-width="1.5" stroke-linecap="round" stroke-linejoin="round"/>
</g>
<defs>
<clipPath id="clip0_13437_16145">
<rect width="16" height="16" fill="white" transform="translate(0.0239258)"/>
</clipPath>
</defs>
</svg>
