<svg width="17" height="16" viewBox="0 0 17 16" fill="none" xmlns="http://www.w3.org/2000/svg">
<path d="M5.512 3.00001C5.512 2.07954 6.2582 1.33334 7.17867 1.33334C8.09914 1.33334 8.84534 2.07954 8.84534 3.00001V4.00001H9.512C10.4439 4.00001 10.9098 4.00001 11.2774 4.15225C11.7674 4.35524 12.1568 4.74459 12.3598 5.23464C12.4605 5.47783 12.4946 5.7641 12.5061 6.19991C12.5137 6.48739 12.5175 6.63114 12.573 6.73522C12.6227 6.82839 12.6963 6.90011 12.7908 6.9473C12.8963 7.00001 13.0349 7.00001 13.312 7.00001H13.512C14.4325 7.00001 15.1787 7.7462 15.1787 8.66668C15.1787 9.58715 14.4325 10.3333 13.512 10.3333H12.512V11.4667C12.512 12.5868 12.512 13.1468 12.294 13.5747C12.1023 13.951 11.7963 14.2569 11.42 14.4487C10.9922 14.6667 10.4321 14.6667 9.312 14.6667H8.84534V13.5C8.84534 12.6716 8.17376 12 7.34534 12C6.51691 12 5.84534 12.6716 5.84534 13.5V14.6667H5.04534C3.92523 14.6667 3.36518 14.6667 2.93736 14.4487C2.56103 14.2569 2.25507 13.951 2.06332 13.5747C1.84534 13.1468 1.84534 12.5868 1.84534 11.4667V10.3333H2.84534C3.76581 10.3333 4.512 9.58715 4.512 8.66668C4.512 7.7462 3.76581 7.00001 2.84534 7.00001H2.64534C2.36266 7.00001 2.22133 7.00001 2.11294 6.9437C2.01925 6.89502 1.94002 6.81367 1.89384 6.71872C1.84041 6.60888 1.84402 6.47256 1.85123 6.19991C1.86276 5.7641 1.89685 5.47783 1.99758 5.23464C2.20057 4.74459 2.58991 4.35524 3.07997 4.15225C3.44751 4.00001 3.91345 4.00001 4.84534 4.00001H5.512V3.00001Z" stroke="#464774" stroke-opacity="0.4" stroke-width="1.5" stroke-linecap="round" stroke-linejoin="round"/>
</svg>
