<svg width="18" height="15" viewBox="0 0 18 15" fill="none" xmlns="http://www.w3.org/2000/svg">
<path d="M12 1.60082C13.1113 2.15308 13.875 3.29985 13.875 4.625C13.875 5.95015 13.1113 7.09692 12 7.64918M13.5 11.5748C14.6336 12.0878 15.6544 12.9237 16.5 14M1.5 14C2.95987 12.1419 4.94188 11 7.125 11C9.30812 11 11.2901 12.1419 12.75 14M10.5 4.625C10.5 6.48896 8.98896 8 7.125 8C5.26104 8 3.75 6.48896 3.75 4.625C3.75 2.76104 5.26104 1.25 7.125 1.25C8.98896 1.25 10.5 2.76104 10.5 4.625Z" stroke="#EC6F80" stroke-width="2" stroke-linecap="round" stroke-linejoin="round"/>
</svg>
