<svg width="17" height="16" viewBox="0 0 17 16" fill="none" xmlns="http://www.w3.org/2000/svg">
<path d="M7.54573 2.30217C7.69939 1.99088 7.77622 1.83523 7.88052 1.7855C7.97126 1.74224 8.07669 1.74224 8.16744 1.7855C8.27174 1.83523 8.34856 1.99088 8.50222 2.30217L9.96001 5.25548C10.0054 5.34738 10.0281 5.39333 10.0612 5.42901C10.0905 5.4606 10.1257 5.48619 10.1648 5.50437C10.209 5.52491 10.2597 5.53232 10.3611 5.54714L13.622 6.02376C13.9653 6.07395 14.137 6.09905 14.2165 6.18292C14.2856 6.25589 14.3181 6.35616 14.305 6.45581C14.2898 6.57034 14.1655 6.69141 13.9169 6.93355L11.5583 9.23091C11.4847 9.30252 11.448 9.33833 11.4243 9.38093C11.4032 9.41866 11.3898 9.4601 11.3846 9.50296C11.3787 9.55137 11.3874 9.60196 11.4047 9.70312L11.9613 12.948C12.02 13.2903 12.0493 13.4614 11.9942 13.563C11.9462 13.6513 11.8609 13.7133 11.762 13.7316C11.6484 13.7527 11.4947 13.6719 11.1874 13.5102L8.27222 11.9772C8.18139 11.9294 8.13597 11.9055 8.08813 11.8961C8.04576 11.8878 8.00219 11.8878 7.95983 11.8961C7.91198 11.9055 7.86657 11.9294 7.77574 11.9772L4.86058 13.5102C4.55324 13.6719 4.39957 13.7527 4.28595 13.7316C4.18709 13.7133 4.10178 13.6513 4.05379 13.563C3.99863 13.4614 4.02798 13.2903 4.08668 12.948L4.64322 9.70312C4.66057 9.60196 4.66925 9.55137 4.66338 9.50296C4.65818 9.4601 4.64471 9.41866 4.6237 9.38093C4.59998 9.33833 4.56322 9.30252 4.48969 9.2309L2.13101 6.93355C1.88241 6.69141 1.75811 6.57034 1.74298 6.45581C1.72982 6.35616 1.76234 6.25589 1.83147 6.18292C1.91092 6.09905 2.08261 6.07395 2.426 6.02376L5.68684 5.54714C5.78825 5.53232 5.83895 5.52491 5.88311 5.50437C5.92221 5.48619 5.95741 5.4606 5.98676 5.42901C6.0199 5.39333 6.04259 5.34738 6.08795 5.25548L7.54573 2.30217Z" fill="#FFBA3C"/>
</svg>
