<svg width="15" height="16" viewBox="0 0 15 16" fill="none" xmlns="http://www.w3.org/2000/svg">
<path d="M9.67342 12.7276C8.14442 14.2566 5.64442 14.4046 4.05042 12.9436C2.30842 11.3466 2.15242 8.84557 3.80042 7.30057L8.30042 2.80057C9.30042 1.80057 10.9004 1.80057 11.8004 2.80057C12.8004 3.80057 12.8004 5.40057 11.8004 6.30057L8.30042 9.90057C7.90042 10.3006 7.30042 10.3006 6.90042 9.90057C6.50042 9.50057 6.50042 8.90057 6.90042 8.50057L8.97542 6.42557C9.37142 6.02957 9.36042 5.38457 8.95042 5.00157L8.89842 4.95357C8.50842 4.58957 7.90042 4.60057 7.52342 4.97757L5.49942 7.00157C4.29942 8.20157 4.29942 10.1016 5.49942 11.2016C6.69942 12.3016 8.59942 12.4016 9.69942 11.2016L13.1544 7.74657C14.9784 5.92257 15.0654 2.84757 13.1804 1.08657C11.3784 -0.597425 8.66042 -0.559425 6.89942 1.20157L2.40042 5.90057C0.100424 8.20057 0.200424 11.9006 2.50042 14.2006C3.70042 15.4006 5.20042 16.0006 6.80042 16.0006C8.40042 16.0006 9.90042 15.4006 11.0004 14.2006L14.6004 10.6006C14.9874 10.2136 14.9874 9.58757 14.6004 9.20057C14.2134 8.81357 13.5874 8.81357 13.2004 9.20057L9.67342 12.7276Z" fill="#1C1C1E"/>
</svg>
