<svg xmlns="http://www.w3.org/2000/svg" width="45" height="45" viewBox="0 0 45 45">
  <g id="Group_10065" data-name="Group 10065" transform="translate(-877 -247)">
    <g id="NoPath_-_Copy_16_" data-name="NoPath - Copy (16)" transform="translate(877 247)" fill="#efefef" stroke="#fff" stroke-width="1">
      <circle cx="22.5" cy="22.5" r="22.5" stroke="none"/>
      <circle cx="22.5" cy="22.5" r="22" fill="none"/>
    </g>
    <g id="video-playlist" transform="translate(891.5 261.499)">
      <path id="Path_14252" data-name="Path 14252" d="M15,4H1A.945.945,0,0,0,0,5V15a.945.945,0,0,0,1,1H15a.945.945,0,0,0,1-1V5a.945.945,0,0,0-1-1ZM6,13V7l5,3Z" fill="#b7b7b7"/>
      <path id="Path_14253" data-name="Path 14253" d="M3,0H13a1,1,0,0,1,1,1V2H2V1A1,1,0,0,1,3,0Z" fill="#b7b7b7"/>
    </g>
  </g>
</svg>
