<svg xmlns="http://www.w3.org/2000/svg" width="82" height="82" viewBox="0 0 82 82">
    <g data-name="Group 9024">
        <g data-name="Ellipse 226" style="fill:#bcb39a;stroke:#fff;stroke-width:2px">
            <circle cx="41" cy="41" r="41" style="stroke:none"/>
            <circle cx="41" cy="41" r="40" style="fill:none"/>
        </g>
        <g data-name="Iconly/Bulk/Edit Square">
            <path data-name="Iconly/Bulk/Edit Square (Background)" transform="translate(21.999 22.001)" style="fill:none" d="M0 0h38v38H0z"/>
            <g data-name="Edit Square">
                <path data-name="Fill 1" d="M8.578 32.14a8.59 8.59 0 0 1-6.328-2.233 8.6 8.6 0 0 1-2.233-6.328v-15a8.594 8.594 0 0 1 2.231-6.33A8.6 8.6 0 0 1 8.578.017h15A8.583 8.583 0 0 1 29.9 2.248a8.637 8.637 0 0 1 2.239 6.33v15a8.6 8.6 0 0 1-2.233 6.328 8.6 8.6 0 0 1-6.33 2.233z" style="opacity:.4;fill:#fff" transform="translate(24.921 24.922)"/>
                <path data-name="Fill 4" d="M6.434 16.855a2.893 2.893 0 0 1-2.019.831H.736a.745.745 0 0 1-.532-.22.734.734 0 0 1-.2-.533l.094-3.718a2.828 2.828 0 0 1 .83-1.945l7.463-7.482a.34.34 0 0 1 .47 0L11.48 6.4a.989.989 0 0 0 .689.282A1.033 1.033 0 0 0 13.2 5.644a1.064 1.064 0 0 0-.282-.722 383.708 383.708 0 0 0-2.541-2.546.417.417 0 0 1 0-.58L11.428.729a2.472 2.472 0 0 1 3.507 0l2.035 2.04a2.494 2.494 0 0 1 0 3.5z" transform="translate(32.156 32.157)" style="fill:#fff"/>
            </g>
        </g>
    </g>
</svg>
