<svg xmlns="http://www.w3.org/2000/svg" width="72" height="72" viewBox="0 0 72 72">
    <g data-name="Group 9023">
        <g data-name="Ellipse 226" style="fill:#464774;stroke:#fff;stroke-width:2px">
            <circle cx="36" cy="36" r="36" style="stroke:none"/>
            <circle cx="36" cy="36" r="35" style="fill:none"/>
        </g>
        <g data-name="Iconly/Bulk/Activity">
            <path data-name="Iconly/Bulk/Activity (Background)" transform="translate(20.001 20)" style="fill:none" d="M0 0h33v33H0z"/>
            <g transform="translate(22.002 22)">
                <path d="M17.586 25H7.425a7.52 7.52 0 0 1-5.467-1.96A7.5 7.5 0 0 1 0 17.585V7.439a7.539 7.539 0 0 1 1.958-5.467A7.5 7.5 0 0 1 7.425 0H18.49a5.429 5.429 0 0 0-.1 1.025 5.6 5.6 0 0 0 5.596 5.585A5.752 5.752 0 0 0 25 6.513v11.072a7.507 7.507 0 0 1-1.957 5.455A7.5 7.5 0 0 1 17.586 25zM10.031 9.832a1.044 1.044 0 0 0-.137.009 1.029 1.029 0 0 0-.685.4l-4.1 5.292a1 1 0 0 0-.22.635 1.027 1.027 0 0 0 1.894.6l3.431-4.44 3.81 2.989a1.037 1.037 0 0 0 .645.227 1.029 1.029 0 0 0 .822-.411l3.969-5.121v-.025a1.041 1.041 0 0 0-.2-1.451 1.014 1.014 0 0 0-1.441.207l-3.346 4.3-3.81-3a1.03 1.03 0 0 0-.632-.211z" transform="translate(0 4)" style="fill:#fff"/>
                <circle cx="4" cy="4" r="4" transform="translate(21)" style="opacity:.4;fill:#fff"/>
            </g>
        </g>
    </g>
</svg>
