<svg id="Group_9533" data-name="Group 9533" xmlns="http://www.w3.org/2000/svg" width="15.676" height="14.994" viewBox="0 0 15.676 14.994">
  <path id="Path_14159" data-name="Path 14159" d="M19.674,13.439c-.663,3.019-3.867,5.317-7.71,5.317a9.38,9.38,0,0,1-1.625-.144,6.839,6.839,0,0,0,5.467,1.423l2.822,1.412a.341.341,0,0,0,.493-.305v-2.6a3.862,3.862,0,0,0,1.363-2.853A3.66,3.66,0,0,0,19.674,13.439Z" transform="translate(-4.807 -6.487)" fill="#bcb39a"/>
  <path id="Path_14160" data-name="Path 14160" d="M7.756,1.2C3.81,1.2.6,3.8.6,6.993a5.044,5.044,0,0,0,1.363,3.394v3.421a.341.341,0,0,0,.493.305l3.18-1.59a8.71,8.71,0,0,0,2.121.262c3.946,0,7.156-2.6,7.156-5.793S11.7,1.2,7.756,1.2Z" transform="translate(-0.6 -1.2)" fill="#bcb39a"/>
</svg>
