<svg xmlns="http://www.w3.org/2000/svg" width="12" height="15.414" viewBox="0 0 12 15.414">
  <g id="voice-record" transform="translate(-2 -0.293)">
    <path id="Path_14157" data-name="Path 14157" d="M7,11.646a1,1,0,0,1-.75-1.662,3,3,0,0,0,0-3.967,1,1,0,0,1,1.5-1.324,5,5,0,0,1,0,6.614A1,1,0,0,1,7,11.646Z" fill="#464774"/>
    <path id="Path_14158" data-name="Path 14158" d="M10,15.707a1,1,0,0,1-.667-1.745,8,8,0,0,0,0-11.924A1,1,0,1,1,10.668.548a10,10,0,0,1,0,14.9A1,1,0,0,1,10,15.707Z" fill="#464774"/>
    <circle id="Ellipse_7990" data-name="Ellipse 7990" cx="1" cy="1" r="1" transform="translate(2 7)" fill="#464774"/>
  </g>
</svg>
