<svg xmlns="http://www.w3.org/2000/svg" width="17.615" height="17.694" viewBox="0 0 17.615 17.694">
    <g id="_8" data-name="8" transform="translate(-2 -1.978)">
        <path id="Path_648" data-name="Path 648" d="M21.444,17.737a.631.631,0,0,1-.391-1.124L24.891,13.6,21.1,10.6a.632.632,0,1,1,.783-.991l4.42,3.486a.631.631,0,0,1,0,1l-4.477,3.492A.631.631,0,0,1,21.444,17.737Z" transform="translate(-6.935 -2.763)" fill="#464774" />
        <path id="Path_649" data-name="Path 649" d="M7.26,19.077a.631.631,0,0,1-.385-.133L2.227,15.313a.637.637,0,0,1,.019-.991l4.61-3.631a.634.634,0,1,1,.783,1L3.654,14.846,7.67,18a.631.631,0,0,1-.391,1.124Z" transform="translate(0 -3.161)" fill="#464774" />
        <path id="Path_650" data-name="Path 650" d="M12.69,19.672h-.139a.631.631,0,0,1-.48-.758l3.738-16.43a.627.627,0,1,1,1.225.265L13.283,19.18a.631.631,0,0,1-.594.493Z" transform="translate(-3.706)" fill="#464774" />
    </g>
</svg>
