<svg id="printer" xmlns="http://www.w3.org/2000/svg" width="17.615" height="17.615" viewBox="0 0 17.615 17.615">
    <g id="Group_1019" data-name="Group 1019">
        <g id="Group_1018" data-name="Group 1018">
            <path id="Path_644" data-name="Path 644" d="M16.583,6.282V4.645A1.55,1.55,0,0,0,15.035,3.1h-.818L11.272.152l0,0A.517.517,0,0,0,10.914,0h-7.3A.516.516,0,0,0,3.1.516V3.1H2.58A1.55,1.55,0,0,0,1.032,4.645V6.282A1.551,1.551,0,0,0,0,7.741V14a1.55,1.55,0,0,0,1.548,1.548H3.1V17.1a.516.516,0,0,0,.516.516H14a.516.516,0,0,0,.516-.516V15.551h1.548A1.55,1.55,0,0,0,17.615,14V7.741A1.551,1.551,0,0,0,16.583,6.282ZM14.519,4.129h.516a.517.517,0,0,1,.516.516V6.193H14.519Zm-3.1-2.367L12.757,3.1H11.422Zm-7.294-.73H10.39v2.58a.516.516,0,0,0,.516.516h2.58V6.193H4.129ZM2.064,4.645a.517.517,0,0,1,.516-.516H3.1V6.193H2.064ZM13.487,16.583H4.129V11.422h9.358Zm3.1-2.58a.517.517,0,0,1-.516.516H14.519v-3.1h.516a.516.516,0,0,0,0-1.032H2.58a.516.516,0,1,0,0,1.032H3.1v3.1H1.548A.517.517,0,0,1,1.032,14V7.741a.517.517,0,0,1,.516-.516H16.067a.517.517,0,0,1,.516.516Z" fill="#464774" />
        </g>
    </g>
    <g id="Group_1021" data-name="Group 1021" transform="translate(5.161 12.455)">
        <g id="Group_1020" data-name="Group 1020">
            <path id="Path_645" data-name="Path 645" d="M156.778,362h-6.262a.516.516,0,1,0,0,1.032h6.262a.516.516,0,0,0,0-1.032Z" transform="translate(-150 -362)" fill="#464774" />
        </g>
    </g>
    <g id="Group_1023" data-name="Group 1023" transform="translate(5.161 14.519)">
        <g id="Group_1022" data-name="Group 1022">
            <path id="Path_646" data-name="Path 646" d="M156.778,422h-6.262a.516.516,0,1,0,0,1.032h6.262a.516.516,0,0,0,0-1.032Z" transform="translate(-150 -422)" fill="#464774" />
        </g>
    </g>
    <g id="Group_1025" data-name="Group 1025" transform="translate(2.064 8.257)">
        <g id="Group_1024" data-name="Group 1024">
            <path id="Path_647" data-name="Path 647" d="M61.548,240H60.516a.516.516,0,1,0,0,1.032h1.032a.516.516,0,1,0,0-1.032Z" transform="translate(-60 -240)" fill="#464774" />
        </g>
    </g>
</svg>
