<svg id="vintage-tv" xmlns="http://www.w3.org/2000/svg" width="16" height="16" viewBox="0 0 16 16">
  <path id="Path_14156" data-name="Path 14156" d="M15,4H9.4l2.3-2.3a.967.967,0,0,0,0-1.4.967.967,0,0,0-1.4,0L7.2,3.4l-1.3-2a1.212,1.212,0,0,0-1.5-.2,1.058,1.058,0,0,0-.2,1.4L5.2,4H1A.945.945,0,0,0,0,5V15a.945.945,0,0,0,1,1H15a.945.945,0,0,0,1-1V5A.945.945,0,0,0,15,4ZM14,14H2V6H14Z" fill="#464774"/>
  <rect id="Rectangle_2524" data-name="Rectangle 2524" width="10" height="6" transform="translate(3 7)" fill="#464774"/>
</svg>
